<svg id="Layer_1" data-name="Layer 1" xmlns="http://www.w3.org/2000/svg" viewBox="0 0 5840 4160"><defs><style>.cls-1{fill:#f79421;}.cls-2{fill:#f15b27;}.cls-3{fill:#f9f292;}.cls-4{fill:#eeda80;}.cls-5{fill:#f8e875;}.cls-6{fill:#f9f291;}.cls-7{fill:#f9e875;}.cls-8{fill:#fffded;opacity:0.66;}.cls-12,.cls-8{isolation:isolate;}.cls-9{fill:#ec2227;}.cls-10{fill:#f9f07a;}.cls-11{fill:#e8d874;}.cls-12{fill:#fbfae0;opacity:0.78;}.cls-13{fill:#010101;}.cls-14{fill:#f3f3f3;}</style></defs><g id="chick_3" data-name="chick 3"><g id="left_leg" data-name="left leg"><g id="left_leg-2" data-name="left leg"><path id="left_leg-3" data-name="left leg" class="cls-1" d="M2555.7,2769.88s-19.59,549-186.32,843.23c0,0-411.82,274.52-617.74,284.36,0,0,98,49,205.92,29.43,0,0,303.94-68.61,372.55-107.87,0,0,225.5,107.87,362.8,88.28,0,0-147-117.63-186.32-186.32l-39.18-49s490.27-960.86,441.25-1215.79H2520.6Z"/><path class="cls-2" d="M2271.42,3818.94c-68.6,39.18-372.55,107.88-372.55,107.88q-12,2.11-23.76,3.25a306.69,306.69,0,0,0,82.61-3.25s243.09-54.94,343.46-94.54C2282.43,3824.28,2271.42,3818.94,2271.42,3818.94Z"/><path class="cls-2" d="M2506.68,3720.9l-39.18-49S2957.77,2711,2908.75,2456.1h-58.86c49,254.93-441.25,1215.79-441.25,1215.79l39.18,49c39.18,68.61,186.32,186.33,186.32,186.33-2.75.41-5.5.66-8.33.91,23.67,2,46.43,2,67.19-.91C2693,3907.23,2545.94,3789.51,2506.68,3720.9Z"/></g></g><g id="right_leg" data-name="right leg"><g id="right_leg-2" data-name="right leg"><g id="right_leg-3" data-name="right leg"><polygon class="cls-1" points="3310.73 3760.17 2977.36 3907.23 3238.29 3907.23 3379.34 3774.76 3310.73 3760.17"/><path class="cls-1" d="M3663.7,2652.17s-254.93,1029.47-343.13,1127.59c0,0-421.58,264.77-519.7,294.11,0,0,104.29,19.59,140.39,0,0,0,271.44-78.44,389.06-166.64,0,0,303.95,0,441.25,58.85,0,0-254.93-186.32-323.54-205.91,0,0,451-784.38,411.82-911.84l98-323.54-254.93-98Z"/></g><path class="cls-2" d="M3291.06,3907.23C3173.43,3995.51,2902,4073.87,2902,4073.87c-8.42,4.59-20.6,7-34.35,8.09,27.84,1.58,57.44.67,73.53-8.09,0,0,270.1-78.11,388.23-166.06C3305.48,3907.23,3291.06,3907.23,3291.06,3907.23Z"/><path class="cls-2" d="M3859.77,2848.24l98-323.53-254.93-98-2.42,14.17,218.16,83.95-98,323.54c39.18,127.46-411.82,911.84-411.82,911.84,53.85,15.42,222.5,133.47,292.52,183.57,26,6.33,50,13.67,70.28,22.34,0,0-254.93-186.32-323.54-205.91C3448,3760.17,3899,2975.71,3859.77,2848.24Z"/></g></g><g id="right_thigh" data-name="right thigh"><g id="right_thigh-2" data-name="right thigh"><path id="right_thigh-3" data-name="right thigh" class="cls-3" d="M4134.29,2240.35s39.18,274.52-284.36,676.5c0,0-19.59,19.59-58.85,19.59,0,0-696.18-186.32-774.63-402s627.49-607.9,627.49-607.9Z"/><path class="cls-4" d="M4134.29,2240.35,3644,1926.56s-45.1,25.1-111.21,65.94L3950.89,2195s71.36,268-202.5,705.35c0,0-7.5,9.25-23.51,17,41.1,12.34,66.19,19,66.19,19,39.19,0,58.86-19.59,58.86-19.59C4173.56,2515,4134.29,2240.35,4134.29,2240.35Z"/></g></g><g id="left_thigh" data-name="left thigh"><g id="left_thigh-2" data-name="left thigh"><path id="left_thigh-3" data-name="left thigh" class="cls-3" d="M2223.66,2431.59s136.05,299,341.87,446.08c0,0,47.61,19.59,112,0s407.65-176.48,368.38-245.09c0,0,313.79-362.8-254.93-519.69s-617.73-49-627.48,68.6S2195.48,2377.65,2223.66,2431.59Z"/><path class="cls-4" d="M2791,2112.89c-419.66-115.8-556.3-87.37-603.06-17.26,89.45,7,211.24,30.18,377.55,76,568.72,156.89,254.93,519.69,254.93,519.69,26.51,46.44-121.79,133.14-240.59,190.58,18.76,4.41,54.36,8.92,97.71-4.26,64.44-19.59,407.65-176.48,368.38-245.09C3046,2632.58,3359.75,2269.78,2791,2112.89Z"/></g></g><g id="body"><g id="body-2" data-name="body"><g id="body-3" data-name="body"><path class="cls-3" d="M4595.13,1161.86S4752,2162,3644,2642.42c0,0-1735.48,519.69-2000.17-1107.92,0,0-253.84-1049.14,985.88-980.45,0,0,1171.19-68.61,1788.92,509.86C4418.65,1063.82,4575.54,1112.84,4595.13,1161.86Z"/></g><g id="body-4" data-name="body"><path class="cls-5" d="M4595.13,1161.86S4752,2162,3644,2642.42c0,0-1735.48,519.69-2000.17-1107.92,0,0-253.84-1049.14,985.88-980.45,0,0,1171.19-68.61,1788.92,509.86C4418.65,1063.82,4575.54,1112.84,4595.13,1161.86Z"/></g><g id="body-5" data-name="body"><path class="cls-3" d="M4595.13,1005.05S4752,2005.18,3644,2485.61c0,0-1735.48,519.69-2000.17-1107.92,0,0-253.84-1049.14,985.88-980.45,0,0,1171.19-68.61,1788.92,509.86C4418.65,906.93,4575.54,956,4595.13,1005.05Z"/></g></g></g><g id="head"><g id="head-2" data-name="head"><path id="head-3" data-name="head" class="cls-6" d="M1212.44,1269.73c-22.67-21.17-264.76-617.73,245.09-1039.3,0,0,804-441.25,1117.17,151.64,0,0,212.17,358.21-70.11,887.66,0,0-213.58,295-713.68,274.94C1790.91,1544.67,1516.39,1554,1212.44,1269.73Z"/><path class="cls-7" d="M2504.59,1181.45S2291,1476.39,1790.91,1456.39c0,0-274.52,9.42-578.47-274.94-10.42-9.75-67.69-142.3-76-323.54-10.67,225.17,63.94,400.49,76,411.82,304,284.36,578.47,274.94,578.47,274.94,500,20,713.68-274.94,713.68-274.94,124.38-233.42,152.73-433.49,145.56-584.3C2643.65,822.82,2606.13,991.05,2504.59,1181.45Z"/><path class="cls-8" d="M1316.82,736.12c-39.19-3.84-65.11-37.93-58-76.2,56.86-305.61,357.55-529.53,670.42-499.1,39.18,3.83,65.11,37.93,58,76.19s-44.6,66.19-83.78,62.36c-234.59-22.84-460.17,145.05-502.85,374.3C1393.51,712,1356,740,1316.82,736.12Z"/></g></g><g id="beak"><g id="beak-2" data-name="beak"><path id="beak-3" data-name="beak" class="cls-2" d="M1388.93,1093.17s127.46,78.44,98,215.74L888.91,1348.1Z"/><path class="cls-9" d="M1487,1289.33,933,1325.67l-44.19,22.51L1486.88,1309a193.91,193.91,0,0,0,4.09-50.85A183.52,183.52,0,0,1,1487,1289.33Z"/></g></g><g id="wing"><g id="wing-2" data-name="wing"><path id="wing-3" data-name="wing" class="cls-10" d="M3443.37,1014.8s-568.72,215.75-500,656.92c0,0,127.47,607.89,882.42,402,0,0,333.37-107.87,254.93-480.43,0,0-117.63-294.11-460.84-39.18,0,0,176.48-166.64,421.57-107.87S3678.7,887.34,3443.37,1014.8Z"/><path class="cls-11" d="M3825.76,2044.27c-755,205.91-882.42-402-882.42-402a467.84,467.84,0,0,1-5.42-57.69,475.55,475.55,0,0,0,5.42,87.12s127.47,607.89,882.42,402c0,0,276-89.36,266.6-386.23C4083.44,1960.83,3825.76,2044.27,3825.76,2044.27Z"/><path class="cls-11" d="M4041.51,1416.79c-245.09-58.86-421.58,107.87-421.58,107.87,148.56-110.37,254.76-117.79,327.54-90.78a449.63,449.63,0,0,1,94,12.34c49.76,11.92,64.35-4,54.1-35.93C4088.94,1421,4071.77,1424,4041.51,1416.79Z"/><path class="cls-12" d="M3158.34,1745.25a49.05,49.05,0,0,1-66.69-19.09c-105-189.08-36.6-428.33,152.47-533.29a49.05,49.05,0,1,1,47.61,85.78c-141.81,78.7-193.08,258.18-114.38,400A48.91,48.91,0,0,1,3158.34,1745.25Z"/></g></g><g id="left_eye" data-name="left eye"><g id="left_eye-2" data-name="left eye"><path class="cls-13" d="M1286,862.83s-61.19,77.11-114.71,58.11c0,0-12.75-18.85,6.84-48.27C1178.18,872.59,1177.68,838.41,1286,862.83Z"/><ellipse class="cls-14" cx="1243.62" cy="867.07" rx="12.67" ry="16.34" transform="translate(260.23 2020.92) rotate(-84.45)"/></g></g><g id="right_eye" data-name="right eye"><g id="right_eye-2" data-name="right eye"><path class="cls-13" d="M1688,764.71s24.51-73.53,132.38-93.12,127.47,19.59,127.47,19.59,14.67-4.92-29.43,39.19C1918.38,730.45,1854.68,804,1688,764.71Z"/><ellipse class="cls-14" cx="1886.19" cy="686.93" rx="22.01" ry="11.01" transform="translate(-121 714.95) rotate(-20.81)"/></g></g></g></svg>