<svg id="Layer_1" data-name="Layer 1" xmlns="http://www.w3.org/2000/svg" viewBox="0 0 3618.9 3907.68"><defs><style>.cls-1{fill:#f79421;}.cls-2{fill:#f15b27;}.cls-3{fill:#f4f2e9;}.cls-4{fill:#b9e1d9;}.cls-5{fill:#f9f292;}.cls-6,.cls-8{fill:#fff;isolation:isolate;}.cls-6{opacity:0.66;}.cls-7{fill:#ec2227;}.cls-8{opacity:0.78;}.cls-9{fill:#010101;}.cls-10{fill:#f3f3f3;}</style></defs><g id="chick_4" data-name="chick 4"><g id="left_leg" data-name="left leg"><g id="left_leg-2" data-name="left leg"><path id="left_leg-3" data-name="left leg" class="cls-1" d="M2524.07,2754.58s-19.1,535-181.53,821.67c0,0-401.28,267.54-601.92,277.06,0,0,95.52,47.8,200.64,28.69,0,0,296.17-66.9,363.07-105.11,0,0,219.75,105.11,353.48,86,0,0-143.32-114.64-181.53-181.54l-38.21-47.8s477.7-936.3,430-1184.73H2489.91Z" transform="translate(-899.84 -126.16)"/><path class="cls-2" d="M2247,3776.89c-66.9,38.21-363.07,105.11-363.07,105.11-7.8,1.44-15.54,2.4-23.21,3.15a301.5,301.5,0,0,0,80.53-3.15s236.86-53.48,334.72-92.17C2257.76,3782,2247,3776.89,2247,3776.89Z" transform="translate(-899.84 -126.16)"/><path class="cls-2" d="M2476.28,3681.36l-38.21-47.8s477.7-936.29,430-1184.73h-57.32c47.8,248.44-430,1184.73-430,1184.73l38.21,47.8c38.21,66.91,181.53,181.54,181.53,181.54-2.67.41-5.41.61-8.14.89,23.07,2,45.26,2,65.46-.89C2657.81,3862.9,2514.49,3748.2,2476.28,3681.36Z" transform="translate(-899.84 -126.16)"/></g></g><g id="right_leg" data-name="right leg"><g id="right_leg-2" data-name="right leg"><g id="right_leg-3" data-name="right leg"><polygon class="cls-1" points="2359.89 3593.41 2035.03 3736.74 2289.36 3736.74 2426.79 3607.66 2359.89 3593.41"/><path class="cls-1" d="M3603.7,2640s-248.44,1003.2-334.38,1098.73c0,0-410.87,258-506.4,286.65,0,0,101.63,19.1,136.82,0,0,0,264.47-76.42,379.1-162.43,0,0,296.16,0,430,57.31,0,0-248.44-181.53-315.27-200.64,0,0,439.49-764.35,401.28-888.57l95.53-315.27-248.44-95.53Z" transform="translate(-899.84 -126.16)"/></g><path class="cls-2" d="M3240.63,3862.9c-114.64,86-379.1,162.43-379.1,162.43-8.22,4.45-20.06,6.84-33.41,7.87,27.18,1.58,56,.69,71.62-7.87,0,0,263.23-76.08,378.28-161.82C3254.66,3862.9,3240.63,3862.9,3240.63,3862.9Z" transform="translate(-899.84 -126.16)"/><path class="cls-2" d="M3794.82,2831l95.53-315.27-248.44-95.53-2.4,13.77,212.62,81.76L3756.61,2831c38.21,124.22-401.28,888.57-401.28,888.57,52.52,15,216.8,130,285.07,178.87,25.34,6.16,48.69,13.35,68.48,21.77,0,0-248.44-181.53-315.27-200.64C3393.54,3719.57,3833,2955.22,3794.82,2831Z" transform="translate(-899.84 -126.16)"/></g></g><g id="right_thigh" data-name="right thigh"><g id="right_thigh-2" data-name="right thigh"><path id="right_thigh-3" data-name="right thigh" class="cls-3" d="M4062.29,2238.6s38.21,267.54-277.06,659.24c0,0-19.1,19.1-57.32,19.1,0,0-678.34-181.53-754.76-391.76s611.51-592.4,611.51-592.4Z" transform="translate(-899.84 -126.16)"/><path class="cls-4" d="M4062.29,2238.6l-477.7-305.75s-44,24.44-108.4,64.3l407.44,197.28s69.51,261.18-197.35,687.32c0,0-7.33,9-22.87,16.57,40.06,12,64.5,18.56,64.5,18.56,38.21,0,57.32-19.11,57.32-19.11C4100.5,2506.14,4062.29,2238.6,4062.29,2238.6Z" transform="translate(-899.84 -126.16)"/></g></g><g id="left_thigh" data-name="left thigh"><g id="left_thigh-2" data-name="left thigh"><path id="left_thigh-3" data-name="left thigh" class="cls-3" d="M2200.45,2424.93s132.57,291.44,333.21,434.7c0,0,46.36,19.1,109.15,0s397.24-172,359-238.85c0,0,305.76-353.49-248.44-506.4s-601.92-47.79-611.5,66.91S2173,2372.41,2200.45,2424.93Z" transform="translate(-899.84 -126.16)"/><path class="cls-4" d="M2753.41,2114.45c-408.95-112.85-542.14-85.12-587.68-16.78,87.17,6.78,205.84,29.38,367.93,74.1,554.12,152.84,248.44,506.39,248.44,506.39,25.81,45.2-118.67,129.77-234.4,185.64,18.28,4.25,52.93,8.7,95.18-4.17,62.8-19.11,397.24-172,359-238.85C3001.78,2620.77,3307.53,2267.29,2753.41,2114.45Z" transform="translate(-899.84 -126.16)"/></g></g><g id="body"><g id="body-2" data-name="body"><g id="body-3" data-name="body"><path class="cls-5" d="M4511.3,1187.67s152.85,974.51-926.78,1442.69c0,0-1691.13,506.4-1949.09-1079.62,0,0-247.34-1022.31,960.82-955.4,0,0,1141.18-66.91,1743.1,496.8C4339.36,1092.14,4492.2,1139.94,4511.3,1187.67Z" transform="translate(-899.84 -126.16)"/></g><g id="body-4" data-name="body"><path class="cls-4" d="M4511.3,1187.67s152.85,974.51-926.78,1442.69c0,0-1691.13,506.4-1949.09-1079.62,0,0-247.34-1022.31,960.82-955.4,0,0,1141.18-66.91,1743.1,496.8C4339.36,1092.14,4492.2,1139.94,4511.3,1187.67Z" transform="translate(-899.84 -126.16)"/></g><g id="body-5" data-name="body"><path class="cls-3" d="M4511.3,1034.83s152.85,974.51-926.78,1442.69c0,0-1691.13,506.39-1949.09-1079.62,0,0-247.34-1022.31,960.82-955.41,0,0,1141.18-66.9,1743.1,496.81C4339.36,939.3,4492.2,987,4511.3,1034.83Z" transform="translate(-899.84 -126.16)"/></g></g></g><g id="head"><g id="head-2" data-name="head"><path id="head-3" data-name="head" class="cls-3" d="M1215.12,1292.78c-22-20.61-258-601.92,238.85-1012.79,0,0,783.45-430,1088.59,147.78,0,0,206.74,349.1-68.27,865,0,0-208.17,287.47-695.46,268C1778.83,1560.67,1511.29,1569.84,1215.12,1292.78Z" transform="translate(-899.84 -126.16)"/><path class="cls-4" d="M2474.29,1206.77s-208.17,287.47-695.46,268c0,0-267.55,9.17-563.71-268-10.21-9.51-65.95-138.66-74.1-315.34-10.41,219.41,62.32,390.26,74.1,401.28,296.16,277.07,563.71,268,563.71,268,487.29,19.51,695.46-268,695.46-268,121.21-227.41,148.87-422.37,141.82-569.39C2609.74,857.26,2573.17,1021.27,2474.29,1206.77Z" transform="translate(-899.84 -126.16)"/><path class="cls-6" d="M1316.81,772.83c-38.15-3.7-63.48-37-56.57-74.23,55.4-297.81,348.49-516,653.28-486.33,38.15,3.7,63.48,37,56.57,74.23s-43.49,64.51-81.7,60.81c-228.64-22.26-448.46,141.4-490,364.78C1391.52,749.27,1355,776.53,1316.81,772.83Z" transform="translate(-899.84 -126.16)"/></g></g><g id="beak"><g id="beak-2" data-name="beak"><path id="beak-3" data-name="beak" class="cls-2" d="M1387.13,1120.77s124.22,76.42,95.53,210.22L899.84,1369.2Z" transform="translate(-899.84 -126.16)"/><path class="cls-7" d="M1482.66,1311.89l-539.81,35.4-43,21.91L1482.66,1331a184.4,184.4,0,0,0,4-49.58A197.17,197.17,0,0,1,1482.66,1311.89Z" transform="translate(-899.84 -126.16)"/></g></g><g id="wing"><g id="wing-2" data-name="wing"><path id="wing-3" data-name="wing" class="cls-3" d="M3389,1044.34s-554.12,210.23-487.29,640.14c0,0,124.22,592.4,859.88,391.76,0,0,324.86-105.12,248.44-468.19,0,0-114.63-286.65-449.08-38.21,0,0,172-162.43,410.87-105.11S3618.35,920.13,3389,1044.34Z" transform="translate(-899.84 -126.16)"/><path class="cls-4" d="M3761.68,2047.55C3026,2248.19,2901.8,1655.78,2901.8,1655.78a463,463,0,0,1-5.28-56.22,464.23,464.23,0,0,0,5.28,84.92s124.22,592.4,859.88,391.76c0,0,269-87.11,259.8-376.36C4012.78,1966.26,3761.68,2047.55,3761.68,2047.55Z" transform="translate(-899.84 -126.16)"/><path class="cls-4" d="M3971.83,1436C3733,1378.72,3561,1541.15,3561,1541.15c144.76-107.51,248.3-114.77,319.17-88.47a437.5,437.5,0,0,1,91.63,12c48.48,11.64,62.72-3.9,52.65-35.06C4018.13,1440.15,4001.35,1443.16,3971.83,1436Z" transform="translate(-899.84 -126.16)"/><path class="cls-8" d="M3111.27,1756.17a47.78,47.78,0,0,1-65-18.55c-102.31-184.28-35.61-417.38,148.59-519.68a47.79,47.79,0,1,1,46.43,83.54c-138.19,76.69-188.18,251.59-111.48,389.71A47.76,47.76,0,0,1,3111.27,1756.17Z" transform="translate(-899.84 -126.16)"/></g></g><g id="left_eye" data-name="left eye"><g id="left_eye-2" data-name="left eye"><path class="cls-9" d="M1286.75,896.23S1227.1,971.35,1175,952.79c0,0-12.46-18.35,6.64-47C1181.7,905.81,1181.29,872.53,1286.75,896.23Z" transform="translate(-899.84 -126.16)"/><ellipse class="cls-10" cx="1245.62" cy="900.45" rx="12.33" ry="15.89" transform="translate(-671.02 1926.89) rotate(-84.45)"/></g></g><g id="right_eye" data-name="right eye"><g id="right_eye-2" data-name="right eye"><path class="cls-9" d="M1678.51,800.7s23.9-71.63,129-90.73,124.22,19.1,124.22,19.1,14.31-4.79-28.69,38.21C1903.05,767.28,1840.94,838.91,1678.51,800.7Z" transform="translate(-899.84 -126.16)"/><ellipse class="cls-10" cx="1871.46" cy="724.72" rx="21.43" ry="10.75" transform="translate(-1035.23 586.02) rotate(-20.81)"/></g></g></g></svg>