<svg id="Layer_1" data-name="Layer 1" xmlns="http://www.w3.org/2000/svg" viewBox="0 0 3989.59 3771.63"><defs><style>.cls-1{fill:#f89521;}.cls-2{fill:#f15a29;}.cls-3{fill:#f7f5ec;}.cls-4{fill:#a3d9d4;}.cls-5{fill:#bae2d9;}.cls-6{fill:#e91d44;}.cls-7{fill:#9f2b42;}.cls-8{fill:#666767;}.cls-9{fill:#fafaf3;}.cls-10{fill:none;stroke-width:1.5px;}.cls-10,.cls-11,.cls-12{stroke:#58595b;stroke-miterlimit:10;}.cls-12{fill:#fff;}</style></defs><g id="_5_month_1" data-name="5 month 1"><g id="left_leg" data-name="left leg"><path class="cls-1" d="M2010,3748.45s176-33.74,206.64-74.39-6.45,56.89-6.45,56.89Z" transform="translate(-944.39 -191.76)"/><path class="cls-1" d="M2577.87,2811.9,2197.25,3712s-333.59,113.13-385.49,133.7c0,0,275.78-41.14,413.89-78.7,0,0,155.06,37.64,185.11,21.4,0,0-136-53.86-141.42-78.23l562.48-1114.73-240.29,56.83Z" transform="translate(-944.39 -191.76)"/><path class="cls-2" d="M2010,3748.45s176-33.74,206.64-74.39-6.45,56.89-6.45,56.89Z" transform="translate(-944.39 -191.76)"/><path class="cls-2" d="M2577.87,2811.9,2197.25,3712s-333.59,113.13-385.49,133.7c0,0,275.78-41.14,413.89-78.7,0,0,155.06,37.64,185.11,21.4,0,0-136-53.86-141.42-78.23l562.48-1114.73-240.29,56.83Z" transform="translate(-944.39 -191.76)"/><path class="cls-1" d="M1982.35,3754.32s176-33.74,206.64-74.39-6.44,56.89-6.44,56.89Z" transform="translate(-944.39 -191.76)"/><path class="cls-1" d="M2550.19,2817.79l-380.62,900.1S1836,3831,1784.08,3851.59c0,0,275.78-41.14,413.89-78.7,0,0,155.06,37.64,185.11,21.4,0,0-136-53.86-141.42-78.23l562.48-1114.73-240.29,56.83Z" transform="translate(-944.39 -191.76)"/></g><g id="right_leg" data-name="right leg"><path class="cls-2" d="M2795.67,3850s175.95-33.74,206.64-74.39-6.45,56.89-6.45,56.89Z" transform="translate(-944.39 -191.76)"/><path class="cls-2" d="M3397.61,2881.12l-374.07,882.06s-255.91,172-305.06,196.31c0,0,225.89-52.93,326.91-123.26,0,0,185.68-2.72,215.71-18.95,0,0-166.56-13.53-172-37.88l562.48-1114.73-240.29,56.83Z" transform="translate(-944.39 -191.76)"/><path class="cls-1" d="M2768,3853.89s176-33.74,206.64-74.39-6.45,56.89-6.45,56.89Z" transform="translate(-944.39 -191.76)"/><path class="cls-1" d="M3369.93,2885l-374.07,882S2740,3939,2690.8,3963.39c0,0,225.89-52.92,326.91-123.26,0,0,185.69-2.71,215.71-19,0,0-166.56-13.53-172-37.88l562.48-1114.72-240.29,56.83Z" transform="translate(-944.39 -191.76)"/></g><g id="body"><g id="left_thigh" data-name="left thigh"><path id="left_thigh-2" data-name="left thigh" class="cls-3" d="M2148.89,2657.44s265.24,306.63,344.18,341c0,0,78.93-3.13,151.55-31.28,0,0,142.09-40.68,290.51-237.79,0,0-438.91-250.3-517.84-206.51C2417.29,2522.91,2148.89,2591.73,2148.89,2657.44Z" transform="translate(-944.39 -191.76)"/><path class="cls-4" d="M2561,2995.89s121.66-264.38-67.8-360.35l-306.27,21.9s-49.72-50.88,291.42-139.65c0,0,113.81-11.59,494.81,211.6C2973.13,2729.39,2818.23,2980.76,2561,2995.89Z" transform="translate(-944.39 -191.76)"/></g><g id="body-2" data-name="body"><path id="body-3" data-name="body" class="cls-3" d="M1605.91,1265.1s1414.58-181.48,2368.16-18.78c0,0,445.22-31.29,631.52-425.53,0,0-132.6,291-173.66,322.28,0,0,303.11-247.18,360-388,0,0-246.28,391.1-341,428.66,0,0,407.32-291,483.1-409.88,0,0-445.22,600.74-404.17,660.18,0,0,18.95,31.28,63.15-15.65s-37.9,115.77-75.78,143.92c0,0,94.73-9.39,107.36-40.67,0,0-78.93,197.12-135.76,265.94,0,0,113.68-34.42,113.68-56.32,0,0-50.52,134.55-101.05,153.31,0,0,88.41-21.89,94.73-31.28S4435.11,2025.38,4372,2041s151.56-18.78,183.14-37.54c0,0-341,356.68-388.37,375.46,0,0-318.9,190.86-360,197.12,0,0-287.35,397.35-344.18,428.66s-198.93,71.95-224.18,53.18S2792,2870.18,2781.56,2829.5c0,0-866.17-62.57-1254.54-760.31C1527,2069.22,1501.71,1402.78,1605.91,1265.1Z" transform="translate(-944.39 -191.76)"/><path class="cls-5" d="M1673.92,2281s-148.48-268.29,255.13-73C2340.48,2407,2729,2673.08,2878.43,2654.3S3632,2525,3768.87,2445.7c0,0,549-256.92,545.2-225.27s-12.3,39.93-12.3,39.93l-114.49,105s-351.06,216-380.53,210.76c0,0-300.84,404-335.51,422.55s-132.78,58.45-188.07,62.51c0,0,68.9-271.28-206.85-275.44,0,0-223.91,52.39-294.75,43.81S2065.05,2754.47,1673.92,2281Z" transform="translate(-944.39 -191.76)"/></g><path class="cls-5" d="M4621.6,1528.88s-112.31,193-131.26,210.25-39.48,39.11-39.48,39.11h45.19S4577.62,1653.4,4621.6,1528.88Z" transform="translate(-944.39 -191.76)"/><path class="cls-5" d="M4605.27,1410.74s-96,148.47-119.67,148.47,31.58,3.13,31.58,3.13S4575,1507.88,4605.27,1410.74Z" transform="translate(-944.39 -191.76)"/><path class="cls-5" d="M4934,773.87s-1.75,2.22-5,6.4c-49.57,63.55-450.57,579-440.2,608.41,11.05,31.28,41.06,45.37,41.06,45.37S4645.05,1186.89,4934,773.87Z" transform="translate(-944.39 -191.76)"/><path class="cls-5" d="M4359.31,2006.65s211.56-111.08,236.81-153.31c0,0-170.79,181.43-232.23,191.61Z" transform="translate(-944.39 -191.76)"/></g><g id="red"><path class="cls-6" d="M1355.19,394.67S1467,181,1645.39,196.59c0,0,25.27,20.49-75.78,98.64,0,0,247.87-156.51,375.76-84.55,0,0,33.16,23.47-213.14,104.82,0,0,80.51-28.17,148.39-7.83,0,0,110.53,48.51,14.22,62.57s-123.16,82.91-123.16,82.91-270,36-274.71,34.42S1355.19,394.67,1355.19,394.67Z" transform="translate(-944.39 -191.76)"/><path class="cls-7" d="M1880.62,307.67c-20.95-6.27-43.12-7.94-63.76-7.21a184.9,184.9,0,0,1,46.39,7.21s110.52,48.51,14.22,62.57-123.16,82.91-123.16,82.91-202,26.93-259.6,33.18a20.54,20.54,0,0,0,2.26,1.24c4.74,1.56,274.71-34.42,274.71-34.42s26.85-68.85,123.16-82.91S1880.62,307.67,1880.62,307.67Z" transform="translate(-944.39 -191.76)"/><path class="cls-7" d="M1628,196.59s25.27,20.49-75.78,98.64c0,0,20.7-13.06,53.18-29.9,58.56-53.65,40-68.74,40-68.74a210.94,210.94,0,0,0-27.21-.61Q1623.06,196.19,1628,196.59Z" transform="translate(-944.39 -191.76)"/><path class="cls-7" d="M1945.35,210.68c-26.25-14.77-57.58-19.91-90.76-18.76,26.7,1,51.77,6.57,73.39,18.76,0,0,33,23.34-211.23,104.18a323.88,323.88,0,0,1,51.8-11.63C1975.08,231.76,1945.35,210.68,1945.35,210.68Z" transform="translate(-944.39 -191.76)"/></g><g id="head"><g id="red-2" data-name="red"><path class="cls-6" d="M1270.79,951s-18.46,104.44-51.63,132.59c0,0-61.37,65.71-56,70.4s10.16,46.93,60.69,20.34,96.31-70.4,102.63-84.49c0,0,6.31,68.85-28.43,100.13s89.78,81.16,141.19-12.61S1525.44,1007,1525.44,1007Z" transform="translate(-944.39 -191.76)"/><path class="cls-7" d="M1326.55,1065.91c-6.32,14.08-74.24,81.86-124.76,108.47a85.25,85.25,0,0,1-16.77,6.91c8.49,3.29,20.7,2.65,38.86-6.91,31.48-16.58,87.3-58.92,102.63-84.49C1327.51,1074.76,1326.55,1065.91,1326.55,1065.91Z" transform="translate(-944.39 -191.76)"/><path class="cls-7" d="M1270.79,951s-.3,1.69-.88,4.66L1503.35,1007s-34.74,76.65-86.15,170.42c-19.59,35.72-49.79,50.57-77.74,53.58,32.82,3.57,74.9-8.13,99.83-53.58,51.41-93.77,86.15-170.42,86.15-170.42Z" transform="translate(-944.39 -191.76)"/></g><g id="beak"><path class="cls-1" d="M1190.68,587.59S974.41,733.19,944.41,747.28c0,0,183.14,61,238.39,67.26Z" transform="translate(-944.39 -191.76)"/><path class="cls-2" d="M1182.8,803.59c-46.54-5.27-183.84-49.4-226-63.16-5.46,3.22-9.71,5.59-12.44,6.85,0,0,183.14,61,238.39,67.26l7.87-227-.38.25Z" transform="translate(-944.39 -191.76)"/></g><g id="head-2" data-name="head"><path id="head-3" data-name="head" class="cls-3" d="M1144.9,798.9s72.62,219,255.76,297.25c0,0,60,366.07,47.36,494.36,0,0-3.16,347.31,69.46,569.44,0,0,47.35-281.6,82.09-312.89,0,0,60-153.3,53.67-240.93,0,0,15.8,284.72,66.31,344.18,0,0-9.48-165.84,41.06-291,0,0,28.42-143.91,15.79-179.91,0,0,252.6-32.85,445.22,0,0,0-176.83-139.23-274.71-148.62s489.41-153.3,732.54-125.16c0,0-214.7-115.77-337.86-153.3,0,0-243.12-181.48-293.66-181.48,0,0-230.49-456.81-255.76-456.81,0,0-164.19-81.35-192.62-81.35,0,0-145.24,0-233.65,53.18,0,0-142.08,112.63-198.93,212.76C1167,598.66,1129.11,714.43,1144.9,798.9Z" transform="translate(-944.39 -191.76)"/><path class="cls-5" d="M1369.1,1064.86c-40.16-17.16-75-41.08-104.95-68,29.66,32.25,65.36,62.49,107.7,85.34C1370.1,1071.09,1369.1,1064.86,1369.1,1064.86Z" transform="translate(-944.39 -191.76)"/><path class="cls-5" d="M2016.39,839.57c4.48,0,10.52,1.45,17.76,4.08-50.11-98.36-220.45-429.6-242-429.6,0,0-3-1.47-8.13-4C1849.34,508.52,2016.39,839.57,2016.39,839.57Z" transform="translate(-944.39 -191.76)"/><path class="cls-5" d="M1744.84,1448.15c12.63,36-15.79,179.9-15.79,179.9-33.34,82.57-40.55,182.84-41.6,241.53,8.67,35.89,19.27,65.62,32.12,80.75,0,0-9.47-165.83,41.06-291,0,0,28.42-143.92,15.79-179.92,0,0,252.6-32.85,445.22,0,0,0-17.84-14-45.28-33.49C1985.68,1416.83,1744.84,1448.15,1744.84,1448.15Z" transform="translate(-944.39 -191.76)"/><path class="cls-5" d="M2614.13,1171.65c-259.39-13.1-792.38,118.91-698.76,127.87,14.38,1.38,30.49,5.59,47.48,11.71,109-40.84,522.51-128.06,716.64-105.59C2679.47,1205.66,2653.35,1191.58,2614.13,1171.65Z" transform="translate(-944.39 -191.76)"/><path class="cls-5" d="M1621.94,1579c4.2,88.2-53.93,236.77-53.93,236.77-25.39,22.88-57.51,179.43-73,262.06,6.53,28.57,14,56.21,22.45,82.12,0,0,47.35-281.61,82.1-312.89a1117.28,1117.28,0,0,0,37.08-116.59C1627.34,1660.79,1623,1595.72,1621.94,1579Z" transform="translate(-944.39 -191.76)"/></g><path class="cls-5" d="M1369.1,1064.86s71.58,11.48,111.57,1.05,112.61-16.69,168.39-48c0,0,45.2-16.68,38.39-6.25s-102.6,72.73-136.28,79.64-66.79,85.51-84.2,112.25c0,0-46.89,23.14-47.29,20.23s-19-127.65-19-127.65l-28.81-13.94Z" transform="translate(-944.39 -191.76)"/><path class="cls-8" d="M1651.39,1033.32S1837.58,1269,1839,1308.08Z" transform="translate(-944.39 -191.76)"/><path class="cls-8" d="M1847.38,972.31s176.76,212.4,210.9,219.82S1847.38,972.31,1847.38,972.31Z" transform="translate(-944.39 -191.76)"/><path class="cls-8" d="M2138.76,1066.1c1.57,2.37,63.14,66.5,77.35,71.19S2138.76,1066.1,2138.76,1066.1Z" transform="translate(-944.39 -191.76)"/><path class="cls-8" d="M2072.2,997.62c1.57,2.37,63.14,66.49,77.35,71.19S2072.2,997.62,2072.2,997.62Z" transform="translate(-944.39 -191.76)"/><path class="cls-8" d="M2210,1113.33c1.58,2.36,63.14,66.49,77.36,71.19S2210,1113.33,2210,1113.33Z" transform="translate(-944.39 -191.76)"/><path class="cls-8" d="M1530.54,1486.2c7.57,10.42,15.83,209.43-12.89,276.08Z" transform="translate(-944.39 -191.76)"/><path class="cls-8" d="M2061.55,904.92c4.73,4.69,70.95,51.62,75.73,68.84S2061.55,904.92,2061.55,904.92Z" transform="translate(-944.39 -191.76)"/><path class="cls-8" d="M1943.11,850.48c4.74,4.69,71,51.62,75.73,68.84S1943.11,850.48,1943.11,850.48Z" transform="translate(-944.39 -191.76)"/><path class="cls-8" d="M2161.7,1060.4s112.46,74,146.69,114Z" transform="translate(-944.39 -191.76)"/><path class="cls-8" d="M2235,1067.49s112.46,74,146.69,114Z" transform="translate(-944.39 -191.76)"/><path class="cls-8" d="M1864.77,1058.2s127.17,110.1,147.52,181.65Z" transform="translate(-944.39 -191.76)"/><path class="cls-8" d="M1563.68,1468.45s5.31,107.74,22.11,150.3S1563.68,1468.45,1563.68,1468.45Z" transform="translate(-944.39 -191.76)"/><path class="cls-8" d="M1487.5,1360.15s5.31,107.74,22.1,150.29S1487.5,1360.15,1487.5,1360.15Z" transform="translate(-944.39 -191.76)"/><path class="cls-8" d="M1474.33,1486s5.31,107.75,22.11,150.3S1474.33,1486,1474.33,1486Z" transform="translate(-944.39 -191.76)"/><path class="cls-8" d="M1662.4,1356.58c3,7.24,32.35,113.34,47.93,128.66S1662.4,1356.58,1662.4,1356.58Z" transform="translate(-944.39 -191.76)"/><path class="cls-8" d="M1839.76,1117.4s58.41,120.47,86.83,147.06S1839.76,1117.4,1839.76,1117.4Z" transform="translate(-944.39 -191.76)"/><path class="cls-8" d="M1995.84,1094.1s91.27,98.4,126.27,115.64S1995.84,1094.1,1995.84,1094.1Z" transform="translate(-944.39 -191.76)"/><path class="cls-8" d="M1855.51,1285.41c11,3.14,63.48,86,76,118.89S1855.51,1285.41,1855.51,1285.41Z" transform="translate(-944.39 -191.76)"/><path class="cls-8" d="M1900,1131c11,3.14,63.49,86,76,118.89S1900,1131,1900,1131Z" transform="translate(-944.39 -191.76)"/><path class="cls-8" d="M1839,861.55s43.13,28.24,50.94,45.84S1839,861.55,1839,861.55Z" transform="translate(-944.39 -191.76)"/><path class="cls-8" d="M1805,770.26s43.13,28.23,50.94,45.84S1805,770.26,1805,770.26Z" transform="translate(-944.39 -191.76)"/><path class="cls-8" d="M1885.43,784.58s34.74,37.94,37.9,56.91S1885.43,784.58,1885.43,784.58Z" transform="translate(-944.39 -191.76)"/><path class="cls-8" d="M1915.2,725.13s34.74,37.94,37.9,56.91S1915.2,725.13,1915.2,725.13Z" transform="translate(-944.39 -191.76)"/><path class="cls-8" d="M2025.91,1078.86s96.84,85.06,105.65,108.56-19.57-38.26-19.57-38.26Z" transform="translate(-944.39 -191.76)"/><path class="cls-8" d="M1682.65,1101.8s160.63,246,161.76,289Z" transform="translate(-944.39 -191.76)"/><path class="cls-8" d="M1535.28,1273.53c-.56,2.77-2.65,91.27,4.07,104.54S1535.28,1273.53,1535.28,1273.53Z" transform="translate(-944.39 -191.76)"/><path class="cls-8" d="M1646.31,1109.31s60.78,82.4,77.36,134-4.74,11-4.74,11Z" transform="translate(-944.39 -191.76)"/><path class="cls-8" d="M1573.9,1218.17s21.73,99.76,15.69,153.61-8.82,8.08-8.82,8.08Z" transform="translate(-944.39 -191.76)"/><path class="cls-8" d="M1981.07,968.13c12.87,1.49,166.8,129.57,197.1,195.52Z" transform="translate(-944.39 -191.76)"/><path class="cls-8" d="M1730,1069.62c4.14,5.21,64.32,59.58,67,77.23S1730,1069.62,1730,1069.62Z" transform="translate(-944.39 -191.76)"/><path class="cls-8" d="M1752.39,1152.59c4.14,5.21,64.32,59.58,67,77.23S1752.39,1152.59,1752.39,1152.59Z" transform="translate(-944.39 -191.76)"/><path class="cls-8" d="M1831.24,1192.31c4.14,5.2,64.32,59.58,67,77.23S1831.24,1192.31,1831.24,1192.31Z" transform="translate(-944.39 -191.76)"/><path class="cls-8" d="M2147.1,1008.35s159.13,56,204.63,115.11Z" transform="translate(-944.39 -191.76)"/><path class="cls-8" d="M1694.92,1278.16s36.32,101.68,64.73,137.66S1694.92,1278.16,1694.92,1278.16Z" transform="translate(-944.39 -191.76)"/><path class="cls-8" d="M1659.63,1224.06c2.41,7.45,23.28,115.51,37.6,132S1659.63,1224.06,1659.63,1224.06Z" transform="translate(-944.39 -191.76)"/><path class="cls-8" d="M2336.81,1078.65s86.71,74.79,100.07,75.26S2336.81,1078.65,2336.81,1078.65Z" transform="translate(-944.39 -191.76)"/><path class="cls-8" d="M2411,1085.82s86.71,74.8,100.06,75.26S2411,1085.82,2411,1085.82Z" transform="translate(-944.39 -191.76)"/><path class="cls-8" d="M1469,1678.82c7.44,9,30.43,180,10.62,236.9Z" transform="translate(-944.39 -191.76)"/><path class="cls-8" d="M1894.5,926.36s69.24,114.69,100,138.61S1894.5,926.36,1894.5,926.36Z" transform="translate(-944.39 -191.76)"/><path class="cls-8" d="M1605.74,1386.37c7.07,9,.09,106.6-9.39,140.4S1605.74,1386.37,1605.74,1386.37Z" transform="translate(-944.39 -191.76)"/><path class="cls-8" d="M1667.09,1495.89S1696,1563,1693.36,1593,1667.09,1495.89,1667.09,1495.89Z" transform="translate(-944.39 -191.76)"/><path class="cls-8" d="M1711,880.5s34.74,38,37.9,56.92S1711,880.5,1711,880.5Z" transform="translate(-944.39 -191.76)"/><path class="cls-8" d="M1792.72,938.17s34.75,37.94,37.9,56.91S1792.72,938.17,1792.72,938.17Z" transform="translate(-944.39 -191.76)"/><path class="cls-8" d="M1679.77,1642.6s-8.71,127.94-22.09,149.24,18.59-38.74,18.59-38.74Z" transform="translate(-944.39 -191.76)"/><path class="cls-8" d="M1668.44,1548s-8.71,127.93-22.09,149.23,18.59-38.73,18.59-38.73Z" transform="translate(-944.39 -191.76)"/><path class="cls-8" d="M1729.43,1438.36s-8.71,127.93-22.09,149.23,18.59-38.73,18.59-38.73Z" transform="translate(-944.39 -191.76)"/><path class="cls-8" d="M1623,1275.32s28.19,63.38,27.36,71.32S1623,1275.32,1623,1275.32Z" transform="translate(-944.39 -191.76)"/></g><g id="wing"><g id="wing-2" data-name="wing"><path class="cls-9" d="M2109,1567.81c1.25-6.13,656.76-254.48,852.54-256.58,0,0,875.69,25,1159.88,141.85,0,0,107.36,10.44,216.81,16.69,0,0-141,118.89-277.87,141.85,0,0,174.71,25,202.09,12.5,0,0-21,41.72-71.57,62.57,0,0,204.18-75.09,216.82-89.69,0,0-14.75,75.1-52.63,110.54,0,0-14.75,18.78-58.94,41.72,0,0,10.52,10.44,0,25s-122.09,198.16-206.3,254.48c0,0,101-25,109.46-35.47,0,0-71.58,319.14-959.91,550.68,0,0-572.57-8.34-848.33-156.44C2391.06,2387.57,1995.31,2124.74,2109,1567.81Z" transform="translate(-944.39 -191.76)"/><path class="cls-5" d="M4035.09,1580.33s47.46,6.81,96.79,11.55c110.4-41.21,206.34-122.09,206.34-122.09-20.61-1.17-41.16-2.5-60.94-3.88C4226.74,1502.44,4129.92,1564.41,4035.09,1580.33Z" transform="translate(-944.39 -191.76)"/><path class="cls-5" d="M4209.75,1627.09a148.29,148.29,0,0,1-44.15,28.34s33.46-12.31,74.14-27.93C4231.14,1627.77,4220.92,1627.6,4209.75,1627.09Z" transform="translate(-944.39 -191.76)"/><path class="cls-5" d="M4366.31,1618.13c-8.39,20.65-20.34,43-36.52,58.15,0,0-14.72,18.78-58.94,41.72,0,0,10.52,10.43,0,25s-122.09,198.17-206.29,254.48c0,0,54.39-13.46,86.68-24.77,69.1-76.36,136.79-187.22,144.86-198.42,10.52-14.6,0-25,0-25,44.19-22.94,58.94-41.72,58.94-41.72,37.9-35.46,52.62-110.54,52.62-110.54C4404.42,1600.78,4388.33,1608.61,4366.31,1618.13Z" transform="translate(-944.39 -191.76)"/><path class="cls-5" d="M4151,2012.17c-59.19,98.94-263.1,324.95-936.87,500.56,0,0-572.58-8.35-848.34-156.45,0,0-54-35.87-116.39-109.17,72.3,94.41,141.64,140.46,141.64,140.46,275.76,148.1,848.33,156.44,848.33,156.44,888.33-231.54,959.91-550.68,959.91-550.68C4195.58,1997.92,4174,2005.3,4151,2012.17Z" transform="translate(-944.39 -191.76)"/></g><g id="stripes"><path class="cls-10" d="M4035.09,1580.33S3472,1607.2,2931,1542.54" transform="translate(-944.39 -191.76)"/><path class="cls-10" d="M4165.6,1655.41s-857.77,144.17-1419.8,0" transform="translate(-944.39 -191.76)"/><path class="cls-10" d="M4270.85,1718S3901.45,1997.26,3030,1884.62" transform="translate(-944.39 -191.76)"/><path class="cls-10" d="M4064.56,1997.51s-417.82,200-1224,68.59" transform="translate(-944.39 -191.76)"/><path class="cls-10" d="M3943.56,2108.35s-695.48,347.81-1431.44,199.7" transform="translate(-944.39 -191.76)"/></g></g><g id="Layer_9" data-name="Layer 9"><path class="cls-11" d="M1378.55,581.44s23.69-50.06,148.4-68.84c0,0,34.75,3.14,25.27,15.64S1495.39,597.11,1378.55,581.44Z" transform="translate(-944.39 -191.76)"/><path class="cls-12" d="M1478.26,540.85s5.22-11,32.71-15.08c0,0,7.66.68,5.57,3.43S1504,544.27,1478.26,540.85Z" transform="translate(-944.39 -191.76)"/></g></g></svg>