<svg id="Layer_1" data-name="Layer 1" xmlns="http://www.w3.org/2000/svg" viewBox="0 0 3702.36 3770.78"><defs><style>.cls-1{fill:#f15a29;}.cls-2{fill:#f89521;}.cls-3{fill:#f7f5ec;}.cls-4{fill:#bae2d9;}.cls-5{fill:#8dcbcb;}.cls-6{fill:#e91d44;}.cls-7{fill:#9f2b42;}.cls-8{fill:#fafaf3;}.cls-9{fill:none;stroke:#6d6e71;stroke-miterlimit:10;stroke-width:1.5px;}</style></defs><g id="_6month_3" data-name="6month 3"><g id="right_leg" data-name="right leg"><path class="cls-1" d="M2665.56,3836.58s174.51-31,204.92-68.33-6.39,52.25-6.39,52.25Z" transform="translate(-1011.93 -169.96)"/><path class="cls-1" d="M3262.51,2946.85l-371,810s-253.8,157.92-302.54,180.28c0,0,224-48.6,324.19-113.19,0,0,184.13-2.49,213.92-17.4,0,0-165.18-12.42-170.59-34.79l557.81-1023.7L3276,2800.23Z" transform="translate(-1011.93 -169.96)"/><path class="cls-2" d="M2638.11,3840.19s174.51-31,204.93-68.33-6.4,52.25-6.4,52.25Z" transform="translate(-1011.93 -169.96)"/><path class="cls-2" d="M3235.07,2950.45l-371,810s-253.8,157.92-302.54,180.28c0,0,224-48.6,324.2-113.2,0,0,184.13-2.48,213.92-17.39,0,0-165.18-12.42-170.6-34.79l557.82-1023.7-238.3,52.17Z" transform="translate(-1011.93 -169.96)"/></g><g id="left_leg" data-name="left leg"><path class="cls-2" d="M2104.3,3764s174.5-31,204.92-68.33-6.39,52.25-6.39,52.25Z" transform="translate(-1011.93 -169.96)"/><path class="cls-2" d="M2667.43,2904,2290,3730.58s-330.84,103.88-382.3,122.77c0,0,273.49-37.77,410.46-72.28,0,0,153.77,34.57,183.56,19.65,0,0-134.82-49.47-140.24-71.83l557.82-1023.7L2681,2757.36Z" transform="translate(-1011.93 -169.96)"/><path class="cls-1" d="M2104.3,3764s174.5-31,204.92-68.33-6.39,52.25-6.39,52.25Z" transform="translate(-1011.93 -169.96)"/><path class="cls-1" d="M2667.43,2904,2290,3730.58s-330.84,103.88-382.3,122.77c0,0,273.49-37.77,410.46-72.28,0,0,153.77,34.57,183.56,19.65,0,0-134.82-49.47-140.24-71.83l557.82-1023.7L2681,2757.36Z" transform="translate(-1011.93 -169.96)"/><path class="cls-2" d="M2076.85,3769.43s174.51-31,204.93-68.33-6.4,52.25-6.4,52.25Z" transform="translate(-1011.93 -169.96)"/><path class="cls-2" d="M2640,2909.38,2262.5,3736s-330.84,103.88-382.29,122.77c0,0,273.48-37.77,410.45-72.28,0,0,153.78,34.57,183.57,19.66,0,0-134.83-49.48-140.24-71.84l557.81-1023.7-238.29,52.17Z" transform="translate(-1011.93 -169.96)"/></g><g id="thigh"><g id="right_thigh" data-name="right thigh"><path id="right_thigh-2" data-name="right thigh" class="cls-3" d="M2614.17,2876.59c10.43,1.92,476,214.55,511.45,220.29s131.52,0,173.28-24.9,344.46-312.24,394.55-488.47S2614.17,2876.59,2614.17,2876.59Z" transform="translate(-1011.93 -169.96)"/><path class="cls-4" d="M3161.15,3098.92s139.84-130.37,75.12-226.16L3002,2725.09s527.71-209.25,693.09-181.16c0,0-58,265.61-396.18,528.05C3298.9,3072,3234.24,3099.05,3161.15,3098.92Z" transform="translate(-1011.93 -169.96)"/></g><g id="left_thigh" data-name="left thigh"><path id="left_thigh-2" data-name="left thigh" class="cls-3" d="M2278.07,2918.74c5.23,3.15,283.91,178.42,294.35,180.2s56.36-11.63,75.16-15.46,221.29-74.7,304.79-245.19c0,0-674.29-90-728.57-34.47C2223.79,2803.8,2214.51,2880.67,2278.07,2918.74Z" transform="translate(-1011.93 -169.96)"/><path class="cls-5" d="M2572.42,3098.94s110.64-118.9,39.66-199.35l-68.94-104.78,409.23,43.48s-84,204.26-364.52,259.18C2558.53,3103.2,2572.42,3098.94,2572.42,3098.94Z" transform="translate(-1011.93 -169.96)"/></g></g><g id="body"><g id="body-2" data-name="body"><path class="cls-3" d="M1411.71,1236.89s1240,3.84,2404.91,95.77c0,0-175.36-222.2-175.36-264.35,0,0,54.28,107.27,112.73,132.17,0,0-75.15-159-29.22-358.2,0,0,33.4,390.76,66.8,409.93,0,0-45.94-436.75,271.38-605.32,0,0-133.61,222.21-104.39,417.59,0,0,309-467.39,755.71-455.9,0,0-405,157.07-609.58,540.18,0,0,388.3-233.69,609.58-256.68,0,0-476,264.35-396.65,440.57,0,0,167-195.38,321.49-229.86,0,0-342.37,367.78-275.57,448.24,0,0,8.35,57.46,87.68-26.82,0,0-91.85,321.82-142,390.77,0,0,75.16-23,87.68-30.65l-12.52,7.65s-137.78,164.74-192.06,187.73c0,0,62.62-23,104.38-42.15,0,0-91.85,107.27-137.78,145.58h133.61S3587,2888.06,3294.7,2934c0,0-546.95,153.25-1390.34-137.92,0,0-455.1-421.42-676.39-862C1228,1934.14,1236.36,1547.21,1411.71,1236.89Z" transform="translate(-1011.93 -169.96)"/><path class="cls-4" d="M1466.57,2307.89s-209.36-227.67,179-115.15c277.65,80.46,325.66,289.25,615.84,486.55,273.81,186.18,1275.52,47.89,1390.34-11.49,0,0,168.92-98,206.68-109.18,0,0,54.28-34.48,4.36,17.07-52.22,53.94-340.37,277.58-453.19,327.72-155.52,69.12-490.48,113.69-836.67,50.46,0,0-489-71.54-668.49-157.73C1904.38,2796.15,1466.7,2357.43,1466.57,2307.89Z" transform="translate(-1011.93 -169.96)"/><path class="cls-4" d="M4288.42,1502.52s244.25-340.34,350.71-399.73c0,0-344.45,375.45-275.56,448.24C4363.57,1551,4332.26,1549.78,4288.42,1502.52Z" transform="translate(-1011.93 -169.96)"/><path class="cls-4" d="M4451.26,1524.21S4308.07,1899.67,4269,1916.9l45.56-9.87S4432.46,1633.41,4451.26,1524.21Z" transform="translate(-1011.93 -169.96)"/><polygon class="cls-4" points="3284.83 1867.63 3120.61 2023.9 3151.86 2008.13 3284.83 1867.63"/><path class="cls-4" d="M4714.29,608.39s-544.87,266.45-632.54,538.47h31.31S4223.7,886,4714.29,608.39Z" transform="translate(-1011.93 -169.96)"/><path class="cls-4" d="M4063,646.89s-1.49,2.28-4.17,6.56c-27.83,44.27-184.21,301.92-146.13,441.68l45.93-30.65S3966.93,804,4063,646.89Z" transform="translate(-1011.93 -169.96)"/></g></g><g id="red"><path class="cls-6" d="M1320.24,454.38s53.89-164.74,158.27-191.56c0,0,37.57-.95-19.83,54.59,0,0,197.28-160.91,294.36-146.54,0,0,55.32,9.57,12.52,36.39,0,0-149.27,64.17-154.48,110.15,0,0,111.69-100.56,216.06-82.36,0,0,51.15,16.28-89.77,97.69,0,0,26.82-21,77.08-20.57,0,0,69.77-6.25,0,42.6,0,0-132.41,29.69-123,59.38S1320.24,454.38,1320.24,454.38Z" transform="translate(-1011.93 -169.96)"/><path class="cls-7" d="M1738.49,321.9a132.19,132.19,0,0,1,34.67-11c95.67-62.52,54-75.8,54-75.8-2-.34-4-.63-5.93-.89C1829.25,241.36,1835.69,263.78,1738.49,321.9Z" transform="translate(-1011.93 -169.96)"/><path class="cls-7" d="M1754.73,203.45s-149.26,64.17-154.48,110.15c0,0,7.86-7.08,21.37-17.14,35-42.33,143.94-89.17,143.94-89.17,33.41-20.95,7-31.37-6.17-34.94C1771,177.72,1780.09,187.56,1754.73,203.45Z" transform="translate(-1011.93 -169.96)"/><path class="cls-7" d="M1831.78,312.61c6.49,5.15,3.82,15.95-28.15,38.34,0,0-132.41,29.69-123,59.38,8.39,26.49-293.76,37.73-358.92,39.85-1,2.72-1.45,4.21-1.45,4.21s380.6-10.54,371.2-40.23,123-59.38,123-59.38C1859.15,323.49,1846.59,314.8,1831.78,312.61Z" transform="translate(-1011.93 -169.96)"/><path class="cls-7" d="M1447.86,313.59S1463,301.22,1487,283.65c11.5-21.33-8.5-20.82-8.5-20.82l-.56.16C1482.46,268.55,1480.69,281.83,1447.86,313.59Z" transform="translate(-1011.93 -169.96)"/></g><g id="head"><g id="red-2" data-name="red"><path class="cls-6" d="M1277,811.42s-24.19,97.64-68.83,126.52c0,0-22.05,61.43,32,32.14s93.08-60.23,96-80.05c0,0-59.14,139.63-82.55,150.84,0,0-18.21,53.11,31.8,42.86s226.36-102.13,240-139.05S1355.68,702.9,1312,763.61C1281.6,805.83,1277,811.42,1277,811.42Z" transform="translate(-1011.93 -169.96)"/><path class="cls-7" d="M1306.15,927.5c5.75-12.46,10.65-23.48,14.09-31.32-12.76,19.12-46.74,44-90.67,67.8-10.62,5.75-18.31,8-23.79,7.9,3.72,7.23,13.22,9.67,34.41-1.8C1266.6,955.8,1289.38,941.1,1306.15,927.5Z" transform="translate(-1011.93 -169.96)"/><path class="cls-7" d="M1369.86,763.21c68,42,154.46,149.57,144.93,175.35-13.63,36.93-190,128.8-240,139-8,1.65-14.2,1.66-19,.54,4.91,5.73,13.89,8.81,29.67,5.57,50-10.25,226.36-102.13,240-139.05C1535.43,917.53,1439,799.65,1369.86,763.21Z" transform="translate(-1011.93 -169.96)"/></g><path class="cls-2" d="M1223.82,644s-152.39,92.91-211.89,141.76c0,0,207.72,6.7,290.18,4.79Z" transform="translate(-1011.93 -169.96)"/><path class="cls-1" d="M1223.82,644l-.85.52,73.92,138.36c-69.43,1.61-227.62-2.89-275.91-4.35-3.21,2.49-6.23,4.91-9.05,7.22,0,0,207.72,6.7,290.18,4.78Z" transform="translate(-1011.93 -169.96)"/><path class="cls-3" d="M1292.71,453.43s-64.71,116.85-83.5,201.13c0,0,18.79,116.86,41.75,145.58,0,0,137.78,118.76,208.75,111.1,0,0-215,438.67-233.81,749,0,0,135.69-95.77,275.57-243.27,0,0-66.8,195.38-62.63,325.65,0,0,112.74-139.84,229.64-205,0,0,127.34-61.3,177.45-166.66,0,0-48,145.58,64.72,210.71,0,0-37.58-195.38,66.8-231.78,0,0,60,128.35,273.47,149.42,0,0,212.93,42.14,286,9.57,0,0-306.66-86.35-302-193.62,0,0,176.71,78.7,803,17.4,0,0-476-208.79-521.9-206.88,0,0-290.18-415.67-534.43-632.13,0,0-154.48-120.68-411.26-160.9C1570.36,332.75,1474.34,330.83,1292.71,453.43Z" transform="translate(-1011.93 -169.96)"/><path class="cls-4" d="M1827.14,1338.4c-50.1,105.35-177.45,166.66-177.45,166.66-86.67,48.29-171,137.62-208.88,180.61a477.16,477.16,0,0,0-2,56.92s112.74-139.84,229.64-204.95c0,0,90.23-43.44,148.67-120C1815.46,1373.86,1827.14,1338.4,1827.14,1338.4Z" transform="translate(-1011.93 -169.96)"/><path class="cls-4" d="M1236.94,771.59c4.39,12.21,9.12,22.41,14,28.55,0,0,102.44,88.29,176.16,107.71,8.69-18.75,13.81-29.17,13.81-29.17C1377.79,885.49,1261.78,792.26,1236.94,771.59Z" transform="translate(-1011.93 -169.96)"/><path class="cls-4" d="M1504.35,1365.22c-105,110.69-229.24,211.42-273.92,245.23q-3,25.33-4.53,49.78s151.51-120.09,275.57-243.27C1513.78,1372.28,1504.35,1365.22,1504.35,1365.22Z" transform="translate(-1011.93 -169.96)"/><path class="cls-4" d="M2973,1304.44c-588.84,53.06-756.81-21.73-756.81-21.73-.79,18.15,7.34,35.69,21.38,52.34a59,59,0,0,1-2.59-19.77s176.71,78.69,803,17.4C3037.94,1332.66,3012.58,1321.54,2973,1304.44Z" transform="translate(-1011.93 -169.96)"/><path class="cls-4" d="M2232.13,1466.75c-213.45-21.07-273.47-149.41-273.47-149.41-104.38,36.39-66.8,231.78-66.8,231.78a146,146,0,0,1-43.12-37.21c10.86,26.29,29.9,51.27,61.92,69.76,0,0-37.57-195.38,66.8-231.77,0,0,60,128.34,273.47,149.41,0,0,212.93,42.15,286,9.58,0,0-28-7.89-66.86-21.82C2378.38,1495.69,2232.13,1466.75,2232.13,1466.75Z" transform="translate(-1011.93 -169.96)"/><path class="cls-4" d="M1440.94,878.68s80.93-4.55,114.34,26.62c0,0,57.89,18.83,63.11,18.83s56.36,10.1,173.27-62.69c0,0,41.75-28.48,6.27,34.74,0,0-88.92,69.37-131.71,81.81s-176.89,147.21-301.29,152.29l94.81-219-32.6-3.4Z" transform="translate(-1011.93 -169.96)"/></g><g id="eyes"><path d="M1350.13,614.33s23-56.51,102.29-66.08c0,0,28.18-5.75,8.34,21.07C1460.76,569.32,1375.18,624.87,1350.13,614.33Z" transform="translate(-1011.93 -169.96)"/><path class="cls-8" d="M1450.34,561.5s-24.23,9.86-31.32,8c0,0,6.5-10,29-11.73" transform="translate(-1011.93 -169.96)"/></g><g id="wing"><path class="cls-8" d="M2223.79,1643c28.28-31.2,300.62-149.41,1058.41-134.08,0,0,613.76-46,868.44,42.15l87.68,46s56.36,28.74,16.7,34.48c0,0,98.12,42.15,85.59,53.64s1.1,9.58,1.1,9.58-82.53,67-92.95,70.87,10.44-3.84,10.44-3.84,22.95,40.23-39.67,67c0,0-127.34,226-154.48,252.86,0,0,35.5,67-25.05,128.35,0,0-394.55,394.6-970.74,448.24,0,0-519.32-51.9-924.8-258.6-18.79-9.57-112.74-59.38-167-126.43C1977.45,2273.2,2058.87,1825,2223.79,1643Z" transform="translate(-1011.93 -169.96)"/><path class="cls-4" d="M4227.88,1602.75s20.22,8.69,41.13,19.26c-1.83-8.72-21.88-20.25-28.55-23.87C4238.5,1600.17,4234.56,1601.79,4227.88,1602.75Z" transform="translate(-1011.93 -169.96)"/><path class="cls-4" d="M4219.07,1737.78h0Z" transform="translate(-1011.93 -169.96)"/><path class="cls-4" d="M4218.8,1737.88Z" transform="translate(-1011.93 -169.96)"/><path class="cls-4" d="M4246.91,1766.26l1.85-.68c10.44-3.84,92.95-70.87,92.95-70.87s-13.64,1.91-1.1-9.58c5.46-5-10.12-15.85-29.42-26.48-8.36,9,3.39,7.33,3.39,7.33s-82.52,67-93,70.87l-1.84.68,12.28-4.51s23,40.23-39.66,67c0,0-127.35,226-154.48,252.86,0,0,35.49,67.05-25.05,128.34,0,0-394.55,394.6-970.74,448.24,0,0-519.33-51.89-924.81-258.59-15.7-8-83.84-44.09-137.49-94.85,54.59,65.6,146.12,114.15,164.64,123.58,405.48,206.7,924.8,258.6,924.8,258.6C3645.45,2604.61,4040,2210,4040,2210c60.55-61.3,25.06-128.35,25.06-128.35,27.13-26.82,154.47-252.85,154.47-252.85,62.63-26.82,39.67-67,39.67-67S4250.08,1765.09,4246.91,1766.26Zm-1,.35Zm.27-.1h0Z" transform="translate(-1011.93 -169.96)"/><g id="strips"><path class="cls-9" d="M2505.61,1625.74c10.44,0,830.86-205,1601.19-86.2" transform="translate(-1011.93 -169.96)"/><path class="cls-9" d="M3040,1591.26c8.34,1.92,336.1,65.13,1189.93,49.81" transform="translate(-1011.93 -169.96)"/><path class="cls-9" d="M3171.55,1744.51s398.35,83.62,1143-78.54" transform="translate(-1011.93 -169.96)"/><path class="cls-9" d="M3002,1878.6s332.42,24.9,835.53-32.56" transform="translate(-1011.93 -169.96)"/><path class="cls-9" d="M2570.33,2070.15c10.44,0,791.28,119.64,1638.84-278.78" transform="translate(-1011.93 -169.96)"/><path class="cls-9" d="M2359.48,2161.51s1265.08,192.14,1668.88-99" transform="translate(-1011.93 -169.96)"/><path class="cls-9" d="M2340.69,2441.76S3162,2771.23,4028.37,2062.49" transform="translate(-1011.93 -169.96)"/></g></g></g></svg>