<svg id="Layer_1" data-name="Layer 1" xmlns="http://www.w3.org/2000/svg" viewBox="0 0 3624.1 3913.14"><defs><style>.cls-1{fill:#f69322;}.cls-2{fill:#f15b28;}.cls-3{fill:#f4f2e9;}.cls-4{fill:#b9e1d9;}.cls-5{fill:#f9f292;}.cls-6{fill:#020202;}.cls-7,.cls-9{fill:#fff;isolation:isolate;}.cls-7{opacity:0.66;}.cls-8{fill:#e9262a;}.cls-9{opacity:0.78;}.cls-10{fill:#010101;}.cls-11{fill:#f3f3f3;}</style></defs><g id="chick_6" data-name="chick 6"><g id="left_leg" data-name="left leg"><g id="left_leg-2" data-name="left leg"><path id="left_leg-3" data-name="left leg" class="cls-1" d="M2525,2772.72s-19.11,535.81-181.78,822.83c0,0-401.86,267.9-602.76,277.46,0,0,95.67,47.83,200.9,28.72,0,0,296.58-66.95,363.58-105.23,0,0,220.06,105.23,354,86.12,0,0-143.51-114.84-181.79-181.79L2438.93,3653s478.36-937.61,430.53-1186.4H2490.8Z" transform="translate(-898.51 -140.65)"/><path class="cls-2" d="M2247.58,3796.5c-66.95,38.28-363.57,105.23-363.57,105.23-7.8,1.4-15.55,2.43-23.2,3.15a300.21,300.21,0,0,0,80.64-3.15s237.17-53.57,335.22-92.26C2258.38,3801.67,2247.58,3796.5,2247.58,3796.5Z" transform="translate(-898.51 -140.65)"/><path class="cls-2" d="M2477.21,3700.83,2438.93,3653s478.36-937.61,430.53-1186.4h-57.4C2859.9,2715.33,2381.54,3653,2381.54,3653l38.27,47.84c38.28,67,181.79,181.79,181.79,181.79-2.63.36-5.42.62-8.11.93,23.09,2,45.31,2,65.56-.93C2659,3882.62,2515.44,3767.78,2477.21,3700.83Z" transform="translate(-898.51 -140.65)"/></g></g><g id="right_leg" data-name="right leg"><g id="right_leg-2" data-name="right leg"><g id="right_leg-3" data-name="right leg"><polygon class="cls-1" points="2363.25 3598.45 2037.95 3741.96 2292.58 3741.96 2430.2 3612.66 2363.25 3598.45"/><path class="cls-1" d="M3606.17,2657.94s-248.74,1004.61-334.86,1100.28c0,0-411.41,258.35-507.08,287,0,0,101.76,19.11,137,0,0,0,264.85-76.56,379.64-162.67,0,0,296.57,0,430.53,57.39,0,0-248.74-181.79-315.75-200.9,0,0,440.14-765.43,401.86-889.78l95.67-315.74-248.73-95.67Z" transform="translate(-898.51 -140.65)"/></g><path class="cls-2" d="M3242.59,3882.62C3127.75,3968.73,2863,4045.29,2863,4045.29c-8.22,4.49-20.1,6.82-33.48,7.85,27.23,1.6,56.05.67,71.76-7.85,0,0,263.61-76.2,378.81-162.06C3256.69,3882.62,3242.59,3882.62,3242.59,3882.62Z" transform="translate(-898.51 -140.65)"/><path class="cls-2" d="M3797.51,2849.28l95.67-315.74-248.73-95.67-2.38,13.79L3855,2533.54l-95.68,315.74c38.28,124.4-401.85,889.77-401.85,889.77,52.59,15,217.12,130.24,285.47,179.11,25.41,6.14,48.76,13.38,68.55,21.85,0,0-248.74-181.79-315.74-200.9C3395.71,3739.11,3835.79,2973.68,3797.51,2849.28Z" transform="translate(-898.51 -140.65)"/></g></g><g id="right_thigh" data-name="right thigh"><g id="right_thigh-2" data-name="right thigh"><path id="right_thigh-3" data-name="right thigh" class="cls-3" d="M4065.41,2256.08S4103.69,2524,3788,2916.23c0,0-19.11,19.11-57.39,19.11,0,0-679.32-181.78-755.82-392.29s612.31-593.21,612.31-593.21Z" transform="translate(-898.51 -140.65)"/><path class="cls-4" d="M4065.41,2256.08,3587.05,1949.9s-44,24.48-108.53,64.36l408,197.6s69.64,261.5-197.6,688.3c0,0-7.33,9-22.93,16.64,40.14,12,64.57,18.6,64.57,18.6,38.28,0,57.39-19.12,57.39-19.12C4103.69,2524,4065.41,2256.08,4065.41,2256.08Z" transform="translate(-898.51 -140.65)"/></g></g><g id="left_thigh" data-name="left thigh"><g id="left_thigh-2" data-name="left thigh"><path id="left_thigh-3" data-name="left thigh" class="cls-3" d="M2200.94,2442.67S2333.65,2734.49,2534.6,2878c0,0,46.39,19.12,109.31,0s397.78-172.23,359.5-239.18c0,0,306.18-354-248.74-507.08s-602.76-47.84-612.31,67S2173.45,2390,2200.94,2442.67Z" transform="translate(-898.51 -140.65)"/><path class="cls-4" d="M2754.67,2131.68c-409.55-113-542.89-85.23-588.5-16.78,87.25,6.81,206.12,29.44,368.43,74.23,554.92,153.07,248.74,507.08,248.74,507.08,25.88,45.31-118.87,129.93-234.74,185.93,18.29,4.28,53.06,8.73,95.31-4.14,62.92-19.11,397.78-172.23,359.5-239.18C3003.41,2638.82,3309.59,2284.8,2754.67,2131.68Z" transform="translate(-898.51 -140.65)"/></g></g><g id="body"><g id="body-2" data-name="body"><g id="body-3" data-name="body"><path class="cls-5" d="M4515.11,1203.63s153.06,975.89-928.06,1444.75c0,0-1693.49,507.08-1951.83-1081.17,0,0-247.81-1023.73,962-956.78,0,0,1142.86-66.95,1745.61,497.53C4342.93,1108,4496,1155.79,4515.11,1203.63Z" transform="translate(-898.51 -140.65)"/></g><g id="body-4" data-name="body"><path class="cls-4" d="M1635.27,1567.21S1387.46,543.48,2597.32,610.43c0,0,1142.85-66.95,1745.61,497.53,0,0,153.06,47.83,172.23,95.67,0,0,153.06,975.89-928.06,1444.75C3587.05,2648.33,1893.56,3155.41,1635.27,1567.21Z" transform="translate(-898.51 -140.65)"/></g><g id="body-5" data-name="body"><path class="cls-3" d="M4515.11,1050.51s153.06,975.89-928.06,1444.75c0,0-1693.49,507.08-1951.83-1081.17,0,0-247.81-1023.73,962-956.78,0,0,1142.86-66.95,1745.61,497.53C4342.93,954.84,4496,1002.68,4515.11,1050.51Z" transform="translate(-898.51 -140.65)"/></g></g></g><path class="cls-6" d="M2531.81,567.76S2743.3,478,2797.75,531Z" transform="translate(-898.51 -140.65)"/><path class="cls-6" d="M2797.86,808.13s-141.5-28.72-213.25-2.53S2797.86,808.13,2797.86,808.13Z" transform="translate(-898.51 -140.65)"/><path class="cls-6" d="M2647.22,1045s-141.49-28.73-213.25-2.54S2647.22,1045,2647.22,1045Z" transform="translate(-898.51 -140.65)"/><path class="cls-6" d="M2573,1172s-141.49-28.72-213.24-2.53S2573,1172,2573,1172Z" transform="translate(-898.51 -140.65)"/><path class="cls-6" d="M3000,663.64s-385.28-75.17-577.55,19.78v90.2S2677.65,659.71,3000,663.64Z" transform="translate(-898.51 -140.65)"/><g id="head"><g id="head-2" data-name="head"><path id="head-3" data-name="head" class="cls-3" d="M1214.25,1308.86C1192.14,1288.2,955.9,706.1,1453.43,294.69c0,0,784.55-430.53,1090.11,148,0,0,207.05,349.58-68.4,866.22,0,0-208.44,287.84-696.41,268.31C1778.73,1577.18,1510.82,1586.37,1214.25,1308.86Z" transform="translate(-898.51 -140.65)"/><path class="cls-4" d="M2475.14,1222.8s-208.44,287.84-696.41,268.31c0,0-267.91,9.15-564.48-268.31-10.23-9.56-66-138.86-74.24-315.75-10.38,219.71,62.41,390.81,74.24,401.86,296.57,277.46,564.48,268.32,564.48,268.32,488,19.52,696.41-268.32,696.41-268.32,121.4-227.76,149-423,142-570.16C2610.85,872.81,2574.17,1037,2475.14,1222.8Z" transform="translate(-898.51 -140.65)"/><path class="cls-7" d="M1316.07,788.19c-38.23-3.72-63.59-37-56.62-74.34,55.48-298.23,349-516.74,654.21-487,38.23,3.72,63.59,37,56.62,74.34s-43.55,64.57-81.78,60.85c-229-22.26-449.07,141.6-490.66,365.28C1390.92,764.68,1354.3,791.91,1316.07,788.19Z" transform="translate(-898.51 -140.65)"/></g></g><g id="beak"><g id="beak-2" data-name="beak"><path id="beak-3" data-name="beak" class="cls-2" d="M1386.48,1136.68s124.4,76.56,95.67,210.51l-583.64,38.28Z" transform="translate(-898.51 -140.65)"/><path class="cls-8" d="M1482.15,1328l-540.56,35.44-43.08,22,583.64-38.28a185.18,185.18,0,0,0,4-49.59A197.85,197.85,0,0,1,1482.15,1328Z" transform="translate(-898.51 -140.65)"/></g></g><g id="wing"><g id="wing-2" data-name="wing"><path id="wing-3" data-name="wing" class="cls-3" d="M3391.21,1060.12s-554.92,210.51-488,641c0,0,124.4,593.2,861.11,392.3,0,0,325.29-105.23,248.73-468.81,0,0-114.83-287-449.69-38.28,0,0,172.23-162.67,411.41-105.23S3620.84,935.73,3391.21,1060.12Z" transform="translate(-898.51 -140.65)"/><path class="cls-4" d="M3764.35,2064.73c-736.71,200.91-861.11-392.29-861.11-392.29a468.71,468.71,0,0,1-5.32-56.31,458.09,458.09,0,0,0,5.32,85s124.4,593.2,861.11,392.3c0,0,269.35-87.2,260.15-376.91C4015.77,1983.32,3764.35,2064.73,3764.35,2064.73Z" transform="translate(-898.51 -140.65)"/><path class="cls-4" d="M3974.8,1452.42c-239.18-57.39-411.41,105.23-411.41,105.23,145-107.66,248.64-114.94,319.67-88.59a438.59,438.59,0,0,1,91.74,12c48.56,11.68,62.82-3.92,52.75-35.07C4021.19,1456.5,4004.41,1459.5,3974.8,1452.42Z" transform="translate(-898.51 -140.65)"/><path class="cls-9" d="M3113,1773a47.84,47.84,0,0,1-65-18.59c-102.44-184.53-35.7-417.92,148.83-520.36a47.83,47.83,0,1,1,46.44,83.63c-138.39,76.82-188.45,251.89-111.58,390.29A47.9,47.9,0,0,1,3113,1773Z" transform="translate(-898.51 -140.65)"/></g></g><g id="left_eye" data-name="left eye"><g id="left_eye-2" data-name="left eye"><path class="cls-10" d="M1286,911.81s-59.71,75.21-111.89,56.67c0,0-12.5-18.39,6.66-47.12C1180.77,921.42,1180.31,888,1286,911.81Z" transform="translate(-898.51 -140.65)"/><ellipse class="cls-11" cx="1244.83" cy="916.13" rx="12.35" ry="15.91" transform="translate(-686.01 1925.78) rotate(-84.45)"/></g></g><g id="right_eye" data-name="right eye"><g id="right_eye-2" data-name="right eye"><path class="cls-10" d="M1678.3,816.14s23.92-71.76,129.15-90.87,124.39,19.11,124.39,19.11,14.37-4.8-28.72,38.28C1903.12,782.66,1840.92,854.41,1678.3,816.14Z" transform="translate(-898.51 -140.65)"/><ellipse class="cls-11" cx="1871.16" cy="739.84" rx="21.49" ry="10.75" transform="translate(-1039.28 572.41) rotate(-20.81)"/></g></g></g></svg>