<svg id="Layer_1" data-name="Layer 1" xmlns="http://www.w3.org/2000/svg" viewBox="0 0 5215.03 3873.49"><defs><style>.cls-1{fill:#f79421;}.cls-2{fill:#f15b27;}.cls-3{fill:#ed1c24;}.cls-4{fill:#be1e2d;}.cls-5{fill:#f4f2e9;}.cls-6{fill:#b9e1d9;}.cls-7{fill:#676767;}.cls-8{fill:#010101;}.cls-9{fill:#fff;}.cls-10,.cls-12{fill:none;stroke-miterlimit:10;}.cls-10{stroke:#818181;}.cls-11{fill:#f9f7ef;}.cls-12{stroke:#676767;stroke-width:0.75px;}</style></defs><g id="_2_YEAR_3" data-name="2 YEAR 3"><g id="right_leg" data-name="right leg"><g id="right_leg-2" data-name="right leg"><path class="cls-1" d="M4204.55,1943.86s-85.76,510.45-618.71,1796.08c0,0,91.87-1.23,303.24,166.41,0,0-266.46-72.53-315.47-62.74,0,0-91.87,15.27-600.31,280.78,0,0,61.25-113.42,379.79-315.12,0,0-159.27-31.49-220.52-31.49s324.67-81.92,324.67-81.92,355.28-686.94,569.68-1682.63Z" transform="translate(-250.94 -250.89)"/><path class="cls-2" d="M3524.6,3843.57s-82,13.65-519.06,238.63c-24.47,27.7-32.28,42.15-32.28,42.15,437.25-228.34,566.41-271.59,594-279.24C3548.2,3842.66,3533.08,3841.87,3524.6,3843.57Z" transform="translate(-250.94 -250.89)"/><path class="cls-2" d="M4204.55,1943.86l-53,20.68c-21.63,106.82-143,637.36-614.76,1775.4,0,0,84.81-1,278.65,147.27,42.7,10.7,73.6,19.14,73.6,19.14-211.33-167.6-303.24-166.41-303.24-166.41C4118.79,2454.31,4204.55,1943.86,4204.55,1943.86Z" transform="translate(-250.94 -250.89)"/></g></g><g id="left_leg" data-name="left leg"><g id="left_leg-2" data-name="left leg"><path class="cls-1" d="M3138.65,2170.73l238.91-37.81s-122.53,479-649.32,1512.5l159.27,195.38S2667,3727.35,2605.7,3740,2078.87,3929,2078.87,3929s196-94.51,379.79-182.75-202.16-18.9-202.16-18.9L2636.29,3614C2636.37,3613.89,3150.92,2435.41,3138.65,2170.73Z" transform="translate(-250.94 -250.89)"/><path class="cls-2" d="M2345.21,3713.26c-26.13,3-52.92,6.75-75.89,10.26l-12.79,3.83S2296.86,3720.09,2345.21,3713.26Z" transform="translate(-250.94 -250.89)"/><path class="cls-2" d="M3377.56,2132.92l-49.41,7.82c-7.93,30-139.11,510.77-648.93,1511l119.65,146.76c49.69,22.3,88.64,42.3,88.64,42.3l-159.28-195.38C3255.07,2611.85,3377.56,2132.92,3377.56,2132.92Z" transform="translate(-250.94 -250.89)"/><path class="cls-2" d="M2556.73,3746.21c-37.25,7.66-224,75.93-364.68,128.26-67.64,32.55-113.14,54.5-113.14,54.5s390.61-148.07,503.31-182.6C2572.16,3745.07,2563.44,3744.83,2556.73,3746.21Z" transform="translate(-250.94 -250.89)"/></g></g><path class="cls-3" d="M1024,919.16s-75.69,128.1-12.12,234.57,98.93,88.12,98.93,88.12Z" transform="translate(-250.94 -250.89)"/><path class="cls-4" d="M1024,919.16s-75.69,128.1-12.12,234.57,98.93,88.12,98.93,88.12Z" transform="translate(-250.94 -250.89)"/><path class="cls-3" d="M1030.22,890s-75.69,128.1-12.11,234.57,98.93,88.12,98.93,88.12Z" transform="translate(-250.94 -250.89)"/><path class="cls-3" d="M1351.92,380.21S1279.82,250,1155.83,250.89s-126.12,40.65-126.12,40.65Z" transform="translate(-250.94 -250.89)"/><path class="cls-4" d="M1351.92,380.21S1279.82,250,1155.83,250.89s-126.12,40.65-126.12,40.65Z" transform="translate(-250.94 -250.89)"/><path class="cls-3" d="M1373.94,400.38s-72.1-130.19-196.09-129.32-126.12,40.65-126.12,40.65Z" transform="translate(-250.94 -250.89)"/><g id="head"><g id="head-2" data-name="head"><g id="beak"><path class="cls-1" d="M484.92,897.81s-163.53,219.69-234,337.41c0,0,266.18-53.51,333.78-50.87C584.76,1184.35,764.71,1030.41,484.92,897.81Z" transform="translate(-250.94 -250.89)"/><path class="cls-2" d="M584.76,1146.55c-54.42-2.13-237.53,32.12-306.86,45.54-9.91,15.35-19,29.87-26.92,43.09,0,0,266.18-53.51,333.78-50.87,0,0,68-58.17,55.41-133.74C631,1106.93,584.76,1146.55,584.76,1146.55Z" transform="translate(-250.94 -250.89)"/></g><g id="head-3" data-name="head"><path id="neck_n_head" data-name="neck n head" class="cls-5" d="M2263.28,1295.2s238.91,731.06-263.41,1159.58c0,0-450.24-330.85-563.58-510.45,0,0-193-456.9-272.61-753.07,0,0-263.41-94.52-575.84,0,0,0,61.25-119.73-140.88-245.78,0,0,343.05-611.28,563.57-649.12,0,0,502.32-157.54,796.36,598.69Z" transform="translate(-250.94 -250.89)"/><path class="cls-6" d="M1073.63,1168.17s246.29-166.49,356.55-101.65L1269.09,1516.2l-78.53-232.32Z" transform="translate(-250.94 -250.89)"/></g><path class="cls-7" d="M1517.08,1702s-156.16-168.15-199.45-278.22c0,0-2.29-40.92,44.83-5.56Z" transform="translate(-250.94 -250.89)"/><path class="cls-7" d="M1882.46,1239.32S1785.9,903.57,1659.3,904.48C1659.3,904.44,1745.53,989.48,1882.46,1239.32Z" transform="translate(-250.94 -250.89)"/><path class="cls-7" d="M1718.53,859.61s234.3,202.37,309.71,302.6c0,0-85.36-81.13-113.38-89C1886.13,1065.14,1755.55,891,1718.53,859.61Z" transform="translate(-250.94 -250.89)"/><path class="cls-7" d="M1549.28,997.22c-3.75-1.54,123.64,84,186.26,164.76,42.62,54.93,77.82,107.53,80.82,132.28l-89-126.56Z" transform="translate(-250.94 -250.89)"/><path class="cls-7" d="M1645.33,1530.92s-37.57-21.31-74.07-62.91c-1.11-1.26-20.76-12.19-36.07-31.13-46.21-57.34-67.84-151.54-92-193.65,41.56,55.57,66.18,133.82,102.84,181.37C1576.67,1464.34,1618.18,1495,1645.33,1530.92Z" transform="translate(-250.94 -250.89)"/><path class="cls-7" d="M1596.52,1422.87s33.14,55.36,79.67,69.14C1720.74,1505.19,1596.52,1422.87,1596.52,1422.87Z" transform="translate(-250.94 -250.89)"/><path class="cls-7" d="M1288.82,1225.24s24.94,59,50.08,94.23Z" transform="translate(-250.94 -250.89)"/><path class="cls-7" d="M1579.15,1175.55s37.45,71,55,78.1C1651.41,1260.59,1579.15,1175.55,1579.15,1175.55Z" transform="translate(-250.94 -250.89)"/><path class="cls-7" d="M1879.78,1154.52s41.2,56.82,57.34,62.43C1953,1222.43,1879.78,1154.52,1879.78,1154.52Z" transform="translate(-250.94 -250.89)"/><g id="eye"><path class="cls-8" d="M909.46,683.92s1.58-1.89,4.7-5.17c18.07-18.86,87.69-83.07,197.43-83.07l24.51,12.59S1041.47,728,923.39,683.88" transform="translate(-250.94 -250.89)"/><ellipse class="cls-9" cx="1072.22" cy="618.36" rx="21.47" ry="4.38" transform="translate(-390.46 115.04) rotate(-18.2)"/></g></g></g><g id="body"><g id="body-2" data-name="body"><g id="left_thigh" data-name="left thigh"><path id="left_thigh-2" data-name="left thigh" class="cls-5" d="M2569.55,2769.9c-8.05-5.57,297,221.78,360.42,216.93,58.48-4.46,37,8.6,58.05-8.61s255.36-94.87,414.64-258.72l116.26-274.66-1161.68,22.93Z" transform="translate(-250.94 -250.89)"/><path class="cls-6" d="M2913.71,2984.65s127.55-139.14,47.91-284.09S2900.33,2457,2900.33,2457l618.59-12.24-116.26,274.66S3112.72,2964.21,2930,2986.75" transform="translate(-250.94 -250.89)"/></g><g id="body-3" data-name="body"><path id="body-4" data-name="body" class="cls-5" d="M2131.59,1128.2s1196.76-252.09,2414.67,0c0,0,791.07-47.64,875.84-112,0,0,63.81-37.8,37.53,56,0,0-941.75,1404.65-1326.32,1530.69,0,0-206.9,315.11-249.8,315.11,0,0-61.24,44.12-110.26,50.44,0,0-367.55-182.76-447.19-157.54,0,0-790.25,75.61-925-18.9,0,0-680-479-912.74-775.13C1488.35,2016.79,1568,1386.6,2131.59,1128.2Z" transform="translate(-250.94 -250.89)"/><path class="cls-6" d="M1686.69,2223.89,2401.13,2792s446.87,103.74,969.25,18.78L4161.29,2592s341.08-210.18,746.84-759.74,134.65-176,134.65-176l-572.13,532s-1228.29,638.43-1889.37,421l-765.19-494.71C1816.09,2114.46,1459.22,2018.21,1686.69,2223.89Z" transform="translate(-250.94 -250.89)"/><path class="cls-6" d="M3747.76,2706.32s121,178.34,80.94,243.84l87.41-54.69,217.2-292.58Z" transform="translate(-250.94 -250.89)"/></g><path class="cls-10" d="M5431.65,1036.13s-367,205.17-599.17,249.44" transform="translate(-250.94 -250.89)"/><path class="cls-10" d="M4760.54,1135.65s557.73-63.14,665.82-112.58c1.89-.87,3.67-1.74,5.29-2.61" transform="translate(-250.94 -250.89)"/><path class="cls-10" d="M5451.77,1052.59s-396.2,373.08-593.2,479.59" transform="translate(-250.94 -250.89)"/><path class="cls-10" d="M5464.88,1023.54c-7,10.14-588.91,426.08-815.59,457.57" transform="translate(-250.94 -250.89)"/></g></g><g id="wing"><g id="wing-2" data-name="wing"><g id="wing-3" data-name="wing"><path id="wing-4" data-name="wing" class="cls-11" d="M2447.06,1629.22s318.55-302.48,802.48-271c0,0,575.85,6.31,741.24,88.24,0,0,73.75,35.51,92,46.13s0,62.07,0,62.07,30.51,11.53,67.25-20-24.51,201.65-67.4,226.87,78.65,0,78.65,0-152.17,554.57-917.91,668c0,0-232.8,126-631-403.31C2612.45,2026.26,2465.45,1849.78,2447.06,1629.22Z" transform="translate(-250.94 -250.89)"/><path id="wing-5" data-name="wing" class="cls-11" d="M2447.06,1629.22s318.55-302.48,802.48-271c0,0,575.85,6.31,741.24,88.24,0,0,73.75,35.51,92,46.13s0,62.07,0,62.07,30.51,11.53,67.25-20-24.51,201.65-67.4,226.87,78.65,0,78.65,0-152.17,554.57-917.91,668c0,0-232.8,126-631-403.31C2612.45,2026.26,2465.45,1849.78,2447.06,1629.22Z" transform="translate(-250.94 -250.89)"/><path class="cls-6" d="M4070.13,1658.58c-34,20,35.36,8.29,65.55,2.56,23.25-69.41,36.35-145.34,14.37-126.48a100.32,100.32,0,0,1-24.27,15.63C4109.83,1599.74,4088.33,1647.88,4070.13,1658.58Z" transform="translate(-250.94 -250.89)"/><path class="cls-6" d="M4100.48,1771.64c-89.18,168.39-323.12,474-869.6,555,0,0-232.8,126-631-403.31,0,0-104.89-125.93-148.58-298-2.84,2.53-4.34,4-4.34,4,18.39,220.56,165.39,397,165.39,397,398.18,529.35,631,403.31,631,403.31,765.74-113.46,917.9-668,917.9-668S4126.29,1768.8,4100.48,1771.64Z" transform="translate(-250.94 -250.89)"/></g><path class="cls-12" d="M2940.19,2004.2c177.66,0,825.45-104.07,1171-320.8" transform="translate(-250.94 -250.89)"/><path class="cls-12" d="M3117.81,1815.13s539.07-56.71,1032.2-280.43l-14.09-2.92-3.12,35.36" transform="translate(-250.94 -250.89)"/><path class="cls-12" d="M3044.33,2287.78c-13-3.28,511.05-31.26,1029.12-472.65" transform="translate(-250.94 -250.89)"/><path class="cls-12" d="M2836.05,2149.14c33.82-19.18,793.91,52.49,1274.18-409.62" transform="translate(-250.94 -250.89)"/></g></g></g></svg>