<svg id="Layer_1" data-name="Layer 1" xmlns="http://www.w3.org/2000/svg" viewBox="0 0 5535.68 3808.54"><defs><style>.cls-1{fill:#f89521;}.cls-2{fill:#f15a29;}.cls-3{fill:#f7f5ec;}.cls-4{fill:#80c4bc;}.cls-5{fill:#bae2d9;}.cls-6{fill:none;stroke:#414042;stroke-miterlimit:10;stroke-width:2px;}.cls-7{fill:#e91d44;}.cls-8{fill:#9f2b42;}.cls-9{fill:#666767;}.cls-10{fill:#fafaf3;}.cls-11{fill:#f1f2f2;}</style></defs><g id="_3_Year_1" data-name="3 Year 1"><g id="left_leg" data-name="left leg"><path class="cls-1" d="M2111.23,3713.94s220.45-40.41,258.89-89.15-8.07,68.18-8.07,68.18Z" transform="translate(-123.96 -141.69)"/><path class="cls-1" d="M2822.65,2591.67l-476.9,1078.6s-417.92,135.56-483,160.22c0,0,345.48-49.29,518.56-94.29,0,0,194.26,45.11,231.89,25.66,0,0-170.34-64.55-177.19-93.74l704.71-1335.79-301,68.08Z" transform="translate(-123.96 -141.69)"/><path class="cls-2" d="M2111.23,3713.94s220.45-40.41,258.89-89.15-8.07,68.18-8.07,68.18Z" transform="translate(-123.96 -141.69)"/><path class="cls-2" d="M2822.65,2591.67l-476.9,1078.6s-417.92,135.56-483,160.22c0,0,345.48-49.29,518.56-94.29,0,0,194.26,45.11,231.89,25.66,0,0-170.34-64.55-177.19-93.74l704.71-1335.79-301,68.08Z" transform="translate(-123.96 -141.69)"/><path class="cls-1" d="M2076.57,3721s220.44-40.4,258.89-89.15-8.08,68.19-8.08,68.19Z" transform="translate(-123.96 -141.69)"/><path class="cls-1" d="M2788,2598.74l-476.89,1078.6s-417.93,135.56-483,160.23c0,0,345.49-49.3,518.56-94.3,0,0,194.26,45.11,231.89,25.67,0,0-170.33-64.56-177.18-93.74l704.7-1335.79-301,68.07Z" transform="translate(-123.96 -141.69)"/></g><g id="right_leg" data-name="right  leg"><path class="cls-2" d="M2830.09,3814.27s220.45-40.41,258.89-89.15-8.07,68.19-8.07,68.19Z" transform="translate(-123.96 -141.69)"/><path class="cls-2" d="M3584.25,2653.3l-468.67,1057s-320.64,206.08-382.19,235.26c0,0,283-63.41,409.56-147.7,0,0,232.63-3.26,270.26-22.71,0,0-208.67-16.22-215.52-45.4L3902.4,2393.93l-301,68.07Z" transform="translate(-123.96 -141.69)"/><path class="cls-1" d="M2795.42,3819s220.45-40.41,258.9-89.15-8.08,68.18-8.08,68.18Z" transform="translate(-123.96 -141.69)"/><path class="cls-1" d="M3549.58,2658,3080.91,3715s-320.63,206.08-382.19,235.27c0,0,283-63.41,409.56-147.71,0,0,232.63-3.26,270.26-22.7,0,0-208.67-16.22-215.52-45.41l704.71-1335.79-301,68.08Z" transform="translate(-123.96 -141.69)"/></g><g id="body"><path id="left_thigh" data-name="left thigh" class="cls-3" d="M1997.12,2588.08s547.9,223.07,567.67,245.59,184,116.22,193.86,120,338.22-69.37,405.48-140.59,87-120,87-120-1054.05-185.19-1239.75-119.37C1993.16,2580.19,1997.12,2588.08,1997.12,2588.08Z" transform="translate(-123.96 -141.69)"/><path class="cls-4" d="M2814.05,2853.67l-55.37,100S3089,2890.52,3164.17,2813,2624,2669.93,2624,2669.93l-626.86-81.85,548.75,234.15S2821.94,2816.19,2814.05,2853.67Z" transform="translate(-123.96 -141.69)"/><path id="body-2" data-name="body" class="cls-3" d="M1769.94,1198.32l-261.38,823s234.71,454.93,308.56,477.41c0,0,279.56,197.45,867.67,277.45,0,0,287.49,95,332.3,97.48,0,0-145-82.48-121.33-110,0,0,163.52,72.48,203.08,77.48l-60.67-57.48s205.7,60,266.37,50l-92.3-42.48s182,22.48,200.45,22.48l-79.11-72.49s211,157.49,240,157.49,34.3-7.48,34.3-7.48,185.26-136.86,319.78-286.82c0,0,17.81,15,632.3-475.52,0,0,751.63-707.38,833.38-912.34,0,0,36.92-60-13.19-22.49s-42.18,32.49-42.18,32.49,274.29-242.45,282.18-275c0,0,15.82-47.48-10.55-50,0,0,72.33-56.89,43.07-53.33-27.26,3.33-41.33,7.48-66.81,20.81-21.3,11.15-42.19-7.48-87-5s-300.67,145-429.89,157.48c0,0,129.22-55,63.29-42.48s-807,242.45-843.93,292.45-580.23-281.22-2502.84-75C1710.82,1204.47,1769.94,1198.32,1769.94,1198.32Z" transform="translate(-123.96 -141.69)"/><path class="cls-5" d="M1656.38,2287.55s-1.45-165,222.07-54.4S2614.27,2683.08,2909,2653.08c0,0,699.78,64.74,1010.53-39.82,0,0-249.67,251.63-311.63,277.89,0,0,42.85-76.85-65.93-136.85,0,0-106.41-65.48-208.34-13.11l79.12,72.48s-191.86-25-200.45-22.48,92.3,42.48,92.3,42.48-50.11,11.26-266.38-50l60.67,57.48s-188.56-62.48-203.07-77.48c0,0-23.75,19.37,121.33,110l-332.3-97.48s-571-70.59-867.67-277.45C1817.12,2498.74,1762.12,2474.45,1656.38,2287.55Z" transform="translate(-123.96 -141.69)"/><path class="cls-6" d="M4483.48,1267s507.63-220.22,606.48-248.41" transform="translate(-123.96 -141.69)"/><line class="cls-6" x1="5435.08" y1="729.67" x2="4736.63" y2="1038.26"/><path class="cls-6" d="M4863.4,1180s-381.7,200.86-428.81,229.67" transform="translate(-123.96 -141.69)"/><path class="cls-6" d="M5338,1226.47S4754.33,1661,4660.18,1763.88" transform="translate(-123.96 -141.69)"/><line class="cls-6" x1="5485.64" y1="759.85" x2="4875.11" y2="1102.26"/><path class="cls-6" d="M4999.07,1244s-357.45,186.89-454.93,251.19" transform="translate(-123.96 -141.69)"/></g><g id="Layer_2" data-name="Layer 2"><path class="cls-7" d="M759.56,419.13s11.15-138.07,94.89-205.59,198.15-21.48,198.15-21.48L938.15,298s203.74-204.08,396.3-145.78c0,0-136.74,171.85-175.82,165.7l-111.63,43Z" transform="translate(-123.96 -141.69)"/><path class="cls-8" d="M1025.85,183.83l-65,94.45c22.52-25.52,39.56-39.15,90.85-87.11C1043.78,190.83,1036.11,183.54,1025.85,183.83Z" transform="translate(-123.96 -141.69)"/><path class="cls-8" d="M1287.08,142.87c-19,23.52-137.34,168.11-173.22,162.48l-111.63,43L762.56,396.91c-2.3,13.74-3,22.19-3,22.19l287.49-58.3,111.63-43c39.07,6.14,175.81-165.71,175.81-165.71A243.39,243.39,0,0,0,1287.08,142.87Z" transform="translate(-123.96 -141.69)"/></g><g id="head"><path class="cls-7" d="M806.15,857.36s44,102.48,29.89,125c0,0,24.63,41.67,62.41-34.15,0,0,58.89,56.67,60.66,0l-1.74-72.48Z" transform="translate(-123.96 -141.69)"/><path class="cls-8" d="M872.11,948.17C860.78,970.88,850.63,983.06,842,989c8.48,6.89,25.63,11.93,48.48-26.11A150.34,150.34,0,0,1,872.11,948.17Z" transform="translate(-123.96 -141.69)"/><path class="cls-8" d="M957.37,875.69,806.15,857.36s.52,1.18,1.41,3.37l123.4,15,1.75,72.48c-.34,10.26-2.52,16.78-5.89,20.63,15.33,7.67,31.37,8.52,32.26-20.63Z" transform="translate(-123.96 -141.69)"/><path id="head-2" data-name="head" class="cls-3" d="M358.7,614.06s385-292.45,812.3-307.45c0,0,364,235,888.79,844.86l171.41,155L1593,2181.26S1044.41,1176.44,978.48,924L577.63,791.51Z" transform="translate(-123.96 -141.69)"/><path class="cls-1" d="M577.59,791.54s-290.11-15-453.63,10c0,0,184.59-167.48,234.71-187.48Z" transform="translate(-123.96 -141.69)"/><path class="cls-2" d="M542.89,763.43c-51.41-2.22-238.6-9-380.19,3.59C139.48,787.47,124,801.54,124,801.54c163.52-25,453.63-10,453.63-10Z" transform="translate(-123.96 -141.69)"/><g id="stripes"><path class="cls-9" d="M1564,827.17S1943.75,1177.1,1957.6,1244Z" transform="translate(-123.96 -141.69)"/><path class="cls-9" d="M1643.08,1035.58s191.86,275.26,233.41,288.38S1643.08,1035.58,1643.08,1035.58Z" transform="translate(-123.96 -141.69)"/><path class="cls-9" d="M1564,925.58c2,2.82,79.11,79.71,96.93,85.3S1564,925.58,1564,925.58Z" transform="translate(-123.96 -141.69)"/><path class="cls-9" d="M1558,707.8s152.3,98.74,193.85,160.6S1740,881.51,1740,881.51Z" transform="translate(-123.96 -141.69)"/><path class="cls-9" d="M1542.19,1035.58C1558,1039,1732.08,1211.47,1760.75,1294Z" transform="translate(-123.96 -141.69)"/><path class="cls-9" d="M1518.45,937.77c5.93,5.63,88.89,61.85,94.89,82.48S1518.45,937.77,1518.45,937.77Z" transform="translate(-123.96 -141.69)"/><path class="cls-9" d="M1856.71,1180s114.75,117.75,144.41,174Z" transform="translate(-123.96 -141.69)"/><path class="cls-9" d="M1767.68,925.58S1978,1103.36,2020.2,1157.36c0,0,38.22,31.63,30.33,42.89s-49.45-42.89-49.45-42.89Z" transform="translate(-123.96 -141.69)"/><path class="cls-9" d="M1602.9,1241.58s140.44,150,154.29,238.08Z" transform="translate(-123.96 -141.69)"/><path class="cls-9" d="M1427.49,1200.21s45.48,121.86,81.11,165S1427.49,1200.21,1427.49,1200.21Z" transform="translate(-123.96 -141.69)"/><path class="cls-9" d="M1593.64,1387.7c5.92,7.48,75.15,121.85,98.89,135S1593.64,1387.7,1593.64,1387.7Z" transform="translate(-123.96 -141.69)"/><path class="cls-9" d="M1482.67,1144.51s98.82,183.22,143.93,230,80.37,121.3,109.6,141.07S1482.67,1144.51,1482.67,1144.51Z" transform="translate(-123.96 -141.69)"/><path class="cls-9" d="M1643.08,1211.47s73.19,144.34,108.78,176.23S1643.08,1211.47,1643.08,1211.47Z" transform="translate(-123.96 -141.69)"/><path class="cls-9" d="M1518.45,1084c13.85,3.74,79.52,103.11,95.15,142.48S1518.45,1084,1518.45,1084Z" transform="translate(-123.96 -141.69)"/><path class="cls-9" d="M1438.9,787.28s54,33.82,63.81,54.93S1438.9,787.28,1438.9,787.28Z" transform="translate(-123.96 -141.69)"/><path class="cls-9" d="M1415.19,999.54s43.52,45.45,47.48,68.19S1415.19,999.54,1415.19,999.54Z" transform="translate(-123.96 -141.69)"/><path class="cls-9" d="M1493.75,1422.18s85,130.81,87,160.81-9.49-50.63-9.49-50.63Z" transform="translate(-123.96 -141.69)"/><path class="cls-9" d="M1463.19,1597.73s35.3,76,34.26,85.45S1463.19,1597.73,1463.19,1597.73Z" transform="translate(-123.96 -141.69)"/><path class="cls-9" d="M1387.45,1314.66c2.56,4.55,86.85,101.74,79.56,123.37" transform="translate(-123.96 -141.69)"/></g><path class="cls-5" d="M828.78,871.43,978.48,924l95.12,240.74,181.11-249.41s41.22-101-65.08-113.82S828.78,871.43,828.78,871.43Z" transform="translate(-123.96 -141.69)"/></g><g id="wing"><path class="cls-10" d="M2383.61,1417.47s-192.52,359.93-155.6,544.9c0,0,240.34,327.44,850.71,369.93,0,0,763.34-167.49,1174.75-567.42,0,0,97.6-25,192.52-50,0,0,13.19-25-87-80,0,0,42.18-42.48,34.29-75,0,0-121.33-42.48-208.33-47.48,0,0-36.93-40-50.11-40C4134.81,1472.47,3348.87,1157.51,2383.61,1417.47Z" transform="translate(-123.96 -141.69)"/><path class="cls-5" d="M4393.25,1560s-7.7-2.71-20.59-6.82a175.66,175.66,0,0,1-13.7,16.19c12,6.59,22.4,12.77,31.37,18.52C4393.81,1578.51,4395.44,1568.85,4393.25,1560Z" transform="translate(-123.96 -141.69)"/><path class="cls-5" d="M4401.62,1660.92c-78.7,20.56-148.15,38.37-148.15,38.37-411.41,399.93-1174.75,567.41-1174.75,567.41C2468.35,2224.22,2228,1896.77,2228,1896.77c-1.37-6.85-2.37-14-3.14-21.25-2.71,31.4-2,60.88,3.14,86.88,0,0,240.34,327.45,850.71,369.93,0,0,763.34-167.48,1174.75-567.41,0,0,97.6-25,192.52-50C4446,1714.92,4455,1697.85,4401.62,1660.92Z" transform="translate(-123.96 -141.69)"/><g id="wing_stripes" data-name="wing stripes"><path class="cls-6" d="M4184.92,1512.44s-424.49-32.6-637.08,3.89" transform="translate(-123.96 -141.69)"/><path class="cls-6" d="M4359,1587.85S3430.32,1531.62,2865.28,1696" transform="translate(-123.96 -141.69)"/><path class="cls-6" d="M4253.47,1699.29s-798.89-10.78-1136.89,124.19" transform="translate(-123.96 -141.69)"/><path class="cls-6" d="M4253,1699.11S3669,1906.55,3078.72,2010" transform="translate(-123.96 -141.69)"/><path class="cls-6" d="M2999.54,1438s546-64.37,878.6,0" transform="translate(-123.96 -141.69)"/></g></g><g id="eye"><path d="M828.15,542.84s89.67-87.49,286.15-88.74c0,0,23.74,15-108.11,88.74C1006.15,542.84,920.45,566.58,828.15,542.84Z" transform="translate(-123.96 -141.69)"/><path class="cls-11" d="M990.34,491.5s26.7-26,85.22-26.4c0,0,7.07,4.48-32.19,26.4C1043.34,491.5,1017.82,498.58,990.34,491.5Z" transform="translate(-123.96 -141.69)"/></g></g></svg>