<?xml version="1.0" encoding="utf-8"?>
<!-- Generator: Adobe Illustrator 25.0.0, SVG Export Plug-In . SVG Version: 6.00 Build 0)  -->
<svg version="1.1" xmlns="http://www.w3.org/2000/svg" xmlns:xlink="http://www.w3.org/1999/xlink" x="0px" y="0px"
	 viewBox="0 0 3840 2160" style="enable-background:new 0 0 3840 2160;" xml:space="preserve">
<style type="text/css">
	.st0{fill:#F89521;}
	.st1{fill:#F15A29;}
	.st2{fill:#F7F5EC;}
	.st3{fill:#80C4BC;}
	.st4{fill:#BAE2D9;}
	.st5{fill:none;stroke:#414042;stroke-width:2;stroke-miterlimit:10;}
	.st6{fill:#E91D44;}
	.st7{fill:#9F2B42;}
	.st8{fill:#666767;}
	.st9{fill:#FAFAF3;}
	.st10{fill:#F1F2F2;}
</style>
<g id="left_leg">
	<g>
		<g>
			<path class="st0" d="M1535.97,1699.03c0,0,85.37-16.52,100.25-36.43c14.88-19.91-3.13,27.86-3.13,27.86L1535.97,1699.03z"/>
			<path class="st0" d="M1811.46,1240.5l-184.67,440.7c0,0-161.85,55.39-187.02,65.46c0,0,133.79-20.14,200.8-38.53
				c0,0,75.23,18.43,89.8,10.48c0,0-65.96-26.38-68.61-38.3l272.89-545.78l-116.58,27.82L1811.46,1240.5z"/>
		</g>
		<g>
			<path class="st1" d="M1535.97,1699.03c0,0,85.37-16.52,100.25-36.43c14.88-19.91-3.13,27.86-3.13,27.86L1535.97,1699.03z"/>
			<path class="st1" d="M1811.46,1240.5l-184.67,440.7c0,0-161.85,55.39-187.02,65.46c0,0,133.79-20.14,200.8-38.53
				c0,0,75.23,18.43,89.8,10.48c0,0-65.96-26.38-68.61-38.3l272.89-545.78l-116.58,27.82L1811.46,1240.5z"/>
		</g>
		<g>
			<path class="st0" d="M1522.54,1701.91c0,0,85.37-16.52,100.25-36.43c14.88-19.91-3.13,27.86-3.13,27.86L1522.54,1701.91z"/>
			<path class="st0" d="M1798.03,1243.37l-184.67,440.7c0,0-161.85,55.39-187.02,65.46c0,0,133.79-20.14,200.8-38.53
				c0,0,75.23,18.43,89.8,10.48c0,0-65.96-26.38-68.61-38.3l272.89-545.78l-116.58,27.82L1798.03,1243.37z"/>
		</g>
	</g>
</g>
<g id="right_leg">
	<g>
		<g>
			<path class="st1" d="M1814.34,1740.03c0,0,85.37-16.52,100.25-36.43s-3.13,27.86-3.13,27.86L1814.34,1740.03z"/>
			<path class="st1" d="M2106.38,1265.67l-181.49,431.86c0,0-124.16,84.2-148,96.12c0,0,109.59-25.91,158.6-60.35
				c0,0,90.08-1.32,104.65-9.27c0,0-80.81-6.62-83.46-18.55l272.89-545.78L2113,1187.51L2106.38,1265.67z"/>
		</g>
		<g>
			<path class="st0" d="M1800.91,1741.95c0,0,85.37-16.52,100.25-36.43c14.88-19.91-3.13,27.86-3.13,27.86L1800.91,1741.95z"/>
			<path class="st0" d="M2092.95,1267.59l-181.49,431.86c0,0-124.16,84.2-148,96.12c0,0,109.59-25.91,158.6-60.35
				c0,0,90.08-1.32,104.65-9.27c0,0-80.81-6.62-83.46-18.55l272.89-545.78l-116.58,27.82L2092.95,1267.59z"/>
		</g>
	</g>
</g>
<g id="body_1_">
	<g>
		<g>
			<path id="left_thigh" class="st2" d="M1501.17,1175.38c0,0,212.17,91.15,219.83,100.34s71.23,47.49,75.06,49.02
				c3.83,1.53,130.98-28.34,157.02-57.45c26.04-29.11,33.7-49.02,33.7-49.02s-408.17-75.66-480.09-48.77
				C1499.64,1172.15,1501.17,1175.38,1501.17,1175.38z"/>
			<path class="st3" d="M1817.51,1283.89l-21.45,40.85c0,0,127.91-25.79,157.02-57.45c29.11-31.66-209.18-58.47-209.18-58.47
				l-242.74-33.45l212.49,95.66C1713.66,1271.05,1820.57,1268.57,1817.51,1283.89z"/>
		</g>
		<g>
			<path id="body" class="st2" d="M1413.19,607.54l-101.21,336.27c0,0,90.89,185.87,119.49,195.06c0,0,108.26,80.68,336,113.36
				c0,0,111.32,38.81,128.68,39.83c0,0-56.17-33.7-46.98-44.94c0,0,63.32,29.62,78.64,31.66l-23.49-23.49
				c0,0,79.66,24.51,103.15,20.43l-35.74-17.36c0,0,70.47,9.19,77.62,9.19l-30.64-29.62c0,0,81.7,64.34,92.94,64.34
				c11.23,0,13.28-3.06,13.28-3.06s71.74-55.91,123.83-117.19c0,0,6.89,6.13,244.85-194.3c0,0,291.06-289.02,322.72-372.77
				c0,0,14.3-24.51-5.11-9.19c-19.4,15.32-16.34,13.28-16.34,13.28s106.21-99.06,109.28-112.34c0,0,6.13-19.4-4.09-20.43
				c0,0,28.01-23.25,16.68-21.79c-10.55,1.36-16,3.06-25.87,8.51c-8.24,4.55-16.34-3.06-33.7-2.04
				c-17.36,1.02-116.43,59.23-166.47,64.34c0,0,50.04-22.47,24.51-17.36c-25.53,5.11-312.51,99.06-326.81,119.49
				s-224.68-114.91-969.19-30.64C1390.3,610.06,1413.19,607.54,1413.19,607.54z"/>
			<path class="st4" d="M1369.22,1052.59c0,0-0.56-67.42,85.99-22.23c86.55,45.19,284.94,183.83,399.06,171.57
				c0,0,270.98,26.46,391.32-16.26c0,0-96.68,102.81-120.68,113.54c0,0,16.6-31.4-25.53-55.91c0,0-41.21-26.76-80.68-5.36
				l30.64,29.62c0,0-74.3-10.21-77.62-9.19c-3.32,1.02,35.74,17.36,35.74,17.36s-19.4,4.6-103.15-20.43l23.49,23.49
				c0,0-73.02-25.53-78.64-31.66c0,0-9.19,7.91,46.98,44.94l-128.68-39.83c0,0-221.11-28.85-336-113.36
				C1431.47,1138.87,1410.16,1128.95,1369.22,1052.59z"/>
		</g>
		<g>
			<path class="st5" d="M2463.98,635.59c0,0,196.57-89.98,234.86-101.5"/>
			<line class="st5" x1="2880.48" y1="473.96" x2="2610.02" y2="600.04"/>
			<path class="st5" d="M2611.11,600.04c0,0-147.82,82.06-166.06,93.84"/>
			<path class="st5" d="M2794.87,619.04c0,0-226.01,177.52-262.47,219.57"/>
			<line class="st5" x1="2900.06" y1="486.28" x2="2663.64" y2="626.19"/>
			<path class="st5" d="M2663.64,626.19c0,0-138.42,76.36-176.17,102.64"/>
		</g>
	</g>
</g>
<g id="red">
	<g>
		<path class="st6" d="M1021.94,289.17c0,0,4.32-56.42,36.75-84.01c32.42-27.58,76.73-8.78,76.73-8.78l-44.31,43.26
			c0,0,78.9-83.38,153.47-59.56c0,0-52.96,70.21-68.09,67.71l-43.23,17.55L1021.94,289.17z"/>
		<path class="st7" d="M1125.05,193.04l-25.16,38.6c8.71-10.43,15.32-16,35.18-35.59C1131.99,195.9,1129.03,192.92,1125.05,193.04z"
			/>
		<path class="st7" d="M1226.21,176.3c-7.35,9.61-53.18,68.69-67.09,66.39l-43.23,17.55l-92.8,19.86c-0.89,5.61-1.15,9.07-1.15,9.07
			l111.32-23.82l43.23-17.55c15.13,2.51,68.09-67.71,68.09-67.71C1238.47,178.14,1232.33,176.92,1226.21,176.3z"/>
	</g>
</g>
<g id="head_1_">
	<g>
		<g>
			<path class="st6" d="M1039.98,468.23c0,0,17.02,41.87,11.57,51.06c0,0,9.53,17.02,24.17-13.96c0,0,22.81,23.15,23.49,0
				l-0.68-29.62L1039.98,468.23z"/>
			<g>
				<path class="st7" d="M1065.51,505.34c-4.39,9.28-8.31,14.25-11.66,16.66c3.29,2.81,9.93,4.87,18.77-10.66
					C1068.64,508.52,1065.51,505.34,1065.51,505.34z"/>
				<path class="st7" d="M1098.53,475.72l-58.55-7.49c0,0,0.2,0.49,0.55,1.38l47.79,6.11l0.68,29.62c-0.12,4.19-0.97,6.86-2.28,8.43
					c5.94,3.14,12.14,3.48,12.49-8.43L1098.53,475.72z"/>
			</g>
		</g>
		<g>
			<path id="head" class="st2" d="M866.7,368.83c0,0,149.11-119.49,314.55-125.62c0,0,140.94,96,344.17,345.19l66.38,63.32
				l-247.15,357.45c0,0-212.43-410.55-237.96-513.7l-155.23-54.13L866.7,368.83z"/>
			<g>
				<path class="st0" d="M951.47,441.34c0,0-112.34-6.13-175.66,4.09c0,0,71.49-68.43,90.89-76.6L951.47,441.34z"/>
				<path class="st1" d="M938.03,429.85c-19.91-0.91-92.39-3.68-147.22,1.47c-9,8.36-15,14.11-15,14.11
					c63.32-10.21,175.66-4.09,175.66-4.09L938.03,429.85z"/>
			</g>
			<g id="stripes">
				<path class="st8" d="M1333.43,455.89c0,0,147.06,142.98,152.43,170.3L1333.43,455.89z"/>
				<path class="st8" d="M1364.06,541.04c0,0,74.3,112.47,90.38,117.83C1470.53,664.23,1364.06,541.04,1364.06,541.04z"/>
				<path class="st8" d="M1333.43,496.1c0.77,1.16,30.64,32.56,37.53,34.86C1377.85,533.26,1333.43,496.1,1333.43,496.1z"/>
				<path class="st8" d="M1331.13,407.13c0,0,58.98,40.34,75.06,65.62c16.09,25.28-4.6,5.36-4.6,5.36L1331.13,407.13z"/>
				<path class="st8" d="M1325,541.04c6.13,1.4,73.53,71.87,84.64,105.57L1325,541.04z"/>
				<path class="st8" d="M1315.81,501.09c2.3,2.3,34.43,25.28,36.75,33.7S1315.81,501.09,1315.81,501.09z"/>
				<path class="st8" d="M1446.79,600.04c0,0,44.43,48.11,55.91,71.09L1446.79,600.04z"/>
				<path class="st8" d="M1412.32,496.1c0,0,81.45,72.64,97.79,94.7c0,0,14.81,12.92,11.74,17.52s-19.15-17.52-19.15-17.52
					L1412.32,496.1z"/>
				<path class="st8" d="M1348.5,625.21c0,0,54.38,61.28,59.74,97.28L1348.5,625.21z"/>
				<path class="st8" d="M1280.57,608.32c0,0,17.62,49.79,31.4,67.4C1325.77,693.34,1280.57,608.32,1280.57,608.32z"/>
				<path class="st8" d="M1344.91,684.91c2.3,3.06,29.11,49.79,38.3,55.15S1344.91,684.91,1344.91,684.91z"/>
				<path class="st8" d="M1301.95,585.55c0,0,38.27,74.87,55.73,93.99c17.47,19.12,31.12,49.55,42.43,57.64
					C1411.43,745.26,1301.95,585.55,1301.95,585.55z"/>
				<path class="st8" d="M1364.06,612.91c0,0,28.34,58.98,42.13,72C1419.98,697.94,1364.06,612.91,1364.06,612.91z"/>
				<path class="st8" d="M1315.81,560.83c5.36,1.53,30.8,42.13,36.85,58.21C1358.7,635.13,1315.81,560.83,1315.81,560.83z"/>
				<path class="st8" d="M1285,439.6c0,0,20.93,13.82,24.71,22.44C1313.5,470.67,1285,439.6,1285,439.6z"/>
				<path class="st8" d="M1275.82,526.32c0,0,16.85,18.57,18.38,27.86C1295.74,563.48,1275.82,526.32,1275.82,526.32z"/>
				<path class="st8" d="M1306.23,699c0,0,32.94,53.45,33.7,65.7s-3.67-20.68-3.67-20.68L1306.23,699z"/>
				<path class="st8" d="M1294.4,770.73c0,0,13.68,31.03,13.27,34.92S1294.4,770.73,1294.4,770.73z"/>
				<path class="st8" d="M1265.08,655.07c0.99,1.86,33.64,41.56,30.81,50.41"/>
			</g>
			<path class="st4" d="M1048.74,473.98l57.96,21.49l36.84,98.36l70.13-101.9c0,0,15.97-41.29-25.2-46.51
				S1048.74,473.98,1048.74,473.98z"/>
		</g>
	</g>
</g>
<g id="wing">
	<g>
		<g>
			<path class="st9" d="M1650.83,697.09c0,0-74.55,147.06-60.26,222.64c0,0,93.06,133.79,329.43,151.15
				c0,0,295.6-68.43,454.91-231.83c0,0,37.79-10.21,74.55-20.43c0,0,5.11-10.21-33.7-32.68c0,0,16.34-17.36,13.28-30.64
				c0,0-46.98-17.36-80.68-19.4c0,0-14.3-16.34-19.4-16.34C2328.96,719.55,2024.62,590.87,1650.83,697.09z"/>
			<g>
				<path class="st4" d="M2429.04,755.3c0,0-2.98-1.1-7.97-2.78c-2.84,3.98-5.3,6.61-5.3,6.61c4.66,2.7,8.68,5.21,12.15,7.56
					C2429.26,762.88,2429.88,758.94,2429.04,755.3z"/>
				<path class="st4" d="M2432.29,796.56c-30.48,8.4-57.38,15.67-57.38,15.67C2215.6,975.64,1920,1044.06,1920,1044.06
					c-236.36-17.36-329.43-151.15-329.43-151.15c-0.53-2.8-0.92-5.7-1.22-8.69c-1.05,12.84-0.79,24.87,1.22,35.49
					c0,0,93.06,133.79,329.43,151.15c0,0,295.6-68.43,454.92-231.83c0,0,37.79-10.21,74.55-20.43
					C2449.47,818.62,2452.95,811.65,2432.29,796.56z"/>
			</g>
		</g>
		<g id="wing_stripes">
			<path class="st5" d="M2348.36,735.89c0,0-164.37-13.32-246.7,1.58"/>
			<path class="st5" d="M2415.77,766.69c0,0-359.6-22.98-578.42,44.18"/>
			<path class="st5" d="M2374.92,812.23c0,0-309.37-4.4-440.26,50.74"/>
			<path class="st5" d="M2374.71,812.15c0,0-226.14,84.76-454.71,127.01"/>
			<path class="st5" d="M1889.34,705.49c0,0,211.42-26.31,340.23,0"/>
		</g>
	</g>
</g>
<g id="eys">
	<g>
		<path d="M1048.49,339.72c0,0,34.72-35.74,110.81-36.26c0,0,9.19,6.13-41.87,36.26C1117.43,339.72,1084.23,349.43,1048.49,339.72z"
			/>
		<path class="st10" d="M1111.3,318.75c0,0,10.34-10.65,33-10.8c0,0,2.74,1.82-12.47,10.8
			C1131.83,318.75,1121.94,321.64,1111.3,318.75z"/>
	</g>
</g>
</svg>
