<?xml version="1.0" encoding="utf-8"?>
<!-- Generator: Adobe Illustrator 25.0.0, SVG Export Plug-In . SVG Version: 6.00 Build 0)  -->
<svg version="1.1" xmlns="http://www.w3.org/2000/svg" xmlns:xlink="http://www.w3.org/1999/xlink" x="0px" y="0px"
	 viewBox="0 0 3840 2160" style="enable-background:new 0 0 3840 2160;" xml:space="preserve">
<style type="text/css">
	.st0{display:none;}
	.st1{display:inline;fill:#771616;}
	.st2{display:inline;fill:#179980;}
	.st3{fill:#F15A29;}
	.st4{fill:#F89521;}
	.st5{fill:#F7F5EC;}
	.st6{fill:#BAE2D9;}
	.st7{fill:#8DCBCB;}
	.st8{fill:#E91D44;}
	.st9{fill:#9F2B42;}
	.st10{fill:#FAFAF3;}
	.st11{fill:none;stroke:#6D6E71;stroke-width:1.5;stroke-miterlimit:10;}
</style>
<g id="Layer_5" class="st0">
	<rect class="st1" width="3840" height="2160"/>
	<ellipse class="st2" cx="2136.99" cy="1990.75" rx="600.85" ry="48.41"/>
</g>
<g id="right_leg">
	<g>
		<g>
			<path class="st3" d="M2130.65,1983.63c0,0,85.37-16.52,100.25-36.43c14.88-19.91-3.13,27.86-3.13,27.86L2130.65,1983.63z"/>
			<path class="st3" d="M2422.69,1509.26l-181.49,431.86c0,0-124.16,84.2-148,96.12c0,0,109.59-25.91,158.6-60.35
				c0,0,90.08-1.32,104.65-9.27c0,0-80.81-6.62-83.46-18.55l272.89-545.78l-116.58,27.82L2422.69,1509.26z"/>
		</g>
		<g>
			<path class="st4" d="M2117.22,1985.54c0,0,85.37-16.52,100.25-36.43c14.88-19.91-3.13,27.86-3.13,27.86L2117.22,1985.54z"/>
			<path class="st4" d="M2409.26,1511.18l-181.49,431.86c0,0-124.16,84.2-148,96.12c0,0,109.59-25.91,158.6-60.35
				c0,0,90.08-1.32,104.65-9.27c0,0-80.81-6.62-83.46-18.55l272.89-545.78l-116.58,27.82L2409.26,1511.18z"/>
		</g>
	</g>
</g>
<g id="left_leg">
	<g>
		<g>
			<path class="st4" d="M1856.08,1944.95c0,0,85.37-16.52,100.25-36.43s-3.13,27.86-3.13,27.86L1856.08,1944.95z"/>
			<path class="st4" d="M2131.57,1486.41l-184.67,440.7c0,0-161.85,55.39-187.02,65.46c0,0,133.79-20.14,200.8-38.53
				c0,0,75.23,18.43,89.8,10.48c0,0-65.96-26.38-68.61-38.3l272.89-545.78l-116.58,27.82L2131.57,1486.41z"/>
		</g>
		<g>
			<path class="st3" d="M1856.08,1944.95c0,0,85.37-16.52,100.25-36.43s-3.13,27.86-3.13,27.86L1856.08,1944.95z"/>
			<path class="st3" d="M2131.57,1486.41l-184.67,440.7c0,0-161.85,55.39-187.02,65.46c0,0,133.79-20.14,200.8-38.53
				c0,0,75.23,18.43,89.8,10.48c0,0-65.96-26.38-68.61-38.3l272.89-545.78l-116.58,27.82L2131.57,1486.41z"/>
		</g>
		<g>
			<path class="st4" d="M1842.65,1947.82c0,0,85.37-16.52,100.25-36.43s-3.13,27.86-3.13,27.86L1842.65,1947.82z"/>
			<path class="st4" d="M2118.14,1489.29l-184.67,440.7c0,0-161.85,55.39-187.02,65.46c0,0,133.79-20.14,200.8-38.53
				c0,0,75.23,18.43,89.8,10.48c0,0-65.96-26.38-68.61-38.3l272.89-545.78l-116.58,27.82L2118.14,1489.29z"/>
		</g>
	</g>
</g>
<g id="thigh">
	<g id="right_thigh_1_">
		<path id="right_thigh" class="st5" d="M2105.51,1471.81c5.11,1.02,232.85,114.38,250.21,117.45c17.36,3.06,64.34,0,84.77-13.28
			s168.51-166.47,193.02-260.43C2658.02,1221.6,2105.51,1471.81,2105.51,1471.81z"/>
		<path class="st6" d="M2373.1,1590.34c0,0,68.41-69.51,36.75-120.58l-114.62-78.73c0,0,258.16-111.56,339.07-96.58
			c0,0-28.37,141.62-193.81,281.53C2440.49,1575.98,2408.86,1590.41,2373.1,1590.34z"/>
	</g>
	<g id="left_thigh_1_">
		<path id="left_thigh" class="st5" d="M1941.09,1494.28c2.57,1.68,138.89,95.12,144,96.07c5.11,0.95,27.57-6.2,36.77-8.24
			c9.19-2.04,108.26-39.83,149.11-130.72c0,0-329.87-48-356.43-18.38C1914.53,1433,1910,1473.98,1941.09,1494.28z"/>
		<g>
			<path class="st7" d="M2085.09,1590.35c0,0,54.13-63.39,19.4-106.28l-33.73-55.87l200.2,23.19c0,0-41.08,108.9-178.33,138.18
				C2078.29,1592.62,2085.09,1590.35,2085.09,1590.35z"/>
		</g>
	</g>
</g>
<g id="body">
	<g id="body_1_">
		<path class="st5" d="M1517.26,597.6c0,0,606.64,2.04,1176.51,51.06c0,0-85.79-118.47-85.79-140.94c0,0,26.55,57.19,55.15,70.47
			c0,0-36.77-84.77-14.3-190.98c0,0,16.34,208.34,32.68,218.55c0,0-22.47-232.85,132.77-322.72c0,0-65.36,118.47-51.06,222.64
			c0,0,151.15-249.19,369.7-243.06c0,0-198.13,83.74-298.21,288c0,0,189.96-124.6,298.21-136.85c0,0-232.85,140.94-194.04,234.89
			c0,0,81.7-104.17,157.28-122.55c0,0-167.49,196.09-134.81,238.98c0,0,4.09,30.64,42.89-14.3c0,0-44.94,171.57-69.45,208.34
			c0,0,36.77-12.26,42.89-16.34s-6.13,4.09-6.13,4.09s-67.4,87.83-93.96,100.09c0,0,30.64-12.26,51.06-22.47
			c0,0-44.94,57.19-67.4,77.62c0,0,18.38,0,65.36,0c0,0-345.19,375.83-488.17,400.34c0,0-267.57,81.7-680.17-73.53
			c0,0-222.64-224.68-330.89-459.57C1427.38,969.34,1431.47,763.04,1517.26,597.6z"/>
		<path class="st6" d="M1544.09,1168.6c0,0-102.42-121.38,87.55-61.39c135.83,42.89,159.32,154.21,301.28,259.4
			c133.95,99.26,624,25.53,680.17-6.13c0,0,82.64-52.26,101.11-58.21c0,0,26.55-18.38,2.14,9.1
			c-25.55,28.76-166.51,147.99-221.71,174.73c-76.08,36.85-239.95,60.61-409.31,26.9c0,0-239.2-38.14-327.03-84.09
			C1758.28,1428.91,1544.16,1195.02,1544.09,1168.6z"/>
		<g>
			<path class="st6" d="M2924.57,739.22c0,0,119.49-181.45,171.57-213.11c0,0-168.51,200.17-134.81,238.98
				C2961.34,765.09,2946.02,764.42,2924.57,739.22z"/>
			<path class="st6" d="M3004.23,750.79c0,0-70.05,200.17-89.15,209.36l22.29-5.26C2937.37,954.89,2995.04,809,3004.23,750.79z"/>
			<polygon class="st6" points="2928.66,1024.49 2848.32,1107.81 2863.61,1099.4 			"/>
			<path class="st6" d="M3132.91,262.52c0,0-266.55,142.06-309.45,287.08h15.32C2838.79,549.6,2892.92,410.5,3132.91,262.52z"/>
			<path class="st6" d="M2814.28,283.04c0,0-0.73,1.22-2.04,3.5c-13.61,23.6-90.12,160.97-71.49,235.48l22.47-16.34
				C2763.21,505.68,2767.3,366.79,2814.28,283.04z"/>
		</g>
	</g>
</g>
<g id="red_1_">
	<g>
		<path class="st8" d="M1472.51,180.4c0,0,26.36-87.83,77.43-102.13c0,0,18.38-0.51-9.7,29.11c0,0,96.51-85.79,144-78.13
			c0,0,27.06,5.11,6.13,19.4c0,0-73.02,34.21-75.57,58.72c0,0,54.64-53.62,105.7-43.91c0,0,25.02,8.68-43.91,52.08
			c0,0,13.12-11.21,37.71-10.96c0,0,34.13-3.33,0,22.71c0,0-64.77,15.83-60.18,31.66C1658.7,174.79,1472.51,180.4,1472.51,180.4z"/>
		<g>
			<path class="st9" d="M1677.12,109.77c3.83-2.04,9.52-4.43,16.97-5.89c46.8-33.33,26.41-40.41,26.41-40.41
				c-0.97-0.18-1.93-0.34-2.9-0.48C1721.52,66.83,1724.67,78.78,1677.12,109.77z"/>
			<path class="st9" d="M1685.07,46.62c0,0-73.02,34.21-75.57,58.72c0,0,3.85-3.77,10.45-9.14c17.11-22.56,70.42-47.54,70.42-47.54
				c16.35-11.16,3.43-16.72-3.02-18.63C1693.03,32.9,1697.47,38.15,1685.07,46.62z"/>
			<path class="st9" d="M1722.76,104.82c3.17,2.74,1.87,8.51-13.77,20.44c0,0-64.77,15.83-60.18,31.66
				c4.1,14.13-143.71,20.12-175.59,21.25c-0.47,1.45-0.71,2.24-0.71,2.24s186.19-5.62,181.6-21.45
				c-4.6-15.83,60.18-31.66,60.18-31.66C1736.15,110.62,1730,105.99,1722.76,104.82z"/>
			<path class="st9" d="M1534.94,105.34c0,0,7.42-6.6,19.16-15.96c5.63-11.37-4.16-11.1-4.16-11.1c-0.09,0.03-0.18,0.06-0.28,0.08
				C1551.86,81.32,1551,88.41,1534.94,105.34z"/>
		</g>
	</g>
</g>
<g id="head">
	<g id="red">
		<path class="st8" d="M1451.35,370.76c0,0-11.83,52.06-33.67,67.45c0,0-10.79,32.76,15.67,17.14
			c26.46-15.61,45.54-32.11,46.95-42.68c0,0-28.93,74.45-40.39,80.42c0,0-8.91,28.32,15.55,22.85
			c24.46-5.47,110.74-54.45,117.41-74.14c6.67-19.69-83.03-128.9-104.41-96.54C1453.6,367.78,1451.35,370.76,1451.35,370.76z"/>
		<g>
			<path class="st9" d="M1465.61,432.65c2.81-6.64,5.21-12.51,6.89-16.7c-6.24,10.2-22.86,23.47-44.35,36.15
				c-5.2,3.07-8.96,4.26-11.64,4.21c1.82,3.85,6.47,5.16,16.84-0.96C1446.26,447.73,1457.41,439.9,1465.61,432.65z"/>
			<path class="st9" d="M1496.78,345.06c33.24,22.38,75.56,79.75,70.9,93.49c-6.67,19.69-92.95,68.67-117.41,74.14
				c-3.9,0.87-6.95,0.88-9.32,0.28c2.4,3.05,6.79,4.7,14.51,2.97c24.46-5.47,110.74-54.45,117.41-74.14
				C1577.78,427.33,1530.61,364.49,1496.78,345.06z"/>
		</g>
	</g>
	<g>
		<path class="st4" d="M1425.34,281.51c0,0-74.55,49.53-103.66,75.57c0,0,101.62,3.57,141.96,2.55L1425.34,281.51z"/>
		<path class="st3" d="M1425.34,281.51c0,0-0.15,0.1-0.42,0.28l36.16,73.77c-33.96,0.86-111.36-1.54-134.98-2.32
			c-1.57,1.33-3.05,2.62-4.43,3.85c0,0,101.62,3.57,141.96,2.55L1425.34,281.51z"/>
	</g>
	<g>
		<g>
			<path class="st5" d="M1459.04,179.89c0,0-31.66,62.3-40.85,107.23c0,0,9.19,62.3,20.43,77.62c0,0,67.4,63.32,102.13,59.23
				c0,0-105.19,233.87-114.38,399.32c0,0,66.38-51.06,134.81-129.7c0,0-32.68,104.17-30.64,173.62c0,0,55.15-74.55,112.34-109.28
				c0,0,62.3-32.68,86.81-88.85c0,0-23.49,77.62,31.66,112.34c0,0-18.38-104.17,32.68-123.57c0,0,29.36,68.43,133.79,79.66
				c0,0,104.17,22.47,139.91,5.11c0,0-150.02-46.04-147.72-103.23c0,0,86.45,41.95,392.83,9.27c0,0-232.85-111.32-255.32-110.3
				c0,0-141.96-221.62-261.45-337.02c0,0-75.57-64.34-201.19-85.79C1594.87,115.55,1547.89,114.53,1459.04,179.89z"/>
			<g>
				<path class="st6" d="M1720.49,651.72c-24.51,56.17-86.81,88.85-86.81,88.85c-42.4,25.74-83.67,73.37-102.19,96.29
					c-0.86,10.53-1.24,20.77-0.96,30.35c0,0,55.15-74.55,112.34-109.28c0,0,44.15-23.16,72.73-64
					C1714.78,670.62,1720.49,651.72,1720.49,651.72z"/>
				<path class="st6" d="M1431.76,349.52c2.15,6.51,4.46,11.94,6.86,15.22c0,0,50.11,47.07,86.18,57.42
					c4.26-9.99,6.76-15.55,6.76-15.55C1500.66,410.25,1443.91,360.54,1431.76,349.52z"/>
				<path class="st6" d="M1562.58,666.02c-51.35,59.02-112.15,112.71-134.01,130.74c-0.98,9-1.73,17.87-2.21,26.54
					c0,0,74.12-64.02,134.81-129.7C1567.19,669.78,1562.58,666.02,1562.58,666.02z"/>
				<path class="st6" d="M2281.05,633.61c-288.06,28.29-370.24-11.59-370.24-11.59c-0.39,9.68,3.59,19.03,10.46,27.9
					c-0.96-3.46-1.41-6.98-1.27-10.54c0,0,86.45,41.95,392.83,9.27C2312.83,648.66,2300.41,642.72,2281.05,633.61z"/>
				<path class="st6" d="M1918.62,720.15c-104.42-11.23-133.79-79.66-133.79-79.66c-51.06,19.4-32.68,123.57-32.68,123.57
					c-8.97-5.65-15.85-12.44-21.1-19.84c5.32,14.02,14.63,27.34,30.29,37.2c0,0-18.38-104.17,32.68-123.57
					c0,0,29.36,68.43,133.79,79.66c0,0,104.17,22.47,139.91,5.11c0,0-13.68-4.2-32.71-11.63
					C1990.16,735.58,1918.62,720.15,1918.62,720.15z"/>
			</g>
		</g>
		<path class="st6" d="M1531.55,406.62c0,0,39.6-2.43,55.94,14.2c0,0,28.32,10.03,30.87,10.03s27.57,5.39,84.77-33.42
			c0,0,20.43-15.18,3.06,18.52c0,0-43.5,36.98-64.43,43.62s-86.54,78.49-147.4,81.19l46.38-116.78l-15.95-1.81L1531.55,406.62z"/>
	</g>
</g>
<g id="eyes">
	<g>
		<path d="M1487.13,265.68c0,0,11.23-30.13,50.04-35.23c0,0,13.79-3.06,4.09,11.23C1541.26,241.68,1499.38,271.3,1487.13,265.68z"/>
		<path class="st10" d="M1536.15,237.51c0,0-11.85,5.26-15.32,4.26c0,0,3.18-5.35,14.16-6.26"/>
	</g>
</g>
<g id="wing">
	<g>
		<path class="st10" d="M1914.53,814.11c13.84-16.64,147.06-79.66,517.79-71.49c0,0,300.26-24.51,424.85,22.47l42.89,24.51
			c0,0,27.57,15.32,8.17,18.38c0,0,48,22.47,41.87,28.6c-6.13,6.13,0.54,5.11,0.54,5.11s-40.37,35.74-45.48,37.79
			s5.11-2.04,5.11-2.04s11.23,21.45-19.4,35.74c0,0-62.3,120.51-75.57,134.81c0,0,17.36,35.74-12.26,68.43
			c0,0-193.02,210.38-474.89,238.98c0,0-254.06-27.67-452.43-137.87c-9.19-5.11-55.15-31.66-81.7-67.4
			C1794.02,1150.11,1833.85,911.13,1914.53,814.11z"/>
		<g>
			<path class="st6" d="M2894.96,792.66c0,0,9.89,4.63,20.12,10.26c-0.89-4.64-10.71-10.79-13.97-12.72
				C2900.15,791.28,2898.22,792.14,2894.96,792.66z"/>
			<path class="st6" d="M2890.65,864.65C2890.65,864.65,2890.64,864.65,2890.65,864.65
				C2890.64,864.65,2890.65,864.65,2890.65,864.65z"/>
			<path class="st6" d="M2890.52,864.7C2890.45,864.73,2890.46,864.72,2890.52,864.7L2890.52,864.7z"/>
			<path class="st6" d="M2904.27,879.83c0.22-0.09,0.51-0.2,0.9-0.36c5.11-2.04,45.48-37.79,45.48-37.79s-6.67,1.02-0.54-5.11
				c2.67-2.67-4.95-8.45-14.39-14.12c-4.09,4.78,1.66,3.91,1.66,3.91s-40.37,35.74-45.48,37.79c-0.39,0.16-0.68,0.27-0.9,0.36
				c1.55-0.62,6.01-2.4,6.01-2.4s11.23,21.45-19.4,35.74c0,0-62.3,120.51-75.57,134.81c0,0,17.36,35.74-12.26,68.43
				c0,0-193.02,210.38-474.89,238.98c0,0-254.06-27.67-452.43-137.87c-7.68-4.27-41.02-23.51-67.26-50.57
				c26.71,34.97,71.48,60.85,80.54,65.89c198.36,110.2,452.43,137.87,452.43,137.87c281.87-28.6,474.89-238.98,474.89-238.98
				c29.62-32.68,12.26-68.43,12.26-68.43c13.28-14.3,75.57-134.81,75.57-134.81c30.64-14.3,19.4-35.74,19.4-35.74
				S2905.82,879.21,2904.27,879.83z M2903.79,880.02C2903.73,880.04,2903.73,880.05,2903.79,880.02L2903.79,880.02z M2903.93,879.97
				C2903.92,879.97,2903.92,879.97,2903.93,879.97C2903.92,879.97,2903.92,879.97,2903.93,879.97z"/>
		</g>
	</g>
	<g id="strips">
		<path class="st11" d="M2052.4,804.91c5.11,0,406.47-109.28,783.32-45.96"/>
		<path class="st11" d="M2313.85,786.53c4.09,1.02,164.43,34.72,582.13,26.55"/>
		<path class="st11" d="M2378.19,868.23c0,0,194.88,44.58,559.18-41.87"/>
		<path class="st11" d="M2295.23,939.72c0,0,162.62,13.28,408.75-17.36"/>
		<path class="st11" d="M2084.06,1041.85c5.11,0,387.1,63.79,801.74-148.63"/>
		<path class="st11" d="M1980.91,1090.56c0,0,618.89,102.44,816.44-52.79"/>
		<path class="st11" d="M1971.72,1239.98c0,0,401.8,175.66,825.63-202.21"/>
	</g>
</g>
<g id="Layer_9">
</g>
</svg>
