<svg id="Layer_1" data-name="Layer 1" xmlns="http://www.w3.org/2000/svg" viewBox="0 0 4902.73 3754.22"><defs><style>.cls-1{fill:#f89521;}.cls-2{fill:#f15a29;}.cls-3{fill:#f7f5ec;}.cls-4{fill:#93cec4;}.cls-5{fill:#bae2d9;}.cls-12,.cls-6{fill:none;stroke:#6d6e71;stroke-miterlimit:10;}.cls-6{stroke-width:2px;}.cls-7{fill:#e91d44;}.cls-8{fill:#9f2b42;}.cls-9{fill:#666767;}.cls-10{fill:#f1f2f2;}.cls-11{fill:#fafaf3;}.cls-12{stroke-width:1.5px;}</style></defs><g id="_4_year_1" data-name="4 year 1"><g id="left_leg" data-name="left leg"><path class="cls-1" d="M2379.94,3714s185.88-36,218.3-79.31-6.8,60.64-6.8,60.64Z" transform="translate(-374.16 -169.96)"/><path class="cls-1" d="M2979.84,2715.55l-402.1,959.61s-352.4,120.61-407.24,142.54c0,0,291.33-43.86,437.24-83.89,0,0,163.8,40.11,195.54,22.81,0,0-143.62-57.44-149.4-83.4l594.21-1188.41-253.84,60.59Z" transform="translate(-374.16 -169.96)"/><path class="cls-2" d="M2379.94,3714s185.88-36,218.3-79.31-6.8,60.64-6.8,60.64Z" transform="translate(-374.16 -169.96)"/><path class="cls-2" d="M2979.84,2715.55l-402.1,959.61s-352.4,120.61-407.24,142.54c0,0,291.33-43.86,437.24-83.89,0,0,163.8,40.11,195.54,22.81,0,0-143.62-57.44-149.4-83.4l594.21-1188.41-253.84,60.59Z" transform="translate(-374.16 -169.96)"/><path class="cls-1" d="M2350.72,3720.25s185.88-36,218.3-79.31-6.8,60.64-6.8,60.64Z" transform="translate(-374.16 -169.96)"/><path class="cls-1" d="M2950.58,2721.81l-402.09,959.62S2196.09,3802,2141.25,3824c0,0,291.33-43.86,437.23-83.89,0,0,163.81,40.11,195.55,22.82,0,0-143.62-57.45-149.4-83.41l594.21-1188.41L2965,2551.66Z" transform="translate(-374.16 -169.96)"/></g><g id="right_leg" data-name="right leg"><path class="cls-2" d="M2986.1,3803.26s185.88-36,218.3-79.32-6.8,60.65-6.8,60.65Z" transform="translate(-374.16 -169.96)"/><path class="cls-2" d="M3622,2770.36l-395.17,940.35S2956.47,3894,2904.55,3920c0,0,238.63-56.41,345.34-131.41,0,0,196.14-2.89,227.88-20.18,0,0-176-14.42-181.73-40.38l594.2-1188.41-253.84,60.59Z" transform="translate(-374.16 -169.96)"/><path class="cls-1" d="M2956.88,3807.43s185.87-36,218.3-79.31-6.81,60.64-6.81,60.64Z" transform="translate(-374.16 -169.96)"/><path class="cls-1" d="M3592.77,2774.53l-395.18,940.35s-270.34,183.33-322.26,209.3c0,0,238.63-56.42,345.34-131.41,0,0,196.14-2.89,227.88-20.19,0,0-176-14.41-181.73-40.37L3861,2543.79l-253.84,60.59Z" transform="translate(-374.16 -169.96)"/></g><g id="body"><g id="body-2" data-name="body"><g id="thtigh"><path id="left_thigh" data-name="left thigh" class="cls-3" d="M2504,2828.23s108.42,115.09,380.28,210.15c0,0,28.36,5,36.68,0s181.79-40,371.93-181.79c0,0-225.16-183.44-542-201.8C2750.84,2654.76,2445.62,2691.47,2504,2828.23Z" transform="translate(-374.16 -169.96)"/><path class="cls-4" d="M2894.72,3040.62s44-137.88-96.07-246.84c0,0-195.63-164.69,68.93-100.08s409.19,166,409.19,166S3108.67,3002.79,2894.72,3040.62Z" transform="translate(-374.16 -169.96)"/></g><g id="body-3" data-name="body"><path class="cls-3" d="M1990.28,1203.76s-428.08,249.07-321.35,1120.79c0,0,644.9,751.63,1707.88,578.19,0,0,169,57.82,293.53,57.82l44.49-22.25s182.36-209,240.18-293.53c0,0,597.09-333.56,1224.18-1414.32,0,0,46.69-80.06,0-66.7l76.71-133.44s60-90.07-66.71-16.67L5125.8,1067l144.31-173.47s45.83-143.45-100.93-33.37L4999.05,980.28s156.78-143.45-30-20c0,0-329.9,200.57-540.36,363.58-35.86,27.76-16.67,3.34-16.67,3.34s-760.53-336.9-2331.65-183.48Z" transform="translate(-374.16 -169.96)"/><path class="cls-5" d="M1756.68,2412.61s-292.3-223.7,192.49-132.55c0,0,1012.11,742.6,2168.18,164.55,13.36-6.66,237.95-164.55,237.95-164.55s64.93-23.88,28.05,12.47S4015.08,2624.74,3955,2644.75c0,0-230.39,288.64-240.17,293.53l-44.49,22.25s46.69-217.93-293.53-57.82C3376.84,2902.71,2531.54,3107.78,1756.68,2412.61Z" transform="translate(-374.16 -169.96)"/></g></g><g id="tail_stripes" data-name="tail stripes"><path class="cls-6" d="M5009.35,970.67s-469.49,377.65-534,397.67" transform="translate(-374.16 -169.96)"/><path class="cls-6" d="M5270.14,893.53s-741.4,583.74-839.24,597.09" transform="translate(-374.16 -169.96)"/><path class="cls-6" d="M5135.73,1058.65s-297.88,247-317.89,260.74" transform="translate(-374.16 -169.96)"/><path class="cls-6" d="M5179.21,1163.73s-392.05,349.14-534.36,386.94" transform="translate(-374.16 -169.96)"/><path class="cls-6" d="M4987.76,1389.32s189.54-144.7,210-197.23" transform="translate(-374.16 -169.96)"/></g></g><g id="red"><path class="cls-7" d="M1002.07,399.91s93.5-192.08,140.19-172.07S1177.83,239,1175.63,259s-53.38,85.32-53.38,85.32,131.21-172,240.17-174.27,46.7,48.92,46.7,48.92l-166.07,133.9s125.89-73.85,183.79-40.49-19.93,42.26-19.93,42.26l-75.57,18.87-53.41,119-275.85-46.7V399.91Z" transform="translate(-374.16 -169.96)"/><path class="cls-8" d="M1398,207.83l-154.94,145s17.07-13.75,50.21-40.49L1409.12,219s35.34-29,6.14-42.4C1419,190.59,1398,207.83,1398,207.83Z" transform="translate(-374.16 -169.96)"/><path class="cls-8" d="M1435.59,317.94c10.84,19.76-39.83,25.56-39.83,25.56l-75.57,18.87-53.41,119-264.73-44.8v9.23l275.86,46.7,53.41-119,75.56-18.87S1475.91,346.7,1435.59,317.94Z" transform="translate(-374.16 -169.96)"/><path class="cls-8" d="M1164.51,247.86c-2,18-28.45,83.23-36.66,93.87a398.2,398.2,0,0,0,47.29-80.2,20.55,20.55,0,0,0,.49-2.55c1.69-15.27,8.52-13.72-9-21A54.32,54.32,0,0,0,1164.51,247.86Z" transform="translate(-374.16 -169.96)"/></g><g id="head"><g id="red-2" data-name="red"><path class="cls-7" d="M1021.43,985s80.83,83.4,60.82,130.09-40,75.6-15.56,84.49,68.94-57.81,80.06-66.7-11.12,117.85-48.92,140.1c0,0-21,104.5,127.38,28.91,0,0,141.7-180.65,121.69-248.21s-273.52-148.37-273.52-148.37S991.75,972.79,1021.43,985Z" transform="translate(-374.16 -169.96)"/><path class="cls-8" d="M1346.84,1053.73c-20-67.56-273.51-148.36-273.51-148.36s-.35.28-.95.8c58.7,20.1,238.35,85.78,255.08,142.22,20,67.56-121.69,248.21-121.69,248.21-42.69,21.76-71.34,28.56-90.5,27.3,17.07,9.78,49.41,8.9,109.94-21.93C1225.15,1301.94,1366.86,1121.3,1346.84,1053.73Z" transform="translate(-374.16 -169.96)"/><path class="cls-8" d="M1146.72,1132.93c2.92-17.84,8.5-24.76,4.84-21.84-9.61,7.69-68.31,74.88-93.3,82.92a17.72,17.72,0,0,0,8.38,5.63C1083.45,1205.76,1128.31,1154.92,1146.72,1132.93Z" transform="translate(-374.16 -169.96)"/></g><g id="beak"><path class="cls-1" d="M738.68,943.54s-232.22-25-364.52-4.63c0,0,195.77-179.85,236.83-198.81Z" transform="translate(-374.16 -169.96)"/><path class="cls-2" d="M712,913.4c-41.17-4-186.73-16.38-300.93-8.06a351.34,351.34,0,0,1-36.94,33.54c132.29-20.39,364.52,4.63,364.52,4.63Z" transform="translate(-374.16 -169.96)"/></g><path class="cls-3" d="M1671.74,2341.22s36.68-176.79,66.7-593.75c0,0,80.06,80.06,76.72,200.15,0,0,86.72-390.29,203.46-500.37,0,0,230.17,20,283.52,0,0,0-83.4-183.48-3.35-290.21,0,0-723.84-717.18-843.93-720.5,0,0-236.83-120.09-413.61-83.4,0,0-216.82,120.08-447,396.94,0,0,110.08,126.75,110.08,180.14-2.83,23.3,436.38,58.24,547.06,136.75C1251.43,1067,1658.38,2204.46,1671.74,2341.22Z" transform="translate(-374.16 -169.96)"/><path class="cls-5" d="M1224.75,1033.63c-95.44-67.7-435.14-103-525.07-126.4,3,8.55,4.72,16.32,4.72,23-2.69,22.13,393.83,54.81,528.21,125.37C1227.53,1041.38,1224.75,1033.63,1224.75,1033.63Z" transform="translate(-374.16 -169.96)"/><path class="cls-5" d="M594.66,749.68c-.11.15-.23.29-.34.43s3.29,3.8,8.75,10.35Q598.69,754.81,594.66,749.68Z" transform="translate(-374.16 -169.96)"/><path class="cls-5" d="M2298.85,1157.07s6,12.69-12.89-6c-75.52,106.71-10.47,262.88-10.47,262.88-53.38,20-283.52,0-283.52,0-89.21,84.12-160.89,331.84-189.74,444a268.93,268.93,0,0,1,13,89.69s86.72-390.28,203.47-500.36c0,0,230.16,20,283.52,0C2302.17,1447.25,2218.79,1263.8,2298.85,1157.07Z" transform="translate(-374.16 -169.96)"/><path class="cls-5" d="M1711.77,1714.1c-21.19,294.27-45.7,468.92-58.3,546.2,10.29,37.54,16.75,65.56,18.27,80.92,0,0,36.65-176.65,66.67-593.21C1723.83,1726.23,1711.77,1714.1,1711.77,1714.1Z" transform="translate(-374.16 -169.96)"/><path class="cls-5" d="M1201.22,1022.14s262,59.84,262,71.54,53.38,20,8.35,118.43-57,64.73-96,206.66L1251.46,1067l-26.68-15.33Z" transform="translate(-374.16 -169.96)"/><g id="strips"><path class="cls-9" d="M1742.82,827.31s320.23,311.34,331.9,370.81Z" transform="translate(-374.16 -169.96)"/><path class="cls-9" d="M1809.55,1012.7s161.78,244.9,196.8,256.56S1809.55,1012.7,1809.55,1012.7Z" transform="translate(-374.16 -169.96)"/><path class="cls-9" d="M1742.82,914.86c1.65,2.52,66.7,70.91,81.71,75.91S1742.82,914.86,1742.82,914.86Z" transform="translate(-374.16 -169.96)"/><path class="cls-9" d="M1576.78,1341.94s98.44,120.49,116.54,183.17-12.89,8.37-12.89,8.37Z" transform="translate(-374.16 -169.96)"/><path class="cls-9" d="M1724.49,1012.7c13.35,3.06,160.12,156.49,184.3,229.89Z" transform="translate(-374.16 -169.96)"/><path class="cls-9" d="M1704.47,925.7c5,5,75,55,80,73.39S1704.47,925.7,1704.47,925.7Z" transform="translate(-374.16 -169.96)"/><path class="cls-9" d="M1989.65,1141.2S2086.38,1246,2111.4,1296Z" transform="translate(-374.16 -169.96)"/><path class="cls-9" d="M1914.6,914.86S2092,1073,2127.53,1121.07c0,0,32.25,28.13,25.56,38.14s-41.69-38.14-41.69-38.14Z" transform="translate(-374.16 -169.96)"/><path class="cls-9" d="M1775.67,1196s118.43,133.44,130.09,211.81Z" transform="translate(-374.16 -169.96)"/><path class="cls-9" d="M1627.73,1159.21s38.37,108.42,68.39,146.77S1627.73,1159.21,1627.73,1159.21Z" transform="translate(-374.16 -169.96)"/><path class="cls-9" d="M1767.83,1326c5,6.66,63.39,108.42,83.41,120.09S1767.83,1326,1767.83,1326Z" transform="translate(-374.16 -169.96)"/><path class="cls-9" d="M1674.28,1109.63s83.32,163,121.35,204.67,67.76,107.9,92.41,125.49S1674.28,1109.63,1674.28,1109.63Z" transform="translate(-374.16 -169.96)"/><path class="cls-9" d="M1809.55,1169.22s61.7,128.43,91.73,156.77S1809.55,1169.22,1809.55,1169.22Z" transform="translate(-374.16 -169.96)"/><path class="cls-9" d="M1704.47,1055.79c11.67,3.35,67,91.73,80.23,126.75S1704.47,1055.79,1704.47,1055.79Z" transform="translate(-374.16 -169.96)"/><path class="cls-9" d="M1637.4,791.83s45.57,30.11,53.81,48.86S1637.4,791.83,1637.4,791.83Z" transform="translate(-374.16 -169.96)"/><path class="cls-9" d="M1617.41,980.65s36.68,40.43,40,60.67S1617.41,980.65,1617.41,980.65Z" transform="translate(-374.16 -169.96)"/><path class="cls-9" d="M1700.53,1344.23s71.71,116.37,73.39,143.08-8-45-8-45Z" transform="translate(-374.16 -169.96)"/><path class="cls-9" d="M1657.84,1512.87s29.76,67.56,28.91,76S1657.84,1512.87,1657.84,1512.87Z" transform="translate(-374.16 -169.96)"/><path class="cls-9" d="M1594,1261c2.17,4.06,73.26,90.49,67.08,109.76" transform="translate(-374.16 -169.96)"/><path class="cls-9" d="M1518.68,1298.14s169.7,262.34,170.9,308.17Z" transform="translate(-374.16 -169.96)"/><path class="cls-9" d="M1532.69,1749.56s88.07,280,118.54,300.85S1532.69,1749.56,1532.69,1749.56Z" transform="translate(-374.16 -169.96)"/><path class="cls-9" d="M1682.83,1312.12c1.66,2.52,66.71,70.91,81.72,75.92S1682.83,1312.12,1682.83,1312.12Z" transform="translate(-374.16 -169.96)"/><path class="cls-9" d="M1573.06,1467.26c11.33,7.7,92.56,203.87,88.53,281Z" transform="translate(-374.16 -169.96)"/><path class="cls-9" d="M1558.65,1155.75c4.38,5.55,67.94,63.5,70.8,82.32S1558.65,1155.75,1558.65,1155.75Z" transform="translate(-374.16 -169.96)"/><path class="cls-9" d="M1601.06,1682.48s62.93,128,72.68,183Z" transform="translate(-374.16 -169.96)"/><path class="cls-9" d="M1991.71,1046.36s177.36,158.17,212.93,206.21c0,0,32.25,28.13,25.56,38.14s-41.69-38.14-41.69-38.14Z" transform="translate(-374.16 -169.96)"/><path class="cls-9" d="M1722.29,687s145.45,103.3,174.47,177Z" transform="translate(-374.16 -169.96)"/><path class="cls-9" d="M1789.08,1391.24s38.37,108.42,68.39,146.76S1789.08,1391.24,1789.08,1391.24Z" transform="translate(-374.16 -169.96)"/><path class="cls-9" d="M1914.6,1255.48c5,6.66,63.39,108.42,83.4,120.09S1914.6,1255.48,1914.6,1255.48Z" transform="translate(-374.16 -169.96)"/><path class="cls-9" d="M1637.91,1340.63s79.49,154.57,114.34,193.6,63.56,102,85.75,118.26S1637.91,1340.63,1637.91,1340.63Z" transform="translate(-374.16 -169.96)"/><path class="cls-9" d="M2116.26,1233.58s61,105.05,74.17,110.05S2116.26,1233.58,2116.26,1233.58Z" transform="translate(-374.16 -169.96)"/><path class="cls-9" d="M1474.36,1532.88c10.44,6.75,89.75,172.67,88.52,236.81Z" transform="translate(-374.16 -169.96)"/><path class="cls-9" d="M1518.68,1448.65s47.66,127.75,68.88,160.66,38.34,84.78,52,98.82S1518.68,1448.65,1518.68,1448.65Z" transform="translate(-374.16 -169.96)"/><path class="cls-9" d="M1643.69,936.48s73.16,122.26,105.65,147.76S1643.69,936.48,1643.69,936.48Z" transform="translate(-374.16 -169.96)"/><path class="cls-9" d="M1545.67,1629.15c10.81,5.52,48.29,102.88,54.5,139.76S1545.67,1629.15,1545.67,1629.15Z" transform="translate(-374.16 -169.96)"/><path class="cls-9" d="M1704.36,1619.75s36.68,40.43,40,60.67S1704.36,1619.75,1704.36,1619.75Z" transform="translate(-374.16 -169.96)"/><path class="cls-9" d="M1666.27,712.46s98.33,94.95,106.57,120.4-18.9-41.63-18.9-41.63Z" transform="translate(-374.16 -169.96)"/><path class="cls-9" d="M1802.17,1474.56s29.77,67.56,28.91,76S1802.17,1474.56,1802.17,1474.56Z" transform="translate(-374.16 -169.96)"/><path class="cls-9" d="M1604.14,1072.78c2.18,4.06,73.26,90.49,67.08,109.76" transform="translate(-374.16 -169.96)"/></g></g><g id="eey"><path d="M862.83,617.87s75.6-77.83,241.29-78.94c0,0,20,13.35-91.18,78.94C1012.94,617.87,940.66,639,862.83,617.87Z" transform="translate(-374.16 -169.96)"/><path class="cls-10" d="M999.59,572.21s22.53-23.19,71.85-23.5c0,0,6,4-27.16,23.5C1044.31,572.21,1022.78,578.5,999.59,572.21Z" transform="translate(-374.16 -169.96)"/></g><g id="wing"><path class="cls-11" d="M2327.19,1532.88s-209,480.36-77.83,664.92c0,0,458.1,306.88,787.23,251.3,0,0,949.55-217.93,1205.28-520.36,0,0,17.79-13.35-33.36-4.46l122.31-37.8s77.83-48.92,86.72-60-28.9-2.23-28.9-2.23,64.47-15.55,84.49-15.55-46.69-17.79-46.69-17.79,57.81,8.89,91.18,6.66c0,0,26.67-24.47,57.81-33.36,0,0-31.14-20-48.92-20s88.95,4.46,117.86,0-1349.85-440.32-1659-395.83C2985.44,1348.29,2498.43,1388.32,2327.19,1532.88Z" transform="translate(-374.16 -169.96)"/><path class="cls-5" d="M4221.34,1922.28c-296.21,283.67-1171.4,484.53-1171.4,484.53-329.12,55.58-787.23-251.3-787.23-251.3-78.14-109.94-35.6-324.78,11.61-480.58-51.47,156.72-110.45,402.55-25,522.84,0,0,458.1,306.88,787.23,251.3,0,0,949.55-217.93,1205.28-520.38C4241.87,1928.72,4256.43,1917.79,4221.34,1922.28Z" transform="translate(-374.16 -169.96)"/><path class="cls-5" d="M4588.3,1722.05c-17.79,5.18-34.06,15.38-44.69,23.1,28.7,1,81.69,1.92,100.76-1C4648.2,1743.55,4627.61,1735.49,4588.3,1722.05Z" transform="translate(-374.16 -169.96)"/><path class="cls-5" d="M4531,1755.25c-33.37,2.23-91.18-6.67-91.18-6.67s66.71,17.79,46.69,17.79-84.49,15.55-84.49,15.55,37.8-8.89,28.91,2.23-86.72,60-86.72,60L4221.86,1882c51.15-8.9,33.37,4.46,33.37,4.46q-14.07,16.63-30.88,32.91l106.47-32.91s77.83-48.93,86.72-60-28.9-2.23-28.9-2.23,64.5-15.55,84.49-15.55-46.69-17.79-46.69-17.79,57.81,8.9,91.18,6.67c0,0,26.67-24.48,57.81-33.37,0,0-18-11.55-34.4-17.1C4534.71,1751.82,4531,1755.25,4531,1755.25Z" transform="translate(-374.16 -169.96)"/><g id="wing_stripes" data-name="wing stripes"><path class="cls-12" d="M4221.86,1882s-945.12,65.59-1616.64,21" transform="translate(-374.16 -169.96)"/><path class="cls-12" d="M4208.53,1924.26S3476.91,2204.46,2689.68,2046" transform="translate(-374.16 -169.96)"/><path class="cls-12" d="M4253.42,1872.25s-500.76-119.58-843.24-98.28" transform="translate(-374.16 -169.96)"/><path class="cls-12" d="M2380.57,1810.86c844.9-278,2028-30.28,2028-30.28" transform="translate(-374.16 -169.96)"/><path class="cls-12" d="M4439.79,1748.58s-231.28-64.24-564.84-97.18" transform="translate(-374.16 -169.96)"/><path class="cls-12" d="M4531,1755.25s-667.15-324.44-1663.39-177.65" transform="translate(-374.16 -169.96)"/><path class="cls-12" d="M4224.34,1919.37s-873.49,362-1748.16,220.33" transform="translate(-374.16 -169.96)"/><path class="cls-12" d="M4208.53,1924.26s-533.7,300.59-931.76,334" transform="translate(-374.16 -169.96)"/></g></g></g></svg>