<?xml version="1.0" encoding="utf-8"?>
<!-- Generator: Adobe Illustrator 25.0.0, SVG Export Plug-In . SVG Version: 6.00 Build 0)  -->
<svg version="1.1" xmlns="http://www.w3.org/2000/svg" xmlns:xlink="http://www.w3.org/1999/xlink" x="0px" y="0px"
	 viewBox="0 0 3840 2160" style="enable-background:new 0 0 3840 2160;" xml:space="preserve">
<style type="text/css">
	.st0{fill:#F89521;}
	.st1{fill:#F15A29;}
	.st2{fill:#F7F5EC;}
	.st3{fill:#A3D9D4;}
	.st4{fill:#BAE2D9;}
	.st5{fill:#E91D44;}
	.st6{fill:#9F2B42;}
	.st7{fill:#666767;}
	.st8{fill:#FAFAF3;}
	.st9{fill:none;stroke:#58595B;stroke-width:1.5;stroke-miterlimit:10;}
	.st10{stroke:#58595B;stroke-miterlimit:10;}
	.st11{fill:#FFFFFF;stroke:#58595B;stroke-miterlimit:10;}
</style>
<g id="left_leg">
	<g>
		<g>
			<path class="st0" d="M1601.49,1868.61c0,0,85.37-16.52,100.25-36.43s-3.13,27.86-3.13,27.86L1601.49,1868.61z"/>
			<path class="st0" d="M1876.98,1410.07l-184.67,440.7c0,0-161.85,55.39-187.02,65.46c0,0,133.79-20.14,200.8-38.53
				c0,0,75.23,18.43,89.8,10.48c0,0-65.96-26.38-68.61-38.3l272.89-545.78l-116.58,27.82L1876.98,1410.07z"/>
		</g>
		<g>
			<path class="st1" d="M1601.49,1868.61c0,0,85.37-16.52,100.25-36.43s-3.13,27.86-3.13,27.86L1601.49,1868.61z"/>
			<path class="st1" d="M1876.98,1410.07l-184.67,440.7c0,0-161.85,55.39-187.02,65.46c0,0,133.79-20.14,200.8-38.53
				c0,0,75.23,18.43,89.8,10.48c0,0-65.96-26.38-68.61-38.3l272.89-545.78l-116.58,27.82L1876.98,1410.07z"/>
		</g>
		<g>
			<path class="st0" d="M1588.06,1871.49c0,0,85.37-16.52,100.25-36.43s-3.13,27.86-3.13,27.86L1588.06,1871.49z"/>
			<path class="st0" d="M1863.55,1412.95l-184.67,440.7c0,0-161.85,55.39-187.02,65.46c0,0,133.79-20.14,200.8-38.53
				c0,0,75.23,18.43,89.8,10.48c0,0-65.96-26.38-68.61-38.3l272.89-545.78l-116.58,27.82L1863.55,1412.95z"/>
		</g>
	</g>
</g>
<g id="right_reg">
	<g>
		<g>
			<path class="st1" d="M1982.65,1918.33c0,0,85.37-16.52,100.25-36.43c14.88-19.91-3.13,27.86-3.13,27.86L1982.65,1918.33z"/>
			<path class="st1" d="M2274.69,1443.96l-181.49,431.86c0,0-124.16,84.2-148,96.12c0,0,109.59-25.91,158.6-60.35
				c0,0,90.08-1.32,104.65-9.27c0,0-80.81-6.62-83.46-18.55l272.89-545.78l-116.58,27.82L2274.69,1443.96z"/>
		</g>
		<g>
			<path class="st0" d="M1969.22,1920.24c0,0,85.37-16.52,100.25-36.43c14.88-19.91-3.13,27.86-3.13,27.86L1969.22,1920.24z"/>
			<path class="st0" d="M2261.26,1445.88l-181.49,431.86c0,0-124.16,84.2-148,96.12c0,0,109.59-25.91,158.6-60.35
				c0,0,90.08-1.32,104.65-9.27c0,0-80.81-6.62-83.46-18.55l272.89-545.78l-116.58,27.82L2261.26,1445.88z"/>
		</g>
	</g>
</g>
<g id="body_1_">
	<g>
		<g id="left_thigh_1_">
			<path id="left_thigh" class="st2" d="M1668.86,1334.45c0,0,128.68,150.13,166.98,166.98c0,0,38.3-1.53,73.53-15.32
				c0,0,68.94-19.91,140.94-116.43c0,0-212.94-122.55-251.23-101.11C1799.07,1268.57,1668.86,1302.28,1668.86,1334.45z"/>
			<path class="st3" d="M1868.79,1500.15c0,0,59.02-129.45-32.89-176.43l-148.6,10.72c0,0-24.12-24.91,141.38-68.37
				c0,0,55.21-5.67,240.06,103.6C2068.74,1369.68,1993.59,1492.75,1868.79,1500.15z"/>
		</g>
		<g id="body_2_">
			<path id="body" class="st2" d="M1405.43,652.74c0,0,686.3-88.85,1148.94-9.19c0,0,216-15.32,306.38-208.34
				c0,0-64.34,142.47-84.26,157.79c0,0,147.06-121.02,174.64-189.96c0,0-119.49,191.49-165.45,209.87
				c0,0,197.62-142.47,234.38-200.68c0,0-216,294.13-196.08,323.23c0,0,9.19,15.32,30.64-7.66c21.45-22.98-18.38,56.68-36.77,70.47
				c0,0,45.96-4.6,52.09-19.91c0,0-38.3,96.51-65.87,130.21c0,0,55.15-16.85,55.15-27.57c0,0-24.51,65.87-49.02,75.06
				c0,0,42.89-10.72,45.96-15.32s-78.13,84.26-108.77,91.91c-30.64,7.66,73.53-9.19,88.85-18.38c0,0-165.45,174.64-188.43,183.83
				c0,0-154.72,93.45-174.64,96.51c0,0-139.4,194.55-166.98,209.87c-27.57,15.32-96.51,35.23-108.77,26.04
				c-12.26-9.19-216.56-91.91-221.64-111.83c0,0-420.23-30.64-608.66-372.26C1367.13,1046.45,1354.87,720.15,1405.43,652.74z"/>
			<path class="st4" d="M1438.42,1150.11c0,0-72.03-131.36,123.77-35.75c199.61,97.47,388.09,227.74,460.6,218.55
				c72.51-9.19,365.62-63.32,432-102.13c0,0,266.37-125.79,264.51-110.3s-5.97,19.55-5.97,19.55l-55.54,51.39
				c0,0-170.32,105.74-184.62,103.19c0,0-145.95,197.78-162.78,206.89s-64.42,28.62-91.25,30.61c0,0,33.43-132.82-100.36-134.86
				c0,0-108.63,25.65-143,21.45C1941.41,1414.5,1628.18,1381.95,1438.42,1150.11z"/>
		</g>
		<g>
			<path class="st4" d="M2868.52,781.89c0,0-54.49,94.51-63.69,102.94c-9.19,8.43-19.15,19.15-19.15,19.15h21.93
				C2807.61,903.98,2847.18,842.86,2868.52,781.89z"/>
			<path class="st4" d="M2860.59,724.05c0,0-46.57,72.69-58.06,72.69c-11.49,0,15.32,1.53,15.32,1.53S2845.89,771.61,2860.59,724.05
				z"/>
			<path class="st4" d="M3020.06,412.23c0,0-0.84,1.09-2.43,3.14c-24.05,31.12-218.6,283.51-213.57,297.88
				c5.36,15.32,19.92,22.21,19.92,22.21S2879.89,614.45,3020.06,412.23z"/>
			<path class="st4" d="M2741.26,1015.81c0,0,102.64-54.38,114.89-75.06c0,0-82.86,88.83-112.66,93.82L2741.26,1015.81z"/>
		</g>
	</g>
</g>
<g id="red">
	<g>
		<path class="st5" d="M1283.78,226.58c0,0,54.24-104.64,140.79-96.98c0,0,12.26,10.03-36.77,48.29c0,0,120.26-76.63,182.3-41.4
			c0,0,16.09,11.49-103.4,51.32c0,0,39.06-13.79,72-3.83c0,0,53.62,23.74,6.89,30.64s-59.74,40.6-59.74,40.6
			s-130.98,17.62-133.28,16.85C1350.28,271.3,1283.78,226.58,1283.78,226.58z"/>
		<g>
			<path class="st6" d="M1538.7,183.98c-10.17-3.08-20.93-3.88-30.94-3.54c7.47,0.27,15.15,1.31,22.51,3.54
				c0,0,53.62,23.74,6.89,30.64s-59.74,40.6-59.74,40.6s-98.03,13.18-125.95,16.24c0.58,0.35,0.96,0.56,1.1,0.61
				c2.3,0.77,133.28-16.85,133.28-16.85s13.02-33.7,59.74-40.6S1538.7,183.98,1538.7,183.98z"/>
			<path class="st6" d="M1416.15,129.6c0,0,12.26,10.03-36.77,48.29c0,0,10.04-6.4,25.8-14.64c28.41-26.27,19.39-33.65,19.39-33.65
				c-4.49-0.4-8.89-0.48-13.2-0.3C1412.95,129.36,1414.54,129.45,1416.15,129.6z"/>
			<path class="st6" d="M1570.11,136.49c-12.74-7.23-27.93-9.75-44.03-9.18c12.96,0.47,25.11,3.22,35.6,9.18
				c0,0,15.99,11.43-102.48,51.01c2.92-0.96,12.56-3.91,25.12-5.7C1584.53,146.81,1570.11,136.49,1570.11,136.49z"/>
		</g>
	</g>
</g>
<g id="head_2_">
	<g>
		<g id="red_1_">
			<path class="st5" d="M1242.84,498.98c0,0-8.96,51.13-25.05,64.92c0,0-29.78,32.17-27.14,34.47c2.63,2.3,4.93,22.98,29.44,9.96
				s46.72-34.47,49.79-41.36c0,0,3.06,33.7-13.79,49.02s43.56,39.74,68.5-6.17c24.95-45.91,41.8-83.44,41.8-83.44L1242.84,498.98z"
				/>
			<g>
				<path class="st6" d="M1269.89,555.21c-3.06,6.89-36.02,40.09-60.53,53.11c-3.04,1.61-5.74,2.71-8.13,3.39
					c4.12,1.61,10.05,1.29,18.86-3.39c15.27-8.11,42.36-28.85,49.79-41.36C1270.36,559.55,1269.89,555.21,1269.89,555.21z"/>
				<path class="st6" d="M1242.84,498.98c0,0-0.14,0.82-0.43,2.28l113.25,25.1c0,0-16.85,37.53-41.8,83.44
					c-9.5,17.49-24.15,24.77-37.71,26.23c15.92,1.75,36.34-3.98,48.44-26.23c24.95-45.91,41.8-83.44,41.8-83.44L1242.84,498.98z"/>
			</g>
		</g>
		<g id="beak">
			<path class="st0" d="M1203.97,321.02c0,0-104.92,71.29-119.48,78.19c0,0,88.85,29.87,115.66,32.94L1203.97,321.02z"/>
			<path class="st1" d="M1200.15,426.79c-22.58-2.58-89.2-24.19-109.63-30.93c-2.65,1.58-4.72,2.73-6.03,3.36
				c0,0,88.85,29.87,115.66,32.94l3.82-111.12c0,0-0.08,0.05-0.19,0.13L1200.15,426.79z"/>
		</g>
		<g id="head_1_">
			<path id="head" class="st2" d="M1181.77,424.49c0,0,35.23,107.23,124.09,145.53c0,0,29.11,179.23,22.98,242.04
				c0,0-1.53,170.04,33.7,278.81c0,0,22.98-137.87,39.83-153.19c0,0,29.11-75.06,26.04-117.96c0,0,7.66,139.4,32.17,168.51
				c0,0-4.6-81.19,19.91-142.47c0,0,13.79-70.47,7.66-88.09c0,0,122.55-16.09,216,0c0,0-85.79-68.17-133.28-72.77
				c-47.49-4.6,237.45-75.06,355.4-61.28c0,0-104.17-56.68-163.91-75.06c0,0-117.96-88.85-142.47-88.85
				c0,0-111.83-223.66-124.09-223.66c0,0-79.66-39.83-93.45-39.83c0,0-70.47,0-113.36,26.04c0,0-68.94,55.15-96.51,104.17
				C1192.49,326.45,1174.11,383.13,1181.77,424.49z"/>
			<g>
				<path class="st4" d="M1290.53,554.7c-19.49-8.4-36.39-20.11-50.91-33.29c14.39,15.79,31.72,30.6,52.26,41.78
					C1291.03,557.76,1290.53,554.7,1290.53,554.7z"/>
				<path class="st4" d="M1604.57,444.4c2.18,0,5.11,0.71,8.62,1.99c-24.31-48.16-106.95-210.33-117.38-210.33
					c0,0-1.44-0.72-3.94-1.95C1523.53,282.31,1604.57,444.4,1604.57,444.4z"/>
				<path class="st4" d="M1472.83,742.36c6.13,17.62-7.66,88.09-7.66,88.09c-16.17,40.43-19.67,89.52-20.18,118.25
					c4.21,17.58,9.35,32.13,15.59,39.54c0,0-4.6-81.19,19.91-142.47c0,0,13.79-70.47,7.66-88.09c0,0,122.55-16.09,216,0
					c0,0-8.65-6.87-21.97-16.4C1589.68,727.03,1472.83,742.36,1472.83,742.36z"/>
				<path class="st4" d="M1894.57,606.99c-125.85-6.42-384.43,58.22-339.02,62.61c6.98,0.68,14.8,2.73,23.04,5.74
					c52.88-20,253.5-62.7,347.68-51.7C1926.28,623.64,1913.6,616.74,1894.57,606.99z"/>
				<path class="st4" d="M1413.21,806.44c2.04,43.19-26.16,115.92-26.16,115.92c-12.32,11.2-27.9,87.85-35.4,128.3
					c3.17,13.99,6.78,27.52,10.89,40.21c0,0,22.98-137.87,39.83-153.19c0,0,10.29-26.54,17.99-57.08
					C1415.82,846.48,1413.71,814.62,1413.21,806.44z"/>
			</g>
		</g>
		<path class="st4" d="M1290.53,554.7c0,0,34.72,5.62,54.13,0.51c19.4-5.11,54.64-8.17,81.7-23.49c0,0,21.93-8.17,18.63-3.06
			s-49.77,35.61-66.12,39s-32.41,41.86-40.85,54.96c0,0-22.75,11.32-22.94,9.91c-0.19-1.41-9.23-62.5-9.23-62.5l-13.98-6.82
			L1290.53,554.7z"/>
		<g>
			<path class="st7" d="M1427.49,539.26c0,0,90.33,115.4,91,134.53L1427.49,539.26z"/>
			<path class="st7" d="M1522.58,509.39c0,0,85.76,103.99,102.32,107.62C1641.46,620.65,1522.58,509.39,1522.58,509.39z"/>
			<path class="st7" d="M1663.94,555.31c0.77,1.16,30.64,32.56,37.53,34.86C1708.37,592.47,1663.94,555.31,1663.94,555.31z"/>
			<path class="st7" d="M1631.64,521.78c0.77,1.16,30.64,32.56,37.53,34.86C1676.07,558.94,1631.64,521.78,1631.64,521.78z"/>
			<path class="st7" d="M1698.5,578.43c0.77,1.16,30.64,32.56,37.53,34.86C1742.92,615.58,1698.5,578.43,1698.5,578.43z"/>
			<path class="st7" d="M1368.86,761c3.67,5.1,7.69,102.54-6.25,135.17L1368.86,761z"/>
			<path class="st7" d="M1626.48,476.39c2.3,2.3,34.43,25.28,36.75,33.7C1665.54,518.52,1626.48,476.39,1626.48,476.39z"/>
			<path class="st7" d="M1569.02,449.74c2.3,2.3,34.43,25.28,36.75,33.7C1608.08,491.86,1569.02,449.74,1569.02,449.74z"/>
			<path class="st7" d="M1675.07,552.52c0,0,54.56,36.21,71.17,55.81L1675.07,552.52z"/>
			<path class="st7" d="M1710.65,555.99c0,0,54.56,36.21,71.17,55.81L1710.65,555.99z"/>
			<path class="st7" d="M1531.02,551.44c0,0,61.7,53.9,71.57,88.93L1531.02,551.44z"/>
			<path class="st7" d="M1384.94,752.3c0,0,2.58,52.75,10.73,73.58S1384.94,752.3,1384.94,752.3z"/>
			<path class="st7" d="M1347.98,699.28c0,0,2.58,52.75,10.73,73.58C1366.86,793.69,1347.98,699.28,1347.98,699.28z"/>
			<path class="st7" d="M1341.59,760.89c0,0,2.58,52.75,10.73,73.58S1341.59,760.89,1341.59,760.89z"/>
			<path class="st7" d="M1432.83,697.53c1.46,3.54,15.7,55.49,23.25,62.99C1463.64,768.02,1432.83,697.53,1432.83,697.53z"/>
			<path class="st7" d="M1518.88,580.42c0,0,28.34,58.98,42.13,72C1574.79,665.44,1518.88,580.42,1518.88,580.42z"/>
			<path class="st7" d="M1594.6,569.02c0,0,44.28,48.17,61.26,56.62C1672.85,634.08,1594.6,569.02,1594.6,569.02z"/>
			<path class="st7" d="M1526.52,662.68c5.36,1.53,30.8,42.13,36.85,58.21C1569.42,736.98,1526.52,662.68,1526.52,662.68z"/>
			<path class="st7" d="M1548.09,587.08c5.36,1.53,30.8,42.13,36.85,58.21C1590.98,661.38,1548.09,587.08,1548.09,587.08z"/>
			<path class="st7" d="M1518.49,455.17c0,0,20.93,13.82,24.71,22.44S1518.49,455.17,1518.49,455.17z"/>
			<path class="st7" d="M1502,410.46c0,0,20.93,13.82,24.71,22.44C1530.49,441.53,1502,410.46,1502,410.46z"/>
			<path class="st7" d="M1541.03,417.47c0,0,16.85,18.57,18.38,27.86C1560.95,454.63,1541.03,417.47,1541.03,417.47z"/>
			<path class="st7" d="M1555.48,388.36c0,0,16.85,18.57,18.38,27.86C1575.4,425.52,1555.48,388.36,1555.48,388.36z"/>
			<path class="st7" d="M1609.19,561.56c0,0,46.98,41.64,51.26,53.16c4.28,11.51-9.49-18.74-9.49-18.74L1609.19,561.56z"/>
			<path class="st7" d="M1442.66,572.79c0,0,77.93,120.47,78.48,141.52L1442.66,572.79z"/>
			<path class="st7" d="M1371.16,656.86c-0.27,1.36-1.29,44.69,1.97,51.18C1376.4,714.54,1371.16,656.86,1371.16,656.86z"/>
			<path class="st7" d="M1425.03,576.47c0,0,29.49,40.34,37.53,65.62s-2.3,5.36-2.3,5.36L1425.03,576.47z"/>
			<path class="st7" d="M1389.9,629.76c0,0,10.54,48.84,7.61,75.21c-2.93,26.36-4.28,3.96-4.28,3.96L1389.9,629.76z"/>
			<path class="st7" d="M1587.44,507.35c6.24,0.73,80.92,63.44,95.63,95.73L1587.44,507.35z"/>
			<path class="st7" d="M1465.62,557.03c2.01,2.55,31.2,29.17,32.51,37.81C1499.44,603.48,1465.62,557.03,1465.62,557.03z"/>
			<path class="st7" d="M1476.49,597.66c2.01,2.55,31.2,29.17,32.51,37.81C1510.3,644.11,1476.49,597.66,1476.49,597.66z"/>
			<path class="st7" d="M1514.75,617.1c2.01,2.55,31.2,29.17,32.51,37.81C1548.56,663.55,1514.75,617.1,1514.75,617.1z"/>
			<path class="st7" d="M1667.99,527.03c0,0,77.21,27.42,99.28,56.36L1667.99,527.03z"/>
			<path class="st7" d="M1448.61,659.14c0,0,17.62,49.79,31.4,67.4S1448.61,659.14,1448.61,659.14z"/>
			<path class="st7" d="M1431.48,632.65c1.17,3.65,11.3,56.55,18.24,64.62C1456.67,705.33,1431.48,632.65,1431.48,632.65z"/>
			<path class="st7" d="M1760.03,561.46c0,0,42.07,36.63,48.54,36.85C1815.05,598.52,1760.03,561.46,1760.03,561.46z"/>
			<path class="st7" d="M1796.01,564.97c0,0,42.07,36.63,48.54,36.85S1796.01,564.97,1796.01,564.97z"/>
			<path class="st7" d="M1339.01,855.3c3.61,4.43,14.77,88.14,5.15,115.98L1339.01,855.3z"/>
			<path class="st7" d="M1545.44,486.9c0,0,33.6,56.15,48.52,67.86S1545.44,486.9,1545.44,486.9z"/>
			<path class="st7" d="M1405.34,712.12c3.43,4.4,0.04,52.18-4.56,68.74C1396.18,797.42,1405.34,712.12,1405.34,712.12z"/>
			<path class="st7" d="M1435.11,765.74c0,0,14.01,32.87,12.75,47.51C1446.6,827.91,1435.11,765.74,1435.11,765.74z"/>
			<path class="st7" d="M1456.39,464.44c0,0,16.85,18.57,18.38,27.86C1476.31,501.6,1456.39,464.44,1456.39,464.44z"/>
			<path class="st7" d="M1496.06,492.67c0,0,16.85,18.57,18.38,27.86C1515.97,529.82,1496.06,492.67,1496.06,492.67z"/>
			<path class="st7" d="M1441.26,837.57c0,0-4.22,62.64-10.71,73.06s9.02-18.97,9.02-18.97L1441.26,837.57z"/>
			<path class="st7" d="M1435.76,791.24c0,0-4.22,62.64-10.71,73.06c-6.49,10.42,9.02-18.97,9.02-18.97L1435.76,791.24z"/>
			<path class="st7" d="M1465.35,737.57c0,0-4.22,62.64-10.71,73.06s9.02-18.97,9.02-18.97L1465.35,737.57z"/>
			<path class="st7" d="M1413.71,657.74c0,0,13.68,31.03,13.27,34.92C1426.58,696.54,1413.71,657.74,1413.71,657.74z"/>
		</g>
	</g>
</g>
<g id="wing">
	<g>
		<g id="wing_1_">
			<path class="st8" d="M1649.49,800.95c0.61-3,318.64-124.6,413.62-125.62c0,0,424.85,12.26,562.72,69.45
				c0,0,52.08,5.11,105.19,8.17c0,0-68.43,58.21-134.81,69.45c0,0,84.77,12.26,98.04,6.13c0,0-10.21,20.43-34.72,30.64
				c0,0,99.06-36.77,105.19-43.91c0,0-7.15,36.77-25.53,54.13c0,0-7.15,9.19-28.6,20.43c0,0,5.11,5.11,0,12.26
				s-59.23,97.02-100.09,124.6c0,0,49.02-12.26,53.11-17.36c0,0-34.72,156.26-465.7,269.62c0,0-277.79-4.09-411.57-76.6
				C1786.34,1202.31,1594.34,1073.63,1649.49,800.95z"/>
			<g>
				<path class="st4" d="M2583.96,807.08c0,0,23.03,3.33,46.96,5.65c53.56-20.18,100.11-59.78,100.11-59.78
					c-10.01-0.58-19.98-1.23-29.57-1.9C2676.95,768.95,2629.97,799.29,2583.96,807.08z"/>
				<path class="st4" d="M2668.7,829.98c-5.35,4.99-12.42,10.12-21.42,13.87c0,0,16.24-6.03,35.97-13.67
					C2679.08,830.32,2674.11,830.23,2668.7,829.98z"/>
				<path class="st4" d="M2744.65,825.59c-4.07,10.11-9.87,21.06-17.71,28.47c0,0-7.15,9.19-28.6,20.43c0,0,5.11,5.11,0,12.26
					s-59.23,97.02-100.09,124.6c0,0,26.39-6.6,42.06-12.13c33.53-37.38,66.36-91.66,70.28-97.15c5.11-7.15,0-12.26,0-12.26
					c21.45-11.23,28.6-20.43,28.6-20.43c18.38-17.36,25.53-54.13,25.53-54.13C2763.14,817.1,2755.34,820.93,2744.65,825.59z"/>
				<path class="st4" d="M2640.19,1018.51c-28.72,48.44-127.64,159.09-454.53,245.08c0,0-277.79-4.09-411.57-76.6
					c0,0-26.2-17.56-56.46-53.45c35.08,46.22,68.72,68.77,68.72,68.77c133.79,72.51,411.57,76.6,411.57,76.6
					c430.98-113.36,465.7-269.62,465.7-269.62C2661.83,1011.53,2651.36,1015.16,2640.19,1018.51z"/>
			</g>
		</g>
		<g id="stripes">
			<path class="st9" d="M2583.96,807.08c0,0-273.17,13.15-535.64-18.5"/>
			<path class="st9" d="M2647.28,843.85c0,0-416.15,70.59-688.83,0"/>
			<path class="st9" d="M2698.34,874.48c0,0-179.22,136.73-602.03,81.58"/>
			<path class="st9" d="M2598.26,1011.33c0,0-202.71,97.92-593.86,33.58"/>
			<path class="st9" d="M2539.55,1065.61c0,0-337.42,170.28-694.47,97.77"/>
		</g>
	</g>
</g>
<g id="eye">
	<g>
		<path class="st10" d="M1295.13,318.02c0,0,11.49-24.51,72-33.7c0,0,16.85,1.53,12.26,7.66
			C1374.79,298.11,1351.81,325.68,1295.13,318.02z"/>
		<path class="st11" d="M1343.5,298.14c0,0,2.53-5.37,15.87-7.39c0,0,3.72,0.34,2.7,1.68S1355.99,299.82,1343.5,298.14z"/>
	</g>
</g>
</svg>
