<?xml version="1.0" encoding="utf-8"?>
<!-- Generator: Adobe Illustrator 25.0.0, SVG Export Plug-In . SVG Version: 6.00 Build 0)  -->
<svg version="1.1" xmlns="http://www.w3.org/2000/svg" xmlns:xlink="http://www.w3.org/1999/xlink" x="0px" y="0px"
	 viewBox="0 0 3840 2160" style="enable-background:new 0 0 3840 2160;" xml:space="preserve">
<style type="text/css">
	.st0{fill:#F89521;}
	.st1{fill:#F15A29;}
	.st2{fill:#F7F5EC;}
	.st3{fill:#93CEC4;}
	.st4{fill:#BAE2D9;}
	.st5{fill:none;stroke:#6D6E71;stroke-width:2;stroke-miterlimit:10;}
	.st6{fill:#E91D44;}
	.st7{fill:#9F2B42;}
	.st8{fill:#666767;}
	.st9{fill:#F1F2F2;}
	.st10{fill:#FAFAF3;}
	.st11{fill:none;stroke:#6D6E71;stroke-width:1.5;stroke-miterlimit:10;}
</style>
<g id="left_leg">
	<g>
		<g>
			<path class="st0" d="M1875.82,1795.06c0,0,85.37-16.52,100.25-36.43s-3.13,27.86-3.13,27.86L1875.82,1795.06z"/>
			<path class="st0" d="M2151.31,1336.52l-184.67,440.7c0,0-161.85,55.39-187.02,65.46c0,0,133.79-20.14,200.8-38.53
				c0,0,75.23,18.43,89.8,10.48c0,0-65.96-26.38-68.61-38.3l272.89-545.78l-116.58,27.82L2151.31,1336.52z"/>
		</g>
		<g>
			<path class="st1" d="M1875.82,1795.06c0,0,85.37-16.52,100.25-36.43s-3.13,27.86-3.13,27.86L1875.82,1795.06z"/>
			<path class="st1" d="M2151.31,1336.52l-184.67,440.7c0,0-161.85,55.39-187.02,65.46c0,0,133.79-20.14,200.8-38.53
				c0,0,75.23,18.43,89.8,10.48c0,0-65.96-26.38-68.61-38.3l272.89-545.78l-116.58,27.82L2151.31,1336.52z"/>
		</g>
		<g>
			<path class="st0" d="M1862.39,1797.93c0,0,85.37-16.52,100.25-36.43s-3.13,27.86-3.13,27.86L1862.39,1797.93z"/>
			<path class="st0" d="M2137.88,1339.4l-184.67,440.7c0,0-161.85,55.39-187.02,65.46c0,0,133.79-20.14,200.8-38.53
				c0,0,75.23,18.43,89.8,10.48c0,0-65.96-26.38-68.61-38.3l272.89-545.78l-116.58,27.82L2137.88,1339.4z"/>
		</g>
	</g>
</g>
<g id="right_leg">
	<g>
		<g>
			<path class="st1" d="M2154.19,1836.06c0,0,85.37-16.52,100.25-36.43c14.88-19.91-3.13,27.86-3.13,27.86L2154.19,1836.06z"/>
			<path class="st1" d="M2446.23,1361.69l-181.49,431.86c0,0-124.16,84.2-148,96.12c0,0,109.59-25.91,158.6-60.35
				c0,0,90.08-1.32,104.65-9.27c0,0-80.81-6.62-83.46-18.55l272.89-545.78l-116.58,27.82L2446.23,1361.69z"/>
		</g>
		<g>
			<path class="st0" d="M2140.77,1837.98c0,0,85.37-16.52,100.25-36.43c14.88-19.91-3.13,27.86-3.13,27.86L2140.77,1837.98z"/>
			<path class="st0" d="M2432.8,1363.61l-181.49,431.86c0,0-124.16,84.2-148,96.12c0,0,109.59-25.91,158.6-60.35
				c0,0,90.08-1.32,104.65-9.27c0,0-80.81-6.62-83.46-18.55L2556,1257.64l-116.58,27.82L2432.8,1363.61z"/>
		</g>
	</g>
</g>
<g id="body">
	<g id="body_1_">
		<g id="thtigh">
			<path id="left_thigh" class="st2" d="M1972.23,1294.62c0,0,49.79,52.85,174.64,96.51c0,0,13.02,2.3,16.85,0
				s83.49-18.38,170.81-83.49c0,0-103.4-84.26-248.94-92.68C2085.6,1214.96,1945.43,1231.81,1972.23,1294.62z"/>
			<path class="st3" d="M2151.68,1392.15c0,0,20.21-63.32-44.13-113.36c0,0-89.84-75.64,31.66-45.96
				c121.5,29.68,187.92,76.21,187.92,76.21S2249.93,1374.79,2151.68,1392.15z"/>
		</g>
		<g id="body_2_">
			<path class="st2" d="M1736.32,548.57c0,0-196.6,114.38-147.57,514.72c0,0,296.17,345.19,784.34,265.53
				c0,0,77.62,26.55,134.81,26.55l20.43-10.21c0,0,83.74-96,110.3-134.81c0,0,274.21-153.19,562.21-649.53c0,0,21.45-36.77,0-30.64
				l35.23-61.28c0,0,27.57-41.36-30.64-7.66l-29.11,24.51l66.27-79.66c0,0,21.05-65.87-46.36-15.32l-78.13,55.15
				c0,0,72-65.87-13.79-9.19c0,0-151.51,92.11-248.17,166.98c-16.47,12.75-7.66,1.53-7.66,1.53S2499.21,450.53,1777.68,521
				L1736.32,548.57z"/>
			<path class="st4" d="M1629.03,1103.74c0,0-134.24-102.74,88.4-60.87c0,0,464.82,341.04,995.74,75.57
				c6.13-3.06,109.28-75.57,109.28-75.57s29.83-10.97,12.88,5.73c-16.95,16.7-169.13,152.57-196.71,161.76
				c0,0-105.8,132.56-110.3,134.81c-4.49,2.25-20.43,10.21-20.43,10.21s21.45-100.09-134.81-26.55
				C2373.09,1328.83,1984.89,1423,1629.03,1103.74z"/>
		</g>
	</g>
	<g id="tail_stripes">
		<path class="st5" d="M3122.82,441.53c0,0-215.61,173.43-245.23,182.62"/>
		<path class="st5" d="M3242.59,406.11c0,0-340.48,268.09-385.42,274.21"/>
		<path class="st5" d="M3180.86,481.94c0,0-136.8,113.43-145.99,119.74"/>
		<path class="st5" d="M3200.83,530.19c0,0-180.05,160.34-245.41,177.7"/>
		<path class="st5" d="M3112.91,633.8c0,0,87.04-66.46,96.47-90.58"/>
	</g>
</g>
<g id="red_1_">
	<g>
		<path class="st6" d="M1282.47,179.41c0,0,42.94-88.21,64.39-79.02c21.45,9.19,16.34,5.11,15.32,14.3s-24.51,39.18-24.51,39.18
			s60.26-79.01,110.3-80.03c50.04-1.02,21.45,22.47,21.45,22.47l-76.27,61.49c0,0,57.81-33.92,84.4-18.6s-9.16,19.4-9.16,19.4
			l-34.7,8.67l-24.53,54.65l-126.68-21.45V179.41z"/>
		<g>
			<path class="st7" d="M1464.31,91.2l-71.16,66.6c0,0,7.83-6.31,23.06-18.59l53.21-42.9c0,0,16.23-13.34,2.82-19.48
				C1473.95,83.27,1464.31,91.2,1464.31,91.2z"/>
			<path class="st7" d="M1481.57,141.76c4.98,9.07-18.29,11.73-18.29,11.73l-34.7,8.67l-24.53,54.65l-121.58-20.58v4.24
				l126.68,21.45l24.53-54.65l34.7-8.67C1468.39,158.6,1500.08,154.98,1481.57,141.76z"/>
			<path class="st7" d="M1357.07,109.58c-0.92,8.29-13.07,38.23-16.84,43.11c2.68-3.43,13.18-17.45,21.72-36.83
				c0.1-0.42,0.19-0.81,0.23-1.17c0.78-7.01,3.92-6.3-4.13-9.64C1357.75,106.08,1357.31,107.48,1357.07,109.58z"/>
		</g>
	</g>
</g>
<g id="head">
	<g id="red">
		<path class="st6" d="M1291.36,448.13c0,0,37.12,38.3,27.92,59.75c-9.19,21.45-18.38,34.72-7.15,38.81
			c11.23,4.09,31.66-26.55,36.77-30.64c5.11-4.09-5.11,54.13-22.47,64.34c0,0-9.65,48,58.49,13.28c0,0,65.08-82.96,55.89-113.99
			c-9.19-31.03-125.62-68.14-125.62-68.14S1277.73,442.51,1291.36,448.13z"/>
		<g>
			<path class="st7" d="M1440.82,479.67c-9.19-31.03-125.62-68.14-125.62-68.14s-0.16,0.13-0.44,0.37
				c26.95,9.23,109.46,39.39,117.14,65.31c9.19,31.03-55.89,113.99-55.89,113.99c-19.6,9.99-32.76,13.12-41.57,12.53
				c7.84,4.49,22.69,4.09,50.48-10.07C1384.93,593.67,1450.01,510.7,1440.82,479.67z"/>
			<path class="st7" d="M1348.9,516.05c1.34-8.19,3.9-11.37,2.22-10.03c-4.41,3.53-31.37,34.39-42.84,38.07
				c0.84,1.09,2.09,1.95,3.85,2.59C1319.85,549.49,1340.46,526.15,1348.9,516.05z"/>
		</g>
	</g>
	<g id="beak">
		<path class="st0" d="M1161.51,429.07c0,0-106.65-11.49-167.41-2.13c0,0,89.91-82.6,108.77-91.31L1161.51,429.07z"/>
		<path class="st1" d="M1149.27,415.23c-18.91-1.84-85.76-7.53-138.2-3.7c-8.96,9.33-16.97,15.41-16.97,15.41
			c60.76-9.36,167.41,2.13,167.41,2.13L1149.27,415.23z"/>
	</g>
	<g>
		<path class="st2" d="M1590.02,1070.96c0,0,16.85-81.19,30.64-272.68c0,0,36.77,36.77,35.23,91.91c0,0,39.83-179.23,93.45-229.79
			c0,0,105.7,9.19,130.21,0c0,0-38.3-84.26-1.53-133.28c0,0-332.43-329.36-387.57-330.89c0,0-108.77-55.15-189.96-38.3
			c0,0-99.57,55.15-205.28,182.3c0,0,50.55,58.21,50.55,82.72c-1.3,10.7,200.41,26.75,251.23,62.81
			C1397,485.77,1583.89,1008.15,1590.02,1070.96z"/>
		<g>
			<path class="st4" d="M1384.74,470.45c-43.83-31.09-199.84-47.31-241.14-58.05c1.37,3.92,2.16,7.5,2.16,10.56
				c-1.23,10.16,180.86,25.17,242.58,57.58C1386.02,474.01,1384.74,470.45,1384.74,470.45z"/>
			<path class="st4" d="M1095.37,340.04c-0.05,0.07-0.11,0.13-0.16,0.19c0,0,1.51,1.74,4.02,4.75
				C1097.9,343.26,1096.61,341.61,1095.37,340.04z"/>
			<path class="st4" d="M1878.02,527.13c0,0,2.77,5.83-5.92-2.76c-34.68,49-4.8,120.72-4.8,120.72c-24.51,9.19-130.21,0-130.21,0
				c-40.97,38.63-73.89,152.4-87.14,203.92c3.86,12.06,6.37,25.92,5.95,41.19c0,0,39.83-179.23,93.45-229.79
				c0,0,105.7,9.19,130.21,0C1879.55,660.4,1841.26,576.15,1878.02,527.13z"/>
			<path class="st4" d="M1608.4,782.96c-9.73,135.15-20.99,215.34-26.77,250.84c4.72,17.25,7.7,30.11,8.38,37.16
				c0,0,16.84-81.12,30.62-272.43C1613.95,788.52,1608.4,782.96,1608.4,782.96z"/>
		</g>
	</g>
	<path class="st4" d="M1373.94,465.17c0,0,120.34,27.49,120.34,32.85s24.51,9.19,3.83,54.38c-20.68,45.19-26.18,29.72-44.11,94.9
		l-57-161.54l-12.26-7.04L1373.94,465.17z"/>
	<g id="strips">
		<path class="st8" d="M1622.67,375.69c0,0,147.06,142.98,152.43,170.3L1622.67,375.69z"/>
		<path class="st8" d="M1653.31,460.84c0,0,74.3,112.47,90.38,117.83C1759.77,584.03,1653.31,460.84,1653.31,460.84z"/>
		<path class="st8" d="M1622.67,415.9c0.77,1.16,30.64,32.56,37.53,34.86C1667.09,453.05,1622.67,415.9,1622.67,415.9z"/>
		<path class="st8" d="M1546.41,612.04c0,0,45.21,55.33,53.52,84.12c8.31,28.79-5.92,3.85-5.92,3.85L1546.41,612.04z"/>
		<path class="st8" d="M1614.24,460.84c6.13,1.4,73.53,71.87,84.64,105.57L1614.24,460.84z"/>
		<path class="st8" d="M1605.05,420.88c2.3,2.3,34.43,25.28,36.75,33.7C1644.11,463.01,1605.05,420.88,1605.05,420.88z"/>
		<path class="st8" d="M1736.03,519.84c0,0,44.43,48.11,55.91,71.09L1736.03,519.84z"/>
		<path class="st8" d="M1701.56,415.9c0,0,81.45,72.64,97.79,94.7c0,0,14.81,12.92,11.74,17.52c-3.06,4.6-19.15-17.52-19.15-17.52
			L1701.56,415.9z"/>
		<path class="st8" d="M1637.75,545.01c0,0,54.38,61.28,59.74,97.28L1637.75,545.01z"/>
		<path class="st8" d="M1569.82,528.12c0,0,17.62,49.79,31.4,67.4C1615.01,613.14,1569.82,528.12,1569.82,528.12z"/>
		<path class="st8" d="M1634.16,604.71c2.3,3.06,29.11,49.79,38.3,55.15C1681.65,665.22,1634.16,604.71,1634.16,604.71z"/>
		<path class="st8" d="M1591.19,505.35c0,0,38.27,74.87,55.73,93.99c17.47,19.12,31.12,49.55,42.43,57.64
			C1700.68,665.06,1591.19,505.35,1591.19,505.35z"/>
		<path class="st8" d="M1653.31,532.71c0,0,28.34,58.98,42.13,72C1709.22,617.73,1653.31,532.71,1653.31,532.71z"/>
		<path class="st8" d="M1605.05,480.63c5.36,1.53,30.8,42.13,36.85,58.21C1647.94,554.92,1605.05,480.63,1605.05,480.63z"/>
		<path class="st8" d="M1574.25,359.4c0,0,20.93,13.82,24.71,22.44C1602.74,390.46,1574.25,359.4,1574.25,359.4z"/>
		<path class="st8" d="M1565.07,446.12c0,0,16.85,18.57,18.38,27.86C1584.98,483.27,1565.07,446.12,1565.07,446.12z"/>
		<path class="st8" d="M1603.24,613.09c0,0,32.94,53.45,33.7,65.7c0.77,12.26-3.67-20.68-3.67-20.68L1603.24,613.09z"/>
		<path class="st8" d="M1583.64,690.53c0,0,13.68,31.03,13.27,34.92C1596.51,729.33,1583.64,690.53,1583.64,690.53z"/>
		<path class="st8" d="M1554.32,574.87c0.99,1.86,33.64,41.56,30.81,50.41"/>
		<path class="st8" d="M1519.74,591.92c0,0,77.93,120.47,78.48,141.52L1519.74,591.92z"/>
		<path class="st8" d="M1526.16,799.23c0,0,40.45,128.58,54.44,138.17C1594.59,946.98,1526.16,799.23,1526.16,799.23z"/>
		<path class="st8" d="M1595.11,598.34c0.77,1.16,30.64,32.56,37.53,34.86C1639.54,635.5,1595.11,598.34,1595.11,598.34z"/>
		<path class="st8" d="M1544.71,669.59c5.2,3.53,42.51,93.63,40.65,129.06L1544.71,669.59z"/>
		<path class="st8" d="M1538.09,526.53c2.01,2.55,31.2,29.17,32.51,37.81C1571.9,572.97,1538.09,526.53,1538.09,526.53z"/>
		<path class="st8" d="M1557.56,768.43c0,0,28.9,58.76,33.38,84.06L1557.56,768.43z"/>
		<path class="st8" d="M1736.97,476.29c0,0,81.45,72.64,97.79,94.7c0,0,14.81,12.92,11.74,17.52c-3.06,4.6-19.15-17.52-19.15-17.52
			L1736.97,476.29z"/>
		<path class="st8" d="M1613.24,311.26c0,0,66.79,47.44,80.13,81.31L1613.24,311.26z"/>
		<path class="st8" d="M1643.92,634.68c0,0,17.62,49.79,31.4,67.4C1689.11,719.7,1643.92,634.68,1643.92,634.68z"/>
		<path class="st8" d="M1701.56,572.34c2.3,3.06,29.11,49.79,38.3,55.15C1749.05,632.85,1701.56,572.34,1701.56,572.34z"/>
		<path class="st8" d="M1574.49,611.43c0,0,36.5,70.99,52.51,88.92c16.01,17.93,29.19,46.83,39.38,54.3
			C1676.57,762.12,1574.49,611.43,1574.49,611.43z"/>
		<path class="st8" d="M1794.17,562.27c0,0,28,48.24,34.06,50.54C1834.29,615.11,1794.17,562.27,1794.17,562.27z"/>
		<path class="st8" d="M1499.38,699.72c4.8,3.1,41.22,79.3,40.65,108.75L1499.38,699.72z"/>
		<path class="st8" d="M1519.74,661.04c0,0,21.89,58.67,31.63,73.78c9.74,15.11,17.61,38.93,23.85,45.38
			S1519.74,661.04,1519.74,661.04z"/>
		<path class="st8" d="M1577.14,425.83c0,0,33.6,56.15,48.52,67.86S1577.14,425.83,1577.14,425.83z"/>
		<path class="st8" d="M1532.12,743.94c4.97,2.53,22.17,47.24,25.03,64.18S1532.12,743.94,1532.12,743.94z"/>
		<path class="st8" d="M1605.01,739.63c0,0,16.85,18.57,18.38,27.86C1624.92,776.78,1605.01,739.63,1605.01,739.63z"/>
		<path class="st8" d="M1587.52,322.95c0,0,45.16,43.61,48.95,55.29c3.78,11.68-8.69-19.12-8.69-19.12L1587.52,322.95z"/>
		<path class="st8" d="M1649.92,672.94c0,0,13.68,31.03,13.27,34.92C1662.79,711.74,1649.92,672.94,1649.92,672.94z"/>
		<path class="st8" d="M1558.98,488.42c0.99,1.86,33.64,41.56,30.81,50.41"/>
	</g>
</g>
<g id="eey">
	<g>
		<path d="M1218.53,279.5c0,0,34.72-35.74,110.81-36.26c0,0,9.19,6.13-41.87,36.26C1287.46,279.5,1254.27,289.21,1218.53,279.5z"/>
		<path class="st9" d="M1281.34,258.53c0,0,10.34-10.65,33-10.8c0,0,2.74,1.82-12.47,10.8
			C1301.87,258.53,1291.98,261.42,1281.34,258.53z"/>
	</g>
</g>
<g id="wing">
	<g>
		<path class="st10" d="M1891.04,699.72c0,0-96,220.6-35.74,305.36c0,0,210.38,140.94,361.53,115.4c0,0,436.08-100.09,553.53-238.98
			c0,0,8.17-6.13-15.32-2.04l56.17-17.36c0,0,35.74-22.47,39.83-27.57c4.09-5.11-13.28-1.02-13.28-1.02s29.62-7.15,38.81-7.15
			s-21.45-8.17-21.45-8.17s26.55,4.09,41.87,3.06c0,0,12.26-11.23,26.55-15.32c0,0-14.3-9.19-22.47-9.19c-8.17,0,40.85,2.04,54.13,0
			c13.28-2.04-619.91-202.21-761.87-181.79C2193.34,614.96,1969.68,633.34,1891.04,699.72z"/>
		<g>
			<path class="st4" d="M2760.93,878.57c-136.04,130.27-537.97,222.52-537.97,222.52c-151.15,25.53-361.53-115.4-361.53-115.4
				c-35.89-50.49-16.34-149.16,5.33-220.71c-23.64,71.97-50.72,184.88-11.46,240.11c0,0,210.38,140.94,361.53,115.4
				c0,0,436.09-100.09,553.53-238.98C2770.36,881.51,2777.04,876.5,2760.93,878.57z"/>
			<path class="st4" d="M2929.46,786.6c-8.17,2.38-15.64,7.06-20.52,10.61c13.18,0.45,37.51,0.88,46.28-0.47
				C2956.96,796.48,2947.51,792.77,2929.46,786.6z"/>
			<path class="st4" d="M2903.13,801.85c-15.32,1.02-41.87-3.06-41.87-3.06s30.64,8.17,21.45,8.17s-38.81,7.15-38.81,7.15
				s17.36-4.09,13.28,1.02s-39.83,27.57-39.83,27.57l-56.17,17.36c23.49-4.09,15.32,2.04,15.32,2.04
				c-4.31,5.09-9.05,10.13-14.18,15.11l48.9-15.11c0,0,35.74-22.47,39.83-27.57c4.09-5.11-13.28-1.02-13.28-1.02
				s29.62-7.15,38.81-7.15s-21.45-8.17-21.45-8.17s26.55,4.09,41.87,3.06c0,0,12.26-11.23,26.55-15.32c0,0-8.25-5.3-15.8-7.85
				C2904.85,800.27,2903.13,801.85,2903.13,801.85z"/>
		</g>
	</g>
	<g id="wing_stripes">
		<path class="st11" d="M2761.17,860.06c0,0-434.04,30.13-742.45,9.63"/>
		<path class="st11" d="M2755.04,879.47c0,0-336,128.68-697.53,55.89"/>
		<path class="st11" d="M2775.66,855.58c0,0-229.98-54.91-387.26-45.13"/>
		<path class="st11" d="M1915.55,827.38c388.03-127.66,931.38-13.91,931.38-13.91"/>
		<path class="st11" d="M2861.26,798.79c0,0-106.21-29.5-259.4-44.63"/>
		<path class="st11" d="M2903.13,801.85c0,0-306.38-148.99-763.91-81.59"/>
		<path class="st11" d="M2762.31,877.22c0,0-401.15,166.22-802.85,101.19"/>
		<path class="st11" d="M2755.04,879.47c0,0-245.11,138.05-427.91,153.37"/>
	</g>
</g>
</svg>
