<?xml version="1.0" encoding="utf-8"?>
<!-- Generator: Adobe Illustrator 25.0.0, SVG Export Plug-In . SVG Version: 6.00 Build 0)  -->
<svg version="1.1" xmlns="http://www.w3.org/2000/svg" xmlns:xlink="http://www.w3.org/1999/xlink" x="0px" y="0px"
	 viewBox="0 0 1920 1080" style="enable-background:new 0 0 1920 1080;" xml:space="preserve">
<style type="text/css">
	.st0{display:none;}
	.st1{display:inline;fill:#CCCCCC;}
	.st2{fill:#F7931E;}
	.st3{fill:#F15A24;}
	.st4{fill:#FCF98D;}
	.st5{fill:#EDDA80;}
	.st6{fill:#F9E975;}
	.st7{fill:#FCF98B;}
	.st8{opacity:0.66;fill:#FFFDEB;}
	.st9{fill:#ED1C24;}
	.st10{fill:#FCF872;}
	.st11{fill:#E8D874;}
	.st12{opacity:0.78;fill:#FCFADE;}
	.st13{fill:#F2F2F2;}
</style>
<g id="background" class="st0">
	<rect class="st1" width="1920" height="1080"/>
</g>
<g id="left_leg_2_">
	<g id="left_leg_1_">
		<path id="left_leg" class="st2" d="M946.95,710.87c0,0-4.87,136.36-46.27,209.41c0,0-102.27,68.18-153.41,70.61
			c0,0,24.35,12.18,51.14,7.3c0,0,75.49-17.04,92.53-26.78c0,0,56.01,26.78,90.1,21.91c0,0-36.53-29.22-46.27-46.27l-9.74-12.17
			c0,0,121.75-238.63,109.58-301.94h-96.36L946.95,710.87z"/>
		<g>
			<path class="st3" d="M876.34,971.41c-17.05,9.74-92.53,26.78-92.53,26.78c-1.99,0.36-3.96,0.62-5.91,0.8
				c6.39,0.57,13.36,0.5,20.52-0.8c0,0,60.36-13.63,85.31-23.48C879.08,972.73,876.34,971.41,876.34,971.41z"/>
			<path class="st3" d="M934.78,947.06l-9.74-12.17c0,0,121.75-238.63,109.58-301.94H1020c12.17,63.31-109.58,301.94-109.58,301.94
				l9.74,12.17c9.74,17.05,46.27,46.27,46.27,46.27c-0.68,0.1-1.38,0.16-2.07,0.23c5.88,0.51,11.53,0.5,16.68-0.23
				C981.04,993.33,944.52,964.11,934.78,947.06z"/>
		</g>
	</g>
</g>
<g id="right_leg_2_">
	<g id="right_leg_3_">
		<g id="right_leg_4_">
			<polygon class="st2" points="1134.45,956.8 1051.66,993.33 1116.47,993.33 1151.49,960.43 			"/>
			<path class="st2" d="M1222.11,681.65c0,0-63.31,255.68-85.22,280.03c0,0-104.71,65.74-129.06,73.05c0,0,25.9,4.87,34.87,0
				c0,0,67.4-19.48,96.62-41.4c0,0,75.49,0,109.58,14.61c0,0-63.31-46.27-80.35-51.14c0,0,112.01-194.8,102.27-226.46l24.35-80.36
				l-63.31-24.35L1222.11,681.65z"/>
		</g>
		<g>
			<path class="st3" d="M1129.58,993.33c-29.22,21.92-96.62,41.4-96.62,41.4c-2.1,1.14-5.12,1.74-8.52,2
				c6.92,0.4,14.27,0.17,18.26-2c0,0,67.08-19.39,96.41-41.24C1133.16,993.33,1129.58,993.33,1129.58,993.33z"/>
			<path class="st3" d="M1270.81,730.35l24.35-80.36l-63.31-24.35l-0.61,3.51l54.18,20.84l-24.35,80.36
				C1270.81,762,1158.8,956.8,1158.8,956.8c13.38,3.82,55.25,33.14,72.65,45.58c6.46,1.57,12.41,3.4,17.45,5.56
				c0,0-63.31-46.27-80.35-51.14C1168.54,956.8,1280.55,762,1270.81,730.35z"/>
		</g>
	</g>
</g>
<g id="right_thigh_2_">
	<g id="right_thigh_1_">
		<path id="right_thigh" class="st4" d="M1338.99,579.38c0,0,9.74,68.18-70.62,168.02c0,0-4.87,4.87-14.61,4.87
			c0,0-172.89-46.27-192.36-99.84c-19.48-53.57,155.84-150.97,155.84-150.97L1338.99,579.38z"/>
		<path class="st5" d="M1338.99,579.38l-121.75-77.92c0,0-11.2,6.23-27.62,16.39l103.83,50.29c0,0,17.72,66.55-50.29,175.18
			c0,0-1.86,2.31-5.83,4.23c10.21,3.06,16.44,4.73,16.44,4.73c9.74,0,14.61-4.87,14.61-4.87
			C1348.73,647.56,1338.99,579.38,1338.99,579.38z"/>
	</g>
</g>
<g id="left_thigh_2_">
	<g id="left_thigh_3_">
		<path id="left_thigh_4_" class="st4" d="M864.47,626.86c0,0,33.78,74.27,84.91,110.79c0,0,11.81,4.87,27.82,0
			c16.01-4.87,101.23-43.83,91.49-60.88c0,0,77.92-90.1-63.31-129.06s-153.41-12.17-155.84,17.05
			C847.12,593.99,857.48,613.47,864.47,626.86z"/>
		<path class="st5" d="M1005.39,547.72c-104.23-28.75-138.16-21.69-149.77-4.28c22.21,1.73,52.46,7.5,93.76,18.89
			c141.23,38.96,63.31,129.06,63.31,129.06c6.59,11.53-30.25,33.07-59.74,47.32c4.66,1.09,13.5,2.22,24.26-1.06
			c16.01-4.87,101.23-43.83,91.49-60.88C1068.7,676.78,1146.62,586.68,1005.39,547.72z"/>
	</g>
</g>
<g id="body_4_">
	<g id="body">
		<g id="body_1_">
			<g>
				<path class="st4" d="M1453.43,311.53c0,0,38.96,248.37-236.2,367.69c0,0-431,129.06-496.74-275.16
					c0,0-63.04-260.55,244.84-243.5c0,0,290.86-17.04,444.27,126.62C1409.6,287.18,1448.56,299.35,1453.43,311.53z"/>
			</g>
		</g>
		<g id="body_3_">
			<g>
				<path class="st6" d="M1453.43,311.53c0,0,38.96,248.37-236.2,367.69c0,0-431,129.06-496.74-275.16
					c0,0-63.04-260.55,244.84-243.5c0,0,290.86-17.04,444.27,126.62C1409.6,287.18,1448.56,299.35,1453.43,311.53z"/>
			</g>
		</g>
		<g id="body_2_">
			<g>
				<path class="st4" d="M1453.43,272.57c0,0,38.96,248.37-236.2,367.69c0,0-431,129.06-496.74-275.16
					c0,0-63.04-260.55,244.84-243.5c0,0,290.86-17.05,444.27,126.62C1409.6,248.22,1448.56,260.39,1453.43,272.57z"/>
			</g>
		</g>
	</g>
</g>
<g id="head_2_">
	<g id="head_3_">
		<path id="head_4_" class="st7" d="M613.36,338.31c-5.62-5.26-65.75-153.41,60.88-258.11c0,0,199.67-109.58,277.43,37.65
			c0,0,52.69,88.97-17.41,220.46c0,0-53.05,73.26-177.24,68.28C757.02,406.6,688.84,408.93,613.36,338.31z"/>
		<path class="st6" d="M934.26,316.4c0,0-53.05,73.26-177.24,68.28c0,0-68.18,2.33-143.67-68.28c-2.6-2.43-16.8-35.34-18.89-80.36
			c-2.65,55.92,15.89,99.46,18.89,102.27c75.49,70.62,143.67,68.28,143.67,68.28c124.19,4.97,177.24-68.28,177.24-68.28
			c30.9-57.96,37.93-107.65,36.15-145.11C968.79,227.33,959.46,269.12,934.26,316.4z"/>
		<path class="st8" d="M639.27,205.8c-9.73-0.95-16.18-9.42-14.41-18.92c14.12-75.9,88.81-131.51,166.5-123.95
			c9.73,0.95,16.18,9.42,14.41,18.92c-1.77,9.5-11.09,16.44-20.81,15.49c-58.27-5.67-114.29,36.03-124.87,92.96
			C658.32,199.81,649,206.75,639.27,205.8z"/>
	</g>
</g>
<g id="beak_2_">
	<g id="beak_1_">
		<path id="beak" class="st3" d="M657.19,294.48c0,0,31.66,19.48,24.35,53.57L533,357.79L657.19,294.48z"/>
		<path class="st9" d="M681.54,343.18l-137.57,9.02L533,357.79l148.54-9.74c0.96-4.47,1.23-8.67,1.01-12.63
			C682.42,337.92,682.11,340.5,681.54,343.18z"/>
	</g>
</g>
<g id="wing_2_">
	<g id="wing_3_">
		<path id="wing_4_" class="st10" d="M1167.39,275c0,0-141.23,53.57-124.19,163.15c0,0,31.66,150.97,219.15,99.84
			c0,0,82.79-26.79,63.31-119.32c0,0-29.22-73.05-114.45-9.74c0,0,43.83-41.4,104.7-26.79C1376.8,396.75,1225.83,243.35,1167.39,275
			z"/>
		<g>
			<path class="st11" d="M1262.36,530.68c-187.5,51.14-219.15-99.84-219.15-99.84c-0.76-4.89-1.19-9.67-1.35-14.34
				c-0.22,6.96,0.19,14.16,1.35,21.64c0,0,31.66,150.97,219.15,99.84c0,0,68.56-22.19,66.21-95.92
				C1326.35,509.96,1262.36,530.68,1262.36,530.68z"/>
			<path class="st11" d="M1315.93,374.84c-60.87-14.61-104.7,26.79-104.7,26.79c36.89-27.4,63.28-29.25,81.35-22.54
				c7.44,0.19,15.24,1.12,23.35,3.06c12.36,2.97,15.99-0.99,13.43-8.93C1327.73,375.88,1323.45,376.64,1315.93,374.84z"/>
		</g>
		<path class="st12" d="M1096.6,456.43c-5.88,3.26-13.29,1.14-16.55-4.73c-26.07-46.96-9.08-106.37,37.87-132.44
			c5.88-3.26,13.29-1.14,16.55,4.73c3.26,5.88,1.14,13.29-4.73,16.55c-35.22,19.55-47.96,64.11-28.4,99.33
			C1104.6,445.75,1102.48,453.16,1096.6,456.43z"/>
	</g>
</g>
<g id="left_eye_1_">
	<g id="left_eye">
		<path d="M631.62,237.26c0,0-15.2,19.15-28.48,14.42c0,0-3.18-4.68,1.69-11.99C604.83,239.7,604.72,231.21,631.62,237.26z"/>
		
			<ellipse transform="matrix(0.0968 -0.9953 0.9953 0.0968 323.7648 833.6205)" class="st13" cx="621.2" cy="238.42" rx="3.14" ry="4.05"/>
	</g>
</g>
<g id="right_eye_1_">
	<g id="right_eye_2_">
		<path d="M731.45,212.91c0,0,6.09-18.26,32.87-23.13c26.79-4.87,31.66,4.87,31.66,4.87s3.65-1.22-7.3,9.74
			C788.68,204.39,772.85,222.65,731.45,212.91z"/>
		
			<ellipse transform="matrix(0.9348 -0.3553 0.3553 0.9348 -17.7834 289.8546)" class="st13" cx="780.33" cy="193.35" rx="5.47" ry="2.73"/>
	</g>
</g>
</svg>
