<?xml version="1.0" encoding="utf-8"?>
<!-- Generator: Adobe Illustrator 25.0.0, SVG Export Plug-In . SVG Version: 6.00 Build 0)  -->
<svg version="1.1" xmlns="http://www.w3.org/2000/svg" xmlns:xlink="http://www.w3.org/1999/xlink" x="0px" y="0px"
	 viewBox="0 0 1920 1080" style="enable-background:new 0 0 1920 1080;" xml:space="preserve">
<style type="text/css">
	.st0{display:none;}
	.st1{display:inline;opacity:0.15;fill:#A5A5A5;stroke:#000000;stroke-miterlimit:10;}
	.st2{display:inline;opacity:0.67;fill:#595959;stroke:#000000;stroke-miterlimit:10;}
	.st3{fill:#F7931E;}
	.st4{fill:#F15A24;}
	.st5{fill:#F4F2E9;}
	.st6{fill:#B3F4E2;}
	.st7{fill:#666666;}
	.st8{fill:#FFFFFF;}
	.st9{fill:none;stroke:#808080;stroke-miterlimit:10;}
	.st10{fill:#F9F7EF;}
	.st11{fill:none;stroke:#666666;stroke-width:0.75;stroke-miterlimit:10;}
</style>
<g id="Layer_3" class="st0">
	<rect x="0.5" y="-0.5" class="st1" width="1920" height="1080"/>
	<rect x="0.5" y="-0.5" class="st2" width="1920" height="1080"/>
</g>
<g id="right_leg_1_">
	<g id="right_leg">
		<path class="st3" d="M1178,466c0,0-14,81-101,285c0,0,15-0.19,49.5,26.4c0,0-43.5-11.51-51.5-9.96c0,0-15,2.43-98,44.55
			c0,0,10-18,62-50c0,0-26-5-36-5s53-13,53-13s58-109,93-267L1178,466z"/>
		<g>
			<path class="st4" d="M1067,767.45c0,0-13.38,2.17-84.73,37.87c-3.99,4.4-5.27,6.69-5.27,6.69c71.38-36.23,92.47-43.1,96.97-44.31
				C1070.85,767.3,1068.39,767.18,1067,767.45z"/>
			<path class="st4" d="M1178,466l-8.65,3.28c-3.53,16.95-23.34,101.14-100.35,281.72c0,0,13.84-0.16,45.49,23.37
				c6.97,1.7,12.01,3.03,12.01,3.03C1092,750.81,1077,751,1077,751C1164,547,1178,466,1178,466z"/>
		</g>
	</g>
</g>
<g id="left_leg_1_">
	<g id="left_leg">
		<path class="st3" d="M1004,502l39-6c0,0-20,76-106,240l26,31c0,0-36-18-46-16s-86,30-86,30s32-15,62-29s-33-3-33-3l62-18
			C922,731,1006,544,1004,502z"/>
		<g>
			<path class="st4" d="M874.47,746.77c-4.27,0.47-8.64,1.07-12.39,1.63L860,749C860,749,866.58,747.85,874.47,746.77z"/>
			<path class="st4" d="M1043,496l-8.06,1.24C1033.64,502,1012.23,578.29,929,737l19.53,23.29C956.64,763.82,963,767,963,767l-26-31
				C1023,572,1043,496,1043,496z"/>
			<path class="st4" d="M909,752c-6.08,1.22-36.57,12.05-59.53,20.35C838.43,777.52,831,781,831,781s63.77-23.49,82.16-28.97
				C911.52,751.81,910.1,751.78,909,752z"/>
		</g>
	</g>
</g>
<g id="head_2_">
	<g id="head_1_">
		<g id="beak">
			<path class="st3" d="M582.7,268.94c0,0-26.7,34.86-38.19,53.54c0,0,43.45-8.49,54.49-8.07
				C598.99,314.41,628.37,289.98,582.7,268.94z"/>
			<path class="st4" d="M598.99,308.41c-8.89-0.34-38.78,5.1-50.09,7.23c-1.61,2.43-3.1,4.74-4.4,6.84c0,0,43.45-8.49,54.49-8.07
				c0,0,11.09-9.23,9.04-21.22C606.54,302.13,598.99,308.41,598.99,308.41z"/>
		</g>
		<g id="head">
			<path id="neck_n_head" class="st5" d="M873,332c0,0,39,116-43,184c0,0-73.5-52.5-92-81c0,0-31.5-72.5-44.5-119.5c0,0-43-15-94,0
				c0,0,10-19-23-39c0,0,56-97,92-103c0,0,82-25,130,95L873,332z"/>
			<path class="st6" d="M678.8,311.84c0,0,40.2-26.42,58.2-16.13l-26.3,71.35l-12.82-36.87L678.8,311.84z"/>
		</g>
		<g>
			<path class="st7" d="M751.19,396.55c0,0-25.49-26.68-32.56-44.15c0,0-0.37-6.49,7.32-0.88L751.19,396.55z"/>
			<path class="st7" d="M810.83,323.13c0,0-15.76-53.28-36.43-53.14C774.4,269.99,788.48,283.49,810.83,323.13z"/>
			<path class="st7" d="M784.07,262.88c0,0,38.24,32.11,50.56,48.01c0,0-13.93-12.87-18.51-14.12
				C811.43,295.49,790.12,267.86,784.07,262.88z"/>
			<path class="st7" d="M756.44,284.72c-0.61-0.24,20.18,13.33,30.41,26.14c6.96,8.72,12.7,17.06,13.19,20.99l-14.53-20.08
				L756.44,284.72z"/>
			<path class="st7" d="M772.13,369.4c0,0-6.14-3.38-12.09-9.98c-0.18-0.2-3.39-1.93-5.89-4.94c-7.54-9.1-11.07-24.05-15.01-30.73
				c6.79,8.82,10.8,21.23,16.79,28.78C760.91,358.84,767.69,363.71,772.13,369.4z"/>
			<path class="st7" d="M764.16,352.26c0,0,5.41,8.78,13.01,10.97C784.44,365.32,764.16,352.26,764.16,352.26z"/>
			<path class="st7" d="M713.93,320.9c0,0,4.07,9.37,8.17,14.95L713.93,320.9z"/>
			<path class="st7" d="M761.32,313.01c0,0,6.11,11.27,8.98,12.39C773.12,326.51,761.32,313.01,761.32,313.01z"/>
			<path class="st7" d="M810.39,309.67c0,0,6.73,9.02,9.36,9.91C822.36,320.45,810.39,309.67,810.39,309.67z"/>
		</g>
		<g id="eye">
			<path d="M652,235c0,0,0.26-0.3,0.77-0.82C655.72,231.19,667.08,221,685,221l4,2c0,0-15.45,19-34.72,12"/>
			
				<ellipse transform="matrix(0.9527 -0.3038 0.3038 0.9527 -36.171 216.8352)" class="st8" cx="678.68" cy="224.65" rx="3.5" ry="0.7"/>
		</g>
	</g>
</g>
<g id="body_3_">
	<g id="body_2_">
		<g id="left_thigh_1_">
			<path id="left_thigh" class="st5" d="M923,566c-1.31-0.89,48.47,35.19,58.84,34.42c9.55-0.71,6.04,1.37,9.48-1.37
				S1033,584,1059,558l18.98-43.59l-189.64,3.64L923,566z"/>
			<path class="st6" d="M979.18,600.08c0,0,20.82-22.08,7.82-45.08s-10-38.65-10-38.65l100.98-1.94L1059,558
				c0,0-47.33,38.84-77.16,42.42"/>
		</g>
		<g id="body_1_">
			<path id="body" class="st5" d="M851.5,305.5c0,0,195.36-40,394.18,0c0,0,129.14-7.56,142.98-17.78c0,0,10.41-6,6.13,8.89
				c0,0-153.73,222.89-216.51,242.89c0,0-33.78,50-40.78,50c0,0-10,7-18,8c0,0-60-29-73-25c0,0-129,12-151-3c0,0-111-76-149-123
				C746.5,446.5,759.5,346.5,851.5,305.5z"/>
			<g>
				<path class="st6" d="M778.87,479.36L895.5,569.5c0,0,72.95,16.46,158.23,2.98l129.11-34.72c0,0,55.68-33.35,121.92-120.56
					s21.98-27.92,21.98-27.92l-93.4,84.41c0,0-200.51,101.31-308.43,66.81L800,462C800,462,741.74,446.72,778.87,479.36z"/>
				<path class="st6" d="M1115.33,555.92c0,0,19.76,28.3,13.21,38.69l14.27-8.68l35.46-46.42L1115.33,555.92z"/>
			</g>
		</g>
		<g>
			<path class="st9" d="M1390.21,290.89c0,0-59.91,32.55-97.81,39.58"/>
			<path class="st9" d="M1280.66,306.68c0,0,91.04-10.02,108.69-17.87c0.31-0.14,0.6-0.27,0.86-0.41"/>
			<path class="st9" d="M1393.5,293.5c0,0-64.68,59.2-96.84,76.1"/>
			<path class="st9" d="M1395.64,288.89c-1.14,1.61-96.14,67.61-133.14,72.61"/>
		</g>
	</g>
</g>
<g id="wing_4_">
	<g id="wing_3_">
		<g id="wing_2_">
			<g>
				<path id="wing_1_" class="st10" d="M903,385c0,0,52-48,131-43c0,0,94,1,121,14c0,0,12.04,5.63,15.02,7.32
					c2.98,1.68,0,9.85,0,9.85S1175,375,1181,370s-4,32-11,36s12.84,0,12.84,0S1158,494,1033,512c0,0-38,20-103-64
					C930,448,906,420,903,385z"/>
				<path id="wing" class="st10" d="M903,385c0,0,52-48,131-43c0,0,94,1,121,14c0,0,12.04,5.63,15.02,7.32c2.98,1.68,0,9.85,0,9.85
					S1175,375,1181,370s-4,32-11,36s12.84,0,12.84,0S1158,494,1033,512c0,0-38,20-103-64C930,448,906,420,903,385z"/>
			</g>
			<g>
				<path class="st6" d="M1167.96,389.66c-5.55,3.17,5.77,1.31,10.7,0.41c3.8-11.02,5.94-23.06,2.35-20.07
					c-1.39,1.16-2.73,1.94-3.96,2.48C1174.44,380.33,1170.93,387.96,1167.96,389.66z"/>
				<path class="st6" d="M1172.91,407.6c-14.56,26.72-52.75,75.21-141.96,88.06c0,0-38,20-103-64c0,0-17.13-19.98-24.25-47.29
					c-0.46,0.4-0.71,0.63-0.71,0.63c3,35,27,63,27,63c65,84,103,64,103,64c125-18,149.84-106,149.84-106
					S1177.13,407.15,1172.91,407.6z"/>
			</g>
		</g>
		<path class="st11" d="M983.5,444.5c29,0,134.75-16.51,191.15-50.9"/>
		<path class="st11" d="M1012.5,414.5c0,0,88-9,168.5-44.5l-2.3-0.46l-0.51,5.61"/>
		<path class="st11" d="M1000.5,489.5c-2.13-0.52,83.42-4.96,168-75"/>
		<path class="st11" d="M966.5,467.5c5.52-3.05,129.6,8.33,208-65"/>
	</g>
</g>
</svg>
