<svg xmlns="http://www.w3.org/2000/svg" viewBox="0 0 512 512"><defs><style>.cls-1{fill:#fff;}.cls-2{fill:#63bd5c;}.cls-3{fill:#e2a225;}</style></defs><g id="Layer_2" data-name="Layer 2"><circle class="cls-1" cx="255.04" cy="256" r="255.04"/></g><g id="Layer_1" data-name="Layer 1"><path class="cls-2" d="M345,273.82c27.4,41.93,72.19,50.85,73.32,51a10.11,10.11,0,0,0,7-1.46,5.8,5.8,0,0,0,2.84-5.14,289.42,289.42,0,0,0-17.53-81.29A325.66,325.66,0,0,0,366,155.63a9,9,0,0,0-7-3.19,11.8,11.8,0,0,0-7.21,2.94c-13.85,17.76-21.73,37.88-22.91,58.56s4.36,41.26,16.13,59.88Z"/><path class="cls-2" d="M80.07,139.77c.37,0,.72-.12,1.09-.13,7.54.13,14.66,2.64,19.7,7,7.84,6.39,52.35,67.45,9.54,133h0A129.35,129.35,0,0,1,90.64,303.1a174.82,174.82,0,0,0,24.26,23.36,170.4,170.4,0,0,0,47.17,26.46V386.2l-30.83,23.69h0c-3.16,2.51-3.11,6.5.1,9a10.18,10.18,0,0,0,11.66.08l19.07-14.65v16.52c0,3.53,3.72,6.39,8.31,6.39s8.32-2.86,8.32-6.39V404.27l19.07,14.65h0a10.18,10.18,0,0,0,11.66-.08c3.21-2.46,3.25-6.45.1-9L178.7,386.2V358.12a170,170,0,0,0,83.07,0V386L231,409.8c-3.25,2.52-3.25,6.57,0,9.09a10.21,10.21,0,0,0,11.77,0l19-14.7v16.6c0,3.53,3.73,6.39,8.32,6.39s8.32-2.86,8.32-6.39v-16.5l19.25,14.65a10.2,10.2,0,0,0,11.77-.06c3.22-2.53,3.19-6.59-.08-9.09l-30.89-23.57V353a169.76,169.76,0,0,0,47.27-26.49A175.38,175.38,0,0,0,350,303.13a129.19,129.19,0,0,1-19.79-23.56c-42.8-65.51,1.67-126.59,9.54-133a31.08,31.08,0,0,1,19.29-7c.52,0,1,.15,1.53.18-14.91-20.18-35.75-37.39-60.87-50.26a185.81,185.81,0,0,0-43.61-16.12l21.62-33.18c2.06-3.18.37-7-3.76-8.61s-9.15-.29-11.21,2.89L239.29,70.61c-3.46-.42-7-.69-10.69-.88V24.6c0-3.53-3.72-6.39-8.32-6.39S212,21.07,212,24.6V69.69c-3.68.2-7.24.47-10.69.89L177.87,34.52c-2.07-3.16-7.07-4.43-11.18-2.84s-5.77,5.44-3.7,8.59l21.53,33.15a186.15,186.15,0,0,0-43.63,16.13C115.8,102.42,95,119.62,80.07,139.77ZM252.88,238l-24.95,44.73c-1.31,2.35-4.32,3.87-7.64,3.87s-6.33-1.52-7.65-3.87L187.69,238a5.17,5.17,0,0,1,.7-6,9.21,9.21,0,0,1,7-2.87h49.9a9.2,9.2,0,0,1,6.94,2.87,5.16,5.16,0,0,1,.7,6Zm17.31-66.42c8.82,0,17.28,2.69,23.52,7.48s9.74,11.3,9.74,18.08c0,3.53-3.72,6.39-8.31,6.39s-8.32-2.86-8.32-6.39c0-4.57-3.17-8.79-8.32-11.07a21.07,21.07,0,0,0-16.63,0c-5.14,2.28-8.32,6.5-8.32,11.07,0,3.53-3.72,6.39-8.31,6.39s-8.32-2.86-8.32-6.39c0-6.78,3.51-13.28,9.74-18.08S261.37,171.58,270.19,171.58Zm-99.8,0c8.82,0,17.28,2.69,23.52,7.48s9.74,11.3,9.74,18.08c0,3.53-3.72,6.39-8.31,6.39s-8.32-2.86-8.32-6.39c0-4.57-3.17-8.79-8.32-11.07a21.07,21.07,0,0,0-16.63,0c-5.15,2.28-8.32,6.5-8.32,11.07,0,3.53-3.72,6.39-8.31,6.39s-8.32-2.86-8.32-6.39c0-6.78,3.5-13.28,9.74-18.08S161.57,171.58,170.39,171.58Z"/><path class="cls-2" d="M74.54,155.63C37.45,205.32,16.15,261,12.37,318.23a5.8,5.8,0,0,0,2.83,5.14,10.17,10.17,0,0,0,7,1.47c1.14-.17,45.93-9.08,73.32-51,11.78-18.62,17.33-39.2,16.15-59.88s-9.06-40.82-22.91-58.57a11.76,11.76,0,0,0-7.21-3,8.94,8.94,0,0,0-7,3.23Z"/><path class="cls-3" d="M373.69,326.2c-23.21,0-42.17,7.82-43.33,17.65.65,5.5,7.45,9.33,11.86,11.3,7.85,3.4,19.06,5.64,31.47,5.64a98,98,0,0,0,10.17-.54,52.06,52.06,0,0,1,30.75-11.42,11.47,11.47,0,0,0,2.42-4.9C414.68,329.48,385.4,326.16,373.69,326.2Zm43.39,26.58c-24,0-43.39,16.65-43.39,37.2s19.43,37.21,43.39,37.21,43.38-16.66,43.38-37.21S441,352.78,417.08,352.78Zm-86.72,1.7v5.44c.47,3.91,4.5,7.94,11.86,11.13s17.82,5.37,29.39,5.6A39.46,39.46,0,0,1,378.05,366c-1.44.06-2.89.08-4.36.08-13.26,0-25.3-2.29-34.28-6.18A37.78,37.78,0,0,1,330.36,354.48Zm0,15.94v5.44c.47,3.92,4.5,7.94,11.86,11.13,6.87,3,16.33,5.09,26.92,5.56-.06-.85-.1-1.7-.1-2.57a35.89,35.89,0,0,1,.92-8.06c-11.77-.39-22.43-2.61-30.55-6.14A37.51,37.51,0,0,1,330.36,370.42Zm0,15.95v5.44c.47,3.91,4.5,7.93,11.86,11.13,10.89,4.57,22.21,5.58,32,5.64a36.75,36.75,0,0,1-4.31-10.71c-11.76-.4-22.4-2.62-30.51-6.14A37.71,37.71,0,0,1,330.36,386.37Zm-.05,15.94v6.27c0,10.28,19.43,18.6,43.38,18.6a93.05,93.05,0,0,0,18.79-1.86,46.4,46.4,0,0,1-14.63-11.55c-1.37.06-2.75.13-4.16.13-13.26,0-25.3-2.33-34.28-6.23A37.88,37.88,0,0,1,330.31,402.31Z"/></g></svg>