<svg width="451" height="72" viewBox="0 0 451 72" fill="none" xmlns="http://www.w3.org/2000/svg">
<path d="M21 36C21 16.1178 37.1178 0 57 0C76.8823 0 93 16.1178 93 36C93 55.8823 76.8823 72 57 72C37.1178 72 21 55.8823 21 36Z" fill="white"/>
<path d="M57 69C38.7746 69 24 54.2254 24 36H18C18 57.5391 35.4609 75 57 75V69ZM90 36C90 54.2254 75.2254 69 57 69V75C78.5391 75 96 57.5391 96 36H90ZM57 3C75.2254 3 90 17.7746 90 36H96C96 14.4609 78.5391 -3 57 -3V3ZM57 -3C35.4609 -3 18 14.4609 18 36H24C24 17.7746 38.7746 3 57 3V-3Z" fill="#F8F8FB"/>
<path d="M68.6363 36.9297C71.571 42.1677 76.369 43.2813 76.4903 43.302C76.7588 43.3473 77.0356 43.2799 77.2412 43.1189C77.4472 42.9578 77.559 42.7212 77.5451 42.4767C77.3478 39.0393 76.7178 35.6329 75.6671 32.3223C74.5388 28.7758 72.9332 25.3655 70.8858 22.166C70.7303 21.9247 70.4456 21.7733 70.1349 21.7668C69.8327 21.7918 69.5543 21.9244 69.3626 22.135C67.8788 24.3526 67.0352 26.8666 66.9084 29.4499C66.7815 32.0331 67.3757 34.6035 68.6365 36.9294L68.6363 36.9297Z" fill="#61BD5B"/>
<path d="M40.2538 20.1851C40.2931 20.1851 40.3305 20.1697 40.3703 20.169C41.1772 20.1843 41.9409 20.4983 42.4802 21.0367C43.3201 21.835 48.0875 29.4627 43.5019 37.6455V37.6452C42.9196 38.6928 42.2097 39.6792 41.3853 40.5869C42.1473 41.6303 43.0174 42.6074 43.9839 43.505C45.4355 44.8671 47.1468 45.9859 49.0368 46.8099V50.9671L45.7341 53.9263V53.926C45.3965 54.2392 45.4016 54.737 45.7453 55.045C46.0889 55.3529 46.6445 55.3575 46.9941 55.055L49.0367 53.2244V55.2888C49.0367 55.7296 49.4356 56.087 49.9276 56.087C50.4195 56.087 50.8184 55.7296 50.8184 55.2888V53.2244L52.861 55.0546V55.0549C53.2106 55.3575 53.7662 55.3529 54.1099 55.045C54.4535 54.7371 54.4587 54.2393 54.121 53.926L50.8184 50.9671V47.4603C53.7073 48.3177 56.8281 48.3177 59.7171 47.4603V50.9469L56.4209 53.9157C56.0729 54.23 56.0729 54.7367 56.4209 55.0506C56.7689 55.3624 57.3328 55.3624 57.6808 55.0506L59.7139 53.2147L59.7135 55.2886C59.7135 55.7294 60.1124 56.0869 60.6044 56.0869C61.0968 56.0869 61.4953 55.7294 61.4953 55.2886V53.2267L63.5578 55.0569C63.726 55.2059 63.9531 55.2889 64.1898 55.2875C64.426 55.2864 64.6523 55.2009 64.8186 55.0498C65.1634 54.7333 65.1598 54.2266 64.8102 53.9141L61.5017 50.9696V46.8184C63.3959 45.9945 65.1104 44.8738 66.5645 43.5089C67.531 42.6113 68.4012 41.6345 69.1631 40.5908C68.3375 39.6828 67.6268 38.6957 67.0438 37.6476C62.4586 29.465 67.222 21.8352 68.0655 21.0388C68.5928 20.5079 69.339 20.1928 70.1316 20.1665C70.1877 20.1665 70.2402 20.185 70.2955 20.1889C68.6986 17.6684 66.4659 15.5182 63.7754 13.91C62.3396 13.0326 60.7648 12.3537 59.1035 11.8969L61.4197 7.75251C61.6401 7.35552 61.4595 6.87409 61.0165 6.67667C60.5738 6.4796 60.0365 6.64103 59.8162 7.03801L57.3082 11.5455C56.9383 11.4935 56.5573 11.4593 56.1636 11.4354V5.79824C56.1636 5.35743 55.7647 5 55.2728 5C54.7808 5 54.3819 5.35743 54.3819 5.79824V11.4315C53.9882 11.4554 53.6067 11.4899 53.2373 11.5416L50.7293 7.03801C50.5078 6.64353 49.9717 6.48459 49.5314 6.68308C49.0915 6.88157 48.9141 7.36194 49.1357 7.75646L51.4419 11.897C49.7799 12.3542 48.2046 13.0334 46.7685 13.9114C44.0808 15.5193 41.85 17.6674 40.2536 20.1851L40.2538 20.1851ZM58.7645 32.4551L56.0919 38.0427C55.9511 38.336 55.6293 38.5259 55.273 38.5259C54.9167 38.5259 54.5949 38.336 54.4541 38.0427L51.7815 32.4551C51.6638 32.2085 51.692 31.9252 51.8567 31.701C52.0217 31.4769 52.3009 31.3422 52.6004 31.3422H57.9456C58.2451 31.3422 58.5243 31.4769 58.6893 31.701C58.854 31.9252 58.8822 32.2085 58.7645 32.4551H58.7645ZM60.6182 24.1581C61.5632 24.1581 62.4696 24.4945 63.1381 25.0932C63.8063 25.6922 64.1817 26.5043 64.1817 27.351C64.1817 27.7918 63.7828 28.1493 63.2908 28.1493C62.7989 28.1493 62.4 27.7918 62.4 27.351C62.4 26.7805 62.0603 26.2535 61.5091 25.9684C60.9579 25.6833 60.2786 25.6833 59.7273 25.9684C59.1761 26.2535 58.8365 26.7805 58.8365 27.351C58.8365 27.7918 58.4376 28.1493 57.9456 28.1493C57.4536 28.1493 57.0547 27.7918 57.0547 27.351C57.0547 26.5043 57.4302 25.6922 58.0983 25.0932C58.7669 24.4945 59.6733 24.1581 60.6182 24.1581ZM49.9278 24.1581C50.8727 24.1581 51.7792 24.4945 52.4477 25.0932C53.1158 25.6922 53.4913 26.5043 53.4913 27.351C53.4913 27.7918 53.0924 28.1493 52.6004 28.1493C52.1084 28.1493 51.7095 27.7918 51.7095 27.351C51.7095 26.7805 51.3699 26.2535 50.8187 25.9684C50.2674 25.6833 49.5881 25.6833 49.0369 25.9684C48.4857 26.2535 48.146 26.7805 48.146 27.351C48.146 27.7918 47.7471 28.1493 47.2552 28.1493C46.7632 28.1493 46.3643 27.7918 46.3643 27.351C46.3643 26.5043 46.7397 25.6922 47.4079 25.0932C48.0764 24.4945 48.9829 24.1581 49.9278 24.1581Z" fill="#61BD5B"/>
<path d="M39.6612 22.1664C35.6884 28.3727 33.4068 35.3314 33.0012 42.4772C32.9872 42.7213 33.099 42.9579 33.3046 43.119C33.5102 43.2801 33.7866 43.3474 34.0551 43.3025C34.1772 43.2818 38.9751 42.1682 41.9098 36.9301C43.1714 34.6042 43.7656 32.0331 43.639 29.4495C43.5121 26.866 42.6686 24.3511 41.1848 22.1332C40.9931 21.9223 40.7147 21.789 40.4124 21.7637C40.1002 21.7708 39.8155 21.924 39.6612 22.1667L39.6612 22.1664Z" fill="#61BD5B"/>
<path d="M71.7055 43.473C69.2191 43.473 67.1877 44.4495 67.0635 45.6773C67.1331 46.3648 67.8615 46.8422 68.3343 47.0881C69.1746 47.5135 70.3761 47.7936 71.7056 47.7936C72.081 47.7936 72.4458 47.7681 72.7948 47.7262C73.6595 46.8976 74.8122 46.3646 76.0882 46.2998C76.2141 46.1019 76.3253 45.8899 76.3475 45.6879C76.0956 43.8824 72.9595 43.4669 71.7055 43.473ZM76.3527 46.7924C73.7861 46.7924 71.7055 48.8731 71.7055 51.4397C71.7055 54.0063 73.7862 56.087 76.3527 56.087C78.9193 56.087 81 54.0063 81 51.4397C81 48.8731 78.9193 46.7924 76.3527 46.7924ZM67.0632 47.0051V47.6846C67.1142 48.1735 67.5461 48.6759 68.334 49.0746C69.1268 49.4758 70.2424 49.7453 71.4824 49.7748C71.6466 49.2947 71.882 48.8462 72.1722 48.4417C72.0183 48.4493 71.8631 48.452 71.7054 48.452C70.285 48.452 68.995 48.166 68.0332 47.6793C67.6579 47.4893 67.3286 47.261 67.0632 47.0051ZM67.0632 48.9968V49.6763C67.1142 50.1652 67.5461 50.6675 68.334 51.0662C69.0704 51.4389 70.0835 51.7023 71.2178 51.7612C71.2112 51.6545 71.2074 51.548 71.2074 51.4396C71.2074 51.0953 71.2414 50.7588 71.3059 50.4334C70.0449 50.384 68.9033 50.1061 68.033 49.6658C67.6576 49.4758 67.3286 49.2526 67.0632 48.9968ZM67.0632 50.9884V51.6679C67.1142 52.1568 67.5461 52.6592 68.334 53.0579C69.5004 53.6288 70.7136 53.7554 71.7625 53.7633C71.5512 53.3466 71.3925 52.8975 71.3009 52.4252C70.042 52.3752 68.9023 52.0973 68.0333 51.6576C67.658 51.4676 67.3286 51.2443 67.0632 50.9884ZM67.058 52.9801V53.7633C67.058 55.0467 69.1394 56.0869 71.7053 56.0869C72.4282 56.0869 73.108 56.0009 73.7177 55.8535C73.1012 55.4846 72.5652 54.9959 72.1512 54.4116C72.0041 54.4186 71.8562 54.4273 71.7051 54.4273C70.2847 54.4273 68.9948 54.136 68.033 53.6493C67.6564 53.4587 67.3237 53.237 67.058 52.9801Z" fill="#E1A11C"/>
</svg>
