<?xml version="1.0" encoding="utf-8"?>
<!-- Generator: Adobe Illustrator 26.5.0, SVG Export Plug-In . SVG Version: 6.00 Build 0)  -->
<svg version="1.1" id="Layer_1" xmlns="http://www.w3.org/2000/svg" xmlns:xlink="http://www.w3.org/1999/xlink" x="0px" y="0px"
	 viewBox="0 0 121 121" style="enable-background:new 0 0 121 121;" xml:space="preserve">
<style type="text/css">
	.st0{clip-path:url(#SVGID_00000020396239307865181100000011898247161383539333_);}
	.st1{fill:#53C351;}
</style>
<g>
	<defs>
		<rect id="SVGID_1_" x="11.5" y="17.6" width="97" height="86"/>
	</defs>
	<clipPath id="SVGID_00000078046581345219701020000000913024620321913764_">
		<use xlink:href="#SVGID_1_"  style="overflow:visible;"/>
	</clipPath>
	<g style="clip-path:url(#SVGID_00000078046581345219701020000000913024620321913764_);">
		<path class="st1" d="M85.7,53.7C85.7,53.7,85.7,53.7,85.7,53.7c0-0.1,0-0.2-0.1-0.3l0,0c0-0.1-0.1-0.2-0.1-0.2c0,0,0,0,0-0.1
			c0-0.1-0.1-0.1-0.1-0.2c0,0,0,0,0-0.1c0,0,0,0,0,0c0-0.1-0.1-0.1-0.1-0.1c0,0,0,0,0,0c-0.1-0.1-0.1-0.1-0.2-0.2c0,0,0,0,0,0
			c-0.1-0.1-0.1-0.1-0.2-0.1c0,0,0,0,0,0c-0.1-0.1-0.2-0.1-0.2-0.2L52.2,33.9l18.6-11.6L102,39.8L88.9,48c-1,0.6-1.3,2-0.7,3
			c0.6,1,2,1.3,3,0.7l16.2-10.1c0.7-0.4,1-1.1,1-1.9c0-0.8-0.4-1.5-1.1-1.8l-35.5-20c-0.7-0.4-1.6-0.4-2.3,0.1L46.8,32.1
			c0,0,0,0,0,0l-11.4,7.1c0,0,0,0,0,0L12.5,53.5c-0.7,0.4-1,1.1-1,1.9c0,0.8,0.4,1.5,1.1,1.8l35.5,20c0.3,0.2,0.7,0.3,1.1,0.3
			c0.4,0,0.8-0.1,1.2-0.3L66.6,67c1-0.6,1.3-2,0.7-3c-0.6-1-2-1.3-3-0.7l-15.1,9.4L18,55.2l18.6-11.6l33.3,18.7v24.8
			c0,0.8,0.4,1.5,1.1,1.9c0.3,0.2,0.7,0.3,1.1,0.3c0.4,0,0.8-0.1,1.2-0.3l11.4-7.1c0.6-0.4,1-1.1,1-1.8V54c0,0,0,0,0,0
			C85.7,53.9,85.7,53.8,85.7,53.7z M74.3,83.2V61.1c0-0.8-0.4-1.5-1.1-1.9L40.8,41l7.2-4.5l31.2,17.6l-2.7,1.7c-1,0.6-1.3,2-0.7,3
			c0.4,0.7,1.1,1,1.9,1c0.4,0,0.8-0.1,1.2-0.3l2.5-1.5v20.9L74.3,83.2z"/>
		<path class="st1" d="M105.1,46.6L88.9,56.7c-1,0.6-1.3,2-0.7,3c0.4,0.7,1.1,1,1.9,1c0.4,0,0.8-0.1,1.2-0.3l16.2-10.1
			c1-0.6,1.3-2,0.7-3C107.5,46.2,106.2,45.9,105.1,46.6z"/>
		<path class="st1" d="M64.3,72l-15.1,9.4L14.8,62.1c-1.1-0.6-2.4-0.2-3,0.8c-0.6,1-0.2,2.4,0.8,3l35.5,20c0.3,0.2,0.7,0.3,1.1,0.3
			c0.4,0,0.8-0.1,1.2-0.3l16.2-10.1c1-0.6,1.3-2,0.7-3C66.7,71.7,65.3,71.4,64.3,72z"/>
		<path class="st1" d="M105.1,55.3L88.9,65.4c-1,0.6-1.3,2-0.7,3c0.4,0.7,1.1,1,1.9,1c0.4,0,0.8-0.1,1.2-0.3l16.2-10.1
			c1-0.6,1.3-2,0.7-3C107.5,54.9,106.2,54.6,105.1,55.3z"/>
		<path class="st1" d="M64.3,80.7l-15.1,9.4L14.8,70.8c-1.1-0.6-2.4-0.2-3,0.8c-0.6,1-0.2,2.4,0.8,3l35.5,20
			c0.3,0.2,0.7,0.3,1.1,0.3c0.4,0,0.8-0.1,1.2-0.3l16.2-10.1c1-0.6,1.3-2,0.7-3C66.7,80.4,65.3,80.1,64.3,80.7z"/>
		<path class="st1" d="M105.1,64L88.9,74.1c-1,0.6-1.3,2-0.7,3c0.4,0.7,1.1,1,1.9,1c0.4,0,0.8-0.1,1.2-0.3l16.2-10.1
			c1-0.6,1.3-2,0.7-3C107.5,63.6,106.2,63.3,105.1,64z"/>
		<path class="st1" d="M64.3,89.4l-15.1,9.4L14.8,79.5c-1.1-0.6-2.4-0.2-3,0.8c-0.6,1-0.2,2.4,0.8,3l35.5,20
			c0.3,0.2,0.7,0.3,1.1,0.3c0.4,0,0.8-0.1,1.2-0.3l16.2-10.1c1-0.6,1.3-2,0.7-3C66.7,89.1,65.3,88.8,64.3,89.4z"/>
	</g>
</g>
</svg>
