<svg width="97" height="86" viewBox="0 0 97 86" fill="none" xmlns="http://www.w3.org/2000/svg">
<g clip-path="url(#clip0_1_2887)">
<path d="M74.151 36.1501C74.1488 36.1322 74.1474 36.1142 74.1447 36.0966C74.1321 36.0089 74.1152 35.9213 74.0912 35.8348L74.0904 35.8321C74.0681 35.7512 74.0394 35.6714 74.0072 35.5925C73.998 35.5699 73.988 35.5483 73.978 35.5261C73.9526 35.4692 73.9243 35.4131 73.8935 35.3579C73.8802 35.3338 73.8672 35.3097 73.8528 35.286C73.845 35.2731 73.8389 35.2598 73.8307 35.2471C73.7983 35.196 73.7627 35.148 73.7267 35.1004C73.72 35.0914 73.7145 35.0822 73.7076 35.0736C73.6528 35.003 73.5936 34.9377 73.5314 34.8758C73.5199 34.8641 73.507 34.8532 73.495 34.8419C73.441 34.7904 73.385 34.7421 73.3266 34.6967C73.3118 34.6852 73.2972 34.6737 73.2819 34.6626C73.2038 34.6052 73.1233 34.5519 73.0392 34.5054L40.709 16.3102L59.3236 4.70456L90.5308 22.2675L77.3878 30.4615C76.3621 31.1009 76.0542 32.4425 76.7001 33.4578C77.3457 34.4734 78.7006 34.7782 79.7263 34.1387L95.9711 24.0109C96.6243 23.6039 97.0134 22.8872 96.9957 22.1232C96.9785 21.3593 96.5574 20.6608 95.8862 20.2833L60.3502 0.283855C59.6473 -0.112022 58.7812 -0.0924668 58.0966 0.334046L35.2836 14.5572C35.2789 14.56 35.274 14.563 35.2695 14.5659L23.8698 21.6732C23.8645 21.6765 23.8592 21.6797 23.8541 21.683L1.02554 35.9158C0.372462 36.3228 -0.0166198 37.0397 0.000936115 37.8035C0.0182726 38.5676 0.439395 39.2659 1.11047 39.6434L36.6467 59.6429C36.9834 59.8326 37.3573 59.9269 37.7309 59.9269C38.1377 59.9269 38.5435 59.8149 38.9003 59.5927L55.1451 49.4646C56.1708 48.8253 56.4787 47.4837 55.8329 46.4684C55.1875 45.4527 53.8321 45.1478 52.8068 45.7874L37.6734 55.2223L6.46612 37.6591L25.081 26.0532L58.3649 44.785V69.5941C58.3649 70.3855 58.7992 71.1139 59.4988 71.4964C59.8296 71.6772 60.1947 71.7668 60.5594 71.7668C60.9662 71.7668 61.3722 71.655 61.7286 71.4326L73.143 64.3163C73.7811 63.9185 74.1684 63.2243 74.1684 62.4776V36.4045C74.1684 36.3918 74.1662 36.3795 74.1657 36.3666C74.1643 36.2946 74.1594 36.2225 74.151 36.1501ZM62.7538 65.6586V43.5212C62.7538 42.7396 62.33 42.0186 61.6436 41.6324L29.2944 23.4266L36.4953 18.937L67.7022 36.5001L64.9699 38.2036C63.9441 38.8428 63.6363 40.1845 64.2822 41.1998C64.6991 41.856 65.4121 42.2152 66.1413 42.2152C66.5407 42.2152 66.9453 42.1071 67.3083 41.8808L69.7791 40.3405V61.2784L62.7538 65.6586Z" fill="#53C351"/>
<path d="M93.6331 29.0245L77.3881 39.1524C76.3624 39.7917 76.0546 41.1333 76.7005 42.1486C77.1175 42.8048 77.8304 43.1639 78.5597 43.1639C78.9591 43.1639 79.3637 43.0561 79.7266 42.8295L95.9716 32.7017C96.9973 32.0625 97.3052 30.7207 96.6594 29.7054C96.0137 28.6899 94.6587 28.3848 93.6331 29.0245Z" fill="#53C351"/>
<path d="M52.8066 54.4783L37.6732 63.9132L3.27924 44.5568C2.22634 43.9641 0.885937 44.3282 0.287062 45.3719C-0.311815 46.4151 0.0566398 47.7415 1.11043 48.3346L36.6466 68.3339C36.9833 68.5236 37.3572 68.6179 37.731 68.6179C38.1376 68.6179 38.5436 68.5061 38.9001 68.2837L55.1451 58.1556C56.1708 57.5165 56.4787 56.1747 55.8329 55.1594C55.1875 54.1436 53.8322 53.8386 52.8066 54.4783Z" fill="#53C351"/>
<path d="M93.6331 37.7156L77.3881 47.8435C76.3624 48.4826 76.0546 49.8244 76.7005 50.8397C77.1175 51.4959 77.8304 51.855 78.5597 51.855C78.9591 51.855 79.3637 51.747 79.7266 51.5207L95.9716 41.3926C96.9973 40.7535 97.3052 39.4119 96.6594 38.3965C96.0137 37.3807 94.6587 37.0759 93.6331 37.7156Z" fill="#53C351"/>
<path d="M52.8066 63.1692L37.6732 72.6042L3.27924 53.2477C2.22634 52.655 0.885937 53.0191 0.287062 54.063C-0.311815 55.1062 0.0566398 56.4326 1.11043 57.0255L36.6466 77.025C36.9833 77.2145 37.3572 77.309 37.731 77.309C38.1376 77.309 38.5436 77.197 38.9001 76.9748L55.1451 66.8465C56.1708 66.2074 56.4787 64.8656 55.8329 63.8503C55.1875 62.8343 53.8322 62.5295 52.8066 63.1692Z" fill="#53C351"/>
<path d="M93.6331 46.4066L77.3881 56.5345C76.3624 57.1736 76.0546 58.5154 76.7005 59.5307C77.1175 60.1869 77.8304 60.546 78.5597 60.546C78.9591 60.546 79.3637 60.438 79.7266 60.2117L95.9716 50.0838C96.9973 49.4445 97.3052 48.1029 96.6594 47.0875C96.0137 46.0721 94.6587 45.7671 93.6331 46.4066Z" fill="#53C351"/>
<path d="M52.8066 71.8604L37.6732 81.2953L3.27924 61.9387C2.22634 61.346 0.885937 61.7103 0.287062 62.754C-0.311815 63.7972 0.0566398 65.1236 1.11043 65.7165L36.6466 85.716C36.9833 85.9057 37.3572 86 37.731 86C38.1376 86 38.5436 85.888 38.9001 85.6658L55.1451 75.5377C56.1708 74.8984 56.4787 73.5568 55.8329 72.5415C55.1875 71.5257 53.8322 71.2207 52.8066 71.8604Z" fill="#53C351"/>
</g>
<defs>
<clipPath id="clip0_1_2887">
<rect width="97" height="86" fill="white"/>
</clipPath>
</defs>
</svg>
