<svg width="67" height="73" viewBox="0 0 67 73" fill="none" xmlns="http://www.w3.org/2000/svg">
<g clip-path="url(#clip0_1_3019)">
<path d="M62.0083 70.008C62.0954 70.5212 62.2 71.0517 62.5049 71.4692C62.8098 71.8867 63.3935 72.1563 63.8639 71.9389C63.1844 66.5811 63.1234 61.1537 63.6809 55.7872C63.9074 53.6215 64.2298 51.4035 63.6984 49.2987C63.4544 48.3158 62.8621 47.2547 61.8602 47.0982C59.029 46.6459 58.4018 51.2209 58.8548 53.1083C59.6824 56.5526 60.2138 60.0665 60.841 63.5543C61.233 65.6939 61.625 67.851 62.0083 70.008Z" fill="#CCBDB0"/>
<path d="M51.5807 69.8949C51.4849 70.4081 51.3891 70.9386 51.5284 71.4344C51.6678 71.9302 52.1121 72.3912 52.6348 72.3564C53.9154 67.1116 55.797 62.0148 58.2449 57.2049C59.2293 55.2654 60.327 53.3084 60.5796 51.1426C60.7016 50.1337 60.5361 48.9334 59.6562 48.4289C57.1734 47.0025 54.952 51.047 54.6994 52.9692C54.2377 56.483 53.4798 59.9534 52.8177 63.4325C52.3996 65.5895 51.9901 67.7379 51.5807 69.8949Z" fill="#CCBDB0"/>
<path d="M20.8466 72.0606C21.6219 72.1563 22.3972 72.2607 23.1638 72.3563C22.8502 68.1901 23.1638 63.9804 24.096 59.9099C24.5315 58.0138 25.0978 56.1351 25.3243 54.1955C25.4898 52.8126 25.394 51.2122 24.3312 50.2989C23.3816 49.4813 21.6306 49.6379 20.8117 50.6033C20.0538 51.4905 20.533 52.9256 20.6201 53.9694C20.9424 57.779 21.0905 61.606 21.0644 65.4243C21.0557 67.6422 20.9773 69.8514 20.8466 72.0606Z" fill="#CCBDB0"/>
<path d="M30.5251 72.3563C31.1349 72.3563 31.7447 72.3476 32.3545 72.3476C30.9432 67.3899 30.2724 62.2234 30.3596 57.0744C30.377 55.8567 30.438 54.6042 30.0198 53.4648C29.5929 52.3254 28.5476 51.3078 27.328 51.36C26.875 51.3774 26.4133 51.56 26.1519 51.934C26.0212 52.1254 25.9515 52.3602 25.908 52.5863C25.3069 55.4914 27.0753 59.0313 27.8594 61.7624C28.8525 65.2589 29.7497 68.7902 30.5251 72.3563Z" fill="#CCBDB0"/>
<path d="M23.4513 0.0347917C23.8956 0.287026 18.4684 2.53104 16.9874 11.768C16.9526 11.9768 16.9526 12.2029 16.8393 12.3769C16.5867 12.7683 16.0291 12.7596 15.5761 12.6726C13.0672 12.2203 15.0709 8.71512 15.7939 7.34088C16.848 5.32301 18.3203 3.52258 20.0974 2.09615C21.1166 1.26987 22.9025 -0.243536 23.4513 0.0347917Z" fill="#7C6A4C"/>
<path d="M11.4469 13.2466C8.74633 16.2734 5.42725 19.3176 1.53322 19.161C1.16733 19.1436 0.757894 19.1175 0.479126 19.3698C0.0958204 19.7264 0.191647 20.3874 0.357165 20.9006C0.627221 21.7355 0.975681 22.5444 1.46352 23.2576C3.0403 25.5625 5.88025 26.5454 8.53725 26.4497C11.1943 26.354 13.738 25.3451 16.2295 24.3449C17.3184 23.91 18.4074 23.4751 19.505 23.0315C20.6201 22.5879 21.8136 22.0747 22.4843 21.0136C23.1813 19.9003 23.1377 18.413 22.8154 17.1083C22.2317 14.7252 20.4894 11.8027 18.3812 10.6372C15.6632 9.14123 13.2415 11.2287 11.4469 13.2466Z" fill="#F9E6D5"/>
<path d="M15.9594 37.4002C16.1859 39.0702 16.456 40.8445 17.5972 42.0883C19.4527 44.1235 22.7892 43.8278 25.2981 42.6971C26.692 42.0709 28.0335 41.1837 28.7914 39.8617C29.4448 38.7136 29.5842 37.3393 29.5668 36.0173C29.5406 34.6343 29.3577 33.2601 29.0179 31.9293C28.6346 30.4159 28.051 28.9721 27.4673 27.5196C26.0473 23.9796 24.6274 20.4396 23.2074 16.8997C22.4495 15.021 21.5783 13.0031 19.8099 12.0116C14.7311 9.18479 11.1158 15.8733 12.6491 20.083C14.6788 25.6844 15.158 31.4684 15.9594 37.4002Z" fill="#F9E6D5"/>
<path d="M14.2346 25.2408C14.1997 25.2669 14.1649 25.293 14.1213 25.3191C14.3914 26.5281 14.6179 27.737 14.8182 28.9547C14.8444 28.9199 14.8618 28.8851 14.8879 28.859C16.517 26.5368 18.1286 24.0144 18.2941 21.179C17.2052 22.788 15.82 24.1188 14.2346 25.2408Z" fill="#E8D7C8"/>
<path d="M19.8535 61.3189C20.1845 60.858 20.5242 60.397 20.8553 59.9273C21.2473 60.7797 21.6306 61.6234 22.0226 62.4757C22.284 62.0234 22.554 61.5712 22.8154 61.1189C23.3729 61.5538 23.9304 61.9974 24.4967 62.4322C24.6099 62.0495 24.7232 61.6581 24.8364 61.2754C25.4462 61.8147 26.056 62.354 26.6571 62.8932C26.9707 62.467 27.2844 62.0321 27.598 61.606C28.0597 62.1452 28.5214 62.6932 28.9918 63.2324C29.105 63.3629 29.2444 63.5021 29.4012 63.4673C29.5232 63.4412 29.6103 63.3194 29.6713 63.2063C30.2985 62.1713 30.9258 61.145 31.553 60.1099C32.5548 62.0234 33.7483 63.8152 35.0985 65.4504C35.2292 65.6069 35.386 65.7809 35.5777 65.7896C35.839 65.807 36.0307 65.546 36.1701 65.3112C37.7294 62.7888 38.9403 60.023 39.7679 57.1179C41.6147 60.6405 44.6986 63.3542 48.2355 64.5806C48.1658 63.676 48.0874 62.7715 48.0177 61.8669C48.4532 62.7715 49.1414 63.5282 49.969 64.0152C49.9778 63.3629 49.9778 62.7106 49.9865 62.0582C52.3647 63.9456 55.1698 65.1894 58.0794 65.6678C57.6351 64.6676 57.3912 63.5629 57.3651 62.4496C58.5673 63.7978 60.2312 64.6415 61.9473 64.7719C61.6947 63.8239 61.5379 62.8584 61.4769 61.8756C62.2609 62.8497 63.2976 63.5716 64.4301 63.9369C64.2123 62.2931 63.9858 60.6492 63.768 58.9966C64.5782 60.0839 65.7455 60.8493 67.0087 61.1015C65.9546 59.1532 65.2577 56.9701 64.9702 54.7261C64.6653 52.3168 64.8308 49.8553 64.5433 47.4374C63.7158 40.5575 58.9419 34.5386 52.9571 32.2337C45.5872 29.3983 37.2329 31.8162 29.7671 29.32C26.9707 28.3806 24.305 27.0847 21.5086 28.7807C19.8099 29.8071 17.8324 31.5901 16.8219 33.4427C15.8897 35.1388 15.8984 37.0697 16.0727 38.9832C16.3776 42.4014 16.9874 45.8196 17.5449 49.1943C18.207 53.2561 18.9823 57.3006 19.8535 61.3189Z" fill="#F9E6D5"/>
<path d="M29.2358 57.2223C28.6085 58.2573 27.9813 59.2836 27.3541 60.3187C27.2844 60.4317 27.206 60.5535 27.084 60.5796C26.9272 60.6144 26.7878 60.4752 26.6746 60.3448C26.2129 59.8055 25.7512 59.2575 25.2807 58.7183C24.9671 59.1445 24.6535 59.5794 24.3399 60.0056C23.7301 59.4663 23.1203 58.927 22.5192 58.3878C22.406 58.7705 22.2927 59.1619 22.1795 59.5446C21.6219 59.1097 21.0644 58.6661 20.4981 58.2312C20.2368 58.6835 19.9667 59.1358 19.7054 59.5881C19.5573 59.2575 19.4092 58.9357 19.2611 58.6052C19.444 59.5098 19.6357 60.4143 19.8361 61.3102C20.1671 60.8492 20.5068 60.3883 20.8379 59.9186C21.2299 60.771 21.6132 61.6146 22.0052 62.467C22.2666 62.0147 22.5366 61.5624 22.798 61.1102C23.3555 61.545 23.913 61.9886 24.4793 62.4235C24.5925 62.0408 24.7058 61.6494 24.819 61.2667C25.4288 61.806 26.0386 62.3452 26.6397 62.8845C26.9533 62.4583 27.267 62.0234 27.5806 61.5972C28.0423 62.1365 28.504 62.6844 28.9744 63.2237C29.0877 63.3542 29.227 63.4933 29.3838 63.4585C29.5058 63.4324 29.5929 63.3107 29.6539 63.1976C30.194 62.3104 30.7341 61.432 31.2655 60.5448C30.5163 59.4924 29.8368 58.3791 29.2358 57.2223Z" fill="#E8D7C8"/>
<path d="M64.3865 63.9283C64.1688 62.2844 63.9423 60.6405 63.7245 58.988C64.5346 60.0752 65.702 60.8406 66.9651 61.0928C65.9111 59.1445 65.2141 56.9614 64.9267 54.7174C64.6218 52.3081 64.7873 49.8467 64.4998 47.4287C64.0032 43.2625 62.0519 39.4094 59.2642 36.5131C60.8148 38.8962 61.8602 41.6447 62.2087 44.5498C62.4962 46.9677 62.3306 49.4205 62.6355 51.8384C62.923 54.0825 63.6199 56.2656 64.674 58.2139C63.4109 57.9616 62.2435 57.1962 61.4334 56.109C61.6511 57.7529 61.8776 59.3968 62.0954 61.0493C60.9629 60.684 59.9176 59.9621 59.1422 58.988C59.2119 59.9708 59.3687 60.9363 59.6127 61.8843C57.8965 61.7538 56.2326 60.9102 55.0304 59.562C55.0565 60.6753 55.3005 61.7799 55.7448 62.7802C52.8351 62.3105 50.0387 61.058 47.6518 59.1706C47.6431 59.8229 47.6431 60.4753 47.6344 61.1276C46.8068 60.6405 46.1186 59.8838 45.683 58.9793C45.7527 59.8838 45.8311 60.7884 45.9008 61.693C43.8274 60.9797 41.9196 59.7534 40.3167 58.153C42.1897 61.1711 45.0122 63.4847 48.1919 64.5806C48.1222 63.676 48.0438 62.7715 47.9741 61.8669C48.4097 62.7715 49.0979 63.5282 49.9255 64.0153C49.9342 63.3629 49.9342 62.7106 49.9429 62.0583C52.3211 63.9457 55.1262 65.1894 58.0359 65.6678C57.5916 64.6676 57.3477 63.563 57.3215 62.4497C58.5237 63.7978 60.1876 64.6415 61.9038 64.772C61.6511 63.8239 61.4943 62.8585 61.4334 61.8756C62.2174 62.8411 63.2541 63.563 64.3865 63.9283Z" fill="#E8D7C8"/>
<path d="M37.4507 54.2303C36.6231 57.1354 35.4035 59.9013 33.8528 62.4236C33.7047 62.6584 33.5131 62.9107 33.2605 62.902C33.2256 62.902 33.1995 62.8933 33.1733 62.8846C33.7657 63.7717 34.4017 64.6328 35.0724 65.4504C35.2031 65.6069 35.3599 65.7809 35.5516 65.7896C35.8129 65.807 36.0046 65.5461 36.144 65.3112C37.6423 62.8759 38.8271 60.2144 39.6547 57.4224C38.801 56.4657 38.0605 55.3958 37.4507 54.2303Z" fill="#E8D7C8"/>
<path d="M62.4352 36.1999C63.8377 36.7913 65.3535 37.087 66.878 37.087C66.2595 37.4349 65.58 37.6611 64.8831 37.7654C65.4581 38.1308 66.0417 38.4961 66.6167 38.8614C66.216 38.8701 65.8152 39.0179 65.5103 39.2789C65.9807 40.0356 66.4773 40.7749 67.0087 41.4881C66.8867 41.3315 64.6305 41.2706 64.282 41.1837C63.2889 40.9401 62.3393 40.54 61.4246 40.0877C59.9175 39.3397 57.487 38.1916 56.4765 36.8087C55.5618 35.5562 56.1368 34.6778 57.5829 34.4864C59.3339 34.2429 60.9019 35.5562 62.4352 36.1999Z" fill="#F9E6D5"/>
<path d="M29.288 2.69632C29.6191 3.08771 23.7475 3.33125 19.174 11.4897C19.0695 11.6724 18.9911 11.8898 18.8255 12.0116C18.4597 12.2899 17.937 12.0899 17.5362 11.855C15.3322 10.5765 18.4248 7.96714 19.5747 6.92341C21.256 5.38391 23.2684 4.20102 25.4288 3.47911C26.6746 3.05292 28.8699 2.24404 29.288 2.69632Z" fill="#99855C"/>
<path d="M20.3065 16.6213C21.4128 17.6216 22.6673 18.4565 24.0089 19.1002C23.6517 18.1173 23.2945 17.1432 22.9373 16.1603C22.8415 15.8994 22.737 15.6211 22.5279 15.4297C22.3363 15.2471 22.0749 15.1601 21.8223 15.0818C21.3867 14.9427 19.4005 14.0816 19.0956 14.4904C18.6774 15.0644 19.958 16.3082 20.3065 16.6213Z" fill="#E8D7C8"/>
<path d="M24.7406 11.8115C26.692 12.4378 28.4169 13.6032 30.1069 14.76C29.3577 14.8209 28.835 15.5167 28.1642 15.8647C27.5631 16.1778 26.8488 16.1865 26.178 16.1691C24.366 16.1343 22.5366 15.9864 20.8117 15.4472C19.2872 14.9688 17.5275 13.6989 19.1043 12.2116C20.4633 10.9157 23.1464 11.2984 24.7406 11.8115Z" fill="#F9E6D5"/>
<path d="M20.3762 13.003C21.5348 12.4551 22.8938 12.4551 24.1395 12.7508C25.3853 13.0465 26.5526 13.6206 27.6938 14.1859C27.2495 14.4207 26.7355 14.4903 26.2303 14.5338C25.5508 14.586 24.8713 14.5947 24.2005 14.5947C23.0157 14.6034 21.8223 14.6121 20.6375 14.6208C20.3326 14.6208 19.9493 14.5686 19.8709 14.2729C19.8273 14.0902 19.9319 13.8815 19.8273 13.7249C19.7402 13.5858 19.5486 13.5771 19.4092 13.4988C19.052 13.2987 19.4266 13.2292 19.5224 13.2031C19.8012 13.1161 20.0713 13.1509 20.3762 13.003Z" fill="#E8D7C8"/>
<path d="M14.0516 14.6209C13.8251 14.8992 13.7293 15.2645 13.5725 15.595C13.4244 15.9081 13.2153 16.1951 12.9627 16.4387C12.7536 16.6387 12.501 16.8388 12.4836 17.1258C12.4661 17.3693 12.6404 17.5868 12.8582 17.6999C13.0759 17.8129 13.3286 17.8303 13.5638 17.8303C14.2084 17.839 14.8792 17.7433 15.4193 17.3954C15.9594 17.0388 16.3253 16.3778 16.1772 15.7516C15.9769 14.9253 14.827 13.6554 14.0516 14.6209Z" fill="#E8D7C8"/>
<path d="M15.6371 16.7431C15.6371 17.352 15.1493 17.839 14.5395 17.839C13.9297 17.839 13.4418 17.352 13.4418 16.7431C13.4418 16.1343 13.9297 15.6472 14.5395 15.6472C15.1406 15.6472 15.6371 16.1343 15.6371 16.7431Z" fill="#231F20"/>
<path d="M14.5569 16.5518C14.5569 16.7605 14.3914 16.9258 14.1823 16.9258C13.9732 16.9258 13.8077 16.7605 13.8077 16.5518C13.8077 16.3431 13.9732 16.1778 14.1823 16.1778C14.3914 16.1691 14.5569 16.3431 14.5569 16.5518Z" fill="white"/>
<path d="M0.714344 19.1872C0.92342 19.135 1.14121 19.0828 1.35899 19.1176C1.57678 19.1437 1.78586 19.2741 1.85555 19.4742C1.91653 19.6568 1.85555 19.8569 1.75972 20.0309C1.67261 20.2048 1.55065 20.3614 1.49838 20.544C1.42869 20.7963 1.48095 21.0659 1.53322 21.3268C1.58549 21.5878 1.64647 21.8574 1.57678 22.1096C1.50709 22.3619 1.27188 22.5967 1.01053 22.5619C0.784036 22.5358 0.627229 22.3271 0.51398 22.127C0.095829 21.379 -0.479129 19.4742 0.714344 19.1872Z" fill="#231F20"/>
<path d="M3.31036 25.0668C3.39748 25.1277 4.53868 24.8059 5.42725 24.458C6.31582 24.1101 7.57899 23.4926 7.57899 23.4926L7.70966 23.623C7.70966 23.623 6.68171 24.1797 5.72344 24.5624C4.86101 24.9016 3.72851 25.3191 3.72851 25.3191L3.31036 25.0668Z" fill="#231F20"/>
<path d="M20.9424 70.1992C20.9424 70.1992 19.5747 72.4693 19.5311 72.7998C19.4876 73.1304 23.5036 72.9216 23.46 72.6346C23.4165 72.3476 23.0767 70.8342 23.0767 70.8342L20.9424 70.1992Z" fill="#231F20"/>
<path d="M30.0198 69.8427C30.0198 69.8427 28.5388 72.4694 28.4953 72.7912C28.4517 73.1217 32.4851 73.0173 32.4416 72.7303C32.398 72.4433 31.8318 70.3732 31.8318 70.3732L30.0198 69.8427Z" fill="#231F20"/>
<path d="M51.6243 69.1991C51.6243 69.1991 50.1433 71.8258 50.0998 72.1476C50.0562 72.4782 54.0896 72.3738 54.0461 72.0868C54.0025 71.7997 53.4363 69.7297 53.4363 69.7297L51.6243 69.1991Z" fill="#231F20"/>
<path d="M61.8689 69.3817C61.8689 69.3817 60.388 72.0084 60.3444 72.3303C60.3008 72.6608 64.3343 72.5564 64.2907 72.2694C64.2472 71.9824 63.6809 69.9123 63.6809 69.9123L61.8689 69.3817Z" fill="#231F20"/>
<path d="M22.1446 55.4914C22.1272 54.7869 22.162 54.0737 22.2666 53.3691C22.7108 53.9258 23.1551 54.4738 23.5994 55.0304C23.6168 54.8217 23.643 54.6042 23.6604 54.3955C24.427 55.2478 25.1849 56.1002 25.9515 56.9613C25.6902 54.8651 25.5246 52.7603 25.4637 50.6555C26.5962 52.4124 27.7896 54.2302 29.5668 55.3522C28.382 51.56 27.1885 47.7678 26.0038 43.9669C25.8295 45.6108 25.908 47.2807 26.2303 48.8985C25.6031 47.9505 24.9671 46.9937 24.3399 46.0457C24.2615 47.8113 24.3486 49.5769 24.5925 51.3252C23.9392 50.899 23.5123 50.2293 23.0941 49.5682C22.4234 48.5071 21.7613 47.446 21.0905 46.3849C20.9947 48.3854 21.2822 50.4032 21.9442 52.2906C20.9163 51.5774 20.2716 50.6033 19.6967 49.5248C19.4179 50.3075 20.2368 51.7427 20.5678 52.4907C20.8814 53.2387 22.1185 54.7434 22.1446 55.4914Z" fill="#E8D7C8"/>
<path d="M54.9085 54.7956C54.891 54.0911 54.9259 53.3778 55.0304 52.6733C55.4747 53.23 55.919 53.7779 56.3633 54.3346C56.3807 54.1259 56.4068 53.9084 56.4243 53.6997C57.1909 54.552 57.9488 55.4044 58.7154 56.2655C58.454 54.1693 58.2885 52.0645 58.2275 49.9597C59.36 51.7166 60.5535 53.5344 62.3307 54.6564C61.1459 50.8642 59.9524 47.072 58.7677 43.2711C58.5934 44.915 58.6718 46.5849 58.9942 48.2027C58.3669 47.2547 57.731 46.2979 57.1038 45.3499C57.0254 47.1155 57.1125 48.8811 57.3564 50.6294C56.703 50.2032 56.2762 49.5335 55.858 48.8724C55.1872 47.8113 54.5252 46.7502 53.8544 45.6891C53.7585 47.6896 54.046 49.7074 54.7081 51.5948C53.6801 50.8816 53.0355 49.9075 52.4605 48.829C52.1818 49.6117 53.0006 51.0469 53.3317 51.7949C53.6453 52.5429 54.8823 54.0476 54.9085 54.7956Z" fill="#E8D7C8"/>
<path d="M45.4304 57.6311C45.4129 56.9265 45.4478 56.2133 45.5523 55.5088C45.9966 56.0655 46.4409 56.6134 46.8852 57.1701C46.9026 56.9613 46.9287 56.7439 46.9462 56.5351C47.7128 57.3875 48.4707 58.2399 49.2373 59.101C48.9759 57.0048 48.8104 54.9 48.7494 52.7951C49.8819 54.5521 51.0754 56.3699 52.8525 57.4919C51.6678 53.6997 50.4743 49.9075 49.2895 46.1066C49.1153 47.7504 49.1937 49.4204 49.516 51.0382C48.8888 50.0901 48.2529 49.1334 47.6256 48.1853C47.5472 49.951 47.6344 51.7166 47.8783 53.4648C47.2249 53.0387 46.7981 52.3689 46.3799 51.7079C45.7091 50.6468 45.0471 49.5857 44.3763 48.5245C44.2804 50.525 44.5679 52.5429 45.23 54.4303C44.202 53.7171 43.5574 52.7429 42.9824 51.6644C42.7037 52.4472 43.5225 53.8823 43.8536 54.6303C44.1672 55.3783 45.4042 56.8743 45.4304 57.6311Z" fill="#E8D7C8"/>
<path opacity="0.49" d="M37.2155 33.0339C37.0761 33.521 37.3897 34.0515 37.8166 34.3299C38.2434 34.6082 38.7661 34.6778 39.2714 34.73C41.4928 34.9387 43.7317 34.73 45.9444 34.9387C47.9916 35.1301 50.0039 35.678 51.8595 36.5391C52.2689 36.7304 52.687 36.9392 53.14 36.9392C53.593 36.9392 54.0809 36.6522 54.1331 36.1999C54.1941 35.6954 53.7063 35.304 53.262 35.0431C50.6921 33.5732 47.7651 32.9295 44.838 32.6512C43.6881 32.5468 37.5988 31.6423 37.2155 33.0339Z" fill="white"/>
<path opacity="0.49" d="M8.73761 16.543C8.424 16.717 8.09296 16.8909 7.89259 17.1867C7.84904 17.2563 7.80548 17.3345 7.8229 17.4128C7.84033 17.4911 7.90131 17.552 7.971 17.5955C8.32817 17.8129 8.78988 17.6042 9.14705 17.3954C11.1507 16.2299 13.163 14.9948 14.7137 13.264C15.1231 12.8117 15.7329 12.0202 15.3061 11.394C14.9053 10.8199 14.2955 11.0896 13.9558 11.5418C13.0237 12.8117 12.1612 14.012 10.9329 15.0383C10.2447 15.6124 9.50422 16.1168 8.73761 16.543Z" fill="white"/>
</g>
<defs>
<clipPath id="clip0_1_3019">
<rect width="67" height="73" fill="white"/>
</clipPath>
</defs>
</svg>
