<svg width="74" height="71" viewBox="0 0 74 71" fill="none" xmlns="http://www.w3.org/2000/svg">
<path d="M0.210589 27.6285C-0.0300831 25.4625 -0.150421 23.2964 0.330924 21.2507C0.691932 21.01 1.05294 20.7694 1.53429 20.7694C2.01563 20.7694 2.37664 20.8897 2.61731 21.1304C2.49698 21.0101 2.37664 20.649 2.2563 20.1677C1.77496 18.9643 1.41395 18.122 2.61731 17.4C3.21899 17.039 5.38504 18.122 5.74605 18.3627C5.14437 17.8813 4.9037 16.6779 4.9037 15.8356C4.9037 15.7153 4.9037 15.5949 5.02404 15.5949C5.98673 15.3543 6.5884 15.7153 7.67143 15.9559C12.3645 17.2796 16.6966 18.0017 21.5101 17.8813C21.6304 17.8813 21.7508 17.8813 21.8711 17.8813C23.7965 17.8813 25.7219 17.761 27.4066 16.9186C30.1743 15.5949 32.3404 13.3085 34.1454 10.9018C36.5521 7.77308 38.8385 4.524 42.3283 2.47828C44.1333 1.39526 46.0587 0.913902 48.1044 0.191885C50.6315 -0.169124 53.2789 -0.0487875 55.9262 0.793566C59.055 1.63592 62.5447 3.44097 64.7108 5.96803C65.4328 6.81038 66.1548 7.77307 66.7565 8.61542C67.5989 10.3001 68.2006 12.1052 68.4412 14.0305C71.6903 16.5576 73.2547 20.6491 73.9767 24.4998C74.097 25.1015 73.736 25.7032 73.2547 25.7032H73.1343C73.014 25.7032 73.014 25.7032 72.8937 25.7032C72.7733 25.7032 72.653 25.5828 72.5326 25.5828H72.4123C71.2089 25.4625 69.6446 25.9438 68.5615 26.1845C67.1175 26.5455 65.6735 26.9065 64.2295 27.1472C62.9058 27.1472 61.5821 27.2675 60.2584 27.2675C63.6278 34.1267 60.86 42.0689 55.4449 47.3637C52.4365 50.3721 48.5857 52.1771 44.4943 53.3805C44.4943 53.6212 44.8553 58.3143 43.5316 59.0363C43.652 59.7583 43.8926 60.36 44.1333 61.082C44.8553 63.2481 47.0214 63.6091 48.8264 64.3311C49.7891 64.6921 50.7518 65.1734 51.4738 65.8955C51.5941 66.0158 51.5942 66.1361 51.5942 66.2565C50.9925 67.7005 47.3824 65.6548 46.54 65.4141C45.096 64.9328 44.1333 64.2107 45.5773 66.3768C45.9384 66.9785 46.2994 67.3395 46.6604 67.9412C47.0214 68.4225 47.262 68.9039 47.0214 69.3852C46.901 69.6259 46.7807 69.5056 46.6604 69.5056C44.735 68.9039 43.1706 66.8581 41.7266 65.5345C40.5232 64.4514 36.9131 65.6548 36.0708 64.2108C35.4691 63.1277 37.0335 63.0074 37.7555 62.8871C38.8385 62.7667 41.0046 62.7667 41.1249 61.2024C41.1249 59.8787 40.8842 58.6753 40.7639 57.3516C40.1622 56.6296 39.8012 55.6669 39.4402 54.9449C37.1538 55.1855 34.8674 55.3059 32.581 55.1856C31.498 55.0652 30.415 54.9449 29.3319 54.8245C28.9709 55.5466 28.6099 56.1482 28.1286 56.5092C28.2489 57.3516 28.2489 58.0736 28.3693 58.916C28.3693 61.2023 29.4523 62.2854 31.2573 63.4887C32.7014 64.4514 34.7471 64.9328 35.7098 66.4971C35.8301 66.6175 35.8301 66.8581 35.7098 66.9785C34.1454 68.1818 31.0167 66.0158 28.9709 64.9328C30.1743 66.6175 32.0997 68.1819 32.0997 70.2276C32.0997 70.4682 31.9793 70.5886 31.7387 70.4682C29.3319 69.8666 27.8879 66.6175 26.2032 64.9328C25.3609 64.0904 25.1202 64.8124 23.9168 65.1734C23.3151 65.2938 22.5931 65.6548 21.9914 65.2938C20.7881 64.5718 21.1491 63.7294 21.9914 62.7667C23.3151 61.2023 23.7965 59.8787 23.9168 57.7126C24.0372 56.3889 23.7965 54.9449 24.1575 53.6212C24.1575 53.5008 24.1575 53.5008 24.1575 53.3805C17.6593 51.2145 11.6425 47.2434 6.70875 40.9859C5.02404 39.1808 2.13596 33.886 0.571592 29.0726C0.33092 28.8319 0.210589 28.2302 0.210589 27.6285Z" fill="#5E2C00"/>
<path d="M72.6529 24.6201C73.0139 23.6575 71.8105 20.7694 71.8105 20.5287C71.0885 18.3627 69.7648 16.4373 68.0801 14.8729C67.7191 14.5119 67.2377 14.1509 66.7564 13.7899C66.275 13.5492 65.914 13.3086 65.4327 13.0679C64.5903 12.7069 63.748 12.5865 62.9056 12.7069C62.7853 12.7069 62.5446 12.7069 62.4243 12.7069C62.304 12.7069 62.3039 12.7069 62.1836 12.8272C61.7023 12.9475 61.2209 13.0679 60.8599 13.3085C59.4159 14.0306 58.8142 15.3543 57.8515 16.5576C57.7312 16.9186 57.7312 17.4 57.7312 17.761C57.8515 17.761 57.8515 17.8813 57.8515 18.0017C57.8515 18.122 57.8515 18.2423 57.7312 18.2423C57.8515 19.8067 58.6939 21.2507 61.1006 21.2507C61.7023 21.2507 62.1836 21.2507 62.7853 21.2507C62.7853 21.2507 62.9056 21.2507 63.026 21.3711C64.47 21.6117 65.914 21.4914 67.3581 21.7321C67.3581 21.7321 67.3581 21.7321 67.3581 21.8524C68.9224 22.4541 70.8478 23.5371 72.6529 24.6201Z" fill="#EF9956"/>
<path d="M70.0054 18.2423C68.9224 16.678 67.2377 15.234 65.5529 14.5119C63.1462 13.4289 60.8598 13.4289 58.8141 14.5119C59.2955 14.0306 59.7768 13.5492 60.4988 13.1882C60.9802 12.9476 61.4615 12.8272 61.8225 12.7069C61.8225 12.7069 61.9429 12.5865 62.0632 12.5865C62.3039 12.5865 62.4242 12.5865 62.5445 12.5865C63.3869 12.5865 64.2293 12.7069 65.0716 12.9476C65.553 13.0679 66.0343 13.3086 66.3953 13.6696C66.8766 13.9103 67.358 14.2713 67.719 14.7526C69.4037 16.317 70.7274 18.2423 71.4494 20.4084C71.4494 20.5287 71.8104 21.4914 72.1714 22.4541C71.4494 20.7694 70.1257 18.483 70.0054 18.2423Z" fill="#EF9956"/>
<path d="M66.5157 25.7031C67.8394 25.4624 69.7647 24.9811 71.3291 24.9811C70.0054 24.259 68.8021 23.537 67.4784 23.0557C67.2377 22.9353 66.997 22.815 66.7563 22.815C66.3953 22.6947 65.914 22.6947 65.553 22.5743C65.553 22.5743 65.553 22.5743 65.553 22.454C64.7106 22.2133 63.8683 22.2133 62.7852 22.2133C61.1005 22.2133 58.5735 22.3337 57.4905 20.8896C57.2498 20.649 57.1295 20.4083 57.0091 20.1676C56.6481 21.8523 56.4074 23.7777 57.2498 25.2217C57.8515 26.1844 58.9345 26.6658 60.1378 26.6658C62.0632 27.2674 64.7106 26.1844 66.5157 25.7031Z" fill="#EB774F"/>
<path d="M40.523 63.609C39.9214 63.7294 39.079 63.7294 38.4773 63.7294C37.996 63.7294 36.0706 64.4514 37.7553 64.4514C40.4027 64.4514 41.4857 64.6921 43.4111 66.6174C44.2535 67.4598 47.3822 70.2275 45.0958 66.9784C44.6145 66.3767 44.0128 65.5344 43.7721 64.8124C43.7721 64.6921 43.7721 64.5717 43.8924 64.4514C44.7348 64.0904 45.9382 64.8124 46.6602 64.9327C47.6229 65.1734 48.5856 65.6547 49.4279 65.8954C50.1499 65.5344 49.9092 65.2937 48.9466 65.0531C48.3449 64.8124 47.7432 64.5717 47.1415 64.331C44.4941 63.248 43.6518 61.6836 43.0501 59.1566C42.9298 59.1566 42.9298 59.1566 42.8094 59.1566C42.3281 59.0362 41.8467 58.7956 41.4857 58.4346C41.8467 59.8786 42.2077 61.443 41.7264 62.887C41.4857 63.4887 40.884 63.609 40.523 63.609Z" fill="#EF9956"/>
<path d="M41.3655 57.1109C43.2909 59.8786 43.7722 55.5465 43.7722 54.4635C42.5689 54.8245 41.3655 55.0652 40.1621 55.1855C40.5231 55.9075 40.8842 56.5092 41.3655 57.1109Z" fill="#EF9956"/>
<path d="M22.7133 63.9701C21.3896 65.2938 24.759 63.9701 25.12 63.8498C26.0827 63.6091 27.5267 65.7752 28.0081 66.3768C28.3691 66.8582 31.4978 70.4683 30.1741 68.3022C29.3318 66.9785 28.1284 65.8955 27.4064 64.4515C27.286 64.0905 27.4064 63.8498 27.8877 63.9701C29.9334 64.5718 31.6181 65.7752 33.6639 66.4972C35.4689 67.2192 32.8215 65.6548 32.7012 65.6548C31.6181 65.0532 30.5351 64.4515 29.4521 63.7294C27.286 62.4057 26.564 59.638 27.286 57.2313C26.3234 57.3516 25.6013 56.6296 25.12 55.9076C25.12 58.0736 25.12 60.2397 24.6386 62.4058C24.2776 62.7668 23.0743 63.6091 22.7133 63.9701Z" fill="#EF9956"/>
<path d="M27.7674 54.8246C26.8047 54.5839 25.9624 54.3432 24.9997 54.1025C25.2404 54.7042 25.481 55.3059 25.9624 55.9076C26.5641 56.7499 27.2861 55.9076 27.7674 54.8246Z" fill="#EF9956"/>
<path d="M2.37656 32.081C2.61723 32.6827 6.58833 41.1062 12.2441 45.9197C18.1406 51.2145 26.5641 54.3432 34.8673 54.3432C47.1416 54.4635 61.221 45.679 60.86 33.0437C60.3786 30.1556 60.0176 29.3133 57.3702 26.9066C56.8889 26.4252 56.5279 26.1845 56.1668 25.8235C56.0465 25.5828 55.8058 25.3422 55.6855 25.1015C55.6855 24.9812 55.6855 24.8608 55.6855 24.7405C54.6025 21.7321 55.6855 18.2423 56.8889 15.3543C58.5736 11.2628 63.748 10.7815 66.9971 13.0679C66.9971 13.0679 66.9971 13.0679 67.1174 13.0679C66.0344 6.32907 60.3786 2.23764 53.7601 1.03427C50.15 0.432593 46.54 1.15461 43.6519 2.83932C41.3655 4.04268 39.3198 5.84771 37.7554 7.77309C36.552 9.33746 34.386 12.2255 34.386 11.9849C32.0996 15.2339 28.9709 18.0017 25.2404 18.7237C21.0287 19.4457 16.5762 19.205 12.3645 18.3627C10.8001 18.0017 9.23573 17.4 7.67136 16.9186C5.74598 16.317 6.829 18.2423 7.06967 19.3254C7.19001 19.6864 6.829 19.8067 6.58833 19.6864C6.34766 19.5661 6.10698 19.566 5.98665 19.4457C3.45959 17.6407 3.45959 20.2881 4.1816 22.0931C4.30194 22.4541 4.18161 22.8151 3.70027 22.5744C-1.11318 20.4084 1.53421 30.1556 2.37656 32.081Z" fill="#EF9956"/>
<path d="M2.37656 32.081C2.61723 32.6827 6.58833 41.1062 12.2441 45.9197C18.1406 51.2145 26.5641 54.3432 34.8673 54.3432C47.1416 54.4635 61.221 45.679 60.86 33.0437C60.3786 30.1556 60.0176 29.3133 57.3702 26.9066C56.8889 26.4252 56.5279 26.1845 56.1668 25.8235C56.0465 25.5828 55.8058 25.3422 55.6855 25.1015C55.6855 24.9812 55.6855 24.8608 55.6855 24.7405C54.6025 21.7321 55.6855 18.2423 56.8889 15.3543C58.5736 11.2628 63.748 10.7815 66.9971 13.0679C66.9971 13.0679 66.9971 13.0679 67.1174 13.0679C66.0344 6.32907 60.3786 2.23764 53.7601 1.03427C50.15 0.432593 46.54 1.15461 43.6519 2.83932C41.3655 4.04268 39.3198 5.84771 37.7554 7.77309C36.552 9.33746 34.386 12.2255 34.386 11.9849C32.0996 15.2339 28.9709 18.0017 25.2404 18.7237C21.0287 19.4457 16.5762 19.205 12.3645 18.3627C10.8001 18.0017 9.23573 17.4 7.67136 16.9186C5.74598 16.317 6.829 18.2423 7.06967 19.3254C7.19001 19.6864 6.829 19.8067 6.58833 19.6864C6.34766 19.5661 6.10698 19.566 5.98665 19.4457C3.45959 17.6407 3.45959 20.2881 4.1816 22.0931C4.30194 22.4541 4.18161 22.8151 3.70027 22.5744C-1.11318 20.4084 1.53421 30.1556 2.37656 32.081Z" fill="#EF9956"/>
<path d="M26.4438 26.6659C30.4148 27.7489 33.6639 29.6743 37.1537 31.72C33.7843 31.8404 29.6928 29.915 26.6844 28.9523C23.315 27.8693 19.8253 26.6659 16.5762 25.1015C17.7795 24.9812 19.1032 25.3422 20.3066 25.5829C22.3523 25.9439 24.398 26.0642 26.4438 26.6659Z" fill="#EF9956"/>
<path d="M63.5072 8.134C61.5818 5.24593 57.8514 3.07989 54.6023 2.23753C51.4736 1.39518 48.3449 1.51551 45.2161 2.11719C47.8635 0.913829 50.8719 0.552828 53.8803 1.03417C60.4988 2.23753 66.1546 6.32897 67.2376 13.0678C67.2376 13.0678 67.2376 13.0678 67.1173 13.0678C66.636 12.7068 66.1546 12.4661 65.6733 12.2254C65.0716 10.7814 64.1089 9.09669 63.5072 8.134Z" fill="#EF9956"/>
<path d="M3.70027 22.6947C4.06127 22.9354 4.30194 22.5744 4.1816 22.2134C3.33925 20.4083 3.45959 17.761 5.98665 19.566C6.22732 19.6863 6.34766 19.8067 6.58833 19.8067C6.829 19.927 7.19001 19.8067 7.06967 19.4457C6.829 18.3626 5.74598 16.3169 7.67136 17.0389C9.23573 17.5203 10.8001 18.2423 12.3645 18.483C16.5762 19.3253 21.0287 19.566 25.2404 18.844C28.9709 18.2423 32.0996 15.4746 34.386 12.1052C34.386 12.3458 36.4317 9.33742 37.7554 7.89339C39.3198 5.96801 41.3655 4.16296 43.6519 2.95959H43.7722C43.0502 3.56128 42.4485 4.2833 41.8468 5.24599C39.8011 8.49507 38.7181 12.2255 36.6724 15.3542C34.5063 18.7236 31.2573 20.4083 27.4065 21.2507C27.0455 21.371 26.9252 21.8524 27.1658 22.0931C30.2946 24.4998 34.5063 26.3048 36.552 29.7946C33.664 28.5912 30.6556 27.6285 27.6472 26.6658C23.1947 25.3421 17.8999 23.0557 13.3272 24.7405C13.0865 24.8608 12.8458 25.1015 12.9661 25.3421C13.9288 27.7489 16.0949 29.1929 18.1406 30.5166C18.983 30.9979 19.705 31.5996 20.5473 32.2013C19.705 31.9606 18.8626 31.7199 18.0203 31.4793C16.2152 30.9979 13.4475 30.8776 14.4102 33.6453C15.1322 35.8114 18.0203 37.3758 19.9457 38.4588C18.983 38.2181 18.0203 37.9774 17.0576 37.8571C16.5762 37.7368 16.2152 38.3384 16.5762 38.6994C23.3151 46.6416 34.747 45.7993 42.5689 40.2638C41.1248 43.3926 38.7181 45.7993 35.83 47.7247C35.3487 47.9653 35.5894 48.567 36.0707 48.6874C45.0959 49.5297 57.7312 42.7909 56.6482 32.442C56.0465 27.2675 50.7517 20.4083 53.6398 15.3542C55.2042 12.5865 57.8515 11.2628 60.9803 11.3831C62.0633 11.3831 63.1464 11.6238 64.2294 11.8645C61.3413 11.2628 58.2126 12.3458 56.8889 15.3542C55.6855 18.2423 54.4821 21.6117 55.6855 24.7405C55.6855 24.8608 55.6855 24.9811 55.6855 25.1015C55.8058 25.3421 55.9262 25.5828 56.1668 25.8235C56.4075 26.1845 56.7685 26.5455 57.3702 26.9065C60.1379 29.3132 60.499 30.2759 60.86 33.0436C61.1006 45.679 47.0213 54.3432 34.8673 54.3432C26.5641 54.3432 18.1406 51.2144 12.2441 45.9196C6.58833 40.9858 2.61723 32.6826 2.37656 32.081C1.53421 30.1556 -1.11318 20.4084 3.70027 22.6947Z" fill="#EF9956"/>
<path d="M50.2704 11.5035C50.2704 12.8272 51.1128 13.9103 52.0754 13.9103C53.0381 13.9103 53.8805 12.8272 53.8805 11.5035C53.8805 10.1798 53.0381 9.0968 52.0754 9.0968C51.1128 9.0968 50.2704 10.1798 50.2704 11.5035Z" fill="#5E2C00"/>
<path d="M52.1957 10.6612C52.1957 11.0222 52.4364 11.3832 52.7974 11.3832C53.1584 11.3832 53.3991 11.0222 53.3991 10.6612C53.3991 10.3002 53.1584 9.93922 52.7974 9.93922C52.4364 9.81888 52.1957 10.1799 52.1957 10.6612Z" fill="white"/>
<path d="M7.43063 22.3337C8.51366 21.7321 9.71702 21.4914 10.9204 21.3711C13.3271 21.2507 15.7338 21.3711 18.0202 21.7321C21.51 22.2134 24.9997 23.0558 28.3691 24.3795C30.1742 25.1015 31.8589 26.0642 33.3029 27.0269C31.9792 26.4252 30.7759 25.8235 29.4522 25.3422C25.9624 24.3795 22.4727 23.5371 18.8626 22.8151C18.3812 22.6947 17.8999 22.5744 17.4185 22.5744C13.3271 22.2134 8.634 22.3337 7.91198 24.1388C8.15265 24.7405 8.63399 25.3421 9.47634 26.0642C11.0407 27.3879 12.9661 28.3506 14.7711 29.3132C15.2525 29.5539 15.4932 30.6369 14.6508 30.2759C14.2898 30.1556 13.9288 30.0353 13.6881 29.7946C9.95769 27.8692 9.35601 30.1556 11.2814 32.6826C12.6051 34.4877 14.4101 35.6911 16.0948 37.0148C16.3355 37.2554 16.5762 37.9774 15.9745 37.8571C15.7338 37.7368 12.4848 36.8944 12.9661 37.9775C13.5678 39.4215 14.5305 40.2638 15.7338 41.2265C18.7422 43.6333 22.232 45.318 25.8421 46.1603C30.8962 47.3637 37.0333 45.9196 40.4028 41.8282C40.0417 42.4299 39.8011 42.9112 39.4401 43.3926C39.1994 43.7536 38.9587 43.9943 38.718 44.3553C37.3943 45.4383 35.7096 46.2807 34.0249 47.0027C29.6928 48.567 25.3607 47.484 21.2693 45.7993C18.0202 44.3553 14.0491 41.9485 12.3644 38.5791C11.0407 35.9317 12.3644 36.0521 14.1695 36.5334C12.0034 34.7284 9.71702 32.6827 9.11534 29.9149C8.87467 28.5912 9.47635 28.2302 10.439 28.2302C8.995 27.3879 7.6713 26.4252 6.82895 25.2218C6.34761 24.0184 6.34761 22.9354 7.43063 22.3337Z" fill="#5E2C00"/>
</svg>
