<svg width="70" height="83" viewBox="0 0 70 83" fill="none" xmlns="http://www.w3.org/2000/svg">
<g clip-path="url(#clip0_1_2907)">
<path d="M14.1548 79.265C20.9133 80.7313 27.8023 81.5191 34.7187 81.6167C41.635 81.5191 48.524 80.7313 55.2825 79.265C58.2137 81.5827 61.8193 82.8931 65.5603 83C67.2075 82.9789 68.6353 81.8591 69.0423 80.2693C70.1715 76.9895 68.8103 71.1531 65.4173 67.9908C66.986 59.2422 67.867 50.3851 68.052 41.5C67.8688 32.615 66.9897 23.7579 65.4228 15.0092C68.8158 11.8469 70.177 6.0175 69.0478 2.7307C68.6408 1.14086 67.213 0.0211004 65.5658 0C61.825 0.106947 58.2192 1.41727 55.2882 3.735C48.5278 2.26829 41.6368 1.48046 34.7187 1.38333C27.8023 1.48083 20.9133 2.26866 14.1548 3.735C11.2222 1.41615 7.61435 0.105761 3.87147 0C2.2243 0.0211004 0.796489 1.14086 0.389514 2.7307C-0.739653 6.01058 0.621459 11.8469 4.01452 15.0092C2.44762 23.7579 1.56856 32.615 1.38535 41.5C1.56856 50.385 2.44762 59.2421 4.01452 67.9908C0.621459 71.1531 -0.739653 76.9895 0.389514 80.2693C0.796489 81.8591 2.2243 82.9789 3.87147 83C7.61435 82.8943 11.2222 81.5839 14.1548 79.265ZM3.0173 79.3687C2.51875 76.654 3.10162 73.8524 4.6423 71.5584C4.7298 72.0287 4.81313 72.4784 4.89368 72.903C4.97847 73.3956 5.3234 73.8044 5.79602 73.9723C6.26863 74.1401 6.79542 74.0411 7.17405 73.7131C7.55267 73.3851 7.72423 72.8793 7.62285 72.3898C5.59528 62.2092 4.43788 51.8755 4.16313 41.5C4.43765 31.1232 5.59503 20.7882 7.62285 10.606C7.73688 9.86792 7.24215 9.17293 6.5051 9.03581C5.76807 8.89871 5.05482 9.36901 4.89368 10.0983C4.81313 10.523 4.7298 10.9726 4.6423 11.4429C3.10162 9.14897 2.51875 6.34747 3.0173 3.63263C3.31313 2.76667 3.6909 2.76667 3.87147 2.76667C6.18145 2.85566 8.44022 3.47086 10.4742 4.565L10.0576 4.66598C9.3327 4.86556 8.899 5.60351 9.07918 6.33076C9.25937 7.05799 9.98798 7.51025 10.7229 7.35103C18.5728 5.37669 26.6237 4.3027 34.7187 4.15C42.8138 4.30079 50.8652 5.37292 58.7158 7.3455C59.4508 7.50473 60.1793 7.05244 60.3595 6.32521C60.5398 5.59798 60.106 4.86001 59.3812 4.66045L58.9645 4.55947C60.9987 3.46746 63.2568 2.85417 65.5658 2.76667C65.7465 2.76667 66.1215 2.76667 66.42 3.6271C66.9187 6.34195 66.3357 9.14345 64.795 11.4374C64.7075 10.9671 64.6242 10.5175 64.5437 10.0928C64.4588 9.60021 64.114 9.19147 63.6413 9.02358C63.1687 8.85569 62.642 8.95475 62.2633 9.28272C61.8847 9.61069 61.7132 10.1166 61.8145 10.606C63.8423 20.7882 64.9997 31.1232 65.2742 41.5C64.9997 51.8768 63.8423 62.2118 61.8145 72.3939C61.7132 72.8835 61.8847 73.3893 62.2633 73.7173C62.642 74.0453 63.1687 74.1442 63.6413 73.9764C64.114 73.8086 64.4588 73.3997 64.5437 72.9072C64.6242 72.4826 64.7075 72.0329 64.795 71.5626C66.3357 73.8566 66.9187 76.6581 66.42 79.3729C66.1242 80.2333 65.7465 80.2333 65.5658 80.2333C63.256 80.1443 60.9972 79.5291 58.9632 78.435L59.3798 78.3341C60.1047 78.1344 60.5383 77.3965 60.3582 76.6693C60.178 75.942 59.4493 75.4898 58.7145 75.649C50.8645 77.6233 42.8137 78.6973 34.7187 78.85C26.6235 78.6993 18.5722 77.6271 10.7215 75.6545C10.2343 75.5204 9.71252 75.6605 9.35897 76.02C9.0054 76.3798 8.87592 76.9023 9.02088 77.3845C9.16583 77.8668 9.56233 78.2325 10.0562 78.3396L10.4729 78.4405C8.43877 79.5326 6.18053 80.1458 3.87147 80.2333C3.6909 80.2333 3.31313 80.2333 3.0173 79.3729V79.3687Z" fill="#53C351"/>
<path d="M13.8854 41.5C13.8854 52.96 23.2127 62.25 34.7187 62.25C46.2247 62.25 55.552 52.96 55.552 41.5C55.552 30.04 46.2247 20.75 34.7187 20.75C23.2182 20.7629 13.8984 30.0455 13.8854 41.5ZM34.7187 59.4833C29.8562 59.4838 25.2004 57.5243 21.8117 54.0509C22.5985 53.1087 23.766 52.5646 24.9965 52.5667C25.9347 52.5692 26.8432 52.8952 27.5674 53.4893C27.8989 53.7568 28.3354 53.8575 28.7512 53.7628C29.167 53.668 29.516 53.3883 29.6979 53.0038C30.5377 51.2303 32.2524 50.0276 34.2117 49.8373C34.0194 50.5779 33.7652 51.3011 33.452 51.9995C33.2412 52.4514 33.2907 52.9814 33.5817 53.3868C33.8725 53.7923 34.36 54.0104 34.8575 53.9581C35.355 53.9057 35.7859 53.5909 35.9854 53.1338C36.3987 52.2166 36.7284 51.2643 36.97 50.2884C38.1877 50.8373 39.1694 51.8 39.7395 53.0038C39.9214 53.3883 40.2704 53.668 40.6862 53.7628C41.102 53.8575 41.5385 53.7568 41.87 53.4893C42.5944 52.8952 43.5027 52.5692 44.4409 52.5667C45.6714 52.5646 46.8389 53.1087 47.6257 54.0509C44.237 57.5243 39.5812 59.4838 34.7187 59.4833ZM35.7229 36.9931C35.6309 35.5408 36.1164 34.1107 37.0742 33.0119C38.4215 31.8458 40.952 32.1404 41.9909 32.3202C42.0344 32.3429 42.0665 32.3825 42.0799 32.4294C42.1174 33.4726 42.059 36.0261 40.7382 37.1744C39.4174 38.3224 36.8882 38.0402 35.9409 37.884L35.7229 36.9931ZM33.2437 38.5439C32.345 39.1996 30.3007 40.4874 28.6604 40.0877C27.08 39.4096 25.855 38.1061 25.2799 36.4909C25.2685 36.4353 25.28 36.3776 25.3117 36.3304C26.458 35.3985 27.8487 34.8139 29.3187 34.6455C29.5467 34.6445 29.7739 34.6714 29.995 34.7259C31.3409 35.276 32.4232 36.3198 33.0187 37.6418L33.2437 38.5439ZM52.7742 41.5C52.7749 45.231 51.6019 48.8684 49.42 51.9012C48.1164 50.5555 46.3185 49.7968 44.4409 49.8C43.408 49.8028 42.3894 50.0394 41.4617 50.4917C40.4559 49.1108 39.0507 48.0688 37.434 47.505C37.614 45.2418 37.4165 42.9645 36.8492 40.7655C37.127 40.7849 37.4049 40.8098 37.7049 40.8098C39.459 40.8914 41.1842 40.3426 42.5659 39.2631C44.7062 37.3928 44.927 34.1213 44.8575 32.3298C44.7894 30.9776 43.7972 29.8491 42.4604 29.6033C40.6992 29.2935 37.4187 29.05 35.2465 30.9354C34.4304 31.6834 33.8267 32.6324 33.4965 33.6869C32.7182 32.8987 31.7424 32.3323 30.67 32.0463C28.059 31.3865 25.4104 32.8086 23.6492 34.1213C22.5639 34.9593 22.1999 36.4309 22.77 37.675C23.7132 39.6504 25.3867 42.1404 27.9979 42.7823C28.4365 42.8894 28.8865 42.9432 29.3382 42.9429C31.0502 42.8579 32.703 42.2925 34.1062 41.3119C34.5947 43.1814 34.7822 45.1163 34.6617 47.0444C32.0074 47.0739 29.5247 48.3576 27.9729 50.5027C27.047 50.047 26.0292 49.8066 24.9965 49.8C23.1189 49.7968 21.321 50.5555 20.0174 51.9012C15.5024 45.5718 15.5786 37.0703 20.2062 30.822C24.8337 24.5738 32.9664 21.9913 40.371 24.4191C47.7755 26.8468 52.7779 33.7357 52.7742 41.5Z" fill="#53C351"/>
<path d="M11.2465 17.9045C18.7874 15.2511 26.7212 13.875 34.7187 13.8334C42.7162 13.875 50.65 15.2511 58.1909 17.9045C58.6589 18.0691 59.1794 17.9725 59.5564 17.6511C59.9335 17.3299 60.1099 16.8326 60.0189 16.3467C59.928 15.8608 59.5839 15.4601 59.1159 15.2956C43.342 9.68338 26.1037 9.68338 10.3298 15.2956C9.60648 15.55 9.22716 16.3402 9.4826 17.0607C9.73803 17.7811 10.5315 18.1589 11.2548 17.9045H11.2465Z" fill="#53C351"/>
<path d="M10.3256 67.7044C18.1563 70.4846 26.4055 71.9147 34.7187 71.9333C43.0318 71.9147 51.2812 70.4846 59.1117 67.7044C59.835 67.4501 60.2143 66.6598 59.959 65.9394C59.7035 65.2189 58.91 64.8411 58.1867 65.0956C50.6472 67.7484 42.7147 69.1246 34.7187 69.1667C26.7212 69.1251 18.7873 67.7489 11.2465 65.0956C10.5231 64.8411 9.72967 65.2189 9.47423 65.9394C9.2188 66.6598 9.59812 67.4501 10.3215 67.7044H10.3256Z" fill="#53C351"/>
</g>
<defs>
<clipPath id="clip0_1_2907">
<rect width="70" height="83" fill="white"/>
</clipPath>
</defs>
</svg>
