<?xml version="1.0" encoding="utf-8"?>
<!-- Generator: Adobe Illustrator 26.5.0, SVG Export Plug-In . SVG Version: 6.00 Build 0)  -->
<svg version="1.1" id="Layer_1" xmlns="http://www.w3.org/2000/svg" xmlns:xlink="http://www.w3.org/1999/xlink" x="0px" y="0px"
	 viewBox="0 0 121 121" style="enable-background:new 0 0 121 121;" xml:space="preserve">
<style type="text/css">
	.st0{clip-path:url(#SVGID_00000023247582694077664760000014203905319043599280_);}
	.st1{fill:#53C351;}
</style>
<g>
	<defs>
		<rect id="SVGID_1_" x="25.3" y="19" width="70" height="83"/>
	</defs>
	<clipPath id="SVGID_00000111892386399884218490000007881077920085976966_">
		<use xlink:href="#SVGID_1_"  style="overflow:visible;"/>
	</clipPath>
	<g style="clip-path:url(#SVGID_00000111892386399884218490000007881077920085976966_);">
		<path class="st1" d="M39.4,98.3c6.8,1.5,13.6,2.3,20.6,2.4c6.9-0.1,13.8-0.9,20.6-2.4c2.9,2.3,6.5,3.6,10.3,3.7
			c1.6,0,3.1-1.1,3.5-2.7c1.1-3.3-0.2-9.1-3.6-12.3c1.6-8.7,2.4-17.6,2.6-26.5c-0.2-8.9-1.1-17.7-2.6-26.5c3.4-3.2,4.8-9,3.6-12.3
			c-0.4-1.6-1.8-2.7-3.5-2.7c-3.7,0.1-7.3,1.4-10.3,3.7c-6.8-1.5-13.7-2.3-20.6-2.4c-6.9,0.1-13.8,0.9-20.6,2.4
			c-2.9-2.3-6.5-3.6-10.3-3.7c-1.6,0-3.1,1.1-3.5,2.7c-1.1,3.3,0.2,9.1,3.6,12.3c-1.6,8.7-2.4,17.6-2.6,26.5
			c0.2,8.9,1.1,17.7,2.6,26.5c-3.4,3.2-4.8,9-3.6,12.3c0.4,1.6,1.8,2.7,3.5,2.7C32.9,101.9,36.5,100.6,39.4,98.3z M28.3,98.4
			c-0.5-2.7,0.1-5.5,1.6-7.8c0.1,0.5,0.2,0.9,0.3,1.3c0.1,0.5,0.4,0.9,0.9,1.1c0.5,0.2,1,0.1,1.4-0.3c0.4-0.3,0.6-0.8,0.4-1.3
			c-2-10.2-3.2-20.5-3.5-30.9c0.3-10.4,1.4-20.7,3.5-30.9c0.1-0.7-0.4-1.4-1.1-1.6c-0.7-0.1-1.5,0.3-1.6,1.1
			c-0.1,0.4-0.2,0.9-0.3,1.3c-1.5-2.3-2.1-5.1-1.6-7.8c0.3-0.9,0.7-0.9,0.9-0.9c2.3,0.1,4.6,0.7,6.6,1.8l-0.4,0.1
			c-0.7,0.2-1.2,0.9-1,1.7c0.2,0.7,0.9,1.2,1.6,1c7.8-2,15.9-3,24-3.2c8.1,0.2,16.1,1.2,24,3.2c0.7,0.2,1.5-0.3,1.6-1
			c0.2-0.7-0.3-1.5-1-1.7l-0.4-0.1c2-1.1,4.3-1.7,6.6-1.8c0.2,0,0.6,0,0.9,0.9c0.5,2.7-0.1,5.5-1.6,7.8c-0.1-0.5-0.2-0.9-0.3-1.3
			c-0.1-0.5-0.4-0.9-0.9-1.1c-0.5-0.2-1-0.1-1.4,0.3c-0.4,0.3-0.6,0.8-0.4,1.3c2,10.2,3.2,20.5,3.5,30.9
			c-0.3,10.4-1.4,20.7-3.5,30.9c-0.1,0.5,0.1,1,0.4,1.3c0.4,0.3,0.9,0.4,1.4,0.3c0.5-0.2,0.8-0.6,0.9-1.1c0.1-0.4,0.2-0.9,0.3-1.3
			c1.5,2.3,2.1,5.1,1.6,7.8c-0.3,0.9-0.7,0.9-0.9,0.9c-2.3-0.1-4.6-0.7-6.6-1.8l0.4-0.1c0.7-0.2,1.2-0.9,1-1.7
			c-0.2-0.7-0.9-1.2-1.6-1c-7.9,2-15.9,3-24,3.2c-8.1-0.2-16.1-1.2-24-3.2c-0.5-0.1-1,0-1.4,0.4c-0.4,0.4-0.5,0.9-0.3,1.4
			c0.1,0.5,0.5,0.8,1,1l0.4,0.1c-2,1.1-4.3,1.7-6.6,1.8C29,99.2,28.6,99.2,28.3,98.4L28.3,98.4z"/>
		<path class="st1" d="M39.2,60.5c0,11.5,9.3,20.8,20.8,20.8S80.8,72,80.8,60.5S71.5,39.8,60,39.8C48.5,39.8,39.2,49,39.2,60.5z
			 M60,78.5c-4.9,0-9.5-2-12.9-5.4c0.8-0.9,2-1.5,3.2-1.5c0.9,0,1.8,0.3,2.6,0.9c0.3,0.3,0.8,0.4,1.2,0.3c0.4-0.1,0.8-0.4,0.9-0.8
			c0.8-1.8,2.6-3,4.5-3.2c-0.2,0.7-0.4,1.5-0.8,2.2c-0.2,0.5-0.2,1,0.1,1.4c0.3,0.4,0.8,0.6,1.3,0.6c0.5-0.1,0.9-0.4,1.1-0.8
			c0.4-0.9,0.7-1.9,1-2.8c1.2,0.5,2.2,1.5,2.8,2.7c0.2,0.4,0.5,0.7,0.9,0.8c0.4,0.1,0.9,0,1.2-0.3c0.7-0.6,1.6-0.9,2.6-0.9
			c1.2,0,2.4,0.5,3.2,1.5C69.5,76.5,64.9,78.5,60,78.5z M61,56c-0.1-1.5,0.4-2.9,1.4-4c1.3-1.2,3.9-0.9,4.9-0.7c0,0,0.1,0.1,0.1,0.1
			c0,1,0,3.6-1.3,4.7c-1.3,1.1-3.8,0.9-4.8,0.7L61,56z M58.5,57.5c-0.9,0.7-2.9,1.9-4.6,1.5c-1.6-0.7-2.8-2-3.4-3.6
			c0-0.1,0-0.1,0-0.2c1.1-0.9,2.5-1.5,4-1.7c0.2,0,0.5,0,0.7,0.1c1.3,0.6,2.4,1.6,3,2.9L58.5,57.5z M78.1,60.5
			c0,3.7-1.2,7.4-3.4,10.4c-1.3-1.3-3.1-2.1-5-2.1c-1,0-2.1,0.2-3,0.7c-1-1.4-2.4-2.4-4-3c0.2-2.3,0-4.5-0.6-6.7c0.3,0,0.6,0,0.9,0
			c1.8,0.1,3.5-0.5,4.9-1.5c2.1-1.9,2.4-5.1,2.3-6.9c-0.1-1.4-1.1-2.5-2.4-2.7c-1.8-0.3-5-0.6-7.2,1.3c-0.8,0.7-1.4,1.7-1.8,2.8
			C58,51.9,57,51.3,56,51c-2.6-0.7-5.3,0.8-7,2.1c-1.1,0.8-1.4,2.3-0.9,3.6c0.9,2,2.6,4.5,5.2,5.1c0.4,0.1,0.9,0.2,1.3,0.2
			c1.7-0.1,3.4-0.7,4.8-1.6c0.5,1.9,0.7,3.8,0.6,5.7c-2.7,0-5.1,1.3-6.7,3.5c-0.9-0.5-1.9-0.7-3-0.7c-1.9,0-3.7,0.8-5,2.1
			c-4.5-6.3-4.4-14.8,0.2-21.1c4.6-6.2,12.8-8.8,20.2-6.4C73.1,45.8,78.1,52.7,78.1,60.5z"/>
		<path class="st1" d="M36.5,36.9c7.5-2.7,15.5-4,23.5-4.1c8,0,15.9,1.4,23.5,4.1c0.5,0.2,1,0.1,1.4-0.3c0.4-0.3,0.6-0.8,0.5-1.3
			c-0.1-0.5-0.4-0.9-0.9-1.1c-15.8-5.6-33-5.6-48.8,0c-0.7,0.3-1.1,1-0.8,1.8C35,36.8,35.8,37.2,36.5,36.9L36.5,36.9z"/>
		<path class="st1" d="M35.6,86.7c7.8,2.8,16.1,4.2,24.4,4.2c8.3,0,16.6-1.4,24.4-4.2c0.7-0.3,1.1-1,0.8-1.8c-0.3-0.7-1-1.1-1.8-0.8
			c-7.5,2.7-15.5,4-23.5,4.1c-8,0-15.9-1.4-23.5-4.1c-0.7-0.3-1.5,0.1-1.8,0.8C34.5,85.7,34.9,86.5,35.6,86.7L35.6,86.7z"/>
	</g>
</g>
</svg>
