<svg width="211" height="54" viewBox="0 0 211 54" fill="none" xmlns="http://www.w3.org/2000/svg">
<path d="M69.3306 23.9242H60.8466V43.5242H65.3826V38.1202H69.3306C74.5666 38.1202 77.8426 35.4042 77.8426 31.0362C77.8426 26.6402 74.5666 23.9242 69.3306 23.9242ZM69.0786 34.4242H65.3826V27.6202H69.0786C71.8506 27.6202 73.2506 28.8802 73.2506 31.0362C73.2506 33.1642 71.8506 34.4242 69.0786 34.4242ZM88.6476 23.5882C83.2716 23.5882 79.6596 26.8362 79.6596 32.8002V43.5242H84.1396V38.8202H93.0996V43.5242H97.6356V32.8002C97.6356 26.8362 94.0236 23.5882 88.6476 23.5882ZM84.1396 35.1802V32.3802C84.1396 29.0482 85.9036 27.4522 88.6196 27.4522C91.3076 27.4522 93.0996 29.0482 93.0996 32.3802V35.1802H84.1396ZM113.577 23.9242V30.0282C113.577 33.5002 111.673 34.9842 109.013 34.9842C106.409 34.9842 104.841 33.4442 104.841 30.3362V23.9242H100.305V30.6162C100.305 35.9362 103.105 38.8202 108.033 38.8202C110.357 38.8202 112.261 38.0362 113.577 36.4122V37.6162C113.577 41.1162 111.981 42.7122 108.733 42.7122C106.409 42.7122 104.281 41.9842 102.517 40.5562L100.753 43.9162C102.657 45.5402 105.429 46.5482 108.845 46.5482C114.557 46.5482 118.113 43.3562 118.113 37.3922V23.9242H113.577Z" fill="#975149"/>
<path d="M130.746 27.4522C132.118 27.4522 133.574 27.7602 134.778 28.5442L136.178 24.9602C134.722 24.0642 132.678 23.5882 130.438 23.5882C124.782 23.5882 121.45 26.5282 121.45 31.5682V43.5242H125.986V36.3842H134.05V32.7442H125.986V31.5402C125.986 28.8242 127.61 27.4522 130.746 27.4522ZM145.973 23.5882C140.597 23.5882 136.985 26.8362 136.985 32.8002V43.5242H141.465V38.8202H150.425V43.5242H154.961V32.8002C154.961 26.8362 151.349 23.5882 145.973 23.5882ZM141.465 35.1802V32.3802C141.465 29.0482 143.229 27.4522 145.945 27.4522C148.633 27.4522 150.425 29.0482 150.425 32.3802V35.1802H141.465ZM175.818 43.5242L171.422 37.2242C173.97 36.1322 175.454 33.9762 175.454 31.0362C175.454 26.6402 172.178 23.9242 166.942 23.9242H158.458V43.5242H162.994V38.0642H166.942H167.166L170.946 43.5242H175.818ZM170.862 31.0362C170.862 33.1642 169.462 34.4522 166.69 34.4522H162.994V27.6202H166.69C169.462 27.6202 170.862 28.8802 170.862 31.0362ZM200.44 23.5882C197.752 23.5882 195.456 24.5962 194.112 26.4722C193.02 24.6242 190.976 23.5882 188.26 23.5882C185.656 23.5882 183.64 24.5962 182.464 26.3322V23.9242H178.068V43.5242H182.604V31.9042C182.604 28.7962 184.396 27.4522 186.804 27.4522C189.044 27.4522 190.556 28.7682 190.556 31.6242V43.5242H195.092V31.9042C195.092 28.7962 196.856 27.4522 199.32 27.4522C201.56 27.4522 203.24 28.7682 203.24 31.6242V43.5242H207.776V31.4842C207.776 26.3042 205.004 23.5882 200.44 23.5882Z" fill="#61BD5B"/>
<path d="M43.5089 33.4455C47.0919 38.9296 52.9498 40.0955 53.0979 40.1172C53.4257 40.1646 53.7636 40.094 54.0147 39.9254C54.2662 39.7568 54.4027 39.509 54.3857 39.2531C54.1448 35.6542 53.3757 32.0878 52.0928 28.6217C50.7153 24.9087 48.755 21.3382 46.2553 17.9884C46.0655 17.7358 45.7178 17.5773 45.3386 17.5706C44.9695 17.5967 44.6296 17.7355 44.3956 17.956C42.584 20.2778 41.5541 22.9099 41.3992 25.6145C41.2443 28.319 41.9697 31.0101 43.509 33.4453L43.5089 33.4455Z" fill="#61BD5B"/>
<path d="M8.85618 15.9144C8.90425 15.9144 8.9499 15.8983 8.99845 15.8976C9.98367 15.9136 10.916 16.2423 11.5744 16.806C12.6 17.6418 18.4204 25.6278 12.8218 34.1949V34.1945C12.111 35.2914 11.2443 36.3241 10.2377 37.2744C11.168 38.3668 12.2304 39.3898 13.4103 40.3296C15.1827 41.7556 17.272 42.927 19.5795 43.7897V48.1421L15.5472 51.2403V51.24C15.135 51.5679 15.1413 52.0891 15.5608 52.4115C15.9804 52.7339 16.6587 52.7387 17.0856 52.422L19.5794 50.5054V52.6668C19.5794 53.1283 20.0664 53.5025 20.6671 53.5025C21.2677 53.5025 21.7547 53.1283 21.7547 52.6668V50.5054L24.2486 52.4216V52.422C24.6754 52.7387 25.3537 52.7339 25.7733 52.4115C26.1929 52.0892 26.1991 51.5679 25.7869 51.24L21.7547 48.1421V44.4706C25.2818 45.3682 29.0921 45.3682 32.6192 44.4706V48.1209L28.5948 51.2292C28.17 51.5582 28.17 52.0888 28.5948 52.4174C29.0197 52.7439 29.7082 52.7439 30.1331 52.4174L32.6154 50.4953L32.6149 52.6666C32.6149 53.1281 33.1019 53.5023 33.7026 53.5023C34.3037 53.5023 34.7902 53.1281 34.7902 52.6666V50.5079L37.3084 52.424C37.5138 52.58 37.7911 52.6669 38.08 52.6654C38.3684 52.6643 38.6447 52.5747 38.8477 52.4165C39.2687 52.0852 39.2643 51.5547 38.8375 51.2275L34.798 48.1447V43.7985C37.1108 42.936 39.2041 41.7626 40.9794 40.3337C42.1593 39.3939 43.2217 38.3712 44.152 37.2785C43.144 36.3278 42.2763 35.2944 41.5645 34.1971C35.9664 25.6302 41.782 17.642 42.8119 16.8082C43.4558 16.2523 44.3667 15.9225 45.3344 15.8949C45.4029 15.8949 45.467 15.9143 45.5345 15.9184C43.5849 13.2795 40.859 11.0283 37.5741 9.34454C35.8211 8.42599 33.8984 7.71521 31.8701 7.23698L34.698 2.8979C34.967 2.48227 34.7466 1.97823 34.2057 1.77153C33.6652 1.5652 33.0092 1.73422 32.7402 2.14984L29.6782 6.86906C29.2266 6.81459 28.7615 6.77878 28.2808 6.75378V0.851839C28.2808 0.390327 27.7937 0.0161133 27.1931 0.0161133C26.5924 0.0161133 26.1054 0.390327 26.1054 0.851839V6.74967C25.6247 6.77467 25.159 6.81086 24.708 6.86496L21.6459 2.14984C21.3755 1.73683 20.7209 1.57043 20.1834 1.77824C19.6463 1.98606 19.4298 2.48898 19.7002 2.90203L22.516 7.23701C20.4868 7.71569 18.5634 8.4268 16.8101 9.3461C13.5287 11.0295 10.805 13.2785 8.85605 15.9144L8.85618 15.9144ZM31.4562 28.7607L28.1932 34.6107C28.0213 34.9178 27.6285 35.1166 27.1934 35.1166C26.7583 35.1166 26.3655 34.9178 26.1936 34.6107L22.9306 28.7607C22.7868 28.5025 22.8213 28.2059 23.0223 27.9712C23.2239 27.7365 23.5647 27.5955 23.9304 27.5955H30.4564C30.822 27.5955 31.1629 27.7365 31.3644 27.9712C31.5654 28.2059 31.5999 28.5025 31.4562 28.7607H31.4562ZM33.7194 20.074C34.8731 20.074 35.9798 20.4262 36.796 21.053C37.6118 21.6801 38.0701 22.5304 38.0701 23.4169C38.0701 23.8784 37.5831 24.2526 36.9825 24.2526C36.3818 24.2526 35.8948 23.8784 35.8948 23.4169C35.8948 22.8196 35.4801 22.2678 34.8071 21.9693C34.1341 21.6708 33.3047 21.6708 32.6318 21.9693C31.9588 22.2678 31.5441 22.8196 31.5441 23.4169C31.5441 23.8784 31.0571 24.2526 30.4564 24.2526C29.8558 24.2526 29.3687 23.8784 29.3687 23.4169C29.3687 22.5304 29.8271 21.6801 30.6429 21.053C31.4591 20.4262 32.5657 20.074 33.7194 20.074ZM20.6673 20.074C21.821 20.074 22.9277 20.4262 23.7439 21.053C24.5597 21.6801 25.018 22.5304 25.018 23.4169C25.018 23.8784 24.531 24.2526 23.9304 24.2526C23.3297 24.2526 22.8427 23.8784 22.8427 23.4169C22.8427 22.8196 22.428 22.2678 21.755 21.9693C21.082 21.6708 20.2527 21.6708 19.5797 21.9693C18.9067 22.2678 18.492 22.8196 18.492 23.4169C18.492 23.8784 18.005 24.2526 17.4043 24.2526C16.8037 24.2526 16.3166 23.8784 16.3166 23.4169C16.3166 22.5304 16.775 21.6801 17.5908 21.053C18.407 20.4262 19.5137 20.074 20.6673 20.074Z" fill="#61BD5B"/>
<path d="M8.13275 17.9888C3.28234 24.4866 0.496652 31.7721 0.00141845 39.2535C-0.0155766 39.5091 0.120869 39.7568 0.371911 39.9254C0.622954 40.0941 0.960423 40.1646 1.28818 40.1176C1.43725 40.0959 7.29513 38.93 10.8781 33.4459C12.4184 31.0107 13.1438 28.3189 12.9893 25.614C12.8344 22.9091 11.8045 20.2761 9.99293 17.954C9.75889 17.7332 9.41899 17.5936 9.04996 17.5671C8.66879 17.5746 8.32112 17.735 8.13272 17.9891L8.13275 17.9888Z" fill="#61BD5B"/>
<path d="M47.256 40.2962C44.2204 40.2962 41.7402 41.3186 41.5886 42.6041C41.6736 43.3238 42.5628 43.8237 43.1401 44.0812C44.166 44.5265 45.633 44.8197 47.2562 44.8197C47.7145 44.8197 48.1599 44.7931 48.586 44.7492C49.6418 43.8817 51.049 43.3236 52.607 43.2559C52.7606 43.0486 52.8965 42.8266 52.9236 42.6151C52.616 40.7248 48.787 40.2899 47.256 40.2962ZM52.9299 43.7716C49.7963 43.7716 47.256 45.95 47.256 48.6371C47.256 51.3242 49.7964 53.5027 52.9299 53.5027C56.0635 53.5027 58.6039 51.3242 58.6039 48.6371C58.6039 45.95 56.0635 43.7716 52.9299 43.7716ZM41.5883 43.9943V44.7057C41.6505 45.2175 42.1778 45.7435 43.1397 46.1609C44.1077 46.581 45.4698 46.8631 46.9837 46.894C47.1842 46.3913 47.4715 45.9218 47.8259 45.4984C47.638 45.5062 47.4485 45.5091 47.256 45.5091C45.5217 45.5091 43.9468 45.2096 42.7726 44.7001C42.3143 44.5011 41.9123 44.2621 41.5883 43.9943ZM41.5883 46.0795V46.7909C41.6505 47.3027 42.1778 47.8287 43.1397 48.2461C44.0389 48.6363 45.2758 48.912 46.6606 48.9737C46.6526 48.862 46.6479 48.7505 46.6479 48.637C46.6479 48.2765 46.6895 47.9243 46.7682 47.5835C45.2286 47.5318 43.8348 47.2409 42.7722 46.7799C42.314 46.581 41.9123 46.3473 41.5883 46.0795ZM41.5883 48.1647V48.876C41.6505 49.3879 42.1778 49.9139 43.1397 50.3313C44.5638 50.929 46.045 51.0616 47.3257 51.0699C47.0677 50.6336 46.8739 50.1634 46.7621 49.6689C45.2251 49.6165 43.8336 49.3256 42.7727 48.8653C42.3144 48.6664 41.9123 48.4325 41.5883 48.1647ZM41.5819 50.2498V51.0699C41.5819 52.4135 44.1231 53.5026 47.2558 53.5026C48.1384 53.5026 48.9684 53.4125 49.7128 53.2582C48.9601 52.872 48.3057 52.3604 47.8003 51.7486C47.6206 51.7559 47.4401 51.765 47.2556 51.765C45.5214 51.765 43.9465 51.46 42.7722 50.9505C42.3124 50.7509 41.9063 50.5188 41.5819 50.2498Z" fill="#E1A11C"/>
</svg>
