<svg width="20" height="17" viewBox="0 0 20 17" fill="none" xmlns="http://www.w3.org/2000/svg">
<path fill-rule="evenodd" clip-rule="evenodd" d="M6.29559 0.49292H13.7378C17.1625 0.49292 19.9396 2.77683 19.9396 5.59321V11.7136C19.9396 14.5299 17.1625 16.8138 13.7378 16.8138H6.29559C2.87093 16.8138 0.09375 14.5299 0.09375 11.7136V5.59321C0.09375 2.77683 2.87093 0.49292 6.29559 0.49292ZM13.7378 15.2838C16.1317 15.2838 18.079 13.6823 18.079 11.7136V5.59321C18.079 3.6245 16.1317 2.02301 13.7378 2.02301H6.29557C3.90166 2.02301 1.95428 3.6245 1.95428 5.59321V11.7136C1.95428 13.6823 3.90166 15.2838 6.29557 15.2838H13.7378Z" fill="white"/>
</svg>
