<svg width="95" height="71" viewBox="0 0 95 71" fill="none" xmlns="http://www.w3.org/2000/svg">
<g clip-path="url(#clip0_1_3065)">
<path d="M88.9792 21.0572C89.4601 21.6242 89.44 22.6288 88.7789 22.9769C89.6805 22.7084 90.8025 22.4995 91.4436 23.1759C91.6039 23.345 91.7241 23.5638 91.8744 23.7528C92.0647 23.9816 92.3252 24.1606 92.5456 24.3595C93.6776 25.4139 93.7177 27.3933 92.6358 28.4974C93.3971 28.1393 94.3989 28.5372 94.7896 29.2832C95.1803 30.0292 95 31.004 94.439 31.6306C93.878 32.2573 93.0064 32.5656 92.1549 32.5358C92.4755 33.1027 92.185 33.8686 91.6841 34.2864C91.1731 34.7042 90.5019 34.8534 89.8508 34.9727C88.849 35.1617 87.6969 35.2711 86.9356 34.6146C86.5348 34.2665 86.3044 33.7592 85.9137 33.421C85.1323 32.7447 83.9101 32.8242 83.0786 32.2075C82.5878 31.8494 82.2973 31.2825 82.0668 30.7255C81.0751 28.3283 80.5541 24.3894 81.9667 22.0022C83.0686 20.1222 87.4966 19.3265 88.9792 21.0572Z" fill="#D8C8BA"/>
<path d="M94.7996 29.2434C94.4089 28.4974 93.4071 28.0995 92.6458 28.4576C93.7277 27.3635 93.6876 25.3741 92.5556 24.3197C92.3352 24.1109 92.0848 23.9418 91.8844 23.713C91.7342 23.5339 91.6139 23.3151 91.4537 23.1361C90.8125 22.4597 89.6905 22.6686 88.7889 22.9371C89.4501 22.589 89.4701 21.5844 88.9892 21.0174C87.757 19.5751 84.4812 19.8835 82.7781 21.1169C84.2608 20.8483 85.8336 21.0671 86.605 21.9624C87.0858 22.5293 87.0658 23.5339 86.4046 23.8821C87.3062 23.6135 88.4282 23.4046 89.0694 24.081C89.2297 24.2501 89.3499 24.4689 89.5002 24.6579C89.6905 24.8867 89.951 25.0657 90.1714 25.2647C91.3034 26.319 91.3435 28.2984 90.2615 29.4025C91.0229 29.0445 92.0247 29.4423 92.4154 30.1883C92.8061 30.9343 92.6257 31.9091 92.0647 32.5358C91.5037 33.1624 90.6322 33.4708 89.7807 33.4409C90.0612 33.9283 89.8808 34.555 89.5102 34.9827C89.6304 34.9628 89.7406 34.9429 89.8508 34.923C90.502 34.8036 91.1731 34.6445 91.6841 34.2367C92.195 33.8189 92.4855 33.063 92.1549 32.486C93.0064 32.5159 93.878 32.2075 94.439 31.5809C95 30.9642 95.1903 29.9894 94.7996 29.2434Z" fill="#F9E6D5"/>
<path d="M45.261 54.3989C46.4531 59.1037 47.2045 63.9179 47.515 68.762C48.5168 68.752 49.5086 68.8515 50.4803 69.0703C50.29 64.3158 50.0997 59.5413 50.6507 54.8266C50.831 53.2749 51.0113 51.4745 49.8893 50.3903C48.9175 49.4553 47.1945 49.5349 46.1827 50.4301C45.1708 51.3253 44.8603 52.8571 45.261 54.1502C45.1308 53.6727 44.9905 53.1853 44.8603 52.7079L45.261 54.3989Z" fill="#A48570"/>
<path d="M81.015 54.3989C82.2071 59.1037 82.9585 63.9179 83.269 68.762C84.2708 68.752 85.2626 68.8515 86.2343 69.0703C86.044 64.3158 85.8536 59.5413 86.4046 54.8266C86.5849 53.2749 86.7653 51.4745 85.6433 50.3903C84.6715 49.4553 82.9484 49.5349 81.9366 50.4301C80.9248 51.3253 80.6143 52.8571 81.015 54.1502C80.8847 53.6727 80.7445 53.1853 80.6143 52.7079L81.015 54.3989Z" fill="#A48570"/>
<path d="M34.9024 45.3671C35.193 45.5561 35.5236 45.6953 35.7039 46.0136C35.9543 46.4612 35.754 47.0282 35.774 47.5454C35.8041 48.4108 36.5855 49.1866 37.3668 49.127C37.1264 49.863 36.886 50.6588 37.1064 51.4147C37.3268 52.1707 38.2284 52.7277 38.7794 52.2403C38.3987 54.1202 40.4424 56.0698 42.0653 55.3735C41.2939 56.776 42.6263 58.9544 44.1089 58.7256C44.4595 58.6759 44.8001 58.5167 45.1508 58.4471C45.7819 58.3277 46.4431 58.5068 47.0842 58.4272C47.7254 58.3576 48.4166 57.8702 48.3866 57.154C49.0878 57.8602 50.2299 57.9696 50.9912 57.3927C51.7526 56.8258 52.0732 55.6322 51.7225 54.6574C52.4939 54.3888 53.2352 53.8318 53.4556 52.9764C53.676 52.1209 53.1451 51.0169 52.3336 50.9671C53.2252 49.8034 53.0249 47.804 51.9129 46.8193C52.8846 45.2179 51.8628 42.6118 50.1096 42.2239C50.3901 41.2292 50.0796 40.0555 49.3683 39.3493C48.657 38.6431 47.5651 38.4342 46.7036 38.852C47.0642 38.3546 46.8739 37.5589 46.4431 37.1113C46.0123 36.6637 45.4112 36.4946 44.8302 36.3752C43.5479 36.1265 41.8148 36.4647 41.7246 37.8772C41.4141 37.161 40.6327 36.8129 39.9214 36.8527C39.2101 36.8825 38.559 37.2306 37.9279 37.5589C36.0846 38.5535 31.4763 43.0893 34.9024 45.3671Z" fill="#D8C8BA"/>
<path d="M71.0471 45.3671C71.3377 45.5561 71.6683 45.6953 71.8486 46.0136C72.099 46.4612 71.8987 47.0282 71.9187 47.5454C71.9488 48.4108 72.7302 49.1866 73.5116 49.127C73.2711 49.863 73.0307 50.6588 73.2511 51.4147C73.4715 52.1707 74.3731 52.7277 74.9241 52.2403C74.5434 54.1202 76.5871 56.0698 78.21 55.3735C77.4386 56.776 78.771 58.9544 80.2536 58.7256C80.6043 58.6759 80.9449 58.5167 81.2955 58.4471C81.9266 58.3277 82.5878 58.5068 83.229 58.4272C83.8701 58.3576 84.5613 57.8702 84.5313 57.154C85.2325 57.8602 86.3746 57.9696 87.136 57.3927C87.8973 56.8258 88.2179 55.6322 87.8673 54.6574C88.6386 54.3888 89.38 53.8318 89.6004 52.9764C89.8208 52.1209 89.2898 51.0169 88.4784 50.9671C89.37 49.8034 89.1696 47.804 88.0576 46.8193C89.0293 45.2179 88.0075 42.6118 86.2544 42.2239C86.5349 41.2292 86.2243 40.0555 85.513 39.3493C84.8018 38.6431 83.7098 38.4342 82.8483 38.852C83.2089 38.3546 83.0186 37.5589 82.5878 37.1113C82.157 36.6637 81.556 36.4946 80.9749 36.3752C79.6926 36.1265 77.9595 36.4647 77.8694 37.8772C77.5588 37.161 76.7774 36.8129 76.0661 36.8527C75.3549 36.8825 74.7037 37.2306 74.0726 37.5589C72.2393 38.5535 67.631 43.0893 71.0471 45.3671Z" fill="#D8C8BA"/>
<path d="M35.6638 54.3989C36.8559 59.1037 37.6073 63.9179 37.9178 68.762C38.9196 68.752 39.9114 68.8515 40.8831 69.0703C40.6928 64.3158 40.5024 59.5413 41.0534 54.8266C41.2337 53.2749 41.4141 51.4745 40.2921 50.3903C39.3203 49.4553 37.5972 49.5349 36.5854 50.4301C35.5736 51.3253 35.2631 52.8571 35.6638 54.1502C35.5335 53.6727 35.3933 53.1853 35.2631 52.7079L35.6638 54.3989Z" fill="#A48570"/>
<path d="M73.2411 53.5334C73.0107 58.3775 72.3395 63.2116 71.2275 67.9364C72.1892 68.2049 73.1108 68.5928 73.9824 69.0802C75.1745 64.4749 76.3767 59.8496 78.2901 55.483C78.9112 54.0507 79.6125 52.3796 78.8411 51.0169C78.1799 49.8432 76.5169 49.4254 75.2847 49.9924C74.0525 50.5594 73.3112 51.942 73.3212 53.2848C73.3312 52.7874 73.3513 52.2802 73.3613 51.7828L73.2411 53.5334Z" fill="#A48570"/>
<path d="M13.9249 22.2808C11.1099 22.6985 9.20648 24.0015 6.26121 24.8769C5.61004 25.0659 4.64832 25.4438 3.58642 25.3344C2.75493 25.2548 1.87335 24.8769 1.04186 23.8822C-0.130233 22.4697 -0.29052 20.2317 0.450807 18.5507C2.91522 12.9805 10.0279 7.13183 14.6362 5.24194C18.4731 3.67035 21.5886 4.31689 25.2852 7.68885C27.7597 9.94676 29.9436 15.3678 30.3543 18.68C30.4846 19.6946 30.5346 20.7589 30.194 21.7237C29.8134 22.8079 28.9718 23.6733 28.0402 24.3596C26.0967 25.8019 22.6706 27.1149 20.7271 25.1255C19.8756 24.2502 19.6351 23.1461 18.423 22.5294C17.0405 21.8232 15.3875 22.0719 13.9249 22.2808Z" fill="#A48570"/>
<path d="M20.1461 23.5638C19.1342 24.2104 19.024 25.8615 19.9357 26.6374C19.4548 27.5226 19.0441 28.7759 19.8355 29.4026C20.0459 29.5617 20.3063 29.6512 20.5067 29.8203C21.1278 30.3376 20.9074 31.3024 20.9675 32.1081C21.0176 32.9138 22.0194 33.7792 22.5103 33.1426C21.9894 33.8985 21.9793 34.9728 22.5003 35.7287C23.0212 36.4847 24.023 36.8825 24.9246 36.6836C24.1933 38.4342 26.0767 40.6325 27.94 40.1849C27.379 41.3685 27.6595 42.8904 28.6012 43.8154C29.5429 44.7405 31.0756 44.9892 32.2677 44.4222C31.7969 45.397 31.9772 46.6403 32.6885 47.456C33.4098 48.2716 34.632 48.5998 35.6638 48.2616C35.5737 49.306 36.3651 50.3505 37.3969 50.5693C38.1382 50.7284 38.9196 50.4997 39.651 50.6489C40.222 50.7682 40.7229 51.0965 41.2839 51.2357C41.8449 51.375 42.5662 51.2357 42.7866 50.7085C43.2774 51.3252 44.2091 51.3352 45.0005 51.2854C45.6317 51.2457 46.2728 51.2059 46.9039 51.1661C47.9258 51.1064 49.0678 50.9672 49.6889 50.1615C49.6088 51.1462 50.6406 51.932 51.6324 51.9618C52.6242 52.0016 53.5458 51.5142 54.4174 51.0368C55.4693 52.2204 57.6732 52.0613 58.5448 50.7384C59.9172 51.6833 61.7806 51.8723 63.3133 51.2158C63.8142 50.997 64.285 50.6986 64.816 50.619C65.3069 50.5394 65.8078 50.6489 66.2986 50.7483C67.4106 50.9871 68.5627 51.2258 69.6947 51.0666C70.8267 50.9075 71.9588 50.2808 72.3996 49.2364C74.6336 50.4897 77.659 50.1814 79.5924 48.5103C82.5778 48.5799 85.503 46.6403 86.5649 43.8652C87.6168 43.8055 88.3381 42.6716 88.3281 41.6271C88.318 40.5827 87.7871 39.6179 87.2662 38.7127C88.2679 38.2651 88.7087 37.0218 88.5284 35.9475C88.3581 34.8733 87.7069 33.9383 87.0458 33.063C87.8672 33.1724 88.5785 32.3767 88.6887 31.561C88.7989 30.7454 88.4883 29.9397 88.1778 29.1837C87.6769 27.9603 87.176 26.7368 86.6851 25.5134C86.3846 24.7773 86.074 24.0114 85.513 23.4345C84.952 22.8576 84.0905 22.5095 83.3291 22.778C82.8583 20.7389 80.7144 19.227 78.6207 19.4558C78.4404 18.1428 77.3284 17.1084 76.0761 16.6608C74.8239 16.2132 73.4514 16.2629 72.1291 16.4121C71.3877 15.129 69.7548 14.6018 68.2722 14.6416C66.7795 14.6814 64.8961 16.0839 64.8961 16.0839C64.8961 16.0839 63.7841 15.2881 61.9509 15.6263C60.0575 15.9744 58.134 16.8 58.134 16.8C57.583 16.8299 55.9902 16.3325 53.1952 16.3325C50.1397 16.3325 48.6571 17.9041 48.6571 17.9041C47.6352 17.3471 44.9404 17.2675 43.6181 18.1926C41.5544 16.611 38.6492 16.1833 36.2148 17.0885C35.4534 16.0142 34.091 15.3677 32.7686 15.4672C32.6785 14.4725 31.6466 13.7663 30.6448 13.6767C29.643 13.5872 29.7733 14.3034 28.8416 14.6714C28.6112 14.7609 27.8098 14.2636 27.0384 14.6117C26.2971 14.9499 25.7461 15.3279 25.7461 15.9844C25.7461 15.9844 24.2133 15.4075 23.2015 16.4121C22.7708 16.8398 22.6105 17.5659 22.9511 18.0633C22.6706 17.6554 21.6988 18.2821 21.0777 18.9784C20.3364 19.794 20.9976 20.8583 20.9976 20.8583C20.0258 20.7489 19.1543 22.41 20.1461 23.5638Z" fill="#F9E6D5"/>
<path d="M20.9074 30.1486C20.8673 30.2082 20.8172 30.248 20.7672 30.2779C20.7772 30.2978 20.7872 30.3177 20.7972 30.3276C20.8273 30.2779 20.8673 30.2082 20.9074 30.1486Z" fill="#EFDDD0"/>
<path d="M23.3217 33.6896C22.9911 33.7593 22.6405 33.7593 22.2999 33.6797C22.0093 34.3859 22.0695 35.2314 22.5002 35.868C22.951 36.5245 23.7625 36.9124 24.5539 36.8726C23.502 36.2261 22.8308 34.8534 23.3217 33.6896Z" fill="#EFDDD0"/>
<path d="M88.7087 31.6904C88.8189 30.8747 88.5084 30.069 88.1978 29.3131C87.6969 28.0896 87.196 26.8662 86.7051 25.6427C86.4046 24.9067 86.094 24.1408 85.533 23.5638C85.8937 24.4392 86.2443 25.3145 86.605 26.1898C86.9155 26.9557 87.2361 27.7614 87.1159 28.5671C87.0057 29.3827 86.2944 30.1784 85.4729 30.069C86.1341 30.9443 86.7753 31.8793 86.9556 32.9536C87.1259 34.0278 86.6951 35.2811 85.6933 35.7188C86.2143 36.6239 86.7452 37.5888 86.7552 38.6332C86.7652 39.6776 86.044 40.8115 84.9921 40.8712C83.9302 43.6364 80.9949 45.586 78.0196 45.5164C76.0861 47.1874 73.0607 47.4958 70.8267 46.2425C70.3759 47.2869 69.2439 47.9135 68.1219 48.0727C66.9899 48.2318 65.8478 47.9931 64.7258 47.7544C64.2349 47.645 63.734 47.5455 63.2432 47.6251C62.7122 47.7146 62.2313 48.013 61.7405 48.2219C60.2077 48.8784 58.3444 48.6993 56.9719 47.7444C56.1004 49.0674 53.9065 49.2265 52.8446 48.0428C51.973 48.5203 51.0513 49.0077 50.0596 48.9679C49.0678 48.9281 48.0359 48.1523 48.1161 47.1675C47.495 47.9732 46.3529 48.1025 45.3311 48.1721C44.7 48.2119 44.0588 48.2517 43.4277 48.2915C42.6363 48.3412 41.7046 48.3412 41.2137 47.7146C40.9933 48.2517 40.2721 48.381 39.7111 48.2418C39.15 48.1025 38.6391 47.7743 38.0781 47.6549C37.3368 47.5057 36.5554 47.7345 35.8241 47.5753C34.7923 47.3565 34.0008 46.3121 34.091 45.2677C33.4398 45.4766 32.7286 45.4268 32.0974 45.1583C31.9171 46.0037 32.1475 46.9387 32.7185 47.5952C33.4398 48.4109 34.662 48.7391 35.6939 48.4009C35.6037 49.4453 36.3951 50.4897 37.427 50.7086C38.1683 50.8677 38.9497 50.6389 39.681 50.7881C40.252 50.9075 40.7529 51.2357 41.3139 51.375C41.8749 51.5143 42.5962 51.375 42.8166 50.8478C43.3075 51.4645 44.2392 51.4745 45.0306 51.4247C45.6617 51.3849 46.3028 51.3452 46.934 51.3054C47.9558 51.2457 49.0978 51.1064 49.719 50.3008C49.6388 51.2855 50.6707 52.0713 51.6624 52.1011C52.6542 52.1409 53.5759 51.6535 54.4474 51.1761C55.4993 52.3597 57.7032 52.2006 58.5748 50.8777C59.9473 51.8226 61.8106 52.0116 63.3433 51.3551C63.8442 51.1363 64.3151 50.8379 64.846 50.7583C65.3369 50.6787 65.8378 50.7881 66.3287 50.8876C67.4407 51.1263 68.5927 51.3651 69.7248 51.2059C70.8568 51.0468 71.9888 50.4201 72.4296 49.3757C74.6636 50.629 77.689 50.3206 79.6225 48.6496C82.6078 48.7192 85.533 46.7796 86.5949 44.0044C87.6468 43.9448 88.3681 42.8108 88.3581 41.7664C88.3481 40.722 87.8171 39.7572 87.2962 38.852C88.298 38.4044 88.7388 37.1611 88.5585 36.0868C88.3881 35.0126 87.737 34.0776 87.0758 33.2023C87.8772 33.3017 88.5985 32.506 88.7087 31.6904Z" fill="#EFDDD0"/>
<path d="M26.3271 37.1909C25.8162 37.3103 25.3053 37.2407 24.8545 37.0219C24.4838 38.2552 25.3253 39.6478 26.4874 40.165C25.9765 39.2797 25.8863 38.1359 26.3271 37.1909Z" fill="#EFDDD0"/>
<path d="M31.0756 44.462C30.3543 43.6464 30.184 42.403 30.6548 41.4283C29.7231 41.8759 28.5711 41.8062 27.6695 41.3188C27.5793 42.2737 27.9099 43.2784 28.6011 43.9547C29.3425 44.6808 30.4444 44.9892 31.4663 44.8101C31.326 44.7107 31.1958 44.5913 31.0756 44.462Z" fill="#EFDDD0"/>
<path d="M28.2405 44.0542C28.491 44.283 28.8115 44.472 28.9418 44.8102C29.1221 45.2876 28.8416 45.8148 28.7915 46.332C28.7013 47.1974 29.3625 48.0727 30.1439 48.1224C29.8033 48.8088 29.4427 49.5647 29.5529 50.3505C29.6631 51.1263 30.4745 51.8127 31.0856 51.4049C30.4344 53.2052 32.1776 55.4333 33.8806 54.9757C32.9189 56.2589 33.9107 58.5964 35.4234 58.5864C35.784 58.5864 36.1346 58.477 36.4953 58.4571C37.1364 58.4273 37.7676 58.6958 38.4187 58.7157C39.0599 58.7356 39.8212 58.3576 39.8914 57.6415C40.4824 58.4372 41.5944 58.7058 42.4359 58.2482C43.2774 57.7907 43.7683 56.6567 43.5579 55.6521C44.3594 55.493 45.1708 55.0454 45.5114 54.2397C45.852 53.424 45.4914 52.2503 44.69 52.0912C45.7418 51.0667 45.832 49.0574 44.8703 47.9235C46.0624 46.4713 45.4213 43.7458 43.7483 43.1192C44.169 42.1743 44.0288 40.9707 43.4277 40.175C42.8166 39.3693 41.7747 39.0112 40.8631 39.2996C41.2939 38.862 41.2238 38.0463 40.8531 37.5391C40.4924 37.0318 39.9214 36.7732 39.3604 36.5842C38.1282 36.1565 36.355 36.246 36.0645 37.6286C35.8642 36.8826 35.1329 36.425 34.4316 36.3554C33.7303 36.2858 33.0291 36.5344 32.3579 36.7732C30.4044 37.4794 25.185 41.3188 28.2405 44.0542Z" fill="#F9E6D5"/>
<path d="M37.968 37.161C38.8796 36.8726 39.9215 37.2307 40.5325 38.0363C40.803 38.3944 40.9733 38.8221 41.0535 39.2797C41.4542 38.8321 41.3841 38.0363 41.0234 37.539C40.6628 37.0317 40.0918 36.7731 39.5308 36.5841C39.1401 36.4449 38.6993 36.3653 38.2685 36.3553C38.2585 36.6537 38.1683 36.9522 37.968 37.161Z" fill="#EFDDD0"/>
<path d="M44.8503 52.0912C45.9022 51.0666 45.9923 49.0574 45.0306 47.9235C46.2227 46.4712 45.5816 43.7458 43.9086 43.1192C44.3293 42.1742 44.1891 40.9707 43.588 40.175C42.9869 39.3792 41.9551 39.0211 41.0535 39.2996C41.1436 39.8666 41.0835 40.4734 40.8531 40.9906C42.5261 41.6172 43.1572 44.3426 41.9751 45.7949C42.9369 46.9288 42.8467 48.938 41.7948 49.9626C42.5962 50.1217 42.9569 51.2954 42.6163 52.1111C42.2757 52.9267 41.4542 53.3743 40.6628 53.5235C40.8732 54.5381 40.3823 55.672 39.5408 56.1196C38.6993 56.5772 37.5873 56.3086 36.9962 55.5128C36.9261 56.2191 36.1647 56.607 35.5236 56.5871C34.9025 56.5672 34.3014 56.3185 33.6803 56.3285C33.7404 57.4525 34.5418 58.6063 35.5937 58.5963C35.9544 58.5963 36.305 58.4869 36.6656 58.467C37.3068 58.4372 37.9379 58.7058 38.5891 58.7257C39.2302 58.7455 39.9916 58.3676 40.0617 57.6514C40.6528 58.4471 41.7648 58.7157 42.6063 58.2582C43.4478 57.8006 43.9386 56.6667 43.7283 55.662C44.5297 55.5029 45.3412 55.0553 45.6818 54.2496C46.0124 53.424 45.6517 52.2503 44.8503 52.0912Z" fill="#EFDDD0"/>
<path d="M26.5375 3.89902C28.3608 3.54093 30.2441 3.71003 32.0975 3.86918C30.5747 6.45534 28.1003 8.46458 25.2552 9.42942C24.564 9.65819 23.8126 9.83724 23.1214 9.62835C21.198 9.06139 21.5987 7.10187 22.6105 5.96794C23.6023 4.85391 25.0749 4.18747 26.5375 3.89902Z" fill="#A48570"/>
<path d="M26.2069 5.58008C27.4792 5.03301 28.8717 4.84402 30.2442 4.65503C29.6831 5.5204 28.9118 6.23657 28.1204 6.903C27.5493 7.39039 26.9583 7.86783 26.3672 8.32539C25.8864 8.69342 25.3754 9.06145 24.7744 9.17086C24.3336 9.25043 23.6524 9.15097 23.3819 8.74315C23.1214 8.35523 23.4921 7.86783 23.7225 7.53959C24.3135 6.64438 25.2352 5.99784 26.2069 5.58008Z" fill="#846D5C"/>
<path d="M15.4677 10.5634C16.2792 10.5634 17.2208 10.3147 17.5414 9.57862C18.4631 10.1555 19.525 10.6031 20.6069 10.5136C21.6888 10.434 22.7808 9.69799 22.9912 8.63368C23.0613 8.29549 23.0312 7.93741 22.9912 7.58927C22.9311 7.13172 22.8209 6.67417 22.6105 6.25641C22.2599 5.56013 21.6287 5.02301 20.9175 4.69476C20.2062 4.36652 19.4148 4.22727 18.6334 4.18748C16.5396 4.08801 14.4258 4.7445 12.7428 5.9779C12.0215 6.50508 10.9496 7.33066 10.6791 8.22586C10.5589 8.65358 10.7192 8.98182 11.0899 9.22054C11.3002 9.3598 11.5507 9.42942 11.8011 9.42942C12.0215 9.42942 12.3221 9.25038 12.4924 9.30012C12.6527 9.34985 12.9332 9.75767 13.1035 9.87703C13.3138 10.0262 13.5543 10.1456 13.7947 10.2451C14.3156 10.4639 14.8967 10.5634 15.4677 10.5634Z" fill="#846D5C"/>
<path d="M10.1983 6.01773C10.2283 6.19677 10.2884 6.37581 10.2985 6.5648C10.3085 6.78363 10.2383 6.99251 10.2083 7.21134C10.1482 7.80815 10.5188 8.42485 11.0798 8.65362C11.6409 8.87245 12.3421 8.68346 12.7128 8.20602C13.384 9.06144 14.506 9.53889 15.5879 9.42947C16.6699 9.32006 17.6716 8.62378 18.1525 7.649C18.7035 8.83267 20.2763 9.40958 21.4785 8.87245C22.6806 8.32538 23.2817 6.76374 22.7407 5.57013C23.452 5.69943 24.1733 4.98327 24.033 4.28699C24.5039 4.66497 25.2853 4.40636 25.5357 3.85928C25.7862 3.32216 25.5658 2.63583 25.125 2.23796C24.6842 1.84009 24.0631 1.68094 23.462 1.671C22.9511 0.656425 21.8191 -0.0199545 20.677 -6.09415e-05C19.535 0.0198326 18.423 0.745946 17.9521 1.78041C17.4513 1.22339 16.6198 0.994615 15.8985 1.22339C15.1772 1.45217 14.6362 2.12855 14.5661 2.86461C13.8348 2.5662 13.0033 2.37722 12.262 2.65573C11.3203 3.01381 11.5807 3.6504 11.2201 4.30689C10.8795 4.93353 10.048 5.08274 10.1983 6.01773Z" fill="#F9E6D5"/>
<path d="M11.6508 12.5925C11.3202 12.8611 10.9896 13.2689 11.1299 13.6767C11.2301 13.9751 11.5506 14.1541 11.8612 14.2138C12.1718 14.2735 12.4923 14.2735 12.8029 14.3531C13.2437 14.4724 13.6244 14.7708 14.0551 14.9101C14.7163 15.119 15.4376 14.93 16.0587 14.6415C16.6097 14.3829 17.1707 13.9651 17.2108 13.3683C17.2408 12.871 16.8902 12.4234 16.4895 12.115C15.0068 10.9911 13.0133 11.4884 11.6508 12.5925Z" fill="#846D5C"/>
<path d="M15.2172 13.4181C15.2172 14.1144 14.6562 14.6714 13.9549 14.6714C13.2537 14.6714 12.6927 14.1144 12.6927 13.4181C12.6927 12.7218 13.2537 12.1648 13.9549 12.1648C14.6562 12.1648 15.2172 12.7218 15.2172 13.4181Z" fill="#231F20"/>
<path d="M13.985 13.1993C13.985 13.438 13.7947 13.627 13.5542 13.627C13.3138 13.627 13.1235 13.438 13.1235 13.1993C13.1235 12.9606 13.3138 12.7716 13.5542 12.7716C13.7847 12.7617 13.985 12.9606 13.985 13.1993Z" fill="white"/>
<path d="M0.901597 20.5798C0.851507 20.908 0.961704 21.2462 1.0719 21.5645C1.21215 21.9723 1.3524 22.3702 1.49265 22.778C1.53273 22.8775 1.61287 23.0068 1.71305 22.9769C1.75312 22.957 1.78317 22.9173 1.80321 22.8775C1.89337 22.6785 1.82325 22.4498 1.78317 22.2309C1.71305 21.9027 1.683 21.5744 1.69301 21.2363C1.70303 21.0274 1.73308 20.8085 1.84328 20.6394C1.93344 20.5101 2.06368 20.4107 2.18389 20.3013C2.32414 20.172 2.44436 20.0327 2.55455 19.8835C2.69481 19.6846 2.78497 19.3762 2.59463 19.227C2.07369 18.7893 0.971722 20.1322 0.901597 20.5798Z" fill="#231F20"/>
<path d="M3.02539 25.2349C3.11555 25.2548 4.2576 24.5287 4.77853 24.0413C5.30948 23.5539 5.90054 22.7184 5.90054 22.7184H6.22111C6.22111 22.7184 5.69016 23.5241 5.23935 23.9816C4.77853 24.4292 3.58639 25.3443 3.58639 25.3443L3.02539 25.2349Z" fill="#231F20"/>
<path d="M37.7676 66.7725C37.7676 66.7725 37.0563 69.2791 37.2266 69.9953C37.3869 70.7015 41.2738 71.0297 41.2037 70.3732C41.1236 69.7168 40.793 66.4542 40.793 66.4542L37.7676 66.7725Z" fill="#231F20"/>
<path d="M47.3347 66.4443C47.3347 66.4443 46.5032 69.8263 46.8338 70.254C47.1644 70.6916 50.8109 70.4728 50.8009 70.254C50.7909 70.0351 50.3901 66.4443 50.3901 66.4443H47.3347Z" fill="#231F20"/>
<path d="M71.6482 66.0266C71.6482 66.0266 70.0453 68.2149 70.426 69.0802C70.8067 69.9456 73.6117 70.8806 73.9924 70.5225C74.3731 70.1644 74.5935 66.703 74.5935 66.703L71.6482 66.0266Z" fill="#231F20"/>
<path d="M83.1288 66.8721C83.1288 66.8721 82.0569 70.4828 82.8282 70.7513C83.6597 71.0398 85.6132 71.0696 86.5449 70.9204C87.0658 70.8309 86.1542 66.8721 86.1542 66.8721H83.1288Z" fill="#231F20"/>
<path d="M63.143 47.5355C63.4035 46.6801 64.5556 46.5607 65.4572 46.6005C65.3169 46.133 65.1767 45.6456 65.2568 45.1682C65.337 44.6907 65.7277 44.2232 66.2185 44.2133C66.5191 44.2033 66.8497 44.3724 67.1101 44.2232C67.6411 43.9248 67.1101 42.9799 67.5309 42.5323C67.8414 42.1941 68.4525 42.403 68.8132 42.1145C69.2439 41.7863 69.0135 41.0999 69.1938 40.5927C69.4243 39.966 70.426 39.8168 70.8368 40.344C71.0472 40.1053 71.2676 39.8566 71.5681 39.7273C71.8686 39.6079 72.2593 39.6577 72.4296 39.9262C72.5699 40.1451 72.5398 40.4534 72.7202 40.6325C72.8504 40.7717 73.0608 40.7916 73.2411 40.8413C74.4633 41.1497 75.0243 42.8605 74.2329 43.8353C74.9341 44.273 75.3248 45.1383 75.1946 45.944C75.0543 46.7497 74.3931 47.446 73.5917 47.625C74.2529 48.0925 74.1227 49.1668 73.5416 49.7337C72.9706 50.3007 72.1291 50.4797 71.3377 50.6389C70.8368 50.7384 70.3359 50.8378 69.835 50.9373C69.0035 51.1064 68.142 51.2655 67.3105 51.1163C66.6293 50.997 66.0082 50.6687 65.4171 50.3305C64.5055 49.8332 62.7323 48.8385 63.143 47.5355Z" fill="#EFDDD0"/>
<path d="M69.5845 39.8964C69.7147 40.2247 69.9251 40.5529 69.885 40.911C69.8249 41.4282 69.314 41.7465 69.0135 42.1742C68.5126 42.8904 68.723 43.9846 69.4342 44.4322C68.7831 44.8698 68.0818 45.3572 67.8113 46.0933C67.5408 46.8293 67.9916 47.8439 68.753 47.8041C67.2804 49.0574 67.8614 51.9022 69.6847 52.3597C68.1619 52.9963 67.9816 55.5626 69.4142 56.3186C69.7548 56.4976 70.1355 56.5772 70.4861 56.7463C71.1072 57.0447 71.5781 57.6017 72.1791 57.9399C72.7802 58.2781 73.6718 58.3278 74.0825 57.7409C74.2629 58.7456 75.1845 59.5413 76.1963 59.5612C77.2081 59.5811 78.2099 58.8351 78.5005 57.8404C79.3319 58.109 80.3137 58.1289 81.025 57.5818C81.7362 57.0447 81.9566 55.8212 81.2754 55.2841C82.7581 54.9161 83.7999 53.1853 83.4393 51.7132C85.2525 51.0368 85.9538 48.3214 84.6715 46.9189C85.513 46.3022 85.9638 45.1782 85.7735 44.1636C85.5831 43.149 84.7617 42.3036 83.7699 42.0947C84.381 41.9256 84.7116 41.1696 84.6014 40.543C84.5012 39.9163 84.0804 39.3991 83.6497 38.9415C82.698 37.9369 80.9749 37.1213 80.0332 38.1955C80.2035 37.4296 79.7327 36.6637 79.1015 36.246C78.4704 35.8282 77.689 35.689 76.9377 35.5696C74.7638 35.2016 68.0017 35.9376 69.5845 39.8964Z" fill="#F9E6D5"/>
<path d="M81.7864 39.2896C82.7882 39.4985 83.5996 40.3439 83.7899 41.3585C83.84 41.637 83.84 41.9155 83.81 42.204C84.411 42.025 84.7216 41.2789 84.6214 40.6523C84.5212 40.0257 84.1005 39.5084 83.6697 39.0509C83.3792 38.7425 83.0086 38.4541 82.6179 38.2352C82.5377 38.7127 82.2372 39.1603 81.7864 39.2896Z" fill="#EFDDD0"/>
<path d="M85.7935 44.273C85.6032 43.2683 84.7917 42.4229 83.81 42.214C83.6998 42.96 83.2991 43.6762 82.688 44.1138C83.9703 45.5163 83.269 48.2318 81.4558 48.9082C81.8164 50.3902 80.7745 52.111 79.2919 52.479C79.9731 53.0261 79.7527 54.2396 79.0414 54.7768C78.3302 55.3139 77.3484 55.294 76.5169 55.0354C76.2264 56.03 75.2246 56.776 74.2128 56.7562C73.201 56.7363 72.2793 55.9405 72.099 54.9359C71.6883 55.5228 70.7967 55.473 70.1956 55.1348C69.6046 54.7966 69.1437 54.2496 68.5326 53.9512C68.3022 54.8961 68.5827 55.9803 69.4343 56.4279C69.7749 56.607 70.1555 56.6865 70.5062 56.8556C71.1273 57.154 71.5981 57.711 72.1992 58.0492C72.8003 58.3874 73.6919 58.4372 74.1026 57.8503C74.2829 58.8549 75.2046 59.6507 76.2164 59.6706C77.2282 59.6905 78.23 58.9444 78.5205 57.9498C79.352 58.2183 80.3338 58.2382 81.045 57.6912C81.7563 57.154 81.9767 55.9306 81.2955 55.3935C82.7781 55.0254 83.82 53.2947 83.4594 51.8226C85.2726 51.1462 85.9739 48.4307 84.6916 47.0282C85.5331 46.4115 85.9839 45.2875 85.7935 44.273Z" fill="#EFDDD0"/>
<path opacity="0.35" d="M30.2541 20.56C30.8953 20.0527 31.9171 20.1024 32.4982 20.6694C32.8388 20.0029 33.3697 19.3763 34.091 19.1774C34.8123 18.9685 35.7239 19.3365 35.9043 20.0626C36.295 19.3266 37.2066 18.8988 38.0281 19.0878C38.8495 19.2669 39.5007 20.0328 39.5307 20.8683C40.3121 20.1521 41.5544 19.8836 42.466 20.4306C43.3776 20.9678 43.6882 22.3802 42.9469 23.1362C43.4978 22.6587 44.4095 22.7681 44.9404 23.2655C45.4714 23.7628 45.6417 24.5586 45.5315 25.2747C45.3111 26.6971 43.9887 27.8708 42.5461 27.9305C42.4259 27.9305 42.2757 27.9106 42.2456 27.8012C42.2155 27.6918 42.456 27.652 42.4159 27.7614C41.354 27.8708 40.2921 26.9955 40.212 25.9412C40.1819 25.4836 40.5726 24.8967 40.9633 25.1355C40.1218 25.4538 39.0599 25.0559 38.6391 24.2601C38.1082 25.3742 36.2849 25.5234 35.5636 24.5287C35.203 25.2349 34.7322 25.9113 34.061 26.3291C33.3898 26.7468 32.4781 26.8662 31.7969 26.4584C31.7268 27.3238 30.8953 28.0001 30.0237 28.0598C29.1522 28.1195 28.3107 27.6421 27.7697 26.9657C27.4792 26.5976 27.2588 26.1301 27.369 25.6825C27.4792 25.2349 28.0402 24.8868 28.4409 25.1355C27.8799 25.2648 27.2688 24.7078 27.369 24.1408C27.4692 23.5738 28.2305 23.2456 28.7114 23.5539C27.6996 22.8775 29.1522 22.5195 29.3625 22.241C29.7633 21.7436 29.6731 21.0274 30.2541 20.56Z" fill="white"/>
<path opacity="0.35" d="M62.3616 25.1851C62.8124 24.6679 63.6439 24.5286 64.2349 24.8768C64.1047 24.1407 64.4654 23.335 65.1065 22.9371C65.7477 22.5393 66.6392 22.589 67.2403 23.0366C67.1902 22.3105 67.641 21.5645 68.3223 21.276C68.9935 20.9776 69.845 21.1467 70.3559 21.6839C71.3677 20.3908 73.7119 20.5599 74.5334 21.9723C75.3348 21.6142 76.2765 21.4451 77.088 21.7933C77.8994 22.1315 78.4604 23.1162 78.1198 23.9119C78.8712 23.6334 79.7227 24.3197 79.8028 25.1155C79.883 25.9013 79.3921 26.6572 78.761 27.1446C78.2601 27.5326 77.5989 27.7912 76.9878 27.642C76.3667 27.4928 75.8758 26.8064 76.0962 26.2196C75.5352 26.319 74.9742 26.4185 74.4132 26.508C74.7037 27.1645 74.5634 27.9901 74.0625 28.5173C73.5616 29.0445 72.7502 29.2334 72.069 28.9848C72.1391 29.1837 72.1992 29.3827 72.2693 29.5716C71.5781 29.87 70.7967 29.9297 70.0654 29.7507C70.3259 30.2779 69.9151 30.9443 69.3641 31.1731C68.8131 31.4018 68.192 31.3223 67.601 31.2427C67.5809 32.0981 67.0299 32.9237 66.2485 33.2818C65.4671 33.6399 64.4754 33.5205 63.8042 32.9834C64.0747 33.2022 62.8324 33.7393 62.6521 33.7294C62.021 33.6697 61.6303 33.0928 61.6102 32.5059C59.256 32.1976 61.0893 27.6818 62.3015 27.0651C61.9609 26.4782 61.9008 25.7222 62.3616 25.1851Z" fill="white"/>
<path opacity="0.35" d="M12.3921 5.41094C11.9313 5.50046 11.4605 5.66955 11.17 6.02764C10.8794 6.39567 10.8594 6.99247 11.2301 7.28093C11.5306 7.5097 11.9714 7.45002 12.282 7.25109C12.5925 7.05215 12.8129 6.73386 13.0233 6.41556C13.0333 7.00242 13.5642 7.5296 14.1553 7.54949C14.7464 7.56939 15.3074 7.07205 15.3575 6.49513C15.7682 6.7438 16.3292 6.72391 16.7299 6.4454C17.1206 6.16689 17.331 5.64966 17.2408 5.18216C17.882 5.48056 18.5632 5.77897 19.2544 5.66955C19.9457 5.57009 20.5968 4.86386 20.3664 4.20738C20.5768 4.5953 21.1779 4.67488 21.5085 4.37647C21.839 4.07807 21.8491 3.52105 21.5686 3.18286C21.2881 2.84467 20.7771 2.72531 20.3564 2.86457C20.2863 2.88446 20.2061 2.93419 20.2161 3.01377C20.2262 3.08339 20.3764 3.03366 20.3163 2.98393C19.7253 2.42691 18.8036 2.24787 18.0423 2.54627C17.7417 2.66563 17.4412 3.08339 17.7117 3.27238C17.4913 2.9143 17.0304 2.71536 16.6097 2.79494C16.1889 2.87451 15.8383 3.2326 15.7682 3.65036C15.4376 3.48126 15.097 3.31217 14.7163 3.28233C14.3456 3.25249 13.9349 3.39174 13.7546 3.71999C13.1635 3.28233 12.6526 3.95871 12.292 4.31679C12.0816 4.52567 11.7911 4.53562 11.8412 4.93349C11.8812 5.14237 12.1417 5.46067 12.3921 5.41094Z" fill="white"/>
</g>
<defs>
<clipPath id="clip0_1_3065">
<rect width="95" height="71" fill="white"/>
</clipPath>
</defs>
</svg>
