<?xml version="1.0" encoding="utf-8"?>
<!-- Generator: Adobe Illustrator 26.5.0, SVG Export Plug-In . SVG Version: 6.00 Build 0)  -->
<svg version="1.1" id="Layer_1" xmlns="http://www.w3.org/2000/svg" xmlns:xlink="http://www.w3.org/1999/xlink" x="0px" y="0px"
	 viewBox="0 0 121 121" style="enable-background:new 0 0 121 121;" xml:space="preserve">
<style type="text/css">
	.st0{fill:#53C351;}
</style>
<g>
	<path class="st0" d="M53.5,43c1.4,0,2.8-0.6,3.8-1.6c1-1,1.6-2.4,1.6-3.8c0-1.4-0.6-2.8-1.6-3.8c-1-1-2.4-1.6-3.8-1.6
		c-1.4,0-2.8,0.6-3.8,1.6c-1,1-1.6,2.4-1.6,3.8c0,1.4,0.6,2.8,1.6,3.8C50.7,42.4,52.1,43,53.5,43z M53.5,34.9c0.7,0,1.4,0.3,1.9,0.8
		c0.5,0.5,0.8,1.2,0.8,1.9s-0.3,1.4-0.8,1.9c-0.5,0.5-1.2,0.8-1.9,0.8c-0.7,0-1.4-0.3-1.9-0.8c-0.5-0.5-0.8-1.2-0.8-1.9
		s0.3-1.4,0.8-1.9C52.1,35.1,52.8,34.9,53.5,34.9z"/>
	<path class="st0" d="M44.7,49v6.1c0,0.4,0.1,0.7,0.4,1c0.3,0.3,0.6,0.4,1,0.4h14.9c0.4,0,0.7-0.1,1-0.4c0.3-0.3,0.4-0.6,0.4-1V49
		c0-1.4-0.7-2.6-1.8-3.4c-1.2-0.8-2.7-1-4-0.5c-1.9,0.7-3.9,0.7-5.8,0c-1.3-0.5-2.9-0.3-4.1,0.5C45.4,46.4,44.7,47.6,44.7,49z
		 M47.4,49c0-0.5,0.2-0.9,0.6-1.2c0.5-0.3,1.1-0.4,1.6-0.2c2.5,0.9,5.2,0.9,7.7,0c0.5-0.2,1.1-0.1,1.6,0.2c0.4,0.3,0.6,0.7,0.6,1.2
		h1.3l-1.3,0v4.7H47.4L47.4,49z"/>
	<path class="st0" d="M81.6,92.2v8.8H24.2V20h2.7v29.7c0,0.5,0.2,0.9,0.6,1.1c0.4,0.2,0.9,0.3,1.3,0.1l4.9-2.4l4.7,2.4
		c0.4,0.2,0.9,0.2,1.3-0.1c0.4-0.2,0.6-0.7,0.6-1.2V20h41.2v6.7H44.4c-0.7,0-1.3,0.6-1.3,1.3s0.6,1.4,1.3,1.4h37.2v26.4
		c0.4,0,0.9-0.1,1.3-0.1c0.5,0,0.9,0,1.3,0.1V20c0-0.7-0.3-1.4-0.8-1.9c-0.5-0.5-1.2-0.8-1.9-0.8H24.2c-0.7,0-1.4,0.3-1.9,0.8
		c-0.5,0.5-0.8,1.2-0.8,1.9v81c0,0.7,0.3,1.4,0.8,1.9c0.5,0.5,1.2,0.8,1.9,0.8h57.4c0.7,0,1.4-0.3,1.9-0.8c0.5-0.5,0.8-1.2,0.8-1.9
		v-8.8c-0.4,0-0.9,0.1-1.3,0.1C82.5,92.2,82,92.2,81.6,92.2L81.6,92.2z M29.6,20h2.7v16.2c0,0.7,0.6,1.4,1.3,1.4
		c0.7,0,1.4-0.6,1.4-1.4V20h2.7v27.5l-3.4-1.7c-0.4-0.2-0.8-0.2-1.2,0l-3.5,1.7V20z"/>
	<path class="st0" d="M36,82.1h30.6c-0.4-0.9-0.8-1.8-1.1-2.7H36c-0.7,0-1.3,0.6-1.3,1.4C34.7,81.5,35.3,82.1,36,82.1L36,82.1z"/>
	<path class="st0" d="M36,75.4h28.7c0-0.4-0.1-0.9-0.1-1.3c0-0.5,0-0.9,0.1-1.4H36c-0.7,0-1.3,0.6-1.3,1.4
		C34.7,74.7,35.3,75.4,36,75.4L36,75.4z"/>
	<path class="st0" d="M36,68.6h29.5c0.3-0.9,0.7-1.8,1.1-2.7H36c-0.7,0-1.3,0.6-1.3,1.4C34.7,68,35.3,68.6,36,68.6L36,68.6z"/>
	<path class="st0" d="M72.4,59.2H36c-0.7,0-1.4,0.6-1.4,1.4c0,0.7,0.6,1.3,1.4,1.3h33.3C70.3,60.8,71.3,59.9,72.4,59.2L72.4,59.2z"
		/>
	<path class="st0" d="M83,58.5c-4.1,0-8.1,1.6-11,4.5c-2.9,2.9-4.5,6.9-4.5,11c0,4.1,1.6,8.1,4.5,11c2.9,2.9,6.9,4.5,11,4.5
		s8.1-1.6,11-4.5c2.9-2.9,4.5-6.9,4.5-11c0-4.1-1.6-8.1-4.5-11C91,60.1,87.1,58.5,83,58.5L83,58.5z M83,86.8c-3.4,0-6.7-1.4-9.1-3.8
		c-2.4-2.4-3.8-5.7-3.8-9.1c0-3.4,1.4-6.7,3.8-9.1c2.4-2.4,5.7-3.8,9.1-3.8c3.4,0,6.7,1.4,9.1,3.8c2.4,2.4,3.8,5.7,3.8,9.1
		c0,3.4-1.4,6.7-3.8,9.1C89.6,85.5,86.4,86.8,83,86.8L83,86.8z"/>
	<path class="st0" d="M89.4,68.3l-9.6,9.8l-4.7-4.8c-0.5-0.5-1.4-0.5-1.9,0c-0.5,0.5-0.5,1.4,0,1.9l5.6,5.8c0.3,0.3,0.6,0.4,1,0.4
		c0.4,0,0.7-0.1,1-0.4l10.6-10.8h0c0.5-0.5,0.5-1.4,0-1.9C90.8,67.8,89.9,67.8,89.4,68.3L89.4,68.3z"/>
	<path class="st0" d="M74.8,97.6c0.4,0,0.7-0.1,1-0.4c0.3-0.3,0.4-0.6,0.4-1V95c0-0.8-0.3-1.6-0.9-2.2c-0.6-0.6-1.4-0.9-2.2-0.9
		h-2.5c-0.8,0-1.6,0.3-2.2,0.9l-1,1c-0.1,0.1-0.2,0.1-0.3,0.1c-0.1,0-0.2-0.1-0.3-0.1l-0.9-0.9c-0.6-0.6-1.4-0.9-2.2-0.9h-1.2v-3.2
		c0-1.1-0.4-2.2-1.2-3.1c-0.8-0.8-1.9-1.3-3-1.3c-1.1,0-2.2,0.5-3,1.3c-0.8,0.8-1.2,1.9-1.2,3.1c0,0.7,0.6,1.3,1.4,1.3
		c0.7,0,1.3-0.6,1.3-1.3c0-0.8,0.7-1.5,1.5-1.5s1.5,0.7,1.5,1.5v3.2h-1.1c-1.1,0-2.2,0.6-2.7,1.6c-0.6,1-0.6,2.2,0,3.2
		c0.6,1,1.6,1.6,2.7,1.6h0.7c0.8,0,1.6-0.3,2.2-0.9c0.6-0.6,0.9-1.4,0.9-2.2v-0.5h1.2c0.1,0,0.2,0,0.3,0.1l0.9,0.9
		c0.6,0.6,1.4,0.9,2.2,0.9c0.8,0,1.6-0.3,2.2-0.9l1-1h0c0.1-0.1,0.2-0.1,0.3-0.1H73c0.3,0,0.5,0.2,0.5,0.5v1.3
		C73.4,97,74,97.6,74.8,97.6L74.8,97.6z M59.6,95.1c0,0.3-0.2,0.5-0.5,0.5h-0.7c-0.2,0-0.4-0.2-0.4-0.5c0-0.2,0.2-0.4,0.4-0.5h1.1
		V95.1z"/>
</g>
</svg>
