<svg width="108" height="108" viewBox="0 0 108 108" fill="none" xmlns="http://www.w3.org/2000/svg">
<g clip-path="url(#clip0_1_2895)">
<path d="M46.1561 25.65C47.5881 25.65 48.9616 25.081 49.9741 24.0685C50.9872 23.0554 51.5561 21.6819 51.5561 20.25C51.5561 18.818 50.9872 17.4444 49.9741 16.4314C48.9616 15.4189 47.588 14.85 46.1561 14.85C44.7235 14.85 43.35 15.4189 42.3375 16.4314C41.325 17.4445 40.7561 18.818 40.7561 20.25C40.7561 21.6819 41.325 23.0555 42.3375 24.0685C43.35 25.081 44.7236 25.65 46.1561 25.65ZM46.1561 17.55C46.8721 17.55 47.5585 17.8344 48.0648 18.3407C48.5716 18.8469 48.8561 19.534 48.8561 20.25C48.8561 20.966 48.5716 21.653 48.0648 22.1593C47.5585 22.6655 46.8721 22.95 46.1561 22.95C45.4395 22.95 44.7531 22.6655 44.2468 22.1593C43.7406 21.653 43.4561 20.966 43.4561 20.25C43.4561 19.534 43.7406 18.8469 44.2468 18.3407C44.7531 17.8344 45.4395 17.55 46.1561 17.55Z" fill="#53C351"/>
<path d="M37.3819 31.7242V37.7992C37.3819 38.1572 37.5241 38.5007 37.7772 38.7538C38.0303 39.0069 38.3739 39.1492 38.7319 39.1492H53.5819C53.9399 39.1492 54.2828 39.0069 54.5365 38.7538C54.7896 38.5007 54.9319 38.1572 54.9319 37.7992V31.6771C54.9319 30.3199 54.2533 29.053 53.1226 28.3021C51.9299 27.4951 50.419 27.3191 49.0726 27.8296C47.2133 28.5341 45.1606 28.5341 43.3014 27.8296C41.955 27.3191 40.444 27.4951 39.2513 28.3021C38.0912 29.0549 37.3885 30.341 37.3819 31.7242ZM40.0819 31.6838C40.0825 31.2137 40.3181 30.7756 40.7093 30.5158C41.18 30.2012 41.7748 30.1355 42.3021 30.3404C44.7833 31.2818 47.5231 31.2818 50.0044 30.3404C50.5317 30.1343 51.1271 30.2 51.5972 30.5158C51.9883 30.7756 52.224 31.2137 52.2246 31.6838H53.5746L52.2246 31.7308V36.4558H40.0746L40.0819 31.6838Z" fill="#53C351"/>
<path d="M74.25 74.8702V83.6995H16.8742V2.69951H19.5742V32.3995C19.5742 32.8666 19.8165 33.3005 20.2137 33.5464C20.6102 33.7923 21.1068 33.8158 21.5251 33.6079L26.3851 31.205L31.1101 33.6012C31.5283 33.8146 32.028 33.7959 32.4288 33.5506C32.8295 33.3053 33.0742 32.8696 33.0742 32.3995V2.69951H74.25V9.44951H37.0841C36.3386 9.44951 35.7341 10.054 35.7341 10.7995C35.7341 11.545 36.3386 12.1495 37.0841 12.1495H74.25V38.5293C74.6954 38.5293 75.148 38.475 75.6 38.475C76.052 38.475 76.5046 38.475 76.95 38.5293V2.69951C76.95 1.98353 76.6655 1.29647 76.1593 0.790226C75.653 0.283984 74.966 -0.000488281 74.25 -0.000488281H16.8742C16.1582 -0.000488281 15.4712 0.283984 14.9649 0.790226C14.4587 1.29647 14.1742 1.98353 14.1742 2.69951V83.6995C14.1742 84.4155 14.4587 85.1025 14.9649 85.6088C15.4712 86.115 16.1582 86.3995 16.8742 86.3995H74.25C74.966 86.3995 75.653 86.115 76.1593 85.6088C76.6655 85.1025 76.95 84.4155 76.95 83.6995V74.8702C76.5046 74.8702 76.052 74.9244 75.6 74.9244C75.148 74.9244 74.6954 74.9244 74.25 74.8702V74.8702ZM22.2742 2.69997H24.9742V18.9C24.9742 19.6455 25.5787 20.25 26.3242 20.25C27.0697 20.25 27.6742 19.6455 27.6742 18.9V2.69997H30.3742V30.206L26.9992 28.4981C26.6189 28.3082 26.1711 28.3082 25.7909 28.4981L22.2742 30.2265V2.69997Z" fill="#53C351"/>
<path d="M28.6879 64.8H59.2781C58.8442 63.9309 58.4807 63.0275 58.1915 62.1H28.6874C27.9419 62.1 27.3374 62.7045 27.3374 63.45C27.3374 64.1955 27.9419 64.8 28.6874 64.8H28.6879Z" fill="#53C351"/>
<path d="M28.6879 58.05H57.4298C57.4298 57.6046 57.3755 57.152 57.3755 56.7C57.3755 56.248 57.3755 55.7953 57.4298 55.35H28.6879C27.9424 55.35 27.3379 55.9545 27.3379 56.7C27.3379 57.4455 27.9424 58.05 28.6879 58.05V58.05Z" fill="#53C351"/>
<path d="M28.6879 51.3H58.1919C58.4812 50.3724 58.8447 49.4691 59.2786 48.6H28.6883C27.9428 48.6 27.3383 49.2045 27.3383 49.95C27.3383 50.6955 27.9428 51.3 28.6883 51.3H28.6879Z" fill="#53C351"/>
<path d="M65.0561 41.85H28.6863C27.9408 41.85 27.3363 42.4545 27.3363 43.2C27.3363 43.9455 27.9408 44.55 28.6863 44.55H62.0306C62.9358 43.5411 63.95 42.6359 65.0549 41.85H65.0561Z" fill="#53C351"/>
<path d="M75.6 41.1758C71.4824 41.1758 67.5338 42.8115 64.6223 45.723C61.7107 48.6346 60.075 52.5834 60.075 56.7008C60.075 60.8182 61.7107 64.767 64.6223 67.6785C67.5338 70.59 71.4826 72.2258 75.6 72.2258C79.7174 72.2258 83.6662 70.59 86.5777 67.6785C89.4893 64.767 91.125 60.8182 91.125 56.7008C91.125 52.5834 89.4893 48.6346 86.5777 45.723C83.6662 42.8115 79.7174 41.1758 75.6 41.1758V41.1758ZM75.6 69.5258C72.1985 69.5258 68.9367 68.1746 66.5315 65.7692C64.1264 63.3639 62.775 60.1023 62.775 56.7008C62.775 53.2992 64.1262 50.0375 66.5315 47.6323C68.9369 45.2272 72.1985 43.8758 75.6 43.8758C79.0015 43.8758 82.2633 45.227 84.6684 47.6323C87.0736 50.0377 88.425 53.2992 88.425 56.7008C88.425 60.1023 87.0738 63.3641 84.6684 65.7692C82.2631 68.1744 79.0015 69.5258 75.6 69.5258V69.5258Z" fill="#53C351"/>
<path d="M82.06 51.03L72.455 60.8446L67.791 56.0791C67.2691 55.5458 66.4139 55.5367 65.8805 56.0587C65.3471 56.5806 65.3381 57.4358 65.86 57.9692L71.4896 63.7199C71.7439 63.9796 72.0916 64.1261 72.455 64.1261C72.8185 64.1261 73.1662 63.9796 73.4199 63.7199L83.9904 52.9199H83.991C84.5129 52.3865 84.5038 51.5313 83.9705 51.0093C83.4371 50.4874 82.5819 50.4965 82.06 51.0298V51.03Z" fill="#53C351"/>
<path d="M67.4198 80.3243C67.7778 80.3243 68.1207 80.182 68.3744 79.9289C68.6275 79.6758 68.7698 79.3322 68.7698 78.9742V77.7122C68.7698 76.8721 68.4359 76.0669 67.8422 75.4732C67.2486 74.8796 66.4434 74.5463 65.6039 74.5463H63.1467C62.3084 74.5439 61.5039 74.8766 60.9127 75.4708L59.9405 76.443C59.8525 76.5352 59.7308 76.5876 59.603 76.5876C59.4753 76.5876 59.3535 76.5352 59.2655 76.443L58.341 75.5185C57.7492 74.9242 56.9446 74.5909 56.1064 74.5933H54.9323V71.3467C54.9775 70.21 54.5581 69.1048 53.7704 68.2844C52.9827 67.4642 51.8943 67.0007 50.757 67.0007C49.6198 67.0007 48.5319 67.4642 47.7443 68.2844C46.956 69.1047 46.5365 70.2099 46.5823 71.3467C46.5823 72.0922 47.1868 72.6967 47.9323 72.6967C48.6778 72.6967 49.2823 72.0922 49.2823 71.3467C49.2823 70.5301 49.9441 69.8683 50.7607 69.8683C51.5773 69.8683 52.2391 70.5301 52.2391 71.3467V74.5933H51.0916C49.9603 74.5933 48.9154 75.1966 48.3499 76.1766C47.784 77.156 47.784 78.3625 48.3499 79.3419C48.9152 80.3219 49.9603 80.9252 51.0916 80.9252H51.7666C52.6061 80.9252 53.4112 80.5913 54.0049 79.9977C54.5986 79.4041 54.9325 78.5989 54.9325 77.7593V77.2935H56.1203C56.2439 77.2923 56.3632 77.3405 56.4512 77.4285L57.3757 78.3536C57.9694 78.9466 58.7739 79.2799 59.6135 79.2799C60.4524 79.2799 61.2575 78.9466 61.8512 78.3536L62.8233 77.3815H62.8227C62.9107 77.2935 63.0301 77.2446 63.1536 77.2465H65.6108C65.8681 77.2465 66.0766 77.455 66.0766 77.7123V78.9743C66.0766 79.7174 66.6769 80.3207 67.42 80.3243L67.4198 80.3243ZM52.2322 77.7526C52.2322 78.01 52.0237 78.2185 51.7663 78.2185H51.0913C50.8575 78.1902 50.6815 77.9913 50.6815 77.7556C50.6815 77.5206 50.8575 77.3217 51.0913 77.2934H52.2322V77.7526Z" fill="#53C351"/>
</g>
<defs>
<clipPath id="clip0_1_2895">
<rect width="108" height="108" fill="white"/>
</clipPath>
</defs>
</svg>
