<svg width="121" height="121" viewBox="0 0 121 121" fill="none" xmlns="http://www.w3.org/2000/svg">
<path d="M62.9891 84.1883H60.4996C56.8427 84.1815 53.3105 83.6211 49.983 82.5894C56.1782 79.773 60.4996 73.5306 60.4996 66.2941C60.4996 56.4271 52.472 48.4 42.6055 48.4C35.3678 48.4 29.1261 52.7214 26.309 58.9166C25.2773 55.5898 24.7168 52.0583 24.7107 48.4C24.7107 38.0367 29.1955 28.2621 36.889 21.5051L36.1301 25.2985C36.0477 25.7212 36.1301 26.1621 36.3739 26.5193C36.6176 26.894 36.9762 27.1378 37.3982 27.2181C37.5123 27.2357 37.6264 27.2519 37.7243 27.2519C38.5055 27.2519 39.1713 26.6982 39.3185 25.9507L40.8965 18.0595C40.9229 17.9798 40.9478 17.9008 40.9607 17.8164C41.0295 17.4477 40.9755 17.0932 40.8047 16.7766C40.7973 16.7631 40.7885 16.7495 40.7804 16.736C40.7534 16.6895 40.7318 16.6415 40.6994 16.5956C40.6845 16.5733 40.6642 16.5558 40.648 16.5348C40.6305 16.5125 40.6197 16.4876 40.6028 16.4653C40.5778 16.4342 40.5468 16.4113 40.5197 16.3822C40.5069 16.3687 40.4934 16.3559 40.4813 16.3424C40.1794 16.0358 39.7804 15.863 39.3509 15.863L31.2185 15.8637C30.3232 15.8637 29.5912 16.5963 29.5912 17.4896C29.5912 18.3843 30.3232 19.1169 31.2185 19.1169H34.6717C26.3165 26.4842 21.4583 37.1251 21.4583 48.4006C21.4583 54.0394 22.6703 59.398 24.833 64.2447C24.7554 64.9186 24.7121 65.6019 24.7121 66.2946C24.7121 76.1616 32.7398 84.1888 42.6063 84.1888C43.3004 84.1888 43.9838 84.1449 44.6562 84.0679C49.503 86.2307 54.8615 87.4426 60.5003 87.4426H62.9898C63.8845 87.4426 64.5988 86.71 64.5988 85.8153C64.5982 84.9206 63.8838 84.1887 62.9891 84.1887L62.9891 84.1883ZM28.7876 71.1262C28.2569 69.6123 27.9645 67.9871 27.9645 66.2936C27.9645 65.4165 28.0469 64.5597 28.1948 63.7244C29.4135 56.8729 35.4095 51.6528 42.6053 51.6528C50.6783 51.6528 57.2462 58.22 57.2462 66.2936C57.2462 73.4895 52.026 79.4868 45.1745 80.7042C44.3399 80.8521 43.4824 80.9344 42.6053 80.9344C40.9125 80.9344 39.2873 80.6421 37.7728 80.1107C33.5817 78.6421 30.2575 75.3166 28.7877 71.1261L28.7876 71.1262ZM71.1065 85.8151C71.1065 86.7097 70.3921 87.4424 69.4974 87.4424C68.5859 87.4424 67.8526 86.7097 67.8526 85.8151C67.8526 84.9204 68.5852 84.1891 69.4974 84.1891C70.3921 84.1885 71.1065 84.9204 71.1065 85.8151ZM49.8762 10.9835C49.8762 10.0888 50.6088 9.35754 51.5035 9.35754C52.3981 9.35754 53.1294 10.0895 53.1294 10.9835C53.1294 11.8781 52.3974 12.6108 51.5035 12.6108C50.6088 12.6108 49.8762 11.8781 49.8762 10.9835V10.9835ZM89.782 77.6804H86.3188C94.6754 70.317 99.5423 59.6825 99.5423 48.4001C99.5423 42.7607 98.3303 37.4028 96.1676 32.556C96.2453 31.8822 96.2885 31.2002 96.2885 30.5061C96.2885 20.6391 88.2609 12.612 78.3943 12.612C77.7002 12.612 77.0169 12.6558 76.343 12.7328C71.4984 10.57 66.1398 9.35865 60.501 9.35865H58.0116C57.1169 9.35865 56.3843 10.0906 56.3843 10.9846C56.3843 11.8793 57.1169 12.6119 58.0116 12.6119H60.501C64.158 12.618 67.6902 13.1784 71.0177 14.2101C64.8225 17.0258 60.501 23.2682 60.501 30.5059C60.501 40.3729 68.5287 48.4001 78.3952 48.4001C85.6322 48.4001 91.8746 44.0786 94.6904 37.8834C95.7222 41.2102 96.2826 44.7417 96.2894 48.4001C96.2894 58.6358 91.9112 68.2959 84.3906 75.0425L84.8524 73.1918C84.951 72.7677 84.8862 72.3295 84.6566 71.9548C84.4453 71.5969 84.0881 71.3363 83.6654 71.2242C82.8031 71.0115 81.9085 71.5476 81.6971 72.4112L80.1481 78.6071C80.0927 78.7273 80.0462 78.8522 80.0212 78.9825C79.9564 79.4052 80.0374 79.8461 80.2825 80.2033C80.2933 80.2189 80.3095 80.2303 80.3203 80.2459C80.3358 80.2688 80.3453 80.2952 80.3642 80.3174C80.6721 80.6901 81.1441 80.9353 81.6498 80.9353H89.7843C90.6776 80.9353 91.4102 80.2026 91.4102 79.308C91.4089 78.4133 90.6763 77.6807 89.7823 77.6807L89.782 77.6804ZM93.0358 30.5042C93.0358 31.3813 92.9534 32.2382 92.8056 33.0734C91.5881 39.9249 85.5922 45.1451 78.395 45.1451C70.3207 45.1451 63.7542 38.5772 63.7542 30.5042C63.7542 23.307 68.9743 17.3111 75.8272 16.0936C76.6618 15.9458 77.518 15.8634 78.395 15.8634C80.0878 15.8634 81.713 16.1558 83.2276 16.6865C87.4187 18.1571 90.7429 21.4812 92.2127 25.6716C92.7434 27.1861 93.0358 28.8107 93.0358 30.5042L93.0358 30.5042ZM43.4431 77.4488L51.5776 72.5683C52.0151 72.3057 52.3048 71.8539 52.3588 71.3455L53.263 62.8492C53.3251 62.2537 53.055 61.671 52.5594 61.3327L43.5222 55.1881C42.8754 54.7479 42.0091 54.8336 41.4568 55.3839L31.6943 65.1436C31.0596 65.7797 31.0596 66.8087 31.6943 67.4447L41.4547 77.2051C41.7693 77.5197 42.1853 77.6811 42.606 77.6811C42.8929 77.6804 43.1826 77.6048 43.4432 77.4488L43.4431 77.4488ZM48.3581 62.4123L43.8483 64.6675H36.7714L42.8037 58.6357L48.3581 62.4123ZM44.2319 67.92C44.4844 67.92 44.7342 67.8613 44.9597 67.7485L49.7214 65.3671L49.2076 70.1943L42.8579 74.0066L36.7721 67.9202L44.2319 67.92ZM75.9546 27.2519C75.9546 28.1493 76.6845 28.8779 77.5819 28.8779H79.2078C81.8985 28.8779 84.0883 31.0676 84.0883 33.7583C84.0883 36.1716 82.3267 38.1764 80.0215 38.5646V40.2655C80.0215 41.1649 79.2943 41.8914 78.3955 41.8914C77.4961 41.8914 76.7682 41.1642 76.7682 40.2655V38.6382H74.328C73.4286 38.6382 72.7007 37.911 72.7007 37.0122C72.7007 36.1129 73.4286 35.385 74.328 35.385H79.2078C80.1051 35.385 80.8351 34.6557 80.8351 33.759C80.8351 32.8617 80.1051 32.1317 79.2078 32.1317H77.5818C74.8911 32.1317 72.7014 29.942 72.7014 27.252C72.7014 24.8387 74.4644 22.8339 76.7682 22.445V20.7455C76.7682 19.8461 77.4961 19.1182 78.3955 19.1182C79.2949 19.1182 80.0214 19.846 80.0214 20.7455V22.3714H82.4616C83.3597 22.3714 84.0876 23.0993 84.0876 23.9987C84.0876 24.8981 83.3597 25.6246 82.4616 25.6246H77.5819C76.6838 25.6246 75.9546 26.3545 75.9546 27.2519V27.2519Z" fill="#53C351"/>
</svg>
