<?xml version="1.0" encoding="utf-8"?>
<!-- Generator: Adobe Illustrator 26.5.0, SVG Export Plug-In . SVG Version: 6.00 Build 0)  -->
<svg version="1.1" id="Layer_1" xmlns="http://www.w3.org/2000/svg" xmlns:xlink="http://www.w3.org/1999/xlink" x="0px" y="0px"
	 viewBox="0 0 121 121" style="enable-background:new 0 0 121 121;" xml:space="preserve">
<style type="text/css">
	.st0{fill:#53C351;}
</style>
<path class="st0" d="M63,96.3h-2.5c-3.7,0-7.2-0.6-10.5-1.6c6.2-2.8,10.5-9.1,10.5-16.3c0-9.9-8-17.9-17.9-17.9
	c-7.2,0-13.5,4.3-16.3,10.5c-1-3.3-1.6-6.9-1.6-10.5c0-10.4,4.5-20.1,12.2-26.9l-0.8,3.8c-0.1,0.4,0,0.9,0.2,1.2
	c0.2,0.4,0.6,0.6,1,0.7c0.1,0,0.2,0,0.3,0c0.8,0,1.4-0.6,1.6-1.3l1.6-7.9c0-0.1,0.1-0.2,0.1-0.2c0.1-0.4,0-0.7-0.2-1c0,0,0,0,0,0
	c0,0,0-0.1-0.1-0.1c0,0,0,0-0.1-0.1c0,0,0,0,0-0.1c0,0-0.1-0.1-0.1-0.1c0,0,0,0,0,0c-0.3-0.3-0.7-0.5-1.1-0.5l-8.1,0
	c-0.9,0-1.6,0.7-1.6,1.6c0,0.9,0.7,1.6,1.6,1.6h3.5c-8.4,7.4-13.2,18-13.2,29.3c0,5.6,1.2,11,3.4,15.8c-0.1,0.7-0.1,1.4-0.1,2
	c0,9.9,8,17.9,17.9,17.9c0.7,0,1.4,0,2-0.1c4.8,2.2,10.2,3.4,15.8,3.4H63c0.9,0,1.6-0.7,1.6-1.6C64.6,97,63.9,96.3,63,96.3L63,96.3z
	 M28.8,83.2c-0.5-1.5-0.8-3.1-0.8-4.8c0-0.9,0.1-1.7,0.2-2.6c1.2-6.9,7.2-12.1,14.4-12.1c8.1,0,14.6,6.6,14.6,14.6
	c0,7.2-5.2,13.2-12.1,14.4C44.3,93,43.5,93,42.6,93c-1.7,0-3.3-0.3-4.8-0.8C33.6,90.7,30.3,87.4,28.8,83.2L28.8,83.2z M71.1,97.9
	c0,0.9-0.7,1.6-1.6,1.6c-0.9,0-1.6-0.7-1.6-1.6c0-0.9,0.7-1.6,1.6-1.6C70.4,96.3,71.1,97,71.1,97.9z M49.9,23.1
	c0-0.9,0.7-1.6,1.6-1.6c0.9,0,1.6,0.7,1.6,1.6c0,0.9-0.7,1.6-1.6,1.6C50.6,24.7,49.9,24,49.9,23.1L49.9,23.1z M89.8,89.8h-3.5
	c8.4-7.4,13.2-18,13.2-29.3c0-5.6-1.2-11-3.4-15.8c0.1-0.7,0.1-1.4,0.1-2c0-9.9-8-17.9-17.9-17.9c-0.7,0-1.4,0-2.1,0.1
	c-4.8-2.2-10.2-3.4-15.8-3.4H58c-0.9,0-1.6,0.7-1.6,1.6c0,0.9,0.7,1.6,1.6,1.6h2.5c3.7,0,7.2,0.6,10.5,1.6
	c-6.2,2.8-10.5,9.1-10.5,16.3c0,9.9,8,17.9,17.9,17.9c7.2,0,13.5-4.3,16.3-10.5c1,3.3,1.6,6.9,1.6,10.5c0,10.2-4.4,19.9-11.9,26.6
	l0.5-1.9c0.1-0.4,0-0.9-0.2-1.2c-0.2-0.4-0.6-0.6-1-0.7c-0.9-0.2-1.8,0.3-2,1.2l-1.5,6.2C80.1,90.8,80,91,80,91.1
	c-0.1,0.4,0,0.9,0.3,1.2c0,0,0,0,0,0c0,0,0,0,0,0.1c0.3,0.4,0.8,0.6,1.3,0.6h8.1c0.9,0,1.6-0.7,1.6-1.6
	C91.4,90.5,90.7,89.8,89.8,89.8L89.8,89.8z M93,42.6c0,0.9-0.1,1.7-0.2,2.6c-1.2,6.9-7.2,12.1-14.4,12.1c-8.1,0-14.6-6.6-14.6-14.6
	c0-7.2,5.2-13.2,12.1-14.4c0.8-0.1,1.7-0.2,2.6-0.2c1.7,0,3.3,0.3,4.8,0.8c4.2,1.5,7.5,4.8,9,9C92.7,39.3,93,40.9,93,42.6L93,42.6z
	 M43.4,89.5l8.1-4.9c0.4-0.3,0.7-0.7,0.8-1.2l0.9-8.5c0.1-0.6-0.2-1.2-0.7-1.5l-9-6.1c-0.6-0.4-1.5-0.4-2.1,0.2l-9.8,9.8
	c-0.6,0.6-0.6,1.7,0,2.3l9.8,9.8c0.3,0.3,0.7,0.5,1.2,0.5C42.9,89.8,43.2,89.7,43.4,89.5L43.4,89.5z M48.4,74.5l-4.5,2.3h-7.1l6-6
	L48.4,74.5z M44.2,80c0.3,0,0.5-0.1,0.7-0.2l4.8-2.4l-0.5,4.8l-6.3,3.8L36.8,80L44.2,80z M76,39.4c0,0.9,0.7,1.6,1.6,1.6h1.6
	c2.7,0,4.9,2.2,4.9,4.9c0,2.4-1.8,4.4-4.1,4.8v1.7c0,0.9-0.7,1.6-1.6,1.6c-0.9,0-1.6-0.7-1.6-1.6v-1.6h-2.4c-0.9,0-1.6-0.7-1.6-1.6
	c0-0.9,0.7-1.6,1.6-1.6h4.9c0.9,0,1.6-0.7,1.6-1.6c0-0.9-0.7-1.6-1.6-1.6h-1.6c-2.7,0-4.9-2.2-4.9-4.9c0-2.4,1.8-4.4,4.1-4.8v-1.7
	c0-0.9,0.7-1.6,1.6-1.6s1.6,0.7,1.6,1.6v1.6h2.4c0.9,0,1.6,0.7,1.6,1.6s-0.7,1.6-1.6,1.6h-4.9C76.7,37.7,76,38.5,76,39.4L76,39.4z"
	/>
</svg>
