<svg width="21" height="15" viewBox="0 0 21 15" fill="none" xmlns="http://www.w3.org/2000/svg">
<path d="M20.0104 2.54643C19.2724 2.81267 18.486 2.98914 17.6661 3.07482C18.5095 2.66068 19.1533 2.00988 19.4559 1.22546C18.6695 1.61104 17.8013 1.88339 16.876 2.03538C16.1293 1.38153 15.065 0.976562 13.9041 0.976562C11.6516 0.976562 9.83815 2.48013 9.83815 4.32337C9.83815 4.58859 9.86544 4.8436 9.93242 5.08638C6.54995 4.95071 3.55695 3.61749 1.54632 1.58656C1.19529 2.08741 0.989393 2.66068 0.989393 3.27781C0.989393 4.4366 1.71501 5.4638 2.7966 6.05849C2.14293 6.04829 1.50166 5.89222 0.958384 5.64639C0.958384 5.65659 0.958384 5.66985 0.958384 5.68311C0.958384 7.30908 2.36868 8.65964 4.21806 8.97076C3.88688 9.04522 3.52594 9.08092 3.15135 9.08092C2.89087 9.08092 2.62791 9.06868 2.38108 9.0238C2.90824 10.3489 4.40412 11.323 6.1828 11.3546C4.79855 12.2451 3.04096 12.7817 1.13824 12.7817C0.804579 12.7817 0.484565 12.7695 0.164551 12.7358C1.9668 13.6916 4.10271 14.2373 6.40606 14.2373C13.8929 14.2373 17.9861 9.13703 17.9861 4.7161C17.9861 4.56819 17.9799 4.42538 17.9712 4.28359C18.7787 3.81232 19.4572 3.22375 20.0104 2.54643Z" fill="white"/>
</svg>
